<svg width="300" height="300" viewBox="0 0 300 300" fill="none" xmlns="http://www.w3.org/2000/svg">
<path d="M229.673 300L229.281 299.03H230.333L229.673 300ZM230.64 261.775L230.635 256.093L271.144 196.447H275.008L230.64 261.775ZM277.741 229.224V196.447H300L277.741 229.224Z" fill="#B9A1D0"/>
<path d="M0.486104 134.279H3.54977e-06C-0.00241485 137.449 1.23098 140.435 3.37127 143.08C9.80179 151 24.4815 156.38 41.5989 156.398C53.0065 156.398 63.3403 153.982 70.8591 150.048C74.6197 148.077 77.6814 145.731 79.8265 143.08C81.9668 140.435 83.1978 137.449 83.1978 134.279V122.606L83.072 122.432C79.9474 118.211 73.9643 115.712 66.5737 114.181C59.1807 112.664 50.3656 112.163 41.5989 112.16C34.5831 112.163 26.1381 113.575 18.5008 115.682C10.861 117.796 4.04601 120.584 0.23219 123.421L3.54977e-06 123.6V134.279H0.486104H0.969784V123.937H0.486104L0.737627 124.451C4.36039 121.743 11.1392 118.942 18.7136 116.856C26.2904 114.763 34.6847 113.363 41.5989 113.363C50.3342 113.363 59.1081 113.864 66.4117 115.369C73.7201 116.859 79.5436 119.396 82.3513 123.242L82.7117 122.838H82.2256V134.279C82.2256 137.052 81.1566 139.727 79.1373 142.232C73.084 149.755 58.5422 155.212 41.5989 155.197C30.3026 155.197 20.0752 152.794 12.716 148.943C9.03758 147.017 6.07745 144.728 4.06051 142.232C2.04114 139.727 0.972203 137.052 0.969784 134.279H0.486104" fill="#F8EF1E"/>
<path d="M0.246643 226.967C0.246643 238.852 18.6531 248.486 41.3594 248.486C64.0658 248.486 82.4747 238.852 82.4747 226.967C82.4747 215.085 64.0658 205.451 41.3594 205.451C18.6531 205.451 0.246643 215.085 0.246643 226.967" fill="#CC731B"/>
<path d="M0.244263 214.402V224.758C0.244263 233.607 10.4112 241.169 24.9531 244.495C28.409 245.28 32.0946 245.844 35.9592 246.095C37.7391 246.22 39.5433 246.283 41.374 246.283C47.1927 246.283 52.7598 245.656 57.7683 244.495C72.3078 241.169 79.8822 233.419 79.8822 224.57L82.4771 213.303C76.5545 205.239 58.8614 203.23 41.374 203.23C27.444 203.23 7.69293 208.879 0.244263 214.402" fill="#FBC10C"/>
<path d="M35.9592 246.095C32.0946 245.844 28.409 245.28 24.9531 244.495V234.153C28.4017 234.938 32.0946 235.485 35.9592 235.75V246.095Z" fill="#FADD2C"/>
<path d="M56.0343 244.829V203.791C67.9498 204.842 78.2256 207.511 82.4747 213.288V224.728C82.4747 233.905 71.4927 241.739 56.0343 244.829Z" fill="#EF9412"/>
<path d="M0.246643 214.417C0.246643 226.302 18.6531 235.932 41.3594 235.932C64.0658 235.932 82.4747 226.302 82.4747 214.417C82.4747 202.532 64.0658 192.898 41.3594 192.898C18.6531 192.898 0.246643 202.532 0.246643 214.417" fill="#FAD206"/>
<path d="M17.9276 231.29C10.907 228.633 5.66389 224.862 3.06653 220.611L36.1889 193.703C38.0922 193.566 39.9931 193.494 41.8383 193.494C48.634 193.494 55.3282 194.384 61.2798 196.071L17.9276 231.29Z" fill="#F8F67A"/>
<path d="M36.039 235.117C32.7452 234.873 29.5239 234.416 26.4453 233.762L69.2219 199.012C71.6717 200.167 73.841 201.478 75.6838 202.908L36.039 235.117" fill="#F8F67A"/>
<path d="M0.246643 212.04C0.246643 223.925 18.6531 233.559 41.3594 233.559C64.0658 233.559 82.4747 223.925 82.4747 212.04C82.4747 200.158 64.0658 190.524 41.3594 190.524C18.6531 190.524 0.246643 200.158 0.246643 212.04" fill="#CC731B"/>
<path d="M0.244263 199.474V209.831C0.244263 218.68 10.4112 226.242 24.9531 229.568C28.409 230.35 32.0946 230.917 35.9592 231.168C37.7391 231.293 39.5433 231.356 41.374 231.356C47.1927 231.356 52.7598 230.729 57.7683 229.568C72.3078 226.242 79.8822 218.492 79.8822 209.643L82.4771 198.376C76.5545 190.312 58.8614 188.303 41.374 188.303C27.444 188.303 7.69293 193.951 0.244263 199.474" fill="#FBC10C"/>
<path d="M35.9592 231.168C32.0946 230.917 28.409 230.35 24.9531 229.568V219.226C28.4017 220.011 32.0946 220.557 35.9592 220.823V231.168Z" fill="#FADD2C"/>
<path d="M56.0343 229.902V188.864C67.9498 189.915 78.2256 192.584 82.4747 198.361V209.801C82.4747 218.978 71.4927 226.812 56.0343 229.902Z" fill="#EF9412"/>
<path d="M0.246643 199.489C0.246643 211.374 18.6531 221.008 41.3594 221.008C64.0658 221.008 82.4747 211.374 82.4747 199.489C82.4747 187.604 64.0658 177.97 41.3594 177.97C18.6531 177.97 0.246643 187.604 0.246643 199.489" fill="#FAD206"/>
<path d="M17.9276 216.363C10.907 213.706 5.66389 209.935 3.06653 205.684L36.1889 178.776C38.0922 178.639 39.9931 178.567 41.8383 178.567C48.634 178.567 55.3282 179.457 61.2798 181.144L17.9276 216.363Z" fill="#F8F67A"/>
<path d="M36.039 220.19C32.7452 219.946 29.5239 219.489 26.4453 218.835L69.2219 184.085C71.6717 185.24 73.841 186.551 75.6838 187.984L36.039 220.19" fill="#F8F67A"/>
<path d="M0.246643 197.113C0.246643 208.998 18.6531 218.632 41.3594 218.632C64.0658 218.632 82.4747 208.998 82.4747 197.113C82.4747 185.231 64.0658 175.597 41.3594 175.597C18.6531 175.597 0.246643 185.231 0.246643 197.113" fill="#CC731B"/>
<path d="M0.244263 184.547V194.904C0.244263 203.752 10.4112 211.315 24.9531 214.64C28.409 215.426 32.0946 215.99 35.9592 216.241C37.7391 216.366 39.5433 216.429 41.374 216.429C47.1927 216.429 52.7598 215.802 57.7683 214.64C72.3078 211.315 79.8822 203.564 79.8822 194.716L82.4771 183.449C76.5545 175.385 58.8614 173.376 41.374 173.376C27.444 173.376 7.69293 179.024 0.244263 184.547" fill="#FBC10C"/>
<path d="M35.9592 216.241C32.0946 215.99 28.409 215.426 24.9531 214.64V204.296C28.4017 205.084 32.0946 205.63 35.9592 205.896V216.241Z" fill="#FADD2C"/>
<path d="M56.0343 214.975V173.937C67.9498 174.988 78.2256 177.657 82.4747 183.434V194.874C82.4747 204.051 71.4927 211.885 56.0343 214.975Z" fill="#EF9412"/>
<path d="M0.246643 184.562C0.246643 196.444 18.6531 206.078 41.3594 206.078C64.0658 206.078 82.4747 196.444 82.4747 184.562C82.4747 172.677 64.0658 163.043 41.3594 163.043C18.6531 163.043 0.246643 172.677 0.246643 184.562" fill="#FAD206"/>
<path d="M17.9276 201.436C10.907 198.779 5.66389 195.008 3.06653 190.757L36.1889 163.849C38.0922 163.712 39.9931 163.64 41.8383 163.64C48.634 163.64 55.3282 164.53 61.2798 166.217L17.9276 201.436Z" fill="#F8F67A"/>
<path d="M36.039 205.263C32.7452 205.018 29.5239 204.561 26.4453 203.908L69.2219 169.157C71.6717 170.313 73.841 171.623 75.6838 173.053L36.039 205.263" fill="#F8F67A"/>
<path d="M0.246643 182.186C0.246643 194.071 18.6531 203.705 41.3594 203.705C64.0658 203.705 82.4747 194.071 82.4747 182.186C82.4747 170.304 64.0658 160.67 41.3594 160.67C18.6531 160.67 0.246643 170.304 0.246643 182.186" fill="#CC731B"/>
<path d="M0.244263 169.62V179.977C0.244263 188.822 10.4112 196.388 24.9531 199.713C28.409 200.499 32.0946 201.063 35.9592 201.314C37.7391 201.439 39.5433 201.502 41.374 201.502C47.1927 201.502 52.7598 200.875 57.7683 199.713C72.3078 196.388 79.8822 188.637 79.8822 179.789L82.4771 168.522C76.5545 160.458 58.8614 158.449 41.374 158.449C27.444 158.449 7.69293 164.097 0.244263 169.62" fill="#FBC10C"/>
<path d="M35.9592 201.313C32.0946 201.063 28.409 200.498 24.9531 199.713V189.369C28.4017 190.157 32.0946 190.703 35.9592 190.969V201.313Z" fill="#FADD2C"/>
<path d="M56.0343 200.047V159.01C67.9498 160.061 78.2256 162.73 82.4747 168.506V179.947C82.4747 189.124 71.4927 196.958 56.0343 200.047Z" fill="#EF9412"/>
<path d="M0.246643 169.635C0.246643 181.517 18.6531 191.151 41.3594 191.151C64.0658 191.151 82.4747 181.517 82.4747 169.635C82.4747 157.75 64.0658 148.116 41.3594 148.116C18.6531 148.116 0.246643 157.75 0.246643 169.635" fill="#FAD206"/>
<path d="M17.9276 186.509C10.907 183.852 5.66389 180.081 3.06653 175.83L36.1889 148.922C38.0922 148.785 39.9931 148.713 41.8383 148.713C48.634 148.713 55.3282 149.603 61.2798 151.289L17.9276 186.509Z" fill="#F8F67A"/>
<path d="M36.039 190.336C32.7452 190.091 29.5239 189.634 26.4453 188.981L69.2219 154.23C71.6717 155.389 73.841 156.696 75.6838 158.126L36.039 190.336" fill="#F8F67A"/>
<path d="M0.246643 167.259C0.246643 179.144 18.6531 188.777 41.3594 188.777C64.0658 188.777 82.4747 179.144 82.4747 167.259C82.4747 155.377 64.0658 145.743 41.3594 145.743C18.6531 145.743 0.246643 155.377 0.246643 167.259" fill="#CC731B"/>
<path d="M0.244263 154.693V165.049C0.244263 173.895 10.4112 181.46 24.9531 184.786C28.409 185.571 32.0946 186.135 35.9592 186.386C37.7391 186.512 39.5433 186.574 41.374 186.574C47.1927 186.574 52.7598 185.947 57.7683 184.786C72.3078 181.46 79.8822 173.707 79.8822 164.861L82.4771 153.594C76.5545 145.531 58.8614 143.521 41.374 143.521C27.444 143.521 7.69293 149.17 0.244263 154.693" fill="#FBC10C"/>
<path d="M35.9592 186.386C32.0946 186.135 28.409 185.571 24.9531 184.786V174.442C28.4017 175.23 32.0946 175.776 35.9592 176.042V186.386Z" fill="#FADD2C"/>
<path d="M56.0343 185.12V144.083C67.9498 145.134 78.2256 147.803 82.4747 153.579V165.02C82.4747 174.197 71.4927 182.031 56.0343 185.12Z" fill="#EF9412"/>
<path d="M0.246643 154.708C0.246643 166.59 18.6531 176.224 41.3594 176.224C64.0658 176.224 82.4747 166.59 82.4747 154.708C82.4747 142.823 64.0658 133.189 41.3594 133.189C18.6531 133.189 0.246643 142.823 0.246643 154.708" fill="#FAD206"/>
<path d="M17.9276 171.582C10.907 168.925 5.66389 165.154 3.06653 160.903L36.1889 133.995C38.0922 133.858 39.9931 133.786 41.8383 133.786C48.634 133.786 55.3282 134.676 61.2798 136.362L17.9276 171.582Z" fill="#F8F67A"/>
<path d="M36.039 175.409C32.7452 175.164 29.5239 174.707 26.4453 174.054L69.2219 139.303C71.6717 140.462 73.841 141.769 75.6838 143.199L36.039 175.409" fill="#F8F67A"/>
<path d="M0.246643 152.332C0.246643 164.217 18.6531 173.85 41.3594 173.85C64.0658 173.85 82.4747 164.217 82.4747 152.332C82.4747 140.45 64.0658 130.816 41.3594 130.816C18.6531 130.816 0.246643 140.45 0.246643 152.332" fill="#CC731B"/>
<path d="M0.244263 139.766V150.122C0.244263 158.968 10.4112 166.533 24.9531 169.859C28.409 170.644 32.0946 171.208 35.9592 171.459C37.7391 171.584 39.5433 171.647 41.374 171.647C47.1927 171.647 52.7598 171.02 57.7683 169.859C72.3078 166.533 79.8822 158.78 79.8822 149.931L82.4771 138.667C76.5545 130.604 58.8614 128.594 41.374 128.594C27.444 128.594 7.69293 134.243 0.244263 139.766" fill="#FBC10C"/>
<path d="M35.9592 171.459C32.0946 171.208 28.409 170.644 24.9531 169.859V159.517C28.4017 160.303 32.0946 160.849 35.9592 161.115V171.459Z" fill="#FADD2C"/>
<path d="M56.0343 170.193V129.156C67.9498 130.207 78.2256 132.876 82.4747 138.652V150.093C82.4747 159.27 71.4927 167.103 56.0343 170.193Z" fill="#EF9412"/>
<path d="M0.246643 139.781C0.246643 151.663 18.6531 161.297 41.3594 161.297C64.0658 161.297 82.4747 151.663 82.4747 139.781C82.4747 127.896 64.0658 118.262 41.3594 118.262C18.6531 118.262 0.246643 127.896 0.246643 139.781" fill="#FAD206"/>
<path d="M17.9276 156.655C10.907 153.998 5.66389 150.227 3.06653 145.976L36.1889 119.068C38.0922 118.931 39.9931 118.859 41.8383 118.859C48.634 118.859 55.3282 119.749 61.2798 121.435L17.9276 156.655Z" fill="#F8F67A"/>
<path d="M36.039 160.482C32.7452 160.237 29.5239 159.78 26.4453 159.126L69.2219 124.373C71.6717 125.531 73.841 126.842 75.6838 128.272L36.039 160.482" fill="#F8F67A"/>
<path d="M0.246643 137.404C0.246643 149.289 18.6531 158.923 41.3594 158.923C64.0658 158.923 82.4747 149.289 82.4747 137.404C82.4747 125.519 64.0658 115.888 41.3594 115.888C18.6531 115.888 0.246643 125.519 0.246643 137.404" fill="#CC731B"/>
<path d="M0.244263 124.839V135.195C0.244263 144.044 10.4112 151.606 24.9531 154.932C28.409 155.717 32.0946 156.281 35.9592 156.532C37.7391 156.657 39.5433 156.72 41.374 156.72C47.1927 156.72 52.7598 156.093 57.7683 154.932C72.3078 151.606 79.8822 143.853 79.8822 135.004L82.4771 123.74C76.5545 115.676 58.8614 113.667 41.374 113.667C27.444 113.667 7.69293 119.316 0.244263 124.839" fill="#FBC10C"/>
<path d="M35.9592 156.532C32.0946 156.281 28.409 155.717 24.9531 154.932V144.59C28.4017 145.376 32.0946 145.922 35.9592 146.188V156.532Z" fill="#FADD2C"/>
<path d="M56.0343 155.266V114.228C67.9498 115.279 78.2256 117.948 82.4747 123.725V135.165C82.4747 144.342 71.4927 152.176 56.0343 155.266Z" fill="#EF9412"/>
<path d="M0.246643 124.854C0.246643 136.739 18.6531 146.37 41.3594 146.37C64.0658 146.37 82.4747 136.739 82.4747 124.854C82.4747 112.969 64.0658 103.335 41.3594 103.335C18.6531 103.335 0.246643 112.969 0.246643 124.854" fill="#FAD206"/>
<path d="M17.9276 141.727C10.907 139.07 5.66389 135.3 3.06653 131.048L36.1889 104.14C38.0922 104 39.9931 103.932 41.8383 103.932C48.634 103.932 55.3282 104.821 61.2798 106.508L17.9276 141.727Z" fill="#F8F67A"/>
<path d="M36.039 145.555C32.7452 145.31 29.5239 144.853 26.4453 144.199L69.2219 109.449C71.6717 110.604 73.841 111.915 75.6838 113.345L36.039 145.555" fill="#F8F67A"/>
<path d="M0.246643 122.477C0.246643 134.362 18.6531 143.996 41.3594 143.996C64.0658 143.996 82.4747 134.362 82.4747 122.477C82.4747 110.592 64.0658 100.961 41.3594 100.961C18.6531 100.961 0.246643 110.592 0.246643 122.477" fill="#CC731B"/>
<path d="M0.244263 109.911V120.268C0.244263 129.117 10.4112 136.679 24.9531 140.005C28.409 140.79 32.0946 141.354 35.9592 141.605C37.7391 141.73 39.5433 141.793 41.374 141.793C47.1927 141.793 52.7598 141.166 57.7683 140.005C72.3078 136.679 79.8822 128.929 79.8822 120.077L82.4771 108.813C76.5545 100.749 58.8614 98.7399 41.374 98.7399C27.444 98.7399 7.69293 104.388 0.244263 109.911" fill="#FBC10C"/>
<path d="M35.9592 141.605C32.0946 141.354 28.409 140.79 24.9531 140.005V129.663C28.4017 130.448 32.0946 130.995 35.9592 131.26V141.605Z" fill="#FADD2C"/>
<path d="M56.0343 140.339V99.3013C67.9498 100.352 78.2256 103.021 82.4747 108.798V120.238C82.4747 129.415 71.4927 137.249 56.0343 140.339Z" fill="#EF9412"/>
<path d="M0.246643 109.927C0.246643 121.812 18.6531 131.443 41.3594 131.443C64.0658 131.443 82.4747 121.812 82.4747 109.927C82.4747 98.0416 64.0658 88.4076 41.3594 88.4076C18.6531 88.4076 0.246643 98.0416 0.246643 109.927" fill="#FAD206"/>
<path d="M17.9276 126.8C10.907 124.143 5.66389 120.373 3.06653 116.121L36.1889 89.2135C38.0922 89.0732 39.9931 89.0046 41.8383 89.0046C48.634 89.0046 55.3282 89.8942 61.2798 91.581L17.9276 126.8Z" fill="#F8F67A"/>
<path d="M36.039 130.628C32.7452 130.383 29.5239 129.926 26.4453 129.272L69.2219 94.5217C71.6717 95.6771 73.841 96.9876 75.6838 98.4177L36.039 130.628" fill="#F8F67A"/>
<path d="M0.246643 107.55C0.246643 119.435 18.6531 129.069 41.3594 129.069C64.0658 129.069 82.4747 119.435 82.4747 107.55C82.4747 95.6651 64.0658 86.034 41.3594 86.034C18.6531 86.034 0.246643 95.6651 0.246643 107.55" fill="#CC731B"/>
<path d="M0.244263 94.9843V105.341C0.244263 114.19 10.4112 121.752 24.9531 125.078C28.409 125.863 32.0946 126.427 35.9592 126.678C37.7391 126.803 39.5433 126.866 41.374 126.866C47.1927 126.866 52.7598 126.239 57.7683 125.078C72.3078 121.752 79.8822 114.002 79.8822 105.15L82.4771 93.8858C76.5545 85.8221 58.8614 83.8129 41.374 83.8129C27.444 83.8129 7.69293 89.4613 0.244263 94.9843" fill="#FBC10C"/>
<path d="M35.9592 126.678C32.0946 126.427 28.409 125.863 24.9531 125.078V106.093H35.9592V126.678Z" fill="#FADD2C"/>
<path d="M56.0343 125.412V84.3742C67.9498 85.4251 78.2256 88.0941 82.4747 93.8709V105.311C82.4747 114.488 71.4927 122.322 56.0343 125.412Z" fill="#EF9412"/>
<path d="M0.246643 94.9993C0.246643 106.884 18.6555 116.515 41.3594 116.515C64.0658 116.515 82.4747 106.884 82.4747 94.9993C82.4747 83.1143 64.0658 73.4803 41.3594 73.4803C18.6555 73.4803 0.246643 83.1143 0.246643 94.9993" fill="#FAD206"/>
<path d="M17.9276 111.873C10.907 109.219 5.66389 105.442 3.06653 101.194L36.1889 74.2864C38.0922 74.1461 39.9931 74.0775 41.8383 74.0775C48.634 74.0775 55.3282 74.9671 61.2798 76.6539L17.9276 111.873Z" fill="#F8F67A"/>
<path d="M36.039 115.7C32.7452 115.455 29.5239 114.999 26.4453 114.345L69.2219 79.5944C71.6717 80.7498 73.841 82.0603 75.6863 83.4904L36.039 115.7" fill="#F8F67A"/>
<path d="M100.651 213.198C100.651 225.08 119.06 234.714 141.767 234.714C164.473 234.714 182.879 225.08 182.879 213.198C182.879 201.313 164.473 191.679 141.767 191.679C119.06 191.679 100.651 201.313 100.651 213.198Z" fill="#CC731B"/>
<path d="M100.649 200.633V210.986C100.649 219.835 110.818 227.397 125.358 230.723C128.814 231.508 132.502 232.072 136.364 232.323C138.144 232.449 139.948 232.511 141.779 232.511C147.6 232.511 153.167 231.884 158.173 230.723C172.715 227.397 180.289 219.647 180.289 210.798L182.882 199.531C176.957 191.468 159.266 189.461 141.779 189.461C127.849 189.461 108.098 195.11 100.649 200.633" fill="#FBC10C"/>
<path d="M156.439 231.06V190.019C168.357 191.07 178.63 193.739 182.879 199.516V210.959C182.879 220.136 171.897 227.967 156.439 231.06Z" fill="#EF9412"/>
<path d="M100.651 200.645C100.651 212.53 119.06 222.164 141.767 222.164C164.473 222.164 182.879 212.53 182.879 200.645C182.879 188.763 164.473 179.129 141.767 179.129C119.06 179.129 100.651 188.763 100.651 200.645Z" fill="#FAD206"/>
<path d="M118.332 217.518C111.314 214.861 106.069 211.091 103.471 206.839L136.594 179.932C138.504 179.795 140.403 179.726 142.245 179.726C149.041 179.726 155.735 180.613 161.684 182.299L118.332 217.518Z" fill="#F8F67A"/>
<path d="M136.446 221.346C133.15 221.101 129.931 220.647 126.852 219.99L169.629 185.24C172.076 186.398 174.246 187.706 176.091 189.139L136.446 221.346Z" fill="#F8F67A"/>
<path d="M100.651 198.271C100.651 210.153 119.06 219.787 141.767 219.787C164.473 219.787 182.879 210.153 182.879 198.271C182.879 186.386 164.473 176.752 141.767 176.752C119.06 176.752 100.651 186.386 100.651 198.271Z" fill="#CC731B"/>
<path d="M100.649 185.706V196.059C100.649 204.908 110.818 212.47 125.358 215.796C128.814 216.581 132.502 217.145 136.364 217.396C138.144 217.521 139.948 217.584 141.779 217.584C147.6 217.584 153.167 216.957 158.173 215.796C172.715 212.47 180.289 204.72 180.289 195.871L182.882 184.604C176.957 176.54 159.266 174.531 141.779 174.531C127.849 174.531 108.098 180.183 100.649 185.706" fill="#FBC10C"/>
<path d="M156.439 216.133V175.092C168.357 176.143 178.63 178.812 182.879 184.589V196.032C182.879 205.209 171.897 213.04 156.439 216.133Z" fill="#EF9412"/>
<path d="M100.651 185.717C100.651 197.602 119.06 207.236 141.767 207.236C164.473 207.236 182.879 197.602 182.879 185.717C182.879 173.835 164.473 164.202 141.767 164.202C119.06 164.202 100.651 173.835 100.651 185.717Z" fill="#FAD206"/>
<path d="M118.332 202.591C111.314 199.934 106.069 196.163 103.471 191.912L136.594 165.005C138.504 164.867 140.403 164.799 142.245 164.799C149.041 164.799 155.735 165.685 161.684 167.372L118.332 202.591Z" fill="#F8F67A"/>
<path d="M136.446 206.421C133.15 206.174 129.931 205.72 126.852 205.066L169.629 170.313C172.076 171.471 174.246 172.779 176.091 174.212L136.446 206.421" fill="#F8F67A"/>
<path d="M100.651 183.344C100.651 195.226 119.06 204.86 141.767 204.86C164.473 204.86 182.879 195.226 182.879 183.344C182.879 171.459 164.473 161.825 141.767 161.825C119.06 161.825 100.651 171.459 100.651 183.344Z" fill="#CC731B"/>
<path d="M100.649 170.779V181.132C100.649 189.981 110.818 197.543 125.358 200.869C128.814 201.654 132.502 202.218 136.364 202.469C138.144 202.594 139.948 202.657 141.779 202.657C147.6 202.657 153.167 202.03 158.173 200.869C172.715 197.543 180.289 189.793 180.289 180.944L182.882 169.68C176.957 161.613 159.266 159.604 141.779 159.604C127.849 159.604 108.098 165.256 100.649 170.779" fill="#FBC10C"/>
<path d="M156.439 201.206V160.165C168.357 161.216 178.63 163.885 182.879 169.662V181.105C182.879 190.282 171.897 198.113 156.439 201.206Z" fill="#EF9412"/>
<path d="M100.651 170.79C100.651 182.675 119.06 192.309 141.767 192.309C164.473 192.309 182.879 182.675 182.879 170.79C182.879 158.908 164.473 149.274 141.767 149.274C119.06 149.274 100.651 158.908 100.651 170.79Z" fill="#FAD206"/>
<path d="M118.332 187.664C111.314 185.01 106.069 181.236 103.471 176.985L136.594 150.077C138.504 149.94 140.403 149.871 142.245 149.871C149.041 149.871 155.735 150.758 161.684 152.445L118.332 187.664Z" fill="#F8F67A"/>
<path d="M136.446 191.494C133.15 191.247 129.931 190.793 126.852 190.139L169.629 155.386C172.076 156.544 174.246 157.852 176.091 159.285L136.446 191.494" fill="#F8F67A"/>
<path d="M100.651 168.417C100.651 180.299 119.06 189.933 141.767 189.933C164.473 189.933 182.879 180.299 182.879 168.417C182.879 156.532 164.473 146.898 141.767 146.898C119.06 146.898 100.651 156.532 100.651 168.417Z" fill="#CC731B"/>
<path d="M100.649 155.848V166.205C100.649 175.054 110.818 182.616 125.358 185.942C128.814 186.727 132.502 187.291 136.364 187.542C138.144 187.667 139.948 187.73 141.779 187.73C147.6 187.73 153.167 187.103 158.173 185.942C172.715 182.616 180.289 174.866 180.289 166.017L182.882 154.753C176.957 146.686 159.266 144.677 141.779 144.677C127.849 144.677 108.098 150.325 100.649 155.848" fill="#FBC10C"/>
<path d="M136.364 186.739H129.404C128.025 186.509 126.673 186.24 125.358 185.942V175.6C128.806 176.385 132.502 176.932 136.364 177.197V186.739Z" fill="#FADD2C"/>
<path d="M156.439 186.279V145.238C168.357 146.289 178.63 148.958 182.879 154.735V166.178C182.879 175.355 171.897 183.186 156.439 186.279Z" fill="#EF9412"/>
<path d="M100.651 155.863C100.651 167.748 119.06 177.382 141.767 177.382C164.473 177.382 182.879 167.748 182.879 155.863C182.879 143.981 164.473 134.347 141.767 134.347C119.06 134.347 100.651 143.981 100.651 155.863Z" fill="#FAD206"/>
<path d="M118.332 172.737C111.314 170.083 106.069 166.309 103.471 162.058L136.594 135.15C138.504 135.013 140.403 134.944 142.245 134.944C149.041 134.944 155.735 135.831 161.684 137.518L118.332 172.737Z" fill="#F8F67A"/>
<path d="M136.446 176.564C133.15 176.322 129.931 175.866 126.852 175.212L169.629 140.458C172.076 141.617 174.246 142.924 176.091 144.357L136.446 176.564Z" fill="#F8F67A"/>
<path d="M100.651 153.49C100.651 165.372 119.06 175.006 141.767 175.006C164.473 175.006 182.879 165.372 182.879 153.49C182.879 141.605 164.473 131.971 141.767 131.971C119.06 131.971 100.651 141.605 100.651 153.49Z" fill="#CC731B"/>
<path d="M100.649 140.921V151.278C100.649 160.126 110.818 167.688 125.358 171.014C128.814 171.799 132.502 172.364 136.364 172.614C138.144 172.74 139.948 172.802 141.779 172.802C147.6 172.802 153.167 172.175 158.173 171.014C172.715 167.688 180.289 159.938 180.289 151.089L182.882 139.822C176.957 131.759 159.266 129.753 141.779 129.753C127.849 129.753 108.098 135.398 100.649 140.921" fill="#FBC10C"/>
<path d="M136.364 172.615C132.502 172.364 128.814 171.799 125.358 171.014V160.673C128.806 161.461 132.502 162.004 136.364 162.27V172.615Z" fill="#FADD2C"/>
<path d="M156.439 171.352V130.311C168.357 131.362 178.63 134.031 182.879 139.808V151.251C182.879 160.428 171.897 168.259 156.439 171.352Z" fill="#EF9412"/>
<path d="M100.651 140.936C100.651 152.821 119.06 162.455 141.767 162.455C164.473 162.455 182.879 152.821 182.879 140.936C182.879 129.054 164.473 119.42 141.767 119.42C119.06 119.42 100.651 129.054 100.651 140.936Z" fill="#FAD206"/>
<path d="M118.332 157.81C111.314 155.156 106.069 151.382 103.471 147.131L136.594 120.223C138.504 120.086 140.403 120.017 142.245 120.017C149.041 120.017 155.735 120.904 161.684 122.591L118.332 157.81Z" fill="#F8F67A"/>
<path d="M136.446 161.637C133.15 161.392 129.931 160.939 126.852 160.285L169.629 125.531C172.076 126.69 174.246 127.997 176.091 129.43L136.446 161.637Z" fill="#F8F67A"/>
<path d="M100.651 138.563C100.651 150.445 119.06 160.079 141.767 160.079C164.473 160.079 182.879 150.445 182.879 138.563C182.879 126.678 164.473 117.044 141.767 117.044C119.06 117.044 100.651 126.678 100.651 138.563Z" fill="#CC731B"/>
<path d="M100.649 125.994V136.351C100.649 145.199 110.818 152.761 125.358 156.087C128.814 156.872 132.502 157.437 136.364 157.687C138.144 157.813 139.948 157.875 141.779 157.875C147.6 157.875 153.167 157.248 158.173 156.087C172.715 152.761 180.289 145.011 180.289 136.162L182.882 124.895C176.957 116.832 159.266 114.826 141.779 114.826C127.849 114.826 108.098 120.471 100.649 125.994" fill="#FBC10C"/>
<path d="M136.364 157.687C132.502 157.437 128.814 156.872 125.358 156.087V145.746C128.806 146.534 132.502 147.077 136.364 147.343V157.687Z" fill="#FADD2C"/>
<path d="M156.439 156.424V115.384C168.357 116.434 178.63 119.103 182.879 124.88V136.323C182.879 145.501 171.897 153.331 156.439 156.424Z" fill="#EF9412"/>
<path d="M100.651 126.009C100.651 137.894 119.06 147.528 141.767 147.528C164.473 147.528 182.879 137.894 182.879 126.009C182.879 114.127 164.473 104.49 141.767 104.49C119.06 104.49 100.651 114.127 100.651 126.009Z" fill="#FAD206"/>
<path d="M118.332 142.883C111.314 140.229 106.069 136.455 103.471 132.204L136.594 105.296C138.504 105.159 140.403 105.09 142.245 105.09C149.041 105.09 155.735 105.977 161.684 107.664L118.332 142.883Z" fill="#F8F67A"/>
<path d="M136.446 146.71C133.15 146.465 129.931 146.011 126.852 145.357L169.629 110.604C172.076 111.762 174.246 113.07 176.091 114.503L136.446 146.71Z" fill="#F8F67A"/>
<path d="M100.651 123.635C100.651 135.517 119.06 145.151 141.767 145.151C164.473 145.151 182.879 135.517 182.879 123.635C182.879 111.75 164.473 102.116 141.767 102.116C119.06 102.116 100.651 111.75 100.651 123.635Z" fill="#CC731B"/>
<path d="M100.649 111.067V121.423C100.649 130.272 110.818 137.834 125.358 141.16C128.814 141.945 132.502 142.51 136.364 142.76C138.144 142.886 139.948 142.948 141.779 142.948C147.6 142.948 153.167 142.321 158.173 141.16C172.715 137.834 180.289 130.084 180.289 121.235L182.882 109.971C176.957 101.905 159.266 99.8984 141.779 99.8984C127.849 99.8984 108.098 105.544 100.649 111.067" fill="#FBC10C"/>
<path d="M136.364 142.76C132.502 142.51 128.814 141.945 125.358 141.16V130.819C128.806 131.607 132.502 132.15 136.364 132.416V142.76Z" fill="#FADD2C"/>
<path d="M156.439 141.497V100.457C168.357 101.507 178.63 104.176 182.879 109.953V121.396C182.879 130.574 171.897 138.404 156.439 141.497Z" fill="#EF9412"/>
<path d="M100.651 111.082C100.651 122.967 119.06 132.601 141.767 132.601C164.473 132.601 182.879 122.967 182.879 111.082C182.879 99.1999 164.473 89.566 141.767 89.566C119.06 89.566 100.651 99.1999 100.651 111.082Z" fill="#FAD206"/>
<path d="M118.332 127.956C111.314 125.301 106.069 121.528 103.471 117.277L136.594 90.369C138.504 90.2316 140.403 90.1601 142.245 90.1601C149.041 90.1601 155.735 91.0497 161.684 92.7365L118.332 127.956Z" fill="#F8F67A"/>
<path d="M136.446 131.783C133.15 131.538 129.931 131.084 126.852 130.43L169.629 95.6771C172.076 96.8354 174.246 98.143 176.091 99.5761L136.446 131.783Z" fill="#F8F67A"/>
<path d="M100.651 108.708C100.651 120.59 119.06 130.224 141.767 130.224C164.473 130.224 182.879 120.59 182.879 108.708C182.879 96.8234 164.473 87.1894 141.767 87.1894C119.06 87.1894 100.651 96.8234 100.651 108.708Z" fill="#CC731B"/>
<path d="M100.649 96.1396V106.496C100.649 115.345 110.818 122.907 125.358 126.233C128.814 127.018 132.502 127.582 136.364 127.833C138.144 127.958 139.948 128.021 141.779 128.021C147.6 128.021 153.167 127.394 158.173 126.233C172.715 122.907 180.289 115.157 180.289 106.308L182.882 95.044C176.957 86.9774 159.266 84.9711 141.779 84.9711C127.849 84.9711 108.098 90.6166 100.649 96.1396" fill="#FBC10C"/>
<path d="M136.364 127.833C132.502 127.582 128.814 127.018 125.358 126.233V115.891C128.806 116.679 132.502 117.223 136.364 117.489V127.833Z" fill="#FADD2C"/>
<path d="M156.439 126.57V85.5295C168.357 86.5804 178.63 89.2493 182.879 95.0262V106.469C182.879 115.647 171.897 123.477 156.439 126.57Z" fill="#EF9412"/>
<path d="M100.651 96.1546C100.651 108.04 119.06 117.674 141.767 117.674C164.473 117.674 182.879 108.04 182.879 96.1546C182.879 84.2726 164.473 74.6386 141.767 74.6386C119.06 74.6386 100.651 84.2726 100.651 96.1546Z" fill="#FAD206"/>
<path d="M118.332 113.028C111.314 110.374 106.069 106.601 103.471 102.349L136.594 75.4416C138.504 75.3043 140.403 75.2327 142.245 75.2327C149.041 75.2327 155.735 76.1223 161.684 77.8091L118.332 113.028Z" fill="#F8F67A"/>
<path d="M136.446 116.856C133.15 116.611 129.931 116.157 126.852 115.503L169.629 80.75C172.076 81.9084 174.246 83.216 176.091 84.649L136.446 116.856Z" fill="#F8F67A"/>
<path d="M100.651 93.7782C100.651 105.663 119.06 115.297 141.767 115.297C164.473 115.297 182.879 105.663 182.879 93.7782C182.879 81.8962 164.473 72.2623 141.767 72.2623C119.06 72.2623 100.651 81.8962 100.651 93.7782Z" fill="#CC731B"/>
<path d="M100.649 81.2126V91.569C100.649 100.418 110.818 107.98 125.358 111.306C128.814 112.091 132.502 112.655 136.364 112.906C138.144 113.031 139.948 113.094 141.779 113.094C147.6 113.094 153.167 112.467 158.173 111.306C172.715 107.98 180.289 100.23 180.289 91.381L182.882 80.1169C176.957 72.0503 159.266 70.044 141.779 70.044C127.849 70.044 108.098 75.6895 100.649 81.2126" fill="#FBC10C"/>
<path d="M136.364 112.906C132.502 112.655 128.814 112.091 125.358 111.306V100.964C128.806 101.749 132.502 102.296 136.364 102.562V112.906Z" fill="#FADD2C"/>
<path d="M156.439 111.643V70.6022C168.357 71.653 178.63 74.322 182.879 80.0988V91.542C182.879 100.719 171.897 108.55 156.439 111.643Z" fill="#EF9412"/>
<path d="M100.651 81.2275C100.651 93.1125 119.06 102.746 141.767 102.746C164.473 102.746 182.879 93.1125 182.879 81.2275C182.879 69.3454 164.473 59.7115 141.767 59.7115C119.06 59.7115 100.651 69.3454 100.651 81.2275Z" fill="#FAD206"/>
<path d="M118.332 98.1011C111.314 95.447 106.069 91.6734 103.471 87.4222L136.594 60.5145C138.504 60.3772 140.403 60.3057 142.245 60.3057C149.041 60.3057 155.735 61.1953 161.684 62.882L118.332 98.1011Z" fill="#F8F67A"/>
<path d="M136.446 101.931C133.15 101.687 129.931 101.23 126.852 100.576L169.629 65.8228C172.076 66.9811 174.246 68.2888 176.091 69.7218L136.446 101.931" fill="#F8F67A"/>
<path d="M100.651 78.8509C100.651 90.7359 119.06 100.37 141.767 100.37C164.473 100.37 182.879 90.7359 182.879 78.8509C182.879 66.9689 164.473 57.335 141.767 57.335C119.06 57.335 100.651 66.9689 100.651 78.8509Z" fill="#CC731B"/>
<path d="M100.649 66.2856V76.642C100.649 85.4908 110.818 93.0529 125.358 96.3786C128.814 97.1638 132.502 97.7282 136.364 97.9789C138.144 98.1043 139.948 98.167 141.779 98.167C147.6 98.167 153.167 97.54 158.173 96.3786C172.715 93.0529 180.289 85.3028 180.289 76.454L182.882 65.1899C176.957 57.1233 159.266 55.117 141.779 55.117C127.849 55.117 108.098 60.7625 100.649 66.2856" fill="#FBC10C"/>
<path d="M136.364 97.9789C132.502 97.7281 128.814 97.1638 125.358 96.3786V86.0372C128.806 86.8223 132.502 87.3687 136.364 87.6344V97.9789Z" fill="#FADD2C"/>
<path d="M156.439 96.7159V55.6751C168.357 56.726 178.63 59.395 182.879 65.1718V76.615C182.879 85.7922 171.897 93.623 156.439 96.7159Z" fill="#EF9412"/>
<path d="M100.651 66.3005C100.651 78.1855 119.06 87.8195 141.767 87.8195C164.473 87.8195 182.879 78.1855 182.879 66.3005C182.879 54.4184 164.473 44.7815 141.767 44.7815C119.06 44.7815 100.651 54.4184 100.651 66.3005Z" fill="#FAD206"/>
<path d="M118.332 83.1741C111.314 80.52 106.069 76.7464 103.471 72.4952L136.594 45.5875C138.504 45.4502 140.403 45.3785 142.245 45.3785C149.041 45.3785 155.735 46.2681 161.684 47.9549L118.332 83.1741" fill="#F8F67A"/>
<path d="M136.446 87.0044C133.15 86.7596 129.931 86.3028 126.852 85.649L169.629 50.8957C172.076 52.0541 174.246 53.3617 176.091 54.7947L136.446 87.0044" fill="#F8F67A"/>
<path d="M100.651 63.9239C100.651 75.8089 119.06 85.4429 141.767 85.4429C164.473 85.4429 182.879 75.8089 182.879 63.9239C182.879 52.0419 164.473 42.4081 141.767 42.4081C119.06 42.4081 100.651 52.0419 100.651 63.9239" fill="#CC731B"/>
<path d="M100.649 51.3582V61.7146C100.649 70.5635 110.818 78.1255 125.358 81.4513C128.814 82.2364 132.502 82.8008 136.364 83.0516C138.144 83.177 139.948 83.2396 141.779 83.2396C147.6 83.2396 153.167 82.6126 158.173 81.4513C172.715 78.1255 180.289 70.3754 180.289 61.5266L182.882 50.2626C176.957 42.196 159.266 40.1868 141.779 40.1868C127.849 40.1868 108.098 45.8352 100.649 51.3582" fill="#FBC10C"/>
<path d="M136.364 83.0516C132.502 82.8008 128.814 82.2364 125.358 81.4513V71.1099C128.806 71.895 132.502 72.4414 136.364 72.7071V83.0516Z" fill="#FADD2C"/>
<path d="M156.439 81.7888V40.7481C168.357 41.7989 178.63 44.4681 182.879 50.2449V61.6879C182.879 70.8651 171.897 78.6959 156.439 81.7888" fill="#EF9412"/>
<path d="M100.651 51.3731C100.651 63.2581 119.06 72.8921 141.767 72.8921C164.473 72.8921 182.879 63.2581 182.879 51.3731C182.879 39.4911 164.473 29.8541 141.767 29.8541C119.06 29.8541 100.651 39.4911 100.651 51.3731Z" fill="#FAD206"/>
<path d="M118.332 68.2467C111.314 65.5897 106.069 61.8191 103.471 57.5678L136.594 30.6602C138.504 30.5228 140.403 30.4511 142.245 30.4511C149.041 30.4511 155.735 31.3408 161.684 33.0275L118.332 68.2467" fill="#F8F67A"/>
<path d="M136.446 72.077C133.15 71.8322 129.931 71.3754 126.852 70.7216L169.629 35.9683C172.076 37.1267 174.246 38.4342 176.091 39.8672L136.446 72.077Z" fill="#F8F67A"/>
<path d="M100.651 48.9969C100.651 60.8819 119.06 70.5159 141.767 70.5159C164.473 70.5159 182.879 60.8819 182.879 48.9969C182.879 37.1149 164.473 27.4811 141.767 27.4811C119.06 27.4811 100.651 37.1149 100.651 48.9969Z" fill="#CC731B"/>
<path d="M100.649 36.4311V46.7877C100.649 55.6365 110.818 63.1985 125.358 66.5242C128.814 67.3094 132.502 67.8737 136.364 68.1245C138.144 68.2499 139.948 68.3126 141.779 68.3126C147.6 68.3126 153.167 67.6856 158.173 66.5242C172.715 63.1985 180.289 55.4482 180.289 46.5994L182.882 35.3355C176.957 27.2689 159.266 25.2597 141.779 25.2597C127.849 25.2597 108.098 30.9081 100.649 36.4311" fill="#FBC10C"/>
<path d="M136.364 68.1245C132.502 67.8737 128.814 67.3094 125.358 66.5242V56.1828C128.806 56.968 132.502 57.5143 136.364 57.78V68.1245Z" fill="#FADD2C"/>
<path d="M156.439 66.8615V25.8207C168.357 26.8716 178.63 29.5407 182.879 35.3175V46.7575C182.879 55.9377 171.897 63.7685 156.439 66.8615" fill="#EF9412"/>
<path d="M100.651 36.4461C100.651 48.3311 119.06 57.9651 141.767 57.9651C164.473 57.9651 182.879 48.3311 182.879 36.4461C182.879 24.5641 164.473 14.9303 141.767 14.9303C119.06 14.9303 100.651 24.5641 100.651 36.4461Z" fill="#FAD206"/>
<path d="M118.332 53.3199C111.314 50.6629 106.069 46.8922 103.471 42.6409L136.594 15.7333C138.504 15.5959 140.403 15.5242 142.245 15.5242C149.041 15.5242 155.735 16.4139 161.684 18.1006L118.332 53.3199" fill="#F8F67A"/>
<path d="M136.446 57.15C133.15 56.9052 129.931 56.4484 126.852 55.7946L169.629 21.0413C172.076 22.1997 174.246 23.5102 176.091 24.9402L136.446 57.15Z" fill="#F8F67A"/>
<path d="M100.651 34.0695C100.651 45.9545 119.06 55.5885 141.767 55.5885C164.473 55.5885 182.879 45.9545 182.879 34.0695C182.879 22.1875 164.473 12.5537 141.767 12.5537C119.06 12.5537 100.651 22.1875 100.651 34.0695Z" fill="#CC731B"/>
<path d="M100.649 21.5041V31.8607C100.649 40.7095 110.818 48.2714 125.358 51.5972C128.814 52.3823 132.502 52.9467 136.364 53.1975C138.144 53.3228 139.948 53.3855 141.779 53.3855C147.6 53.3855 153.167 52.7585 158.173 51.5972C172.715 48.2714 180.289 40.5211 180.289 31.6723L182.882 20.4085C176.957 12.3418 159.266 10.3326 141.779 10.3326C127.849 10.3326 108.098 15.981 100.649 21.5041" fill="#FBC10C"/>
<path d="M136.364 53.1975C132.502 52.9467 128.814 52.3824 125.358 51.5972V32.6129H136.364V53.1975Z" fill="#FADD2C"/>
<path d="M156.439 51.9344V10.8938C168.357 11.9447 178.63 14.6138 182.879 20.3906V31.8306C182.879 41.0108 171.897 48.8415 156.439 51.9344Z" fill="#EF9412"/>
<path d="M100.651 21.519C100.651 33.404 119.06 43.038 141.767 43.038C164.473 43.038 182.879 33.404 182.879 21.519C182.879 9.63695 164.473 -3.8255e-05 141.767 -3.8255e-05C119.06 -3.8255e-05 100.651 9.63695 100.651 21.519Z" fill="#FAD206"/>
<path d="M118.332 38.3926C111.312 35.7385 106.069 31.9648 103.471 27.7135L136.594 0.805901C138.504 0.668571 140.403 0.596862 142.245 0.596862C149.041 0.596862 155.735 1.48649 161.684 3.17325L118.332 38.3926" fill="#F8F67A"/>
<path d="M136.446 42.2197C133.15 41.9778 129.931 41.5213 126.852 40.8675L169.629 6.11404C172.076 7.27239 174.246 8.57988 176.091 10.0129L136.446 42.2197Z" fill="#F8F67A"/>
<path d="M230.635 261.78L277.741 192.426V229.403L230.703 298.704L230.667 299.03H31.5141V261.78H230.635" fill="#40742E"/>
<path d="M277.739 223.716V186.739L230.636 256.093L230.667 293.071L277.739 223.716Z" fill="#458532"/>
<path d="M79.0961 188.001L33.7076 254.83H230.159L275.548 188.001H79.0961Z" fill="#A5DA53"/>
<path d="M31.5141 293.342H230.667L230.635 256.093H31.5141V293.342" fill="#63A731"/>
<path d="M59.6329 232.753L75.0526 209.741C85.3381 209.694 98.1531 202.949 103.735 194.629H241.799C236.295 202.854 239.934 209.529 249.891 209.726L234.461 232.753C224.374 232.875 211.936 239.372 206.253 247.459H68.1384C73.2872 239.372 69.558 232.875 59.6329 232.753ZM78.8567 187.751L34.2397 254.338H230.931L275.548 187.751H78.8567Z" fill="#63A731"/>
<path d="M137.692 221.044C132.531 228.743 136.052 234.986 145.554 234.986C155.053 234.986 166.94 228.743 172.098 221.044C177.257 213.345 173.735 207.105 164.236 207.105C154.734 207.105 142.848 213.345 137.692 221.044Z" fill="#547629"/>
<path d="M186.49 221.044C183.699 225.212 185.603 228.588 190.746 228.588C195.888 228.588 202.321 225.212 205.114 221.044C207.905 216.876 206.002 213.5 200.858 213.5C195.714 213.5 189.283 216.876 186.49 221.044Z" fill="white"/>
<path d="M104.673 221.044C101.882 225.212 103.788 228.588 108.93 228.588C114.074 228.588 120.506 225.212 123.3 221.044C126.091 216.876 124.185 213.5 119.043 213.5C113.899 213.5 107.466 216.876 104.673 221.044Z" fill="white"/>
<path d="M273.356 189.264H79.5725L35.8987 253.567H229.683L273.356 189.264ZM78.6197 186.739H277.739L230.635 256.093H31.5141L78.6197 186.739Z" fill="#95D449"/>
<path d="M150.386 293.342H147.196V293.337H147.215V256.093H150.386V293.342ZM141.646 293.342H122.772V293.337H141.646V293.342Z" fill="#448131"/>
<path d="M156.25 247.459H153.061L167.602 226.051C169.38 224.495 170.916 222.808 172.098 221.044C173.23 219.354 173.946 217.73 174.27 216.232L188.94 194.629H192.13L156.25 247.459Z" fill="#69B630"/>
<path d="M152.1 253.567H148.913L153.061 247.459H156.25L152.1 253.567V253.567ZM192.13 194.629H188.94L192.587 189.264H195.774L192.13 194.629" fill="#448131"/>
<path d="M167.602 226.051L174.27 216.232C173.946 217.73 173.23 219.354 172.098 221.044C170.916 222.809 169.38 224.495 167.602 226.051Z" fill="#3D5B25"/>
<path d="M150.386 256.093H147.215V256.09L147.239 256.057H147.22L148.913 253.567H152.1L150.386 256.093V256.093ZM195.774 189.264H192.587L194.302 186.739H188.749L188.746 186.742H169.876L169.878 186.739H197.489L195.774 189.264Z" fill="#60AE32"/>
<path d="M117.068 256.09V293.336H144.671V256.09L144.698 256.057L191.774 186.741H164.168L117.092 256.057L117.068 256.09Z" fill="white"/>
<path d="M188.749 186.739H194.302L147.196 256.093V293.342H141.646V256.093L188.749 186.739Z" fill="#F4744D"/>
<path d="M161.556 186.739H167.107L120.003 256.093V293.342H114.453V256.093L161.556 186.739Z" fill="#F4744D"/>
<path d="M147.196 293.336H147.216V256.093H147.196V293.336Z" fill="#345323"/>
<path d="M147.215 256.093H147.196L147.22 256.057H147.239L147.215 256.09V256.093Z" fill="#46722B"/>
<path d="M141.646 293.336H120.003V256.093L120.025 256.057H141.67L141.646 256.093V293.336" fill="#B7AB99"/>
<path d="M147.196 293.336H141.646V256.093L141.67 256.057H147.22L147.196 256.093V293.336Z" fill="#B94D30"/>
<path d="M120.004 293.336H114.526V256.09L119.634 256.057H120.025L120.004 256.093V293.336" fill="#B94D30"/>
</svg>
