<svg width="300" height="300" viewBox="0 0 300 300" fill="none" xmlns="http://www.w3.org/2000/svg">
<path d="M261.407 189.516L261.201 189.25C261.752 188.74 262.247 188.214 262.685 187.673L261.407 189.516ZM263.73 186.17C264.554 184.754 264.997 183.257 264.997 181.709C264.997 180.127 264.535 178.599 263.676 177.159L263.733 176.919C264.555 175.506 264.997 174.013 264.997 172.466C264.997 172.235 264.986 172.006 264.967 171.777L264.999 171.648C264.982 171.626 264.965 171.606 264.951 171.584C264.98 171.298 264.997 171.008 264.997 170.718C264.997 169.135 264.535 167.607 263.676 166.167L263.733 165.928C264.555 164.514 264.997 163.022 264.997 161.474C264.997 161.243 264.986 161.015 264.967 160.786L264.999 160.656C264.982 160.634 264.965 160.614 264.951 160.592C264.98 160.307 264.997 160.017 264.997 159.726C264.997 158.144 264.535 156.616 263.676 155.176L263.733 154.936C264.555 153.523 264.997 152.03 264.997 150.483C264.997 150.252 264.986 150.023 264.967 149.794L264.999 149.665C264.982 149.643 264.965 149.623 264.951 149.601C264.98 149.315 264.997 149.025 264.997 148.735C264.997 147.152 264.535 145.624 263.676 144.184L263.733 143.945C264.555 142.531 264.997 141.039 264.997 139.491C264.997 139.26 264.986 139.032 264.967 138.803L264.999 138.673C264.982 138.651 264.965 138.631 264.951 138.609C264.98 138.324 264.997 138.033 264.997 137.743C264.997 136.161 264.535 134.633 263.676 133.193L263.733 132.953C264.555 131.542 264.997 130.047 264.997 128.5C264.997 128.271 264.986 128.04 264.967 127.811L264.999 127.682C264.982 127.66 264.965 127.64 264.951 127.618C264.98 127.332 264.997 127.042 264.997 126.752C264.997 125.169 264.535 123.641 263.676 122.201L264.598 118.361L266.693 115.343C267.276 115.327 267.864 115.318 268.457 115.318C285.876 115.318 300 122.412 300 131.164C300 132.775 299.514 134.329 298.623 135.793H298.699L263.73 186.17" fill="#B9CAC8"/>
<path d="M263.887 115.483C259.835 111.762 251.679 110.122 242.568 109.539V103.775V102.964L242.57 102.957C242.57 102.955 242.57 102.955 242.568 102.953V102.944C242.553 102.924 242.539 102.905 242.524 102.885C242.553 102.601 242.568 102.315 242.568 102.025C242.568 100.445 242.108 98.9169 241.249 97.477L241.307 97.2374C242.129 95.8239 242.568 94.329 242.568 92.7836C242.568 92.5528 242.559 92.3242 242.54 92.0955L242.57 91.9659C242.555 91.9439 242.539 91.9241 242.522 91.9021C242.553 91.6141 242.568 91.3261 242.568 91.0337C242.568 89.4532 242.108 87.9254 241.249 86.4855L241.307 86.2459C241.488 85.9315 241.652 85.615 241.796 85.294C242.231 85.2852 242.665 85.2808 243.103 85.2808C260.525 85.2808 274.647 92.3747 274.647 101.126C274.647 102.738 274.161 104.292 273.27 105.756H273.346L266.693 115.343C265.747 115.369 264.81 115.415 263.887 115.483Z" fill="#B9CAC8"/>
<path d="M264.598 118.361L264.999 116.69C264.674 116.266 264.301 115.864 263.887 115.483C264.81 115.415 265.747 115.369 266.693 115.343L264.598 118.361" fill="#829C9D"/>
<path d="M180.077 272.565L180.073 268.382L212.992 221.863H215.957L180.077 272.565ZM216.214 248.428V221.863H235.011L216.214 248.428Z" fill="#B9A1D0"/>
<path d="M179.483 156.985C179.483 165.734 193.605 172.828 211.026 172.828C228.447 172.828 242.568 165.734 242.568 156.985C242.568 148.234 228.447 141.14 211.026 141.14C193.605 141.14 179.483 148.234 179.483 156.985Z" fill="#CC731B"/>
<path d="M179.481 147.73V155.356C179.481 161.872 187.282 167.44 198.437 169.889C201.09 170.467 203.917 170.883 206.881 171.067C208.246 171.16 209.63 171.206 211.035 171.206C215.501 171.206 219.772 170.744 223.615 169.889C234.77 167.44 240.581 161.733 240.581 155.218L242.57 146.921C238.026 140.984 224.454 139.506 211.035 139.506C200.348 139.506 185.194 143.666 179.481 147.73Z" fill="#FBC10C"/>
<path d="M222.285 170.137V139.917C231.426 140.691 239.308 142.657 242.568 146.91V155.336C242.568 162.094 234.143 167.86 222.285 170.137Z" fill="#EF9412"/>
<path d="M179.483 147.741C179.483 156.493 193.605 163.587 211.026 163.587C228.447 163.587 242.568 156.493 242.568 147.741C242.568 138.992 228.447 131.898 211.026 131.898C193.605 131.898 179.483 138.992 179.483 147.741Z" fill="#FAD206"/>
<path d="M193.046 160.166C187.662 158.209 183.637 155.433 181.646 152.303L207.057 132.489C208.521 132.388 209.979 132.335 211.393 132.335C216.607 132.335 221.743 132.991 226.307 134.233L193.046 160.166Z" fill="#F8F67A"/>
<path d="M206.944 162.984C204.415 162.804 201.945 162.47 199.583 161.986L232.402 136.398C234.282 137.251 235.944 138.214 237.36 139.269L206.944 162.984Z" fill="#F8F67A"/>
<path d="M179.483 145.994C179.483 154.743 193.605 161.837 211.026 161.837C228.447 161.837 242.568 154.743 242.568 145.994C242.568 137.242 228.447 130.148 211.026 130.148C193.605 130.148 179.483 137.242 179.483 145.994Z" fill="#CC731B"/>
<path d="M179.481 136.739V144.364C179.481 150.88 187.282 156.449 198.437 158.897C201.09 159.476 203.917 159.891 206.881 160.076C208.246 160.168 209.63 160.214 211.035 160.214C215.501 160.214 219.772 159.753 223.615 158.897C234.77 156.449 240.581 150.742 240.581 144.226L242.57 135.93C238.026 129.992 224.454 128.515 211.035 128.515C200.348 128.515 185.194 132.674 179.481 136.739Z" fill="#FBC10C"/>
<path d="M198.819 151.364H198.437V151.283C198.565 151.311 198.691 151.338 198.819 151.364Z" fill="#FADD2C"/>
<path d="M222.285 159.146V128.926C231.426 129.7 239.308 131.665 242.568 135.919V144.345C242.568 151.102 234.143 156.869 222.285 159.146Z" fill="#EF9412"/>
<path d="M179.483 136.75C179.483 145.501 193.605 152.595 211.026 152.595C228.447 152.595 242.568 145.501 242.568 136.75C242.568 128 228.447 120.906 211.026 120.906C193.605 120.906 179.483 128 179.483 136.75Z" fill="#FAD206"/>
<path d="M193.046 149.175C187.662 147.218 183.637 144.442 181.646 141.311L207.057 121.498C208.521 121.397 209.979 121.346 211.393 121.346C216.607 121.346 221.743 121.999 226.307 123.241L193.046 149.175Z" fill="#F8F67A"/>
<path d="M206.944 151.993C204.415 151.813 201.945 151.478 199.583 150.995L232.402 125.406C234.282 126.259 235.944 127.222 237.36 128.277L206.944 151.993Z" fill="#F8F67A"/>
<path d="M179.483 135.002C179.483 143.751 193.605 150.845 211.026 150.845C228.447 150.845 242.568 143.751 242.568 135.002C242.568 126.251 228.447 119.157 211.026 119.157C193.605 119.157 179.483 126.251 179.483 135.002Z" fill="#CC731B"/>
<path d="M179.481 125.747V133.373C179.481 139.889 187.282 145.457 198.437 147.906C201.09 148.484 203.917 148.9 206.881 149.084C208.246 149.177 209.63 149.223 211.035 149.223C215.501 149.223 219.772 148.761 223.615 147.906C234.77 145.457 240.581 139.75 240.581 133.235L242.57 124.938C238.026 119.001 224.454 117.523 211.035 117.523C200.348 117.523 185.194 121.682 179.481 125.747Z" fill="#FBC10C"/>
<path d="M201.912 148.55C200.724 148.368 199.565 148.152 198.437 147.906V140.291C199.561 140.537 200.721 140.751 201.908 140.931V147.106C201.908 147.383 201.923 147.658 201.951 147.93C201.93 148.137 201.917 148.344 201.912 148.55" fill="#FADD2C"/>
<path d="M222.285 148.154V117.934C231.426 118.708 239.308 120.673 242.568 124.927V133.353C242.568 140.111 234.143 145.877 222.285 148.154Z" fill="#EF9412"/>
<path d="M179.483 125.758C179.483 134.51 193.605 141.604 211.026 141.604C228.447 141.604 242.568 134.51 242.568 125.758C242.568 117.009 228.447 109.915 211.026 109.915C193.605 109.915 179.483 117.009 179.483 125.758Z" fill="#FAD206"/>
<path d="M193.046 138.183C187.662 136.227 183.637 133.45 181.646 130.32L207.057 110.506C208.521 110.405 209.979 110.355 211.393 110.355C216.607 110.355 221.743 111.008 226.307 112.25L193.046 138.183Z" fill="#F8F67A"/>
<path d="M206.944 141.001C204.415 140.821 201.945 140.487 199.583 140.005L232.402 114.415C234.282 115.268 235.944 116.231 237.36 117.286L206.944 141.001Z" fill="#F8F67A"/>
<path d="M179.483 124.011C179.483 132.76 193.605 139.854 211.026 139.854C228.447 139.854 242.568 132.76 242.568 124.011C242.568 115.259 228.447 108.165 211.026 108.165C193.605 108.165 179.483 115.259 179.483 124.011Z" fill="#CC731B"/>
<path d="M179.481 114.756V122.382C179.481 128.897 187.282 134.466 198.437 136.915C201.09 137.493 203.917 137.908 206.881 138.093C208.246 138.185 209.63 138.231 211.035 138.231C215.501 138.231 219.772 137.77 223.615 136.915C234.77 134.466 240.581 128.759 240.581 122.243L242.57 113.947C238.026 108.009 224.454 106.532 211.035 106.532C200.348 106.532 185.194 110.691 179.481 114.756Z" fill="#FBC10C"/>
<path d="M201.912 137.559C200.724 137.376 199.565 137.161 198.437 136.915V129.3C199.561 129.546 200.721 129.759 201.908 129.939V136.115C201.908 136.392 201.923 136.666 201.951 136.939C201.93 137.146 201.917 137.352 201.912 137.559" fill="#FADD2C"/>
<path d="M222.285 137.163V106.943C231.426 107.717 239.308 109.682 242.568 113.936V122.362C242.568 129.119 234.143 134.885 222.285 137.163Z" fill="#EF9412"/>
<path d="M179.483 114.767C179.483 123.518 193.605 130.612 211.026 130.612C228.447 130.612 242.568 123.518 242.568 114.767C242.568 106.017 228.447 98.9236 211.026 98.9236C193.605 98.9236 179.483 106.017 179.483 114.767Z" fill="#FAD206"/>
<path d="M193.046 127.191C187.662 125.235 183.637 122.458 181.646 119.328L207.057 99.5148C208.521 99.4137 209.979 99.3609 211.393 99.3609C216.607 99.3609 221.743 100.016 226.307 101.258L193.046 127.191Z" fill="#F8F67A"/>
<path d="M206.944 130.01C204.415 129.829 201.945 129.495 199.583 129.014L232.402 103.423C234.282 104.276 235.944 105.239 237.36 106.294L206.944 130.01Z" fill="#F8F67A"/>
<path d="M179.483 113.019C179.483 121.768 193.605 128.862 211.026 128.862C228.447 128.862 242.568 121.768 242.568 113.019C242.568 104.268 228.447 97.1738 211.026 97.1738C193.605 97.1738 179.483 104.268 179.483 113.019Z" fill="#CC731B"/>
<path d="M179.481 103.764V111.39C179.481 117.906 187.282 123.474 198.437 125.923C201.09 126.501 203.917 126.917 206.881 127.101C208.246 127.194 209.63 127.24 211.035 127.24C215.501 127.24 219.772 126.778 223.615 125.923C234.77 123.474 240.581 117.767 240.581 111.251L242.57 102.957C238.026 97.0175 224.454 95.538 211.035 95.538C200.348 95.538 185.194 99.6994 179.481 103.764Z" fill="#FBC10C"/>
<path d="M201.912 126.567C200.724 126.385 199.565 126.169 198.437 125.923V118.308C199.561 118.554 200.721 118.768 201.908 118.948V125.123C201.908 125.4 201.923 125.675 201.951 125.947C201.93 126.154 201.917 126.36 201.912 126.567" fill="#FADD2C"/>
<path d="M222.285 126.171V95.9514C231.426 96.7252 239.308 98.6905 242.568 102.944V111.37C242.568 118.128 234.143 123.894 222.285 126.171Z" fill="#EF9412"/>
<path d="M179.483 103.775C179.483 112.526 193.605 119.62 211.026 119.62C228.447 119.62 242.568 112.526 242.568 103.775C242.568 95.0258 228.447 87.9319 211.026 87.9319C193.605 87.9319 179.483 95.0258 179.483 103.775Z" fill="#FAD206"/>
<path d="M193.046 116.2C187.662 114.246 183.637 111.467 181.646 108.337L207.057 88.5234C208.521 88.4223 209.979 88.3695 211.393 88.3695C216.607 88.3695 221.743 89.0246 226.307 90.2667L193.046 116.2Z" fill="#F8F67A"/>
<path d="M206.944 119.018C204.415 118.838 201.945 118.504 199.583 118.022L232.402 92.4319C234.282 93.2848 235.944 94.2477 237.36 95.3029L206.944 119.018Z" fill="#F8F67A"/>
<path d="M179.483 102.025C179.483 110.777 193.605 117.871 211.026 117.871C228.447 117.871 242.568 110.777 242.568 102.025C242.568 93.276 228.447 86.1822 211.026 86.1822C193.605 86.1822 179.483 93.276 179.483 102.025Z" fill="#CC731B"/>
<path d="M179.481 92.7726V100.399C179.481 106.914 187.282 112.483 198.437 114.931C201.09 115.51 203.917 115.925 206.881 116.11C208.246 116.202 209.63 116.248 211.035 116.248C215.501 116.248 219.772 115.787 223.615 114.931C234.77 112.483 240.581 106.776 240.581 100.26L242.57 91.9659C238.026 86.026 224.454 84.5466 211.035 84.5466C200.348 84.5466 185.194 88.708 179.481 92.7726Z" fill="#FBC10C"/>
<path d="M204.582 115.919C202.448 115.697 200.396 115.358 198.437 114.932V107.317C201.082 107.895 203.917 108.297 206.881 108.493V114.855C206.061 115.204 205.291 115.56 204.582 115.919Z" fill="#FADD2C"/>
<path d="M222.285 115.18V84.9598C231.426 85.7336 239.308 87.6989 242.568 91.9526V100.379C242.568 107.136 234.143 112.902 222.285 115.18Z" fill="#EF9412"/>
<path d="M179.483 92.7836C179.483 101.535 193.605 108.629 211.026 108.629C228.447 108.629 242.568 101.535 242.568 92.7836C242.568 84.0344 228.447 76.9405 211.026 76.9405C193.605 76.9405 179.483 84.0344 179.483 92.7836Z" fill="#FAD206"/>
<path d="M193.046 105.209C187.662 103.254 183.637 100.476 181.646 97.3452L207.057 77.532C208.521 77.4308 209.979 77.378 211.393 77.378C216.607 77.378 221.743 78.0332 226.307 79.2752L193.046 105.209Z" fill="#F8F67A"/>
<path d="M206.944 108.027C204.415 107.846 201.945 107.512 199.583 107.031L232.402 81.4402C234.282 82.2932 235.944 83.2561 237.36 84.3112L206.944 108.027Z" fill="#F8F67A"/>
<path d="M179.483 91.0338C179.483 99.7853 193.605 106.879 211.026 106.879C228.447 106.879 242.568 99.7853 242.568 91.0338C242.568 82.2846 228.447 75.1907 211.026 75.1907C193.605 75.1907 179.483 82.2846 179.483 91.0338Z" fill="#CC731B"/>
<path d="M179.481 81.7812V89.4071C179.481 95.9228 187.282 101.491 198.437 103.94C201.09 104.518 203.917 104.934 206.881 105.118C208.246 105.211 209.63 105.257 211.035 105.257C215.501 105.257 219.772 104.795 223.615 103.94C234.77 101.491 240.581 95.7844 240.581 89.2686L242.57 80.9744C238.026 75.0346 224.454 73.5573 211.035 73.5573C200.348 73.5573 185.194 77.7143 179.481 81.7812Z" fill="#FBC10C"/>
<path d="M206.881 105.118C203.917 104.934 201.09 104.518 198.437 103.94V96.3252C201.082 96.9033 203.917 97.3055 206.881 97.5012V105.118Z" fill="#FADD2C"/>
<path d="M222.285 104.188V73.9684C231.426 74.7422 239.308 76.7075 242.568 80.9612V89.3873C242.568 96.1449 234.143 101.911 222.285 104.188Z" fill="#EF9412"/>
<path d="M179.483 81.7922C179.483 90.5436 193.605 97.6375 211.026 97.6375C228.447 97.6375 242.568 90.5436 242.568 81.7922C242.568 73.0407 228.447 65.949 211.026 65.949C193.605 65.949 179.483 73.0407 179.483 81.7922Z" fill="#FAD206"/>
<path d="M193.046 94.2169C187.662 92.2626 183.637 89.484 181.646 86.3536L207.057 66.5403C208.521 66.4392 209.979 66.3864 211.393 66.3864C216.607 66.3864 221.743 67.0416 226.307 68.2836L193.046 94.2169Z" fill="#F8F67A"/>
<path d="M206.944 97.0352C204.415 96.8549 201.945 96.5207 199.583 96.0393L232.402 70.4488C234.282 71.3017 235.944 72.2646 237.36 73.3198L206.944 97.0352Z" fill="#F8F67A"/>
<path d="M179.483 80.0424C179.483 88.7938 193.605 95.8878 211.026 95.8878C228.447 95.8878 242.568 88.7938 242.568 80.0424C242.568 71.2932 228.447 64.1993 211.026 64.1993C193.605 64.1993 179.483 71.2932 179.483 80.0424Z" fill="#CC731B"/>
<path d="M179.481 70.7895V78.4154C179.481 84.9312 187.282 90.4995 198.437 92.9484C201.09 93.5265 203.917 93.9421 206.881 94.1267C208.246 94.2191 209.63 94.2652 211.035 94.2652C215.501 94.2652 219.772 93.8035 223.615 92.9484C234.77 90.4995 240.581 84.7927 240.581 78.277L242.57 69.9805C238.026 64.0429 224.454 62.5657 211.035 62.5657C200.348 62.5657 185.194 66.7227 179.481 70.7895Z" fill="#FBC10C"/>
<path d="M206.881 94.1267C203.917 93.9421 201.09 93.5265 198.437 92.9484V85.3335C201.082 85.9117 203.917 86.3139 206.881 86.5095V94.1267Z" fill="#FADD2C"/>
<path d="M222.285 93.1969V62.9769C231.426 63.7507 239.308 65.716 242.568 69.9697V78.3958C242.568 85.1534 234.143 90.9195 222.285 93.1969Z" fill="#EF9412"/>
<path d="M179.483 70.8005C179.483 79.5519 193.605 86.6459 211.026 86.6459C228.447 86.6459 242.568 79.5519 242.568 70.8005C242.568 62.0491 228.447 54.9574 211.026 54.9574C193.605 54.9574 179.483 62.0491 179.483 70.8005Z" fill="#FAD206"/>
<path d="M193.046 83.2255C187.662 81.269 183.637 78.4925 181.646 75.3621L207.057 55.5489C208.521 55.4477 209.979 55.3949 211.393 55.3949C216.607 55.3949 221.743 56.0501 226.307 57.2922L193.046 83.2255Z" fill="#F8F67A"/>
<path d="M206.944 86.0437C204.415 85.8635 201.945 85.5293 199.583 85.0457L232.402 59.4574C234.282 60.3103 235.944 61.2732 237.36 62.3284L206.944 86.0437Z" fill="#F8F67A"/>
<path d="M179.483 69.0507C179.483 77.8022 193.605 84.8961 211.026 84.8961C228.447 84.8961 242.568 77.8022 242.568 69.0507C242.568 60.3015 228.447 53.2076 211.026 53.2076C193.605 53.2076 179.483 60.3015 179.483 69.0507Z" fill="#CC731B"/>
<path d="M179.481 59.7981V67.424C179.481 73.9398 187.282 79.508 198.437 81.9569C201.09 82.5351 203.917 82.9506 206.881 83.1353C208.246 83.2276 209.63 83.2738 211.035 83.2738C215.501 83.2738 219.772 82.8121 223.615 81.9569C234.77 79.508 240.581 73.8013 240.581 67.2855L242.57 58.9891C238.026 53.0515 224.454 51.5742 211.035 51.5742C200.348 51.5742 185.194 55.7312 179.481 59.7981Z" fill="#FBC10C"/>
<path d="M206.881 83.1353C203.917 82.9506 201.09 82.5351 198.437 81.9569V74.3421C201.082 74.9202 203.917 75.3224 206.881 75.5181V83.1353Z" fill="#FADD2C"/>
<path d="M222.285 82.2053V51.9853C231.426 52.7591 239.308 54.7244 242.568 58.9781V67.4042C242.568 74.1618 234.143 79.9278 222.285 82.2053Z" fill="#EF9412"/>
<path d="M179.483 59.8091C179.483 68.5605 193.605 75.6544 211.026 75.6544C228.447 75.6544 242.568 68.5605 242.568 59.8091C242.568 51.0598 228.447 43.9659 211.026 43.9659C193.605 43.9659 179.483 51.0598 179.483 59.8091Z" fill="#FAD206"/>
<path d="M193.046 72.234C187.662 70.2775 183.637 67.5011 181.646 64.3707L207.057 44.5574C208.521 44.4563 209.979 44.4035 211.393 44.4035C216.607 44.4035 221.743 45.0587 226.307 46.3007L193.046 72.234Z" fill="#F8F67A"/>
<path d="M206.944 75.0521C204.415 74.8718 201.945 74.5377 199.583 74.054L232.402 48.4657C234.282 49.3187 235.944 50.2815 237.36 51.3367L206.944 75.0521Z" fill="#F8F67A"/>
<path d="M179.483 58.0593C179.483 66.8107 193.605 73.9047 211.026 73.9047C228.447 73.9047 242.568 66.8107 242.568 58.0593C242.568 49.3101 228.447 42.2162 211.026 42.2162C193.605 42.2162 179.483 49.3101 179.483 58.0593Z" fill="#CC731B"/>
<path d="M179.481 48.8067V56.4325C179.481 62.9483 187.282 68.5166 198.437 70.9655C201.09 71.5436 203.917 71.9592 206.881 72.1439C208.246 72.2362 209.63 72.2823 211.035 72.2823C215.501 72.2823 219.772 71.8206 223.615 70.9655C234.77 68.5166 240.581 62.8098 240.581 56.2941L242.57 47.9976C238.026 42.06 224.454 40.5828 211.035 40.5828C200.348 40.5828 185.194 44.742 179.481 48.8067Z" fill="#FBC10C"/>
<path d="M206.881 72.1439C203.917 71.9592 201.09 71.5436 198.437 70.9655V63.3506C201.082 63.9288 203.917 64.331 206.881 64.5267V72.1439Z" fill="#FADD2C"/>
<path d="M222.285 71.2138V40.9938C231.426 41.7676 239.308 43.7329 242.568 47.9866V56.4128C242.568 63.1703 234.143 68.9364 222.285 71.2138Z" fill="#EF9412"/>
<path d="M179.483 48.8176C179.483 57.5691 193.605 64.663 211.026 64.663C228.447 64.663 242.568 57.5691 242.568 48.8176C242.568 40.0684 228.447 32.9745 211.026 32.9745C193.605 32.9745 179.483 40.0684 179.483 48.8176Z" fill="#FAD206"/>
<path d="M193.046 61.2424C187.662 59.2859 183.637 56.5094 181.646 53.379L207.057 33.5658C208.521 33.4647 209.979 33.4119 211.393 33.4119C216.607 33.4119 221.743 34.067 226.307 35.3091L193.046 61.2424Z" fill="#F8F67A"/>
<path d="M206.944 64.0606C204.415 63.8804 201.945 63.5462 199.583 63.0626L232.402 37.4743C234.282 38.3272 235.944 39.2901 237.36 40.3453L206.944 64.0606Z" fill="#F8F67A"/>
<path d="M179.483 47.0701C179.483 55.8194 193.605 62.9132 211.026 62.9132C228.447 62.9132 242.568 55.8194 242.568 47.0701C242.568 38.3187 228.447 31.2247 211.026 31.2247C193.605 31.2247 179.483 38.3187 179.483 47.0701Z" fill="#CC731B"/>
<path d="M179.481 37.815V45.4409C179.481 51.9567 187.282 57.5249 198.437 59.9738C201.09 60.552 203.917 60.9676 206.881 61.1522C208.246 61.2445 209.63 61.2907 211.035 61.2907C215.501 61.2907 219.772 60.829 223.615 59.9738C234.77 57.5249 240.581 51.8182 240.581 45.3024L242.57 37.006C238.026 31.0684 224.454 29.5911 211.035 29.5911C200.348 29.5911 185.194 33.7503 179.481 37.815Z" fill="#FBC10C"/>
<path d="M206.881 61.1522C203.917 60.9676 201.09 60.552 198.437 59.9738V52.359C201.082 52.9372 203.917 53.3394 206.881 53.535V61.1522Z" fill="#FADD2C"/>
<path d="M222.285 60.2224V30.0024C231.426 30.7762 239.308 32.7415 242.568 36.9952V45.4213C242.568 52.1789 234.143 57.9449 222.285 60.2224Z" fill="#EF9412"/>
<path d="M179.483 37.826C179.483 46.5774 193.605 53.6714 211.026 53.6714C228.447 53.6714 242.568 46.5774 242.568 37.826C242.568 29.0767 228.447 21.9829 211.026 21.9829C193.605 21.9829 179.483 29.0767 179.483 37.826Z" fill="#FAD206"/>
<path d="M193.046 50.2509C187.662 48.2944 183.637 45.518 181.646 42.3876L207.057 22.5743C208.521 22.4732 209.979 22.4227 211.393 22.4227C216.607 22.4227 221.743 23.0756 226.307 24.3176L193.046 50.2509Z" fill="#F8F67A"/>
<path d="M206.944 53.0692C204.415 52.8889 201.945 52.5548 199.583 52.0711L232.402 26.4828C234.282 27.3358 235.944 28.2986 237.36 29.3538L206.944 53.0692Z" fill="#F8F67A"/>
<path d="M179.483 36.0785C179.483 44.8277 193.605 51.9216 211.026 51.9216C228.447 51.9216 242.568 44.8277 242.568 36.0785C242.568 27.327 228.447 20.2331 211.026 20.2331C193.605 20.2331 179.483 27.327 179.483 36.0785Z" fill="#CC731B"/>
<path d="M179.481 26.8236V34.4495C179.481 40.9652 187.282 46.5335 198.437 48.9824C201.09 49.5606 203.917 49.9761 206.881 50.1608C208.246 50.2531 209.63 50.2992 211.035 50.2992C215.501 50.2992 219.772 49.8375 223.615 48.9824C234.77 46.5335 240.581 40.8268 240.581 34.311L242.57 26.0146C238.026 20.0769 224.454 18.5997 211.035 18.5997C200.348 18.5997 185.194 22.7589 179.481 26.8236Z" fill="#FBC10C"/>
<path d="M206.881 50.1608C203.917 49.9761 201.09 49.5606 198.437 48.9824V41.3676C201.082 41.9457 203.917 42.3479 206.881 42.5436V50.1608Z" fill="#FADD2C"/>
<path d="M222.285 49.2307V19.0108C231.426 19.7846 239.308 21.7498 242.568 26.0036V34.4297C242.568 41.1872 234.143 46.9533 222.285 49.2307Z" fill="#EF9412"/>
<path d="M179.483 26.8345C179.483 35.586 193.605 42.6799 211.026 42.6799C228.447 42.6799 242.568 35.586 242.568 26.8345C242.568 18.0853 228.447 10.9914 211.026 10.9914C193.605 10.9914 179.483 18.0853 179.483 26.8345Z" fill="#FAD206"/>
<path d="M193.046 39.2595C187.662 37.303 183.637 34.5265 181.646 31.3962L207.057 11.5829C208.521 11.4818 209.979 11.4312 211.393 11.4312C216.607 11.4312 221.743 12.0841 226.307 13.3262L193.046 39.2595Z" fill="#F8F67A"/>
<path d="M206.944 42.0775C204.415 41.8973 201.945 41.5631 199.583 41.0795L232.402 15.4912C234.282 16.3441 235.944 17.307 237.36 18.3622L206.944 42.0775Z" fill="#F8F67A"/>
<path d="M179.483 25.087C179.483 33.8363 193.605 40.9302 211.026 40.9302C228.447 40.9302 242.568 33.8363 242.568 25.087C242.568 16.3356 228.447 9.24166 211.026 9.24166C193.605 9.24166 179.483 16.3356 179.483 25.087Z" fill="#CC731B"/>
<path d="M179.481 15.8321V23.458C179.481 29.9738 187.282 35.5421 198.437 37.991C201.09 38.5691 203.917 38.9847 206.881 39.1693C208.246 39.2617 209.63 39.3078 211.035 39.3078C215.501 39.3078 219.772 38.8461 223.615 37.991C234.77 35.5421 240.581 29.8353 240.581 23.3195L242.57 15.0231C238.026 9.08549 224.454 7.60824 211.035 7.60824C200.348 7.60824 185.194 11.7675 179.481 15.8321Z" fill="#FBC10C"/>
<path d="M206.881 39.1693C203.917 38.9847 201.09 38.5691 198.437 37.991V24.012H206.881V39.1693Z" fill="#FADD2C"/>
<path d="M222.285 38.2393V8.01931C231.426 8.79311 239.308 10.7584 242.568 15.0121V23.4382C242.568 30.1958 234.143 35.9619 222.285 38.2393Z" fill="#EF9412"/>
<path d="M179.483 15.8431C179.483 24.5945 193.605 31.6885 211.026 31.6885C228.447 31.6885 242.568 24.5945 242.568 15.8431C242.568 7.09386 228.447 -2.48294e-05 211.026 -2.48294e-05C193.605 -2.48294e-05 179.483 7.09386 179.483 15.8431Z" fill="#FAD206"/>
<path d="M193.046 28.2678C187.662 26.3114 183.639 23.5349 181.646 20.4045L207.057 0.59125C208.521 0.490128 209.979 0.437326 211.395 0.437326C216.607 0.437326 221.743 1.0925 226.307 2.33454L193.046 28.2678Z" fill="#F8F67A"/>
<path d="M206.944 31.0861C204.415 30.9058 201.945 30.5716 199.583 30.0902L232.402 4.49974C234.282 5.35268 235.944 6.31555 237.36 7.37074L206.944 31.0861Z" fill="#F8F67A"/>
<path d="M196.893 151.364H188.909V148.047C191.245 149.201 193.935 150.173 196.893 150.92V151.364Z" fill="#B27D1D"/>
<path d="M196.893 150.92C193.935 150.172 191.245 149.201 188.909 148.047V148.027V147.376C190.176 148.031 191.558 148.634 193.046 149.174L194.082 148.368C194.989 148.658 195.926 148.926 196.893 149.17V150.92Z" fill="#B1881D"/>
<path d="M193.046 149.175C191.558 148.634 190.176 148.031 188.909 147.376V146.299C190.482 147.075 192.215 147.77 194.082 148.368L193.046 149.175Z" fill="#B3A361"/>
<path d="M196.893 149.17C195.926 148.926 194.989 148.658 194.082 148.368C192.215 147.77 190.482 147.075 188.909 146.299V144.67C191.245 145.824 193.935 146.796 196.893 147.543V149.17Z" fill="#8F481C"/>
<path d="M196.893 147.543C193.935 146.796 191.245 145.824 188.909 144.67V137.055C191.245 138.209 193.935 139.181 196.893 139.928V147.543Z" fill="#B27D1D"/>
<path d="M196.893 139.928C193.935 139.181 191.245 138.209 188.909 137.055V136.385C190.176 137.04 191.558 137.642 193.046 138.183L194.082 137.376C194.989 137.666 195.926 137.935 196.893 138.179V139.928Z" fill="#B1881D"/>
<path d="M193.046 138.183C191.558 137.642 190.176 137.04 188.909 136.385V135.308C190.482 136.084 192.215 136.778 194.082 137.376L193.046 138.183Z" fill="#B3A361"/>
<path d="M196.893 138.179C195.926 137.935 194.989 137.666 194.082 137.376C192.215 136.778 190.482 136.084 188.909 135.308V133.679C191.245 134.833 193.935 135.805 196.893 136.552V138.179Z" fill="#8F481C"/>
<path d="M196.893 136.552C193.935 135.804 191.245 134.833 188.909 133.679V126.064C191.245 127.218 193.935 128.189 196.893 128.937V136.552Z" fill="#B27D1D"/>
<path d="M196.893 128.937C193.935 128.189 191.245 127.218 188.909 126.064V125.393C190.176 126.048 191.558 126.651 193.046 127.191L194.082 126.385C194.989 126.675 195.926 126.943 196.893 127.187V128.937Z" fill="#B1881D"/>
<path d="M193.046 127.191C191.558 126.651 190.176 126.048 188.909 125.393V124.316C190.482 125.092 192.215 125.787 194.082 126.385L193.046 127.191Z" fill="#B3A361"/>
<path d="M196.893 127.187C195.926 126.943 194.989 126.675 194.082 126.385C192.215 125.787 190.482 125.092 188.909 124.316V122.687C191.245 123.841 193.935 124.813 196.893 125.558V127.187" fill="#8F481C"/>
<path d="M196.893 125.558C193.935 124.813 191.245 123.841 188.909 122.687V120.799H187.807L188.909 119.24V115.072C191.245 116.226 193.935 117.198 196.893 117.945V125.558" fill="#B27D1D"/>
<path d="M196.893 117.945C193.935 117.198 191.245 116.226 188.909 115.072V115.052V114.402C190.176 115.057 191.558 115.659 193.046 116.2L194.082 115.393C194.989 115.683 195.926 115.951 196.893 116.195V117.945Z" fill="#B1881D"/>
<path d="M193.046 116.2C191.558 115.659 190.176 115.057 188.909 114.402V113.325C190.482 114.101 192.215 114.795 194.082 115.393L193.046 116.2Z" fill="#B3A361"/>
<path d="M196.893 116.196C195.926 115.952 194.989 115.683 194.082 115.393C192.215 114.795 190.482 114.101 188.909 113.325V111.696C191.245 112.85 193.935 113.821 196.893 114.567V116.196" fill="#8F481C"/>
<path d="M196.893 114.567C193.935 113.822 191.245 112.85 188.909 111.696V104.081C191.245 105.235 193.935 106.207 196.893 106.952V114.567Z" fill="#B27D1D"/>
<path d="M196.893 106.952C193.935 106.206 191.245 105.235 188.909 104.081V103.41C190.176 104.065 191.558 104.668 193.046 105.208L194.082 104.402C194.989 104.692 195.926 104.96 196.893 105.204V106.952" fill="#B1881D"/>
<path d="M193.046 105.209C191.558 104.668 190.176 104.066 188.909 103.41V102.333C190.482 103.109 192.215 103.804 194.082 104.402L193.046 105.209Z" fill="#B3A361"/>
<path d="M196.893 105.204C195.926 104.96 194.989 104.692 194.082 104.402C192.215 103.804 190.482 103.109 188.909 102.333V100.704C191.245 101.858 193.935 102.83 196.893 103.575V105.204" fill="#8F481C"/>
<path d="M196.893 103.575C193.935 102.83 191.245 101.858 188.909 100.704V98.0551C189.783 98.2134 190.657 98.4355 191.53 98.7345C193.364 99.361 195.158 99.9062 196.893 100.337V103.575" fill="#B27D1D"/>
<path d="M201.91 181.709C201.91 190.459 216.032 197.553 233.454 197.553C250.873 197.553 264.997 190.459 264.997 181.709C264.997 172.958 250.873 165.864 233.454 165.864C216.032 165.864 201.91 172.958 201.91 181.709Z" fill="#CC731B"/>
<path d="M201.908 172.457V180.08C201.908 186.596 209.708 192.165 220.865 194.613C223.517 195.192 226.344 195.607 229.309 195.792C230.675 195.884 232.059 195.93 233.464 195.93C237.928 195.93 242.201 195.469 246.042 194.613C257.197 192.165 263.008 186.458 263.008 179.942L264.999 171.648C260.453 165.708 246.88 164.231 233.464 164.231C222.776 164.231 207.623 168.39 201.908 172.457" fill="#FBC10C"/>
<path d="M229.309 195.792C226.344 195.607 223.517 195.192 220.865 194.613V186.998C223.511 187.579 226.344 187.979 229.309 188.175V195.792Z" fill="#FADD2C"/>
<path d="M244.711 194.862V164.642C253.855 165.415 261.737 167.383 264.997 171.634V180.06C264.997 186.818 256.571 192.584 244.711 194.862Z" fill="#EF9412"/>
<path d="M201.91 172.465C201.91 181.217 216.032 188.311 233.454 188.311C250.873 188.311 264.997 181.217 264.997 172.465C264.997 163.716 250.873 156.622 233.454 156.622C216.032 156.622 201.91 163.716 201.91 172.465Z" fill="#FAD206"/>
<path d="M215.475 184.89C210.089 182.936 206.066 180.157 204.073 177.027L229.486 157.214C230.942 157.113 232.4 157.062 233.822 157.062C239.034 157.062 244.17 157.715 248.736 158.957L215.475 184.89Z" fill="#F8F67A"/>
<path d="M229.37 187.711C226.84 187.528 224.368 187.194 222.01 186.713L254.829 161.122C256.71 161.975 258.375 162.94 259.787 163.993L229.37 187.711Z" fill="#F8F67A"/>
<path d="M201.91 170.718C201.91 179.467 216.032 186.561 233.454 186.561C250.873 186.561 264.997 179.467 264.997 170.718C264.997 161.966 250.873 154.872 233.454 154.872C216.032 154.872 201.91 161.966 201.91 170.718Z" fill="#CC731B"/>
<path d="M201.908 161.465V169.089C201.908 175.605 209.708 181.173 220.865 183.622C223.517 184.2 226.344 184.616 229.309 184.8C230.675 184.893 232.059 184.939 233.464 184.939C237.928 184.939 242.201 184.477 246.042 183.622C257.197 181.173 263.008 175.466 263.008 168.95L264.999 160.656C260.453 154.719 246.88 153.239 233.464 153.239C222.776 153.239 207.623 157.398 201.908 161.465" fill="#FBC10C"/>
<path d="M229.309 184.8C226.344 184.616 223.517 184.2 220.865 183.622V176.007C223.511 176.587 226.344 176.988 229.309 177.183V184.8Z" fill="#FADD2C"/>
<path d="M244.711 183.87V153.65C253.855 154.424 261.737 156.391 264.997 160.643V169.069C264.997 175.827 256.571 181.593 244.711 183.87Z" fill="#EF9412"/>
<path d="M201.91 161.474C201.91 170.225 216.032 177.319 233.454 177.319C250.873 177.319 264.997 170.225 264.997 161.474C264.997 152.725 250.873 145.631 233.454 145.631C216.032 145.631 201.91 152.725 201.91 161.474Z" fill="#FAD206"/>
<path d="M215.475 173.899C210.089 171.944 206.066 169.166 204.073 166.035L229.486 146.222C230.942 146.121 232.4 146.07 233.822 146.07C239.034 146.07 244.17 146.723 248.736 147.965L215.475 173.899Z" fill="#F8F67A"/>
<path d="M229.37 176.719C226.84 176.537 224.368 176.203 222.01 175.721L254.829 150.131C256.71 150.984 258.375 151.949 259.787 153.002L229.37 176.719Z" fill="#F8F67A"/>
<path d="M201.91 159.726C201.91 168.476 216.032 175.57 233.454 175.57C250.873 175.57 264.997 168.476 264.997 159.726C264.997 150.975 250.873 143.881 233.454 143.881C216.032 143.881 201.91 150.975 201.91 159.726Z" fill="#CC731B"/>
<path d="M201.908 150.474V158.097C201.908 164.613 209.708 170.181 220.865 172.63C223.517 173.208 226.344 173.624 229.309 173.809C230.675 173.901 232.059 173.947 233.464 173.947C237.928 173.947 242.201 173.485 246.042 172.63C257.197 170.181 263.008 164.475 263.008 157.959L264.999 149.665C260.453 143.727 246.88 142.248 233.464 142.248C222.776 142.248 207.623 146.407 201.908 150.474" fill="#FBC10C"/>
<path d="M229.309 173.809C226.344 173.624 223.517 173.209 220.865 172.63V165.015C223.511 165.596 226.344 165.996 229.309 166.192V173.809Z" fill="#FADD2C"/>
<path d="M244.711 172.879V142.659C253.855 143.432 261.737 145.4 264.997 149.651V158.078C264.997 164.835 256.571 170.601 244.711 172.879Z" fill="#EF9412"/>
<path d="M201.91 150.482C201.91 159.234 216.032 166.328 233.454 166.328C250.873 166.328 264.997 159.234 264.997 150.482C264.997 141.733 250.873 134.639 233.454 134.639C216.032 134.639 201.91 141.733 201.91 150.482Z" fill="#FAD206"/>
<path d="M215.475 162.907C210.089 160.953 206.066 158.174 204.073 155.044L229.486 135.231C230.942 135.13 232.4 135.079 233.822 135.079C239.034 135.079 244.17 135.732 248.736 136.974L215.475 162.907Z" fill="#F8F67A"/>
<path d="M229.37 165.728C226.84 165.545 224.368 165.211 222.01 164.73L254.829 139.139C256.71 139.992 258.375 140.957 259.787 142.01L229.37 165.728Z" fill="#F8F67A"/>
<path d="M201.91 148.735C201.91 157.484 216.032 164.578 233.454 164.578C250.873 164.578 264.997 157.484 264.997 148.735C264.997 139.983 250.873 132.889 233.454 132.889C216.032 132.889 201.91 139.983 201.91 148.735Z" fill="#CC731B"/>
<path d="M201.908 139.482V147.106C201.908 153.622 209.708 159.19 220.865 161.639C223.517 162.217 226.344 162.633 229.309 162.817C230.675 162.909 232.059 162.956 233.464 162.956C237.928 162.956 242.201 162.494 246.042 161.639C257.197 159.19 263.008 153.483 263.008 146.967L264.999 138.673C260.453 132.736 246.88 131.256 233.464 131.256C222.776 131.256 207.623 135.415 201.908 139.482" fill="#FBC10C"/>
<path d="M229.309 162.817C226.344 162.633 223.517 162.217 220.865 161.639V154.024C223.511 154.604 226.344 155.004 229.309 155.2V162.817Z" fill="#FADD2C"/>
<path d="M244.711 161.887V131.667C253.855 132.441 261.737 134.408 264.997 138.66V147.086C264.997 153.844 256.571 159.61 244.711 161.887Z" fill="#EF9412"/>
<path d="M201.91 139.491C201.91 148.242 216.032 155.336 233.454 155.336C250.873 155.336 264.997 148.242 264.997 139.491C264.997 130.742 250.873 123.648 233.454 123.648C216.032 123.648 201.91 130.742 201.91 139.491Z" fill="#FAD206"/>
<path d="M215.475 151.916C210.089 149.962 206.066 147.183 204.073 144.053L229.486 124.239C230.942 124.138 232.4 124.088 233.822 124.088C239.034 124.088 244.17 124.74 248.736 125.982L215.475 151.916Z" fill="#F8F67A"/>
<path d="M229.37 154.736C226.84 154.554 224.368 154.22 222.01 153.738L254.829 128.148C256.71 129.001 258.375 129.966 259.787 131.019L229.37 154.736Z" fill="#F8F67A"/>
<path d="M201.91 137.743C201.91 146.493 216.032 153.587 233.454 153.587C250.873 153.587 264.997 146.493 264.997 137.743C264.997 128.992 250.873 121.898 233.454 121.898C216.032 121.898 201.91 128.992 201.91 137.743Z" fill="#CC731B"/>
<path d="M201.908 128.491V136.115C201.908 142.63 209.708 148.199 220.865 150.647C223.517 151.226 226.344 151.641 229.309 151.826C230.675 151.92 232.059 151.964 233.464 151.964C237.928 151.964 242.201 151.503 246.042 150.647C257.197 148.199 263.008 142.492 263.008 135.976L264.999 127.682C260.453 121.742 246.88 120.265 233.464 120.265C222.776 120.265 207.623 124.424 201.908 128.491" fill="#FBC10C"/>
<path d="M229.309 151.826C226.344 151.641 223.517 151.226 220.865 150.647V143.033C223.511 143.613 226.344 144.015 229.309 144.209V151.826Z" fill="#FADD2C"/>
<path d="M244.711 150.896V120.676C253.855 121.449 261.737 123.417 264.997 127.668V136.095C264.997 142.852 256.571 148.618 244.711 150.896Z" fill="#EF9412"/>
<path d="M201.91 128.499C201.91 137.251 216.032 144.345 233.454 144.345C250.873 144.345 264.997 137.251 264.997 128.499C264.997 119.75 250.873 112.656 233.454 112.656C216.032 112.656 201.91 119.75 201.91 128.499Z" fill="#FAD206"/>
<path d="M215.475 140.926C210.089 138.97 206.066 136.191 204.073 133.061L229.486 113.248C230.942 113.147 232.4 113.096 233.822 113.096C239.034 113.096 244.17 113.749 248.736 114.991L215.475 140.926Z" fill="#F8F67A"/>
<path d="M229.37 143.745C226.84 143.562 224.368 143.228 222.01 142.747L254.829 117.156C256.71 118.009 258.375 118.974 259.787 120.027L229.37 143.745Z" fill="#F8F67A"/>
<path d="M201.91 126.752C201.91 135.501 216.032 142.595 233.454 142.595C250.873 142.595 264.997 135.501 264.997 126.752C264.997 118 250.873 110.907 233.454 110.907C216.032 110.907 201.91 118 201.91 126.752Z" fill="#CC731B"/>
<path d="M201.908 117.499V125.123C201.908 131.639 209.708 137.207 220.865 139.656C223.517 140.234 226.344 140.652 229.309 140.834C230.675 140.926 232.059 140.973 233.464 140.973C237.928 140.973 242.201 140.511 246.042 139.656C257.197 137.207 263.008 131.5 263.008 124.984L264.999 116.69C260.453 110.75 246.88 109.273 233.464 109.273C222.776 109.273 207.623 113.432 201.908 117.499" fill="#FBC10C"/>
<path d="M229.309 140.834C226.344 140.652 223.517 140.234 220.865 139.656V125.679H229.309V140.834Z" fill="#FADD2C"/>
<path d="M244.711 139.904V109.684C253.855 110.458 261.737 112.425 264.997 116.677V125.103C264.997 131.861 256.571 137.627 244.711 139.904Z" fill="#EF9412"/>
<path d="M201.91 117.508C201.91 126.259 216.034 133.353 233.454 133.353C250.873 133.353 264.997 126.259 264.997 117.508C264.997 108.759 250.873 101.665 233.454 101.665C216.034 101.665 201.91 108.759 201.91 117.508Z" fill="#FAD206"/>
<path d="M215.475 129.933C210.089 127.979 206.066 125.2 204.073 122.069L229.486 102.256C230.942 102.155 232.4 102.104 233.822 102.104C239.034 102.104 244.17 102.757 248.736 103.999L215.475 129.933Z" fill="#F8F67A"/>
<path d="M229.37 132.753C226.84 132.571 224.368 132.237 222.01 131.755L254.829 106.165C256.71 107.018 258.375 107.983 259.789 109.036L229.37 132.753Z" fill="#F8F67A"/>
<path d="M107.325 118.168C107.325 126.919 121.448 134.013 138.869 134.013C156.288 134.013 170.412 126.919 170.412 118.168C170.412 109.418 156.288 102.324 138.869 102.324C121.448 102.324 107.325 109.418 107.325 118.168Z" fill="#CC731B"/>
<path d="M107.323 108.915V116.541C107.323 123.056 115.123 128.625 126.278 131.074C128.931 131.652 131.759 132.067 134.724 132.252C136.09 132.344 137.474 132.39 138.877 132.39C143.343 132.39 147.616 131.929 151.457 131.074C162.611 128.625 168.423 122.918 168.423 116.402L170.414 108.106C165.868 102.168 152.295 100.689 138.877 100.689C128.191 100.689 113.038 104.848 107.323 108.915" fill="#FBC10C"/>
<path d="M150.126 131.322V101.102C159.27 101.876 167.152 103.841 170.412 108.095V116.519C170.412 123.279 161.986 129.045 150.126 131.322Z" fill="#EF9412"/>
<path d="M107.325 108.926C107.325 117.677 121.448 124.771 138.869 124.771C156.288 124.771 170.412 117.677 170.412 108.926C170.412 100.174 156.288 93.0803 138.869 93.0803C121.448 93.0803 107.325 100.174 107.325 108.926Z" fill="#FAD206"/>
<path d="M120.89 121.351C115.504 119.396 111.481 116.618 109.488 113.487L134.899 93.674C136.364 93.5729 137.825 93.5201 139.237 93.5201C144.448 93.5201 149.584 94.1752 154.149 95.4172L120.89 121.351Z" fill="#F8F67A"/>
<path d="M134.785 124.169C132.258 123.989 129.787 123.654 127.425 123.171L160.244 97.5827C162.123 98.4356 163.788 99.3985 165.204 100.454L134.785 124.169Z" fill="#F8F67A"/>
<path d="M107.325 107.176C107.325 115.927 121.448 123.021 138.869 123.021C156.288 123.021 170.412 115.927 170.412 107.176C170.412 98.4267 156.288 91.3327 138.869 91.3327C121.448 91.3327 107.325 98.4267 107.325 107.176Z" fill="#CC731B"/>
<path d="M107.323 97.9233V105.549C107.323 112.065 115.123 117.633 126.278 120.082C128.931 120.66 131.759 121.076 134.724 121.26C136.09 121.353 137.474 121.399 138.877 121.399C143.343 121.399 147.616 120.937 151.457 120.082C162.611 117.633 168.423 111.926 168.423 105.411L170.414 97.1144C165.868 91.1768 152.295 89.6972 138.877 89.6972C128.191 89.6972 113.038 93.8564 107.323 97.9233" fill="#FBC10C"/>
<path d="M150.126 120.33V90.1105C159.27 90.8843 167.152 92.8495 170.412 97.1032V105.527C170.412 112.287 161.986 118.053 150.126 120.33Z" fill="#EF9412"/>
<path d="M107.325 97.9343C107.325 106.686 121.448 113.78 138.869 113.78C156.288 113.78 170.412 106.686 170.412 97.9343C170.412 89.1828 156.288 82.0889 138.869 82.0889C121.448 82.0889 107.325 89.1828 107.325 97.9343Z" fill="#FAD206"/>
<path d="M120.89 110.359C115.504 108.403 111.481 105.626 109.488 102.496L134.899 82.6826C136.364 82.5815 137.825 82.5287 139.237 82.5287C144.448 82.5287 149.584 83.1838 154.149 84.4258L120.89 110.359Z" fill="#F8F67A"/>
<path d="M134.785 113.177C132.258 112.997 129.787 112.663 127.425 112.179L160.244 86.591C162.123 87.4439 163.788 88.4068 165.204 89.462L134.785 113.177Z" fill="#F8F67A"/>
<path d="M107.325 96.1845C107.325 104.936 121.448 112.03 138.869 112.03C156.288 112.03 170.412 104.936 170.412 96.1845C170.412 87.4353 156.288 80.3413 138.869 80.3413C121.448 80.3413 107.325 87.4353 107.325 96.1845Z" fill="#CC731B"/>
<path d="M107.323 86.9318V94.5578C107.323 101.071 115.123 106.642 126.278 109.091C128.931 109.669 131.759 110.084 134.724 110.269C136.09 110.361 137.474 110.408 138.877 110.408C143.343 110.408 147.616 109.946 151.457 109.091C162.611 106.642 168.423 100.935 168.423 94.4193L170.414 86.1229C165.868 80.1853 152.295 78.7058 138.877 78.7058C128.191 78.7058 113.038 82.865 107.323 86.9318" fill="#FBC10C"/>
<path d="M150.126 109.339V79.119C159.27 79.8928 167.152 81.858 170.412 86.1117V94.5357C170.412 101.295 161.986 107.062 150.126 109.339Z" fill="#EF9412"/>
<path d="M107.325 86.9428C107.325 95.6942 121.448 102.788 138.869 102.788C156.288 102.788 170.412 95.6942 170.412 86.9428C170.412 78.1914 156.288 71.0974 138.869 71.0974C121.448 71.0974 107.325 78.1914 107.325 86.9428Z" fill="#FAD206"/>
<path d="M120.89 99.3676C115.504 97.4111 111.481 94.6346 109.488 91.5042L134.899 71.691C136.364 71.5898 137.825 71.537 139.237 71.537C144.448 71.537 149.584 72.1921 154.149 73.4341L120.89 99.3676Z" fill="#F8F67A"/>
<path d="M134.785 102.186C132.258 102.006 129.787 101.671 127.425 101.188L160.244 75.5996C162.123 76.4525 163.788 77.4154 165.204 78.4706L134.785 102.186Z" fill="#F8F67A"/>
<path d="M107.325 85.1931C107.325 93.9445 121.448 101.038 138.869 101.038C156.288 101.038 170.412 93.9445 170.412 85.1931C170.412 76.4438 156.288 69.3498 138.869 69.3498C121.448 69.3498 107.325 76.4438 107.325 85.1931Z" fill="#CC731B"/>
<path d="M107.323 75.9402V83.5662C107.323 90.0798 115.123 95.6502 126.278 98.0991C128.931 98.6773 131.759 99.0927 134.724 99.2774C136.09 99.3697 137.474 99.4159 138.877 99.4159C143.343 99.4159 147.616 98.9543 151.457 98.0991C162.611 95.6502 168.423 89.9412 168.423 83.4276L170.414 75.1313C165.868 69.1937 152.295 67.7142 138.877 67.7142C128.191 67.7142 113.038 71.8733 107.323 75.9402" fill="#FBC10C"/>
<path d="M150.126 98.3476V68.1276C159.27 68.9014 167.152 70.8666 170.412 75.1203V83.5442C170.412 90.304 161.986 96.0701 150.126 98.3476Z" fill="#EF9412"/>
<path d="M107.325 75.9512C107.325 84.7026 121.448 91.7965 138.869 91.7965C156.288 91.7965 170.412 84.7026 170.412 75.9512C170.412 67.1997 156.288 60.1058 138.869 60.1058C121.448 60.1058 107.325 67.1997 107.325 75.9512Z" fill="#FAD206"/>
<path d="M120.89 88.3761C115.504 86.4196 111.481 83.6432 109.488 80.5128L134.899 60.6995C136.364 60.5984 137.825 60.5456 139.237 60.5456C144.448 60.5456 149.584 61.2007 154.149 62.4427L120.89 88.3761Z" fill="#F8F67A"/>
<path d="M134.785 91.1944C132.258 91.0141 129.787 90.68 127.425 90.1963L160.244 64.6081C162.123 65.4611 163.788 66.4239 165.204 67.4791L134.785 91.1944Z" fill="#F8F67A"/>
<path d="M107.325 74.2014C107.325 82.9528 121.448 90.0468 138.869 90.0468C156.288 90.0468 170.412 82.9528 170.412 74.2014C170.412 65.45 156.288 58.3582 138.869 58.3582C121.448 58.3582 107.325 65.45 107.325 74.2014Z" fill="#CC731B"/>
<path d="M107.323 64.9488V72.5748C107.323 79.0883 115.123 84.6588 126.278 87.1077C128.931 87.6858 131.759 88.1013 134.724 88.286C136.09 88.3783 137.474 88.4244 138.877 88.4244C143.343 88.4244 147.616 87.9628 151.457 87.1077C162.611 84.6588 168.423 78.9498 168.423 72.434L170.414 64.1398C165.868 58.2022 152.295 56.7227 138.877 56.7227C128.191 56.7227 113.038 60.8819 107.323 64.9488" fill="#FBC10C"/>
<path d="M134.724 87.8243H130.243C128.883 87.6286 127.562 87.3869 126.278 87.1077V79.4927C128.926 80.0709 131.759 80.4732 134.724 80.6688V87.8243" fill="#FADD2C"/>
<path d="M150.126 87.3559V57.1359C159.27 57.9097 167.152 59.8749 170.412 64.1286V72.5526C170.412 79.3124 161.986 85.0785 150.126 87.3559Z" fill="#EF9412"/>
<path d="M107.325 64.9597C107.325 73.7112 121.448 80.8051 138.869 80.8051C156.288 80.8051 170.412 73.7112 170.412 64.9597C170.412 56.2083 156.288 49.1143 138.869 49.1143C121.448 49.1143 107.325 56.2083 107.325 64.9597Z" fill="#FAD206"/>
<path d="M120.89 77.3847C115.504 75.4282 111.481 72.6517 109.488 69.5214L134.899 49.7081C136.364 49.607 137.825 49.5542 139.237 49.5542C144.448 49.5542 149.584 50.2092 154.149 51.4513L120.89 77.3847Z" fill="#F8F67A"/>
<path d="M134.785 80.2027C132.258 80.0225 129.787 79.6861 127.425 79.2047L160.244 53.6165C162.123 54.4694 163.788 55.4323 165.204 56.4875L134.785 80.2027Z" fill="#F8F67A"/>
<path d="M107.325 63.21C107.325 71.9614 121.448 79.0553 138.869 79.0553C156.288 79.0553 170.412 71.9614 170.412 63.21C170.412 54.4585 156.288 47.3667 138.869 47.3667C121.448 47.3667 107.325 54.4585 107.325 63.21Z" fill="#CC731B"/>
<path d="M107.323 53.9573V61.5833C107.323 68.0991 115.123 73.6673 126.278 76.1163C128.931 76.6944 131.759 77.1099 134.724 77.2945C136.09 77.3868 137.474 77.433 138.877 77.433C143.343 77.433 147.616 76.9714 151.457 76.1163C162.611 73.6673 168.423 67.9584 168.423 61.4426L170.414 53.1484C165.868 47.2108 152.295 45.7313 138.877 45.7313C128.191 45.7313 113.038 49.8905 107.323 53.9573" fill="#FBC10C"/>
<path d="M134.724 77.2945C131.759 77.1099 128.931 76.6944 126.278 76.1163V62.1373H134.724V77.2945Z" fill="#FADD2C"/>
<path d="M150.126 76.3645V46.1445C159.27 46.9183 167.152 48.8835 170.412 53.1372V61.5612C170.412 68.3209 161.986 74.087 150.126 76.3645Z" fill="#EF9412"/>
<path d="M107.325 53.9683C107.325 62.7197 121.448 69.8137 138.869 69.8137C156.288 69.8137 170.412 62.7197 170.412 53.9683C170.412 45.2168 156.288 38.1229 138.869 38.1229C121.448 38.1229 107.325 45.2168 107.325 53.9683Z" fill="#FAD206"/>
<path d="M120.89 66.393C115.504 64.4387 111.481 61.6601 109.488 58.5297L134.9 38.7164C136.366 38.6153 137.825 38.5625 139.237 38.5625C144.448 38.5625 149.584 39.2176 154.151 40.4596L120.89 66.393Z" fill="#F8F67A"/>
<path d="M134.785 69.2113C132.258 69.031 129.787 68.6969 127.425 68.2133L160.244 42.625C162.123 43.478 163.788 44.4409 165.204 45.496L134.785 69.2113Z" fill="#F8F67A"/>
<path d="M152.77 209.03L188.909 157.961V185.189L152.822 236.219L152.792 236.458H0V209.03H152.77" fill="#40742E"/>
<path d="M188.909 180.999V153.773L152.77 204.842L152.792 232.07L188.909 180.999" fill="#458532"/>
<path d="M36.5059 154.703L1.68096 203.912H152.405L187.228 154.703H36.5059" fill="#A5DA53"/>
<path d="M0 232.27H152.792L152.77 204.842H0V232.27Z" fill="#63A731"/>
<path d="M21.5732 187.656L33.4036 170.711C41.2948 170.676 51.1287 165.71 55.4092 159.583H161.337C157.112 165.64 159.903 170.555 167.543 170.702L155.705 187.656C147.966 187.746 138.424 192.529 134.062 198.485H28.097C32.0491 192.529 29.188 187.746 21.5732 187.656ZM36.3222 154.519L2.09103 203.549H152.997L187.228 154.519H36.3222" fill="#63A731"/>
<path d="M81.4597 179.034C77.502 184.703 80.2036 189.298 87.4936 189.298C94.7818 189.298 103.9 184.703 107.859 179.034C111.817 173.365 109.117 168.768 101.825 168.768C94.537 168.768 85.4192 173.365 81.4597 179.034Z" fill="#547629"/>
<path d="M118.901 179.034C116.758 182.103 118.22 184.591 122.166 184.591C126.111 184.591 131.047 182.103 133.19 179.034C135.331 175.965 133.869 173.479 129.924 173.479C125.978 173.479 121.044 175.965 118.901 179.034Z" fill="white"/>
<path d="M56.1291 179.034C53.9879 182.103 55.4501 184.591 59.3947 184.591C63.3413 184.591 68.2768 182.103 70.418 179.034C72.561 175.965 71.0989 173.479 67.1524 173.479C63.2077 173.479 58.2722 175.965 56.1291 179.034Z" fill="white"/>
<path d="M185.547 155.631H36.8715L3.36391 202.982H152.039L185.547 155.631ZM36.1385 153.773H188.909L152.77 204.842H0L36.1385 153.773" fill="#95D449"/>
<path d="M65.6383 204.84V232.266H86.8164V204.84L86.8368 204.816L122.955 153.776H101.775L65.6569 204.816L65.6383 204.84Z" fill="white"/>
<path d="M120.634 153.773H124.892L88.7535 204.842V232.27H84.4972V204.842L120.634 153.773" fill="#F4744D"/>
<path d="M99.7711 153.773H104.029L67.8908 204.842V232.27H63.6325V204.842L99.7711 153.773" fill="#F4744D"/>
<path d="M152.77 176.055L188.909 124.987V152.215L152.822 203.244L152.792 203.484H0V176.055H152.77" fill="#40742E"/>
<path d="M188.909 148.027V120.799L152.77 171.868L152.792 199.096L188.909 148.027" fill="#458532"/>
<path d="M36.5059 121.729L1.68096 170.938H152.405L187.228 121.729H36.5059" fill="#A5DA53"/>
<path d="M0 199.296H152.792L152.77 171.868H0V199.296Z" fill="#63A731"/>
<path d="M21.5732 154.681L33.4036 137.737C41.2948 137.702 51.1287 132.736 55.4092 126.609H161.337C157.112 132.665 159.903 137.581 167.543 137.726L155.705 154.681C147.966 154.771 138.424 159.555 134.062 165.51H28.097C32.0491 159.555 29.188 154.771 21.5732 154.681ZM36.3222 121.544L2.09103 170.575H152.997L187.228 121.544H36.3222" fill="#63A731"/>
<path d="M81.4597 146.059C77.502 151.729 80.2036 156.323 87.4936 156.323C94.7818 156.323 103.9 151.729 107.859 146.059C111.817 140.39 109.117 135.793 101.825 135.793C94.537 135.793 85.4192 140.39 81.4597 146.059Z" fill="#547629"/>
<path d="M118.901 146.059C116.758 149.128 118.22 151.615 122.166 151.615C126.111 151.615 131.047 149.128 133.19 146.059C135.331 142.991 133.869 140.504 129.924 140.504C125.978 140.504 121.044 142.991 118.901 146.059Z" fill="white"/>
<path d="M56.1291 146.059C53.9879 149.128 55.4501 151.615 59.3947 151.615C63.3413 151.615 68.2768 149.128 70.418 146.059C72.561 142.991 71.0989 140.504 67.1524 140.504C63.2077 140.504 58.2722 142.991 56.1291 146.059Z" fill="white"/>
<path d="M185.547 122.659H36.8715L3.36391 170.008H152.039L185.547 122.659ZM36.1385 120.799H188.909L152.77 171.868H0L36.1385 120.799" fill="#95D449"/>
<path d="M65.6383 171.865V199.291H86.8164V171.865L86.8368 171.841L122.955 120.801H101.775L65.6569 171.841L65.6383 171.865Z" fill="white"/>
<path d="M120.634 120.799H124.892L88.7535 171.868V199.296H84.4972V171.868L120.634 120.799" fill="#F4744D"/>
<path d="M99.7711 120.799H104.029L67.8908 171.868V199.296H63.6325V171.868L99.7711 120.799" fill="#F4744D"/>
<path d="M152.77 143.081L188.909 92.0122V119.24L152.822 170.269L152.792 170.509H0V143.081H152.77" fill="#40742E"/>
<path d="M188.909 115.052V87.8243L152.77 138.893L152.792 166.121L188.909 115.052" fill="#458532"/>
<path d="M36.5059 88.7541L1.68096 137.963H152.405L187.228 88.7541H36.5059" fill="#A5DA53"/>
<path d="M0 166.321H152.792L152.77 138.893H0V166.321Z" fill="#63A731"/>
<path d="M21.5732 121.707L33.4036 104.762C41.2948 104.727 51.1287 99.7611 55.4092 93.6344H161.337C157.112 99.6907 159.903 104.606 167.543 104.751L155.705 121.707C147.966 121.797 138.424 126.58 134.062 132.536H28.097C32.0491 126.58 29.188 121.797 21.5732 121.707ZM36.3222 88.5695L2.09103 137.6H152.997L187.228 88.5695H36.3222" fill="#63A731"/>
<path d="M81.4597 113.085C77.502 118.754 80.2036 123.349 87.4936 123.349C94.7818 123.349 103.9 118.754 107.859 113.085C111.817 107.415 109.117 102.821 101.825 102.821C94.537 102.821 85.4192 107.415 81.4597 113.085Z" fill="#547629"/>
<path d="M118.901 113.085C116.758 116.154 118.22 118.64 122.166 118.64C126.111 118.64 131.047 116.154 133.19 113.085C135.331 110.016 133.869 107.53 129.924 107.53C125.978 107.53 121.044 110.016 118.901 113.085Z" fill="white"/>
<path d="M56.1291 113.085C53.9879 116.154 55.4501 118.64 59.3947 118.64C63.3413 118.64 68.2768 116.154 70.418 113.085C72.561 110.016 71.0989 107.53 67.1524 107.53C63.2077 107.53 58.2722 110.016 56.1291 113.085Z" fill="white"/>
<path d="M185.547 89.682H36.8715L3.36391 137.033H152.039L185.547 89.682ZM36.1385 87.8244H188.909L152.77 138.893H0L36.1385 87.8244" fill="#95D449"/>
<path d="M88.7664 151.364H91.2003V138.893H88.7664V151.364Z" fill="#448131"/>
<path d="M95.7003 132.536H93.253L104.408 116.771C105.774 115.626 106.952 114.384 107.859 113.085C108.729 111.839 109.277 110.645 109.525 109.541L120.78 93.6344H123.228L95.7003 132.536Z" fill="#69B630"/>
<path d="M92.5164 137.033H90.0689L93.2529 132.536H95.7002L92.5164 137.033ZM123.228 93.6344H120.78L123.578 89.6819H126.024L123.228 93.6344" fill="#448131"/>
<path d="M104.408 116.772L109.525 109.541C109.277 110.645 108.729 111.839 107.859 113.085C106.952 114.384 105.774 115.626 104.408 116.772Z" fill="#3D5B25"/>
<path d="M91.2008 138.893H88.7664V138.891L88.7869 138.867H88.7721L90.069 137.033H92.5164L91.2008 138.893V138.893ZM126.024 89.682H123.578L124.892 87.8244H120.634L120.632 87.8266H106.152L106.154 87.8244H127.339L126.024 89.682Z" fill="#60AE32"/>
<path d="M65.6383 138.891V166.317H86.8164V138.891L86.8368 138.867L122.955 87.8266H101.775L65.6569 138.867L65.6383 138.891Z" fill="white"/>
<path d="M120.634 87.8243H124.892L88.7535 138.893V166.321H84.4972V138.893L120.634 87.8243" fill="#F4744D"/>
<path d="M99.7711 87.8243H104.029L67.8908 138.893V166.321H63.6325V138.893L99.7711 87.8243" fill="#F4744D"/>
<path d="M88.7535 151.364H88.7664V138.893H88.7535V151.364Z" fill="#3B692A"/>
<path d="M88.7664 138.893H88.7535L88.772 138.867H88.7869L88.7664 138.891V138.893" fill="#538F31"/>
<path d="M84.4971 151.364H67.8909V138.893L67.9094 138.867H84.5138L84.4971 138.893V151.364Z" fill="#DCD5CB"/>
<path d="M88.7535 151.364H84.4972V138.893L84.5138 138.867H88.7721L88.7535 138.893V151.364Z" fill="#DC5F3D"/>
<path d="M67.8908 151.364H63.6883V138.891L67.607 138.867H67.9094L67.8908 138.893V151.364Z" fill="#DC5F3D"/>
<path d="M180.073 272.57L216.214 221.501V248.729L180.123 299.76L180.097 300H27.3029V272.57H180.073" fill="#40742E"/>
<path d="M216.212 244.541V217.313L180.073 268.382L180.095 295.61L216.212 244.541" fill="#458532"/>
<path d="M63.8089 218.243L28.984 267.454H179.708L214.531 218.243H63.8089" fill="#A5DA53"/>
<path d="M27.3029 295.81H180.095L180.073 268.382H27.3029V295.81Z" fill="#63A731"/>
<path d="M48.8762 251.198L60.7065 234.253C68.5978 234.218 78.4298 229.252 82.7122 223.125H188.638C184.415 229.182 187.207 234.097 194.846 234.242L183.008 251.198C175.269 251.286 165.727 256.071 161.367 262.024H55.4C59.3521 256.071 56.491 251.286 48.8762 251.198ZM63.6251 218.06L29.394 267.089H180.3L214.531 218.06H63.6251" fill="#63A731"/>
<path d="M108.765 242.574C104.805 248.243 107.507 252.84 114.797 252.84C122.085 252.84 131.204 248.243 135.162 242.574C139.12 236.906 136.418 232.31 129.13 232.31C121.84 232.31 112.72 236.906 108.765 242.574Z" fill="#547629"/>
<path d="M146.204 242.574C144.061 245.642 145.523 248.131 149.469 248.131C153.414 248.131 158.35 245.642 160.493 242.574C162.634 239.507 161.174 237.019 157.227 237.019C153.28 237.019 148.347 239.507 146.204 242.574Z" fill="white"/>
<path d="M83.432 242.574C81.289 245.642 82.7529 248.131 86.6976 248.131C90.6423 248.131 95.5797 245.642 97.7209 242.574C99.8639 239.507 98.4018 237.019 94.4572 237.019C90.5106 237.019 85.5751 239.507 83.432 242.574Z" fill="white"/>
<path d="M212.85 219.173H64.1744L30.6668 266.524H179.342L212.85 219.173ZM63.4415 217.313H216.212L180.073 268.382H27.3029L63.4415 217.313" fill="#95D449"/>
<path d="M118.504 295.81H116.056V295.806H116.071V268.382H118.504V295.81Z" fill="#448131"/>
<path d="M118.504 268.382H116.071V268.38L116.09 268.358H116.075L117.018 267.025H119.465L118.504 268.382" fill="#60AE32"/>
<path d="M97.3183 295.81H111.798V295.805H97.3183V295.81Z" fill="#448131"/>
<path d="M92.9412 268.38V295.806H114.119V268.38L114.14 268.358L150.256 217.317H129.078L92.9598 268.358L92.9412 268.38" fill="white"/>
<path d="M147.937 217.313H152.197L116.056 268.382V295.81H111.798V268.382L147.937 217.313" fill="#F4744D"/>
<path d="M127.074 217.313H131.332L95.1937 268.382V295.81H90.9355V268.382L127.074 217.313Z" fill="#F4744D"/>
<path d="M116.056 295.806H116.072V268.382H116.056V295.806Z" fill="#3B692A"/>
<path d="M116.071 268.382H116.056L116.075 268.358H116.09L116.071 268.38V268.382" fill="#538F31"/>
<path d="M111.798 295.806H95.1938V268.382L95.2105 268.358H111.817L111.798 268.382V295.806Z" fill="#DCD5CB"/>
<path d="M116.056 295.806H111.798V268.382L111.817 268.358H116.075L116.056 268.382V295.806Z" fill="#DC5F3D"/>
<path d="M95.1937 295.806H90.9912V268.38L94.9099 268.358H95.2104L95.1937 268.382V295.806" fill="#DC5F3D"/>
<path d="M180.073 239.597L216.214 188.526V215.754L180.123 266.786L180.097 267.025H27.3029V239.597H180.073" fill="#40742E"/>
<path d="M216.212 211.567V184.338L180.073 235.407L180.095 262.635L216.212 211.567" fill="#458532"/>
<path d="M63.8089 185.268L28.984 234.48H179.708L214.531 185.268H63.8089" fill="#A5DA53"/>
<path d="M27.3029 262.838H180.095L180.073 235.407H27.3029V262.838Z" fill="#63A731"/>
<path d="M48.8762 218.223L60.7065 201.279C68.5978 201.243 78.4298 196.277 82.7122 190.151H188.638C184.415 196.207 187.207 201.123 194.846 201.268L183.008 218.223C175.269 218.313 165.727 223.097 161.367 229.05H55.4C59.3521 223.097 56.491 218.313 48.8762 218.223ZM63.6251 185.086L29.394 234.115H180.3L214.531 185.086H63.6251" fill="#63A731"/>
<path d="M108.765 209.599C104.805 215.269 107.507 219.865 114.797 219.865C122.085 219.865 131.204 215.269 135.162 209.599C139.12 203.93 136.418 199.335 129.13 199.335C121.84 199.335 112.72 203.93 108.765 209.599Z" fill="#547629"/>
<path d="M146.204 209.599C144.061 212.668 145.523 215.156 149.469 215.156C153.414 215.156 158.35 212.668 160.493 209.599C162.634 206.532 161.174 204.044 157.227 204.044C153.28 204.044 148.347 206.532 146.204 209.599Z" fill="white"/>
<path d="M83.432 209.599C81.289 212.668 82.7529 215.156 86.6976 215.156C90.6423 215.156 95.5797 212.668 97.7209 209.599C99.8639 206.53 98.4018 204.044 94.4572 204.044C90.5106 204.044 85.5751 206.53 83.432 209.599Z" fill="white"/>
<path d="M212.85 186.198H64.1744L30.6668 233.55H179.342L212.85 186.198ZM63.4415 184.338H216.212L180.073 235.407H27.3029L63.4415 184.338" fill="#95D449"/>
<path d="M118.504 262.838H116.056V262.831H116.071V235.407H118.504V262.838Z" fill="#448131"/>
<path d="M118.504 235.407H116.071V235.405L116.09 235.383H116.075L117.018 234.049H119.465L118.504 235.407Z" fill="#60AE32"/>
<path d="M97.3183 262.838H111.798V262.831H97.3183V262.838Z" fill="#448131"/>
<path d="M92.9412 235.405V262.831H114.119V235.405L114.14 235.383L150.256 184.343H129.078L92.9598 235.383L92.9412 235.405" fill="white"/>
<path d="M147.937 184.339H152.197L116.056 235.407V262.838H111.798V235.407L147.937 184.339" fill="#F4744D"/>
<path d="M127.074 184.339H131.332L95.1937 235.407V262.838H90.9355V235.407L127.074 184.339Z" fill="#F4744D"/>
<path d="M116.056 262.831H116.072V235.407H116.056V262.831Z" fill="#3B692A"/>
<path d="M116.071 235.407H116.056L116.075 235.383H116.09L116.071 235.405V235.407" fill="#538F31"/>
<path d="M111.798 262.831H95.1938V235.407L95.2105 235.383H111.817L111.798 235.407V262.831Z" fill="#DCD5CB"/>
<path d="M116.056 262.831H111.798V235.407L111.817 235.383H116.075L116.056 235.407V262.831Z" fill="#DC5F3D"/>
<path d="M95.1937 262.831H90.9912V235.405L94.9099 235.383H95.2104L95.1937 235.407V262.831" fill="#DC5F3D"/>
<path d="M180.073 206.62L216.214 155.552V182.78L180.123 233.811L180.097 234.049H27.3029V206.62H180.073" fill="#40742E"/>
<path d="M216.212 178.592V151.364L180.073 202.433L180.095 229.661L216.212 178.592" fill="#458532"/>
<path d="M63.8089 152.294L28.984 201.503H179.708L214.531 152.294H63.8089" fill="#A5DA53"/>
<path d="M27.3029 229.861H180.095L180.073 202.433H27.3029V229.861Z" fill="#63A731"/>
<path d="M48.8762 185.249L60.7065 168.304C68.5978 168.269 78.4298 163.303 82.7122 157.176H188.638C184.415 163.233 187.207 168.146 194.846 168.293L183.008 185.249C175.269 185.337 165.727 190.122 161.367 196.075H55.4C59.3521 190.122 56.491 185.337 48.8762 185.249ZM63.6251 152.111L29.394 201.14H180.3L214.531 152.111H63.6251" fill="#63A731"/>
<path d="M108.765 176.627C104.805 182.294 107.507 186.891 114.797 186.891C122.085 186.891 131.204 182.294 135.162 176.627C139.12 170.957 136.418 166.361 129.13 166.361C121.84 166.361 112.72 170.957 108.765 176.627Z" fill="#547629"/>
<path d="M146.204 176.625C144.061 179.693 145.523 182.182 149.469 182.182C153.414 182.182 158.35 179.693 160.493 176.625C162.634 173.558 161.174 171.069 157.227 171.069C153.28 171.069 148.347 173.558 146.204 176.625Z" fill="white"/>
<path d="M83.432 176.625C81.289 179.693 82.7529 182.182 86.6976 182.182C90.6423 182.182 95.5797 179.693 97.7209 176.625C99.8639 173.558 98.4018 171.069 94.4572 171.069C90.5106 171.069 85.5751 173.558 83.432 176.625Z" fill="white"/>
<path d="M212.85 153.224H64.1744L30.6668 200.575H179.342L212.85 153.224ZM63.4415 151.364H216.212L180.073 202.433H27.3029L63.4415 151.364" fill="#95D449"/>
<path d="M118.504 229.861H116.056V229.859H116.071V202.433H118.504V229.861ZM111.798 229.861H97.3183V229.859H111.798V229.861Z" fill="#448131"/>
<path d="M123.003 196.075H120.556L131.713 180.311C133.076 179.168 134.255 177.924 135.162 176.627C136.03 175.38 136.58 174.187 136.828 173.083L148.083 157.176H150.531L123.003 196.075Z" fill="#69B630"/>
<path d="M119.819 200.575H117.372L120.556 196.075H123.003L119.819 200.575ZM150.531 157.176H148.083L150.881 153.224H153.327L150.531 157.176" fill="#448131"/>
<path d="M131.713 180.311L136.828 173.083C136.58 174.187 136.03 175.38 135.162 176.627C134.255 177.924 133.076 179.168 131.713 180.311Z" fill="#3D5B25"/>
<path d="M118.504 202.433H116.071V202.431L116.09 202.409H116.075L117.372 200.575H119.819L118.504 202.433V202.433ZM153.327 153.224H150.881L152.197 151.364H147.937L147.935 151.366H133.457L133.459 151.364H154.642L153.327 153.224Z" fill="#60AE32"/>
<path d="M92.9412 202.431V229.859H114.119V202.431L114.14 202.409L150.256 151.366H129.078L92.9598 202.409L92.9412 202.431" fill="white"/>
<path d="M147.937 151.364H152.197L116.056 202.433V229.861H111.798V202.433L147.937 151.364" fill="#F4744D"/>
<path d="M127.074 151.364H131.332L95.1937 202.433V229.861H90.9355V202.433L127.074 151.364Z" fill="#F4744D"/>
<path d="M116.056 229.859H116.072V202.432H116.056V229.859Z" fill="#3B692A"/>
<path d="M116.071 202.433H116.056L116.075 202.409H116.09L116.071 202.431V202.433" fill="#538F31"/>
<path d="M111.798 229.859H95.1938V202.433L95.2105 202.409H111.817L111.798 202.433V229.859Z" fill="#DCD5CB"/>
<path d="M116.056 229.859H111.798V202.433L111.817 202.409H116.075L116.056 202.433V229.859Z" fill="#DC5F3D"/>
<path d="M95.1937 229.859H90.9912V202.431L94.9099 202.409H95.2104L95.1937 202.433V229.859" fill="#DC5F3D"/>
</svg>
