<svg width="300" height="300" viewBox="0 0 300 300" fill="none" xmlns="http://www.w3.org/2000/svg">
<path d="M255.162 268.642L255.131 268.617C255.171 268.576 255.211 268.539 255.251 268.498L255.162 268.642ZM261.859 257.641C262.181 256.312 262.348 254.95 262.348 253.568C262.348 250.597 261.578 247.729 260.145 245.026L260.238 244.584C261.612 241.931 262.348 239.125 262.348 236.22C262.348 235.783 262.332 235.349 262.298 234.92L262.348 234.681C262.323 234.644 262.295 234.602 262.271 234.565C262.32 234.025 262.348 233.484 262.348 232.935C262.348 229.964 261.578 227.096 260.145 224.393L260.238 223.952C261.612 221.298 262.348 218.492 262.348 215.587C262.348 215.15 262.332 214.717 262.298 214.287L262.348 214.048C262.323 214.011 262.295 213.97 262.271 213.933C262.32 213.392 262.348 212.851 262.348 212.303C262.348 209.331 261.578 206.463 260.145 203.76L260.238 203.319C261.612 200.666 262.348 197.86 262.348 194.955C262.348 194.517 262.332 194.084 262.298 193.655L262.348 193.415C262.323 193.378 262.295 193.337 262.271 193.3C262.32 192.759 262.348 192.219 262.348 191.67C262.348 188.703 261.578 185.831 260.145 183.128L262.348 172.783C257.924 166.271 248.362 162.619 236.718 160.704C240.17 160.3 243.746 160.089 247.409 160.089C276.455 160.089 300 173.406 300 189.829C300 192.858 299.189 195.776 297.705 198.524H297.834L261.859 257.641" fill="#B9CAC8"/>
<path d="M99.6286 283.824L99.5018 283.72C99.7215 283.477 99.9349 283.229 100.142 282.982L99.6286 283.824ZM103.919 276.775C104.748 274.679 105.185 272.496 105.185 270.255C105.185 267.288 104.417 264.42 102.985 261.713L103.081 261.264C104.452 258.614 105.185 255.808 105.185 252.907C105.185 252.474 105.169 252.041 105.138 251.612L105.188 251.368C105.163 251.327 105.135 251.29 105.107 251.249C105.16 250.712 105.185 250.167 105.185 249.623C105.185 246.656 104.417 243.788 102.985 241.081L103.081 240.631C103.35 240.111 103.595 239.583 103.814 239.05C110.305 240.788 117.528 241.799 125.148 241.89L103.919 276.775" fill="#B9A1D0"/>
<path d="M73.7046 212.154C73.7046 228.582 97.2528 241.898 126.298 241.898C155.344 241.898 178.889 228.582 178.889 212.154C178.889 195.73 155.344 182.414 126.298 182.414C97.2528 182.414 73.7046 195.73 73.7046 212.154Z" fill="#CC731B"/>
<path d="M73.7014 194.785V209.1C73.7014 221.331 86.7099 231.784 105.309 236.381C109.729 237.466 114.447 238.246 119.387 238.593C121.664 238.766 123.972 238.853 126.314 238.853C133.76 238.853 140.881 237.986 147.288 236.381C165.887 231.784 175.573 221.071 175.573 208.84L178.892 193.267C171.313 182.121 148.684 179.344 126.314 179.344C108.495 179.344 83.2296 187.151 73.7014 194.785" fill="#FBC10C"/>
<path d="M119.387 238.593C114.447 238.246 109.729 237.466 105.309 236.381V222.086C109.72 223.172 114.447 223.927 119.387 224.294V238.593Z" fill="#FADD2C"/>
<path d="M145.067 236.847V180.119C160.312 181.572 173.454 185.261 178.889 193.246V209.063C178.889 221.748 164.841 232.572 145.067 236.847Z" fill="#EF9412"/>
<path d="M73.7046 194.806C73.7046 211.234 97.2528 224.55 126.298 224.55C155.344 224.55 178.889 211.234 178.889 194.806C178.889 178.378 155.344 165.062 126.298 165.062C97.2528 165.062 73.7046 178.378 73.7046 194.806Z" fill="#FAD206"/>
<path d="M96.3216 218.129C87.3409 214.457 80.6342 209.241 77.3116 203.369L119.681 166.176C122.11 165.986 124.541 165.887 126.911 165.887C135.601 165.887 144.164 167.117 151.777 169.448L96.3216 218.129Z" fill="#F8F67A"/>
<path d="M119.493 223.419C115.273 223.081 111.152 222.454 107.217 221.546L161.94 173.508C165.073 175.114 167.848 176.925 170.206 178.902L119.493 223.419Z" fill="#F8F67A"/>
<path d="M73.7046 191.521C73.7046 207.949 97.2528 221.265 126.298 221.265C155.344 221.265 178.889 207.949 178.889 191.521C178.889 175.097 155.344 161.781 126.298 161.781C97.2528 161.781 73.7046 175.097 73.7046 191.521Z" fill="#CC731B"/>
<path d="M73.7014 174.152V188.467C73.7014 200.699 86.7099 211.151 105.309 215.748C109.729 216.833 114.447 217.613 119.387 217.96C121.664 218.133 123.972 218.22 126.314 218.22C133.76 218.22 140.881 217.353 147.288 215.748C165.887 211.151 175.573 200.439 175.573 188.208L178.892 172.634C171.313 161.488 148.684 158.711 126.314 158.711C108.495 158.711 83.2296 166.518 73.7014 174.152" fill="#FBC10C"/>
<path d="M119.387 217.96C114.447 217.613 109.729 216.834 105.309 215.748V201.454C109.72 202.539 114.447 203.294 119.387 203.662V217.96Z" fill="#FADD2C"/>
<path d="M145.067 216.215V159.487C160.312 160.939 173.454 164.629 178.889 172.613V188.43C178.889 201.115 164.841 211.939 145.067 216.215Z" fill="#EF9412"/>
<path d="M73.7046 174.173C73.7046 190.601 97.2528 203.917 126.298 203.917C155.344 203.917 178.889 190.601 178.889 174.173C178.889 157.745 155.344 144.429 126.298 144.429C97.2528 144.429 73.7046 157.745 73.7046 174.173Z" fill="#FAD206"/>
<path d="M96.3216 197.496C87.3409 193.824 80.6342 188.612 77.3116 182.736L119.681 145.543C122.11 145.353 124.541 145.254 126.911 145.254C135.601 145.254 144.164 146.484 151.777 148.815L96.3216 197.496Z" fill="#F8F67A"/>
<path d="M119.493 202.787C115.273 202.448 111.152 201.821 107.217 200.917L161.94 152.876C165.073 154.481 167.848 156.293 170.206 158.269L119.493 202.787Z" fill="#F8F67A"/>
<path d="M73.7046 170.888C73.7046 187.316 97.2528 200.632 126.298 200.632C155.344 200.632 178.889 187.316 178.889 170.888C178.889 154.465 155.344 141.148 126.298 141.148C97.2528 141.148 73.7046 154.465 73.7046 170.888Z" fill="#CC731B"/>
<path d="M73.7014 153.52V167.834C73.7014 180.066 86.7099 190.518 105.309 195.115C109.729 196.2 114.447 196.98 119.387 197.327C121.664 197.5 123.972 197.587 126.314 197.587C133.76 197.587 140.881 196.72 147.288 195.115C165.887 190.518 175.573 179.806 175.573 167.575L178.892 152.001C171.313 140.855 148.684 138.078 126.314 138.078C108.495 138.078 83.2296 145.885 73.7014 153.52" fill="#FBC10C"/>
<path d="M119.387 197.327C114.447 196.98 109.729 196.201 105.309 195.115V180.821C109.72 181.906 114.447 182.661 119.387 183.029V197.327Z" fill="#FADD2C"/>
<path d="M145.067 195.582V138.854C160.312 140.306 173.454 143.996 178.889 151.98V167.798C178.889 180.483 164.841 191.307 145.067 195.582Z" fill="#EF9412"/>
<path d="M73.7046 153.541C73.7046 169.968 97.2528 183.285 126.298 183.285C155.344 183.285 178.889 169.968 178.889 153.541C178.889 137.113 155.344 123.796 126.298 123.796C97.2528 123.796 73.7046 137.113 73.7046 153.541Z" fill="#FAD206"/>
<path d="M96.3216 176.864C87.3409 173.191 80.6342 167.979 77.3116 162.103L119.681 124.91C122.11 124.721 124.541 124.622 126.911 124.622C135.601 124.622 144.164 125.851 151.777 128.183L96.3216 176.864Z" fill="#F8F67A"/>
<path d="M119.493 182.154C115.273 181.816 111.152 181.188 107.217 180.281L161.94 132.248C165.073 133.849 167.848 135.66 170.206 137.637L119.493 182.154" fill="#F8F67A"/>
<path d="M73.7046 150.256C73.7046 166.684 97.2528 180 126.298 180C155.344 180 178.889 166.684 178.889 150.256C178.889 133.832 155.344 120.516 126.298 120.516C97.2528 120.516 73.7046 133.832 73.7046 150.256Z" fill="#CC731B"/>
<path d="M73.7014 132.887V147.202C73.7014 159.433 86.7099 169.886 105.309 174.483C109.729 175.568 114.447 176.348 119.387 176.694C121.664 176.868 123.972 176.954 126.314 176.954C133.76 176.954 140.881 176.088 147.288 174.483C165.887 169.886 175.573 159.173 175.573 146.942L178.892 131.369C171.313 120.223 148.684 117.445 126.314 117.445C108.495 117.445 83.2296 125.253 73.7014 132.887" fill="#FBC10C"/>
<path d="M119.387 176.694C114.447 176.348 109.729 175.568 105.309 174.483V160.188C109.72 161.273 114.447 162.029 119.387 162.396V176.694Z" fill="#FADD2C"/>
<path d="M145.067 174.949V118.221C160.312 119.674 173.454 123.363 178.889 131.348V147.165C178.889 159.85 164.841 170.674 145.067 174.949Z" fill="#EF9412"/>
<path d="M73.7046 132.908C73.7046 149.336 97.2528 162.652 126.298 162.652C155.344 162.652 178.889 149.336 178.889 132.908C178.889 116.48 155.344 103.168 126.298 103.168C97.2528 103.168 73.7046 116.48 73.7046 132.908Z" fill="#FAD206"/>
<path d="M96.3216 156.231C87.3409 152.558 80.6342 147.347 77.3116 141.47L119.681 104.278C122.11 104.088 124.541 103.989 126.911 103.989C135.601 103.989 144.164 105.219 151.777 107.55L96.3216 156.231Z" fill="#F8F67A"/>
<path d="M119.493 161.521C115.273 161.183 111.152 160.555 107.217 159.647L161.94 111.615C165.073 113.216 167.848 115.027 170.206 117.004L119.493 161.521" fill="#F8F67A"/>
<path d="M73.7046 129.623C73.7046 146.051 97.2528 159.367 126.298 159.367C155.344 159.367 178.889 146.051 178.889 129.623C178.889 113.199 155.344 99.8827 126.298 99.8827C97.2528 99.8827 73.7046 113.199 73.7046 129.623Z" fill="#CC731B"/>
<path d="M73.7014 112.254V126.569C73.7014 138.8 86.7099 149.253 105.309 153.85C109.729 154.935 114.447 155.715 119.387 156.062C121.664 156.235 123.972 156.322 126.314 156.322C133.76 156.322 140.881 155.455 147.288 153.85C165.887 149.253 175.573 138.54 175.573 126.309L178.892 110.736C171.313 99.5901 148.684 96.8128 126.314 96.8128C108.495 96.8128 83.2296 104.62 73.7014 112.254" fill="#FBC10C"/>
<path d="M119.387 156.062C114.447 155.715 109.729 154.935 105.309 153.85V139.556C109.72 140.641 114.447 141.396 119.387 141.763V156.062Z" fill="#FADD2C"/>
<path d="M145.067 154.316V97.5887C160.312 99.0412 173.454 102.73 178.889 110.715V126.532C178.889 139.217 164.841 150.041 145.067 154.316Z" fill="#EF9412"/>
<path d="M73.7046 112.275C73.7046 128.703 97.2528 142.019 126.298 142.019C155.344 142.019 178.889 128.703 178.889 112.275C178.889 95.8472 155.344 82.5348 126.298 82.5348C97.2528 82.5348 73.7046 95.8472 73.7046 112.275Z" fill="#FAD206"/>
<path d="M96.3216 135.598C87.3409 131.925 80.6342 126.714 77.3116 120.837L119.681 83.6447C122.11 83.4549 124.541 83.356 126.911 83.356C135.601 83.356 144.164 84.5856 151.777 86.9171L96.3216 135.598Z" fill="#F8F67A"/>
<path d="M119.493 140.888C115.273 140.55 111.152 139.923 107.217 139.015L161.94 90.982C165.073 92.5831 167.848 94.3946 170.206 96.3712L119.493 140.888" fill="#F8F67A"/>
<path d="M73.7046 108.99C73.7046 125.418 97.2528 138.734 126.298 138.734C155.344 138.734 178.889 125.418 178.889 108.99C178.889 92.5666 155.344 79.2501 126.298 79.2501C97.2528 79.2501 73.7046 92.5666 73.7046 108.99Z" fill="#CC731B"/>
<path d="M73.7014 91.6213V105.936C73.7014 118.167 86.7099 128.62 105.309 133.217C109.729 134.302 114.447 135.082 119.387 135.429C121.664 135.602 123.972 135.689 126.314 135.689C133.76 135.689 140.881 134.822 147.288 133.217C165.887 128.62 175.573 117.907 175.573 105.676L178.892 90.1029C171.313 78.9571 148.684 76.1798 126.314 76.1798C108.495 76.1798 83.2296 83.9872 73.7014 91.6213" fill="#FBC10C"/>
<path d="M119.387 135.429C114.447 135.082 109.729 134.302 105.309 133.217V118.923C109.72 120.008 114.447 120.763 119.387 121.13V135.429Z" fill="#FADD2C"/>
<path d="M145.067 133.683V76.9557C160.312 78.4083 173.454 82.0974 178.889 90.0823V105.899C178.889 118.584 164.841 129.408 145.067 133.683Z" fill="#EF9412"/>
<path d="M73.7046 91.6423C73.7046 108.07 97.2528 121.386 126.298 121.386C155.344 121.386 178.889 108.07 178.889 91.6423C178.889 75.2145 155.344 61.8981 126.298 61.8981C97.2528 61.8981 73.7046 75.2145 73.7046 91.6423Z" fill="#FAD206"/>
<path d="M96.3216 114.965C87.3409 111.293 80.6342 106.081 77.3116 100.205L119.681 63.0121C122.11 62.8223 124.541 62.7234 126.911 62.7234C135.601 62.7234 144.164 63.953 151.777 66.2845L96.3216 114.965Z" fill="#F8F67A"/>
<path d="M119.493 120.256C115.273 119.917 111.152 119.29 107.217 118.382L161.94 70.3494C165.073 71.9505 167.848 73.7621 170.206 75.7387L119.493 120.256" fill="#F8F67A"/>
<path d="M73.7046 88.3576C73.7046 104.785 97.2528 118.102 126.298 118.102C155.344 118.102 178.889 104.785 178.889 88.3576C178.889 71.934 155.344 58.6175 126.298 58.6175C97.2528 58.6175 73.7046 71.934 73.7046 88.3576Z" fill="#CC731B"/>
<path d="M73.7014 70.9888V85.3038C73.7014 97.5348 86.7099 107.988 105.309 112.584C109.729 113.67 114.447 114.45 119.387 114.796C121.664 114.97 123.972 115.056 126.314 115.056C133.76 115.056 140.881 114.19 147.288 112.584C165.887 107.988 175.573 97.2749 175.573 85.0438L178.892 69.4704C171.313 58.3246 148.684 55.5473 126.314 55.5473C108.495 55.5473 83.2296 63.3547 73.7014 70.9888" fill="#FBC10C"/>
<path d="M119.387 114.796C114.447 114.45 109.729 113.67 105.309 112.584V98.2901C109.72 99.3754 114.447 100.131 119.387 100.498V114.796Z" fill="#FADD2C"/>
<path d="M145.067 113.051V56.3231C160.312 57.7757 173.454 61.4648 178.889 69.4497V85.2668C178.889 97.9518 164.841 108.776 145.067 113.051Z" fill="#EF9412"/>
<path d="M73.7046 71.0097C73.7046 87.4375 97.2528 100.754 126.298 100.754C155.344 100.754 178.889 87.4375 178.889 71.0097C178.889 54.582 155.344 41.2656 126.298 41.2656C97.2528 41.2656 73.7046 54.582 73.7046 71.0097Z" fill="#FAD206"/>
<path d="M96.3216 94.3329C87.3409 90.6603 80.6342 85.4443 77.3116 79.5722L119.681 42.3795C122.11 42.1897 124.541 42.0948 126.911 42.0948C135.601 42.0948 144.164 43.3204 151.777 45.6519L96.3216 94.3329Z" fill="#F8F67A"/>
<path d="M119.493 99.6227C115.273 99.2844 111.152 98.6571 107.217 97.7493L161.94 49.7163C165.073 51.3174 167.848 53.129 170.206 55.1056L119.493 99.6227" fill="#F8F67A"/>
<path d="M73.7046 67.7247C73.7046 84.1524 97.2528 97.4686 126.298 97.4686C155.344 97.4686 178.889 84.1524 178.889 67.7247C178.889 51.301 155.344 37.9845 126.298 37.9845C97.2528 37.9845 73.7046 51.301 73.7046 67.7247Z" fill="#CC731B"/>
<path d="M73.7014 50.3562V64.6712C73.7014 76.9022 86.7099 87.3549 105.309 91.9519C109.729 93.0372 114.447 93.817 119.387 94.1637C121.664 94.337 123.972 94.4236 126.314 94.4236C133.76 94.4236 140.881 93.5571 147.288 91.9519C165.887 87.3549 175.573 76.6423 175.573 64.4112L178.892 48.8378C171.313 37.692 148.684 34.9147 126.314 34.9147C108.495 34.9147 83.2296 42.7221 73.7014 50.3562" fill="#FBC10C"/>
<path d="M119.387 94.1637C114.447 93.817 109.729 93.0372 105.309 91.9519V77.6575C109.72 78.7428 114.447 79.498 119.387 79.8652V94.1637Z" fill="#FADD2C"/>
<path d="M145.067 92.4182V35.6905C160.312 37.1431 173.454 40.8322 178.889 48.8171V64.6342C178.889 77.3192 164.841 88.1431 145.067 92.4182Z" fill="#EF9412"/>
<path d="M73.7046 50.3768C73.7046 66.8045 97.2528 80.1209 126.298 80.1209C155.344 80.1209 178.889 66.8045 178.889 50.3768C178.889 33.949 155.344 20.6326 126.298 20.6326C97.2528 20.6326 73.7046 33.949 73.7046 50.3768Z" fill="#FAD206"/>
<path d="M96.3216 73.6999C87.3409 70.0273 80.6342 64.8113 77.3116 58.9392L119.681 21.7465C122.11 21.5567 124.541 21.4618 126.911 21.4618C135.601 21.4618 144.164 22.6875 151.777 25.019L96.3216 73.6999Z" fill="#F8F67A"/>
<path d="M119.493 78.9902C115.273 78.6518 111.152 78.0245 107.217 77.1167L161.94 29.0838C165.073 30.6849 167.848 32.4964 170.206 34.4731L119.493 78.9902" fill="#F8F67A"/>
<path d="M73.7046 47.092C73.7046 63.5198 97.2528 76.836 126.298 76.836C155.344 76.836 178.889 63.5198 178.889 47.092C178.889 30.6642 155.344 17.3519 126.298 17.3519C97.2528 17.3519 73.7046 30.6642 73.7046 47.092Z" fill="#CC731B"/>
<path d="M73.7014 29.7232V44.0382C73.7014 56.2692 86.7099 66.7219 105.309 71.3189C109.729 72.4042 114.447 73.184 119.387 73.5307C121.664 73.704 123.972 73.7906 126.314 73.7906C133.76 73.7906 140.881 72.9241 147.288 71.3189C165.887 66.7219 175.573 56.0094 175.573 43.7742L178.892 28.2048C171.313 17.059 148.684 14.2817 126.314 14.2817C108.495 14.2817 83.2296 22.0891 73.7014 29.7232" fill="#FBC10C"/>
<path d="M119.387 73.5307C114.447 73.184 109.729 72.4042 105.309 71.3189V45.0781H119.387V73.5307Z" fill="#FADD2C"/>
<path d="M145.067 71.7852V15.0575C160.312 16.5101 173.454 20.1992 178.889 28.1841V44.0012C178.889 56.6862 164.841 67.5101 145.067 71.7852Z" fill="#EF9412"/>
<path d="M73.7046 29.7442C73.7046 46.1719 97.2528 59.4883 126.298 59.4883C155.344 59.4883 178.889 46.1719 178.889 29.7442C178.889 13.3164 155.344 -1.95915e-06 126.298 -1.95915e-06C97.2528 -1.95915e-06 73.7046 13.3164 73.7046 29.7442Z" fill="#FAD206"/>
<path d="M96.3216 53.0673C87.3409 49.3947 80.6342 44.1787 77.3116 38.3066L119.681 1.11393C122.11 0.924105 124.541 0.825189 126.911 0.825189C135.601 0.825189 144.164 2.05485 151.777 4.38635L96.3216 53.0673Z" fill="#F8F67A"/>
<path d="M119.493 58.3576C115.273 58.0192 111.152 57.3919 107.217 56.4841L161.94 8.45116C165.073 10.0523 167.848 11.8638 170.206 13.8405L119.493 58.3576" fill="#F8F67A"/>
<path d="M157.163 253.568C157.163 269.996 180.708 283.312 209.754 283.312C238.8 283.312 262.348 269.996 262.348 253.568C262.348 237.14 238.8 223.824 209.754 223.824C180.708 223.824 157.163 237.14 157.163 253.568Z" fill="#CC731B"/>
<path d="M157.16 236.2V250.515C157.16 262.741 170.166 273.198 188.767 277.795C193.188 278.88 197.903 279.66 202.843 280.007C205.12 280.18 207.428 280.267 209.77 280.267C217.216 280.267 224.337 279.4 230.744 277.795C249.343 273.198 259.032 262.481 259.032 250.25L262.348 234.681C254.772 223.535 232.142 220.758 209.77 220.758C191.951 220.758 166.685 228.565 157.16 236.2Z" fill="#FBC10C"/>
<path d="M202.843 280.007C197.902 279.66 193.188 278.88 188.767 277.795V263.5C193.179 264.586 197.902 265.341 202.843 265.708V280.007Z" fill="#FADD2C"/>
<path d="M228.526 278.257V221.534C243.768 222.986 256.91 226.675 262.348 234.66V250.473C262.348 263.158 248.3 273.982 228.526 278.257Z" fill="#EF9412"/>
<path d="M157.163 236.22C157.163 252.644 180.708 265.96 209.754 265.96C238.8 265.96 262.348 252.644 262.348 236.22C262.348 219.792 238.8 206.476 209.754 206.476C180.708 206.476 157.163 219.792 157.163 236.22Z" fill="#FAD206"/>
<path d="M179.777 259.543C170.8 255.871 164.093 250.655 160.77 244.783L203.14 207.59C205.575 207.396 208.006 207.301 210.37 207.301C219.06 207.301 227.623 208.531 235.236 210.858L179.777 259.543" fill="#F8F67A"/>
<path d="M202.948 264.833C198.732 264.495 194.614 263.868 190.676 262.96L245.395 214.923C248.529 216.524 251.301 218.335 253.661 220.312L202.948 264.833" fill="#F8F67A"/>
<path d="M157.163 232.935C157.163 249.363 180.708 262.679 209.754 262.679C238.8 262.679 262.348 249.363 262.348 232.935C262.348 216.507 238.8 203.195 209.754 203.195C180.708 203.195 157.163 216.507 157.163 232.935Z" fill="#CC731B"/>
<path d="M157.16 215.567V229.882C157.16 242.108 170.166 252.565 188.767 257.162C193.188 258.247 197.903 259.027 202.843 259.374C205.12 259.547 207.428 259.634 209.77 259.634C217.216 259.634 224.337 258.767 230.744 257.162C249.343 252.565 259.032 241.848 259.032 229.617L262.348 214.048C254.772 202.902 232.142 200.125 209.77 200.125C191.951 200.125 166.685 207.932 157.16 215.567Z" fill="#FBC10C"/>
<path d="M202.843 259.374C197.902 259.027 193.188 258.248 188.767 257.162V242.868C193.179 243.953 197.902 244.708 202.843 245.076V259.374Z" fill="#FADD2C"/>
<path d="M228.526 257.624V200.901C243.768 202.353 256.91 206.042 262.348 214.027V229.84C262.348 242.525 248.3 253.349 228.526 257.624Z" fill="#EF9412"/>
<path d="M157.163 215.587C157.163 232.011 180.708 245.327 209.754 245.327C238.8 245.327 262.348 232.011 262.348 215.587C262.348 199.16 238.8 185.843 209.754 185.843C180.708 185.843 157.163 199.16 157.163 215.587Z" fill="#FAD206"/>
<path d="M179.777 238.91C170.8 235.238 164.093 230.022 160.77 224.15L203.14 186.957C205.575 186.763 208.006 186.668 210.37 186.668C219.06 186.668 227.623 187.898 235.236 190.225L179.777 238.91" fill="#F8F67A"/>
<path d="M202.948 244.201C198.732 243.862 194.614 243.235 190.676 242.327L245.395 194.29C248.529 195.891 251.301 197.703 253.661 199.679L202.948 244.201" fill="#F8F67A"/>
<path d="M157.163 212.303C157.163 228.73 180.708 242.047 209.754 242.047C238.8 242.047 262.348 228.73 262.348 212.303C262.348 195.875 238.8 182.563 209.754 182.563C180.708 182.563 157.163 195.875 157.163 212.303Z" fill="#CC731B"/>
<path d="M157.16 194.934V209.245C157.16 221.48 170.166 231.933 188.767 236.529C193.188 237.611 197.903 238.395 202.843 238.741C205.12 238.915 207.428 239.001 209.77 239.001C217.216 239.001 224.337 238.135 230.744 236.529C249.343 231.933 259.032 221.216 259.032 208.985L262.348 193.415C254.772 182.27 232.142 179.492 209.77 179.492C191.951 179.492 166.685 187.3 157.16 194.934" fill="#FBC10C"/>
<path d="M202.843 238.741C197.902 238.394 193.188 237.61 188.767 236.529V222.235C193.179 223.32 197.902 224.075 202.843 224.443V238.741Z" fill="#FADD2C"/>
<path d="M228.526 236.991V180.268C243.768 181.721 256.91 185.41 262.348 193.395V209.207C262.348 221.892 248.3 232.716 228.526 236.991Z" fill="#EF9412"/>
<path d="M157.163 194.955C157.163 211.382 180.708 224.695 209.754 224.695C238.8 224.695 262.348 211.382 262.348 194.955C262.348 178.527 238.8 165.21 209.754 165.21C180.708 165.21 157.163 178.527 157.163 194.955Z" fill="#FAD206"/>
<path d="M179.777 218.278C170.8 214.605 164.093 209.389 160.77 203.517L203.14 166.325C205.575 166.131 208.006 166.036 210.37 166.036C219.06 166.036 227.623 167.265 235.236 169.597L179.777 218.278Z" fill="#F8F67A"/>
<path d="M202.948 223.568C198.732 223.23 194.614 222.602 190.676 221.694L245.395 173.658C248.529 175.259 251.301 177.07 253.661 179.047L202.948 223.568" fill="#F8F67A"/>
<path d="M157.163 191.67C157.163 208.097 180.708 221.414 209.754 221.414C238.8 221.414 262.348 208.097 262.348 191.67C262.348 175.246 238.8 161.93 209.754 161.93C180.708 161.93 157.163 175.246 157.163 191.67Z" fill="#CC731B"/>
<path d="M157.16 174.301V188.616C157.16 200.847 170.166 211.3 188.767 215.897C193.188 216.978 197.903 217.762 202.843 218.109C205.12 218.282 207.428 218.369 209.77 218.369C217.216 218.369 224.337 217.502 230.744 215.897C249.343 211.3 259.032 200.587 259.032 188.356L262.348 172.783C254.772 161.637 232.142 158.86 209.77 158.86C191.951 158.86 166.685 166.667 157.16 174.301Z" fill="#FBC10C"/>
<path d="M202.843 218.108C197.902 217.762 193.188 216.978 188.767 215.897V189.656H202.843V218.108Z" fill="#FADD2C"/>
<path d="M228.526 216.359V159.635C243.768 161.088 256.91 164.777 262.348 172.762V188.575C262.348 201.26 248.3 212.084 228.526 216.359Z" fill="#EF9412"/>
<path d="M157.163 174.322C157.163 190.745 180.708 204.062 209.754 204.062C238.8 204.062 262.348 190.745 262.348 174.322C262.348 157.894 238.8 144.578 209.754 144.578C180.708 144.578 157.163 157.894 157.163 174.322Z" fill="#FAD206"/>
<path d="M179.777 197.645C170.8 193.973 164.093 188.757 160.77 182.885L203.14 145.692C205.575 145.498 208.006 145.403 210.37 145.403C219.06 145.403 227.623 146.633 235.236 148.964L179.777 197.645Z" fill="#F8F67A"/>
<path d="M202.948 202.935C198.732 202.597 194.614 201.969 190.676 201.062L245.395 153.025C248.529 154.626 251.301 156.437 253.661 158.414L202.948 202.935" fill="#F8F67A"/>
<path d="M0.00292969 270.256C0.00292969 286.684 23.5482 300 52.597 300C81.6395 300 105.185 286.684 105.185 270.256C105.185 253.832 81.6395 240.512 52.597 240.512C23.5482 240.512 0.00292969 253.832 0.00292969 270.256Z" fill="#CC731B"/>
<path d="M0 252.887V267.202C0 279.429 13.0086 289.885 31.6041 294.482C36.0279 295.563 40.7425 296.347 45.686 296.694C47.9598 296.867 50.2707 296.954 52.6094 296.954C60.0588 296.954 67.1801 296.083 73.5839 294.482C92.1825 289.885 101.872 279.169 101.872 266.938L105.188 251.368C97.6117 240.222 74.9822 237.445 52.6094 237.445C34.7935 237.445 9.52823 245.253 0 252.887Z" fill="#FBC10C"/>
<path d="M45.686 296.694C40.7424 296.348 36.0278 295.564 31.604 294.483V280.184C36.0185 281.273 40.7424 282.029 45.686 282.396V296.694Z" fill="#FADD2C"/>
<path d="M71.3658 294.945V238.221C86.611 239.674 99.7526 243.363 105.188 251.348V267.161C105.188 279.846 91.14 290.67 71.3658 294.945Z" fill="#EF9412"/>
<path d="M0.00292969 252.907C0.00292969 269.331 23.5482 282.647 52.597 282.647C81.6395 282.647 105.185 269.331 105.185 252.907C105.185 236.48 81.6395 223.163 52.597 223.163C23.5482 223.163 0.00292969 236.48 0.00292969 252.907Z" fill="#FAD206"/>
<path d="M22.6202 276.231C13.6396 272.558 6.93261 267.342 3.61011 261.47L45.9798 224.278C48.4144 224.084 50.8491 223.989 53.2095 223.989C61.8994 223.989 70.4624 225.219 78.0726 227.55L22.6202 276.231Z" fill="#F8F67A"/>
<path d="M45.788 281.521C41.5714 281.183 37.4539 280.552 33.5157 279.648L88.2351 231.611C91.3689 233.212 94.1438 235.023 96.5011 237L45.788 281.521" fill="#F8F67A"/>
<path d="M0.00292969 249.623C0.00292969 266.051 23.5482 279.367 52.597 279.367C81.6395 279.367 105.185 266.051 105.185 249.623C105.185 233.195 81.6395 219.879 52.597 219.879C23.5482 219.879 0.00292969 233.195 0.00292969 249.623Z" fill="#CC731B"/>
<path d="M0 232.254V246.569C0 258.796 13.0086 269.253 31.6041 273.85C36.0279 274.931 40.7425 275.715 45.686 276.061C47.9598 276.235 50.2707 276.322 52.6094 276.322C60.0588 276.322 67.1801 275.451 73.5839 273.85C92.1825 269.253 101.872 258.536 101.872 246.305L105.188 230.736C97.6117 219.59 74.9822 216.813 52.6094 216.813C34.7935 216.813 9.52823 224.62 0 232.254Z" fill="#FBC10C"/>
<path d="M45.686 276.062C40.7424 275.715 36.0278 274.931 31.604 273.85V259.551C36.0185 260.641 40.7424 261.396 45.686 261.763V276.062Z" fill="#FADD2C"/>
<path d="M71.3658 274.312V217.589C86.611 219.041 99.7526 222.73 105.188 230.715V246.528C105.188 259.213 91.14 270.037 71.3658 274.312Z" fill="#EF9412"/>
<path d="M0.00292969 232.275C0.00292969 248.699 23.5482 262.015 52.597 262.015C81.6395 262.015 105.185 248.699 105.185 232.275C105.185 215.847 81.6395 202.531 52.597 202.531C23.5482 202.531 0.00292969 215.847 0.00292969 232.275Z" fill="#FAD206"/>
<path d="M22.6202 255.598C13.6396 251.926 6.93261 246.71 3.61011 240.838L45.9798 203.645C48.4144 203.451 50.8491 203.356 53.2095 203.356C61.8994 203.356 70.4624 204.586 78.0726 206.918L22.6202 255.598Z" fill="#F8F67A"/>
<path d="M45.788 260.888C41.5714 260.55 37.4539 259.923 33.5157 259.015L88.2351 210.978C91.3689 212.579 94.1438 214.391 96.5011 216.367L45.788 260.888" fill="#F8F67A"/>
<path d="M0.00292969 228.99C0.00292969 245.418 23.5482 258.734 52.597 258.734C81.6395 258.734 105.185 245.418 105.185 228.99C105.185 212.563 81.6395 199.246 52.597 199.246C23.5482 199.246 0.00292969 212.563 0.00292969 228.99Z" fill="#CC731B"/>
<path d="M0 211.622V225.937C0 238.164 13.0086 248.62 31.6041 253.217C36.0279 254.298 40.7425 255.082 45.686 255.429C47.9598 255.602 50.2707 255.689 52.6094 255.689C60.0588 255.689 67.1801 254.822 73.5839 253.217C92.1825 248.62 101.872 237.904 101.872 225.672L105.188 210.103C97.6117 198.957 74.9822 196.18 52.6094 196.18C34.7935 196.18 9.52823 203.988 0 211.622Z" fill="#FBC10C"/>
<path d="M45.686 255.429C40.7424 255.082 36.0278 254.298 31.604 253.217V238.919C36.0185 240.008 40.7424 240.763 45.686 241.131V255.429Z" fill="#FADD2C"/>
<path d="M71.3658 253.679V196.956C86.611 198.408 99.7526 202.097 105.188 210.082V225.895C105.188 238.58 91.14 249.404 71.3658 253.679Z" fill="#EF9412"/>
<path d="M0.00292969 211.642C0.00292969 228.066 23.5482 241.382 52.597 241.382C81.6395 241.382 105.185 228.066 105.185 211.642C105.185 195.214 81.6395 181.898 52.597 181.898C23.5482 181.898 0.00292969 195.214 0.00292969 211.642Z" fill="#FAD206"/>
<path d="M22.6202 234.965C13.6396 231.293 6.93261 226.077 3.61011 220.205L45.9798 183.012C48.4144 182.818 50.8491 182.723 53.2095 182.723C61.8994 182.723 70.4624 183.953 78.0726 186.285L22.6202 234.965Z" fill="#F8F67A"/>
<path d="M45.788 240.256C41.5714 239.917 37.4539 239.29 33.5157 238.382L88.2351 190.345C91.3689 191.946 94.1438 193.758 96.5011 195.734L45.788 240.256" fill="#F8F67A"/>
<path d="M0.00292969 208.358C0.00292969 224.785 23.5482 238.102 52.597 238.102C81.6395 238.102 105.185 224.785 105.185 208.358C105.185 191.93 81.6395 178.614 52.597 178.614C23.5482 178.614 0.00292969 191.93 0.00292969 208.358Z" fill="#CC731B"/>
<path d="M0 190.989V205.304C0 217.531 13.0086 227.987 31.6041 232.584C36.0279 233.669 40.7425 234.449 45.686 234.796C47.9598 234.969 50.2707 235.056 52.6094 235.056C60.0588 235.056 67.1801 234.189 73.5839 232.584C92.1825 227.987 101.872 217.271 101.872 205.04L105.188 189.47C97.6117 178.324 74.9822 175.547 52.6094 175.547C34.7935 175.547 9.52823 183.355 0 190.989Z" fill="#FBC10C"/>
<path d="M45.686 234.796C40.7424 234.449 36.0278 233.67 31.604 232.584V218.286C36.0185 219.375 40.7424 220.13 45.686 220.498V234.796Z" fill="#FADD2C"/>
<path d="M71.3658 233.047V176.323C86.611 177.776 99.7526 181.465 105.188 189.45V205.262C105.188 217.947 91.14 228.771 71.3658 233.047Z" fill="#EF9412"/>
<path d="M0.00292969 191.009C0.00292969 207.433 23.5482 220.749 52.597 220.749C81.6395 220.749 105.185 207.433 105.185 191.009C105.185 174.582 81.6395 161.265 52.597 161.265C23.5482 161.265 0.00292969 174.582 0.00292969 191.009Z" fill="#FAD206"/>
<path d="M22.6202 214.333C13.6396 210.66 6.93261 205.444 3.61011 199.572L45.9798 162.38C48.4144 162.186 50.8491 162.091 53.2095 162.091C61.8994 162.091 70.4624 163.32 78.0726 165.648L22.6202 214.333" fill="#F8F67A"/>
<path d="M45.788 219.623C41.5714 219.285 37.4539 218.658 33.5157 217.75L88.2351 169.713C91.3689 171.314 94.1438 173.125 96.5011 175.102L45.788 219.623" fill="#F8F67A"/>
<path d="M0.00292969 187.725C0.00292969 204.152 23.5482 217.469 52.597 217.469C81.6395 217.469 105.185 204.152 105.185 187.725C105.185 171.297 81.6395 157.98 52.597 157.98C23.5482 157.98 0.00292969 171.297 0.00292969 187.725Z" fill="#CC731B"/>
<path d="M0 170.356V184.671C0 196.898 13.0086 207.355 31.6041 211.952C36.0279 213.037 40.7425 213.817 45.686 214.163C47.9598 214.337 50.2707 214.423 52.6094 214.423C60.0588 214.423 67.1801 213.557 73.5839 211.952C92.1825 207.355 101.872 196.638 101.872 184.407L105.188 168.837C97.6117 157.692 74.9822 154.915 52.6094 154.915C34.7935 154.915 9.52823 162.722 0 170.356Z" fill="#FBC10C"/>
<path d="M45.686 214.164C40.7424 213.817 36.0278 213.037 31.604 211.952V197.653C36.0185 198.743 40.7424 199.498 45.686 199.865V214.164Z" fill="#FADD2C"/>
<path d="M71.3658 212.414V155.69C86.611 157.143 99.7526 160.832 105.188 168.817V184.63C105.188 197.315 91.14 208.139 71.3658 212.414Z" fill="#EF9412"/>
<path d="M0.00292969 170.377C0.00292969 186.8 23.5482 200.117 52.597 200.117C81.6395 200.117 105.185 186.8 105.185 170.377C105.185 153.949 81.6395 140.633 52.597 140.633C23.5482 140.633 0.00292969 153.949 0.00292969 170.377Z" fill="#FAD206"/>
<path d="M22.6202 193.7C13.6396 190.028 6.93261 184.812 3.61011 178.94L45.9798 141.747C48.4144 141.553 50.8491 141.458 53.2095 141.458C61.8994 141.458 70.4624 142.688 78.0726 145.015L22.6202 193.7" fill="#F8F67A"/>
<path d="M45.788 198.99C41.5714 198.652 37.4539 198.025 33.5157 197.117L88.2351 149.08C91.3689 150.681 94.1438 152.492 96.5011 154.469L45.788 198.99" fill="#F8F67A"/>
<path d="M0.00292969 167.092C0.00292969 183.52 23.5482 196.836 52.597 196.836C81.6395 196.836 105.185 183.52 105.185 167.092C105.185 150.664 81.6395 137.348 52.597 137.348C23.5482 137.348 0.00292969 150.664 0.00292969 167.092Z" fill="#CC731B"/>
<path d="M0 149.723V164.034C0 176.265 13.0086 186.722 31.6041 191.319C36.0279 192.4 40.7425 193.184 45.686 193.531C47.9598 193.704 50.2707 193.791 52.6094 193.791C60.0588 193.791 67.1801 192.924 73.5839 191.319C92.1825 186.722 101.872 176.005 101.872 163.774L105.188 148.205C97.6117 137.059 74.9822 134.282 52.6094 134.282C34.7935 134.282 9.52823 142.089 0 149.723" fill="#FBC10C"/>
<path d="M45.686 193.531C40.7424 193.184 36.0278 192.4 31.604 191.319V165.078H45.686V193.531Z" fill="#FADD2C"/>
<path d="M71.3658 191.781V135.057C86.611 136.51 99.7526 140.199 105.188 148.184V163.997C105.188 176.682 91.14 187.506 71.3658 191.781Z" fill="#EF9412"/>
<path d="M0.00292969 149.744C0.00292969 166.167 23.5483 179.484 52.597 179.484C81.6395 179.484 105.188 166.167 105.188 149.744C105.188 133.316 81.6395 120 52.597 120C23.5483 120 0.00292969 133.316 0.00292969 149.744Z" fill="#FAD206"/>
<path d="M22.6202 173.067C13.6396 169.395 6.93261 164.179 3.61011 158.307L45.9798 121.114C48.4144 120.92 50.8491 120.825 53.2095 120.825C61.8994 120.825 70.4624 122.055 78.0726 124.386L22.6202 173.067Z" fill="#F8F67A"/>
<path d="M45.788 178.357C41.5745 178.019 37.4539 177.392 33.5157 176.484L88.2381 128.447C91.3688 130.048 94.1438 131.86 96.5011 133.836L45.788 178.357" fill="#F8F67A"/>
</svg>
