<svg width="300" height="300" viewBox="0 0 300 300" fill="none" xmlns="http://www.w3.org/2000/svg">
<path d="M268.209 279.494L267.446 279.248C274.52 273.467 278.548 266.819 278.548 259.742C278.548 255.72 277.247 251.838 274.828 248.179L274.99 247.57C277.305 243.978 278.548 240.186 278.548 236.253C278.548 235.666 278.517 235.086 278.464 234.505L278.553 234.175C278.506 234.119 278.459 234.069 278.417 234.013C278.501 233.281 278.548 232.549 278.548 231.812C278.548 227.79 277.247 223.908 274.828 220.249L276.113 215.412C290.753 223.321 300 233.264 300 243.263C300 247.358 298.631 251.307 296.123 255.033H296.338L268.209 279.494" fill="#B9CAC8"/>
<path d="M177.641 185.705V177.846L177.646 177.829C177.646 177.824 177.641 177.824 177.641 177.818V177.796C177.599 177.746 177.557 177.695 177.515 177.645C177.599 176.924 177.641 176.198 177.641 175.467C177.641 171.445 176.34 167.562 173.926 163.903L174.088 163.295C176.402 159.703 177.641 155.91 177.641 151.977C177.641 151.391 177.615 150.81 177.557 150.229L177.646 149.9C177.599 149.844 177.557 149.793 177.51 149.738C177.599 149.011 177.641 148.274 177.641 147.537C177.641 143.515 176.34 139.632 173.926 135.974L174.088 135.365C176.402 131.773 177.641 127.98 177.641 124.048C177.641 123.461 177.615 122.88 177.557 122.299L177.646 121.97C177.599 121.914 177.557 121.864 177.51 121.808C177.599 121.082 177.641 120.344 177.641 119.607C177.641 117.333 177.223 115.099 176.423 112.926C207.285 119.171 228.434 133.393 229.986 149.816C231.14 162.071 206.888 170.88 206.888 170.88L177.641 185.705" fill="#B9CAC8"/>
<path d="M0.00585938 203.396C0.00585938 225.628 39.7701 243.654 88.8236 243.654C137.877 243.654 177.641 225.628 177.641 203.396C177.641 181.159 137.877 163.133 88.8236 163.133C39.7701 163.133 0.00585938 181.159 0.00585938 203.396Z" fill="#CC731B"/>
<path d="M0 179.879V199.257C0 215.814 21.9642 229.963 53.3743 236.186C60.8454 237.655 68.8026 238.711 77.1515 239.18C80.9967 239.415 84.8941 239.532 88.8491 239.532C101.425 239.532 113.452 238.359 124.272 236.186C155.682 229.963 172.045 215.462 172.045 198.905L177.646 177.829C164.851 162.736 126.628 158.982 88.8491 158.982C58.7556 158.982 16.0865 169.551 0 179.879Z" fill="#FBC10C"/>
<path d="M77.1514 239.18C68.8026 238.711 60.8454 237.655 53.3743 236.186V216.836C60.8245 218.305 68.8026 219.327 77.1514 219.824V239.18Z" fill="#FADD2C"/>
<path d="M120.526 236.817V160.027C146.267 161.993 168.461 166.992 177.641 177.796V199.207C177.641 216.378 153.916 231.03 120.526 236.817Z" fill="#EF9412"/>
<path d="M0.00585938 179.907C0.00585938 202.145 39.7701 220.171 88.8236 220.171C137.877 220.171 177.641 202.145 177.641 179.907C177.641 157.675 137.877 139.649 88.8236 139.649C39.7701 139.649 0.00585938 157.675 0.00585938 179.907Z" fill="#FAD206"/>
<path d="M38.1971 211.479C23.0354 206.513 11.7033 199.452 6.09735 191.498L77.6477 141.152C81.7647 140.895 85.8712 140.766 89.8576 140.766C104.533 140.766 118.995 142.425 131.853 145.581L38.1971 211.479Z" fill="#F8F67A"/>
<path d="M77.3292 218.64C70.2081 218.182 63.2543 217.333 56.6034 216.11L149.016 151.083C154.308 153.251 158.989 155.697 162.976 158.379L77.3292 218.64" fill="#F8F67A"/>
<path d="M0.00585938 175.466C0.00585938 197.698 39.7701 215.724 88.8236 215.724C137.877 215.724 177.641 197.698 177.641 175.466C177.641 153.229 137.877 135.203 88.8236 135.203C39.7701 135.203 0.00585938 153.229 0.00585938 175.466Z" fill="#CC731B"/>
<path d="M0 151.95V171.327C0 187.884 21.9642 202.033 53.3743 208.256C60.8454 209.725 68.8026 210.781 77.1515 211.25C80.9967 211.485 84.8941 211.602 88.8491 211.602C101.425 211.602 113.452 210.429 124.272 208.256C155.682 202.033 172.045 187.532 172.045 170.975L177.646 149.9C164.851 134.812 126.628 131.052 88.8491 131.052C58.7556 131.052 16.0865 141.621 0 151.95Z" fill="#FBC10C"/>
<path d="M77.1514 211.25C68.8026 210.781 60.8454 209.725 53.3743 208.256V188.907C60.8245 190.381 68.8026 191.398 77.1514 191.895V211.25Z" fill="#FADD2C"/>
<path d="M120.526 208.887V132.097C146.267 134.063 168.461 139.063 177.641 149.866V171.277C177.641 188.448 153.916 203.1 120.526 208.887Z" fill="#EF9412"/>
<path d="M0.00585938 151.978C0.00585938 174.215 39.7701 192.241 88.8236 192.241C137.877 192.241 177.641 174.215 177.641 151.978C177.641 129.745 137.877 111.72 88.8236 111.72C39.7701 111.72 0.00585938 129.745 0.00585938 151.978Z" fill="#FAD206"/>
<path d="M38.1971 183.549C23.0354 178.583 11.7033 171.523 6.09735 163.568L77.6477 113.222C81.7647 112.965 85.8712 112.837 89.8576 112.837C104.533 112.837 118.995 114.496 131.853 117.652L38.1971 183.549Z" fill="#F8F67A"/>
<path d="M77.3292 190.711C70.2081 190.253 63.2543 189.403 56.6034 188.18L149.016 123.154C154.308 125.321 158.989 127.768 162.976 130.449L77.3292 190.711" fill="#F8F67A"/>
<path d="M0.00585938 147.537C0.00585938 169.769 39.7701 187.795 88.8236 187.795C137.877 187.795 177.641 169.769 177.641 147.537C177.641 125.299 137.877 107.273 88.8236 107.273C39.7701 107.273 0.00585938 125.299 0.00585938 147.537Z" fill="#CC731B"/>
<path d="M0 124.025V143.397C0 159.954 21.9642 174.103 53.3743 180.326C60.8454 181.795 68.8026 182.851 77.1515 183.32C80.9967 183.555 84.8941 183.672 88.8491 183.672C101.425 183.672 113.452 182.499 124.272 180.326C155.682 174.103 172.045 159.602 172.045 143.045L177.646 121.969C164.851 106.882 126.628 103.122 88.8491 103.122C58.7556 103.122 16.0865 113.691 0 124.025" fill="#FBC10C"/>
<path d="M77.1514 183.32C68.8026 182.851 60.8454 181.795 53.3743 180.326V160.976C60.8245 162.451 68.8026 163.468 77.1514 163.965V183.32Z" fill="#FADD2C"/>
<path d="M120.526 180.957V104.167C146.267 106.134 168.461 111.133 177.641 121.936V143.347C177.641 160.519 153.916 175.17 120.526 180.957Z" fill="#EF9412"/>
<path d="M0.00585938 124.047C0.00585938 146.285 39.7701 164.311 88.8236 164.311C137.877 164.311 177.641 146.285 177.641 124.047C177.641 101.815 137.877 83.7895 88.8236 83.7895C39.7701 83.7895 0.00585938 101.815 0.00585938 124.047Z" fill="#FAD206"/>
<path d="M38.1971 155.619C23.0354 150.653 11.7033 143.593 6.09735 135.638L77.6477 85.2919C81.7647 85.035 85.8712 84.9065 89.8576 84.9065C104.533 84.9065 118.995 86.5656 131.853 89.7217L38.1971 155.619Z" fill="#F8F67A"/>
<path d="M77.3292 162.781C70.2081 162.323 63.2543 161.474 56.6034 160.25L149.016 95.2241C154.308 97.3914 158.989 99.8381 162.976 102.519L77.3292 162.781" fill="#F8F67A"/>
<path d="M0.00585938 119.607C0.00585938 141.839 39.7701 159.865 88.8236 159.865C137.877 159.865 177.641 141.839 177.641 119.607C177.641 97.3692 137.877 79.3433 88.8236 79.3433C39.7701 79.3433 0.00585938 97.3692 0.00585938 119.607Z" fill="#CC731B"/>
<path d="M0 96.0953V115.468C0 132.024 21.9642 146.173 53.3743 152.396C60.8454 153.865 68.8026 154.921 77.1515 155.391C80.9967 155.625 84.8941 155.742 88.8491 155.742C101.425 155.742 113.452 154.569 124.272 152.396C155.682 146.173 172.045 131.672 172.045 115.116L177.646 94.0398C164.851 78.9466 126.628 75.1927 88.8491 75.1927C58.7556 75.1927 16.0865 85.7613 0 96.0953" fill="#FBC10C"/>
<path d="M77.1514 155.391C68.8026 154.921 60.8454 153.865 53.3743 152.396V133.047C60.8245 134.521 68.8026 135.538 77.1514 136.035V155.391Z" fill="#FADD2C"/>
<path d="M120.526 153.027V76.2372C146.267 78.2035 168.461 83.2029 177.641 94.0062V115.417C177.641 132.588 153.916 147.24 120.526 153.027Z" fill="#EF9412"/>
<path d="M0.00585938 96.1178C0.00585938 118.355 39.7701 136.381 88.8236 136.381C137.877 136.381 177.641 118.355 177.641 96.1178C177.641 73.8856 137.877 55.8598 88.8236 55.8598C39.7701 55.8598 0.00585938 73.8856 0.00585938 96.1178Z" fill="#FAD206"/>
<path d="M38.1971 127.69C23.0354 122.724 11.7033 115.663 6.09735 107.709L77.6477 57.3677C81.7647 57.1052 85.8712 56.9769 89.8576 56.9769C104.533 56.9769 118.995 58.636 131.853 61.7921L38.1971 127.69Z" fill="#F8F67A"/>
<path d="M77.3292 134.851C70.2081 134.393 63.2543 133.544 56.6034 132.32L149.016 67.2939C154.308 69.4612 158.989 71.9079 162.976 74.5892L77.3292 134.851" fill="#F8F67A"/>
<path d="M0.00585938 91.6768C0.00585938 113.909 39.7701 131.935 88.8236 131.935C137.877 131.935 177.641 113.909 177.641 91.6768C177.641 69.4391 137.877 51.4131 88.8236 51.4131C39.7701 51.4131 0.00585938 69.4391 0.00585938 91.6768Z" fill="#CC731B"/>
<path d="M0 68.1657V87.5379C0 104.095 21.9642 118.244 53.3743 124.467C60.8454 125.936 68.8026 126.992 77.1515 127.461C80.9967 127.696 84.8941 127.813 88.8491 127.813C101.425 127.813 113.452 126.64 124.272 124.467C155.682 118.244 172.045 103.743 172.045 87.186L177.646 66.1102C164.851 51.0169 126.628 47.263 88.8491 47.263C58.7556 47.263 16.0865 57.8316 0 68.1657" fill="#FBC10C"/>
<path d="M77.1514 127.461C68.8026 126.992 60.8454 125.936 53.3743 124.467V105.117C60.8245 106.586 68.8026 107.608 77.1514 108.105V127.461Z" fill="#FADD2C"/>
<path d="M120.526 125.098V48.3076C146.267 50.2738 168.461 55.2733 177.641 66.0765V87.4876C177.641 104.659 153.916 119.311 120.526 125.098Z" fill="#EF9412"/>
<path d="M0.00585938 68.1881C0.00585938 90.4258 39.7701 108.452 88.8236 108.452C137.877 108.452 177.641 90.4258 177.641 68.1881C177.641 45.9559 137.877 27.9301 88.8236 27.9301C39.7701 27.9301 0.00585938 45.9559 0.00585938 68.1881Z" fill="#FAD206"/>
<path d="M38.1971 99.7599C23.0354 94.794 11.7033 87.7333 6.09735 79.7789L77.6477 29.4381C81.7647 29.1756 85.8712 29.0473 89.8576 29.0473C104.533 29.0473 118.995 30.7064 131.853 33.8624L38.1971 99.7599Z" fill="#F8F67A"/>
<path d="M77.3292 106.927C70.2081 106.463 63.2543 105.614 56.6034 104.391L149.016 39.3644C154.308 41.5317 158.989 43.9784 162.976 46.6597L77.3292 106.927" fill="#F8F67A"/>
<path d="M0.00585938 63.7472C0.00585938 85.9793 39.7701 104.005 88.8236 104.005C137.877 104.005 177.641 85.9793 177.641 63.7472C177.641 41.5094 137.877 23.4835 88.8236 23.4835C39.7701 23.4835 0.00585938 41.5094 0.00585938 63.7472Z" fill="#CC731B"/>
<path d="M0 40.2355V59.6077C0 76.1645 21.9642 90.3137 53.3743 96.5364C60.8454 98.0056 68.8026 99.0615 77.1515 99.5307C80.9967 99.7653 84.8941 99.8826 88.8491 99.8826C101.425 99.8826 113.452 98.7094 124.272 96.5364C155.682 90.3137 172.045 75.8127 172.045 59.2559L177.646 38.18C164.851 23.0868 126.628 19.3329 88.8491 19.3329C58.7556 19.3329 16.0865 29.9015 0 40.2355" fill="#FBC10C"/>
<path d="M77.1514 99.5307C68.8026 99.0615 60.8454 98.0056 53.3743 96.5365V61.0154H77.1514V99.5307Z" fill="#FADD2C"/>
<path d="M120.526 97.168V20.3779C146.267 22.3442 168.461 27.3437 177.641 38.1469V59.558C177.641 76.7292 153.916 91.381 120.526 97.168Z" fill="#EF9412"/>
<path d="M0.00585938 40.258C0.00585938 62.4957 39.7701 80.5216 88.8236 80.5216C137.877 80.5216 177.641 62.4957 177.641 40.258C177.641 18.0258 137.877 2.44024e-05 88.8236 2.44024e-05C39.7701 2.44024e-05 0.00585938 18.0258 0.00585938 40.258Z" fill="#FAD206"/>
<path d="M38.1971 71.8297C23.0354 66.8638 11.7033 59.8031 6.09735 51.8487L77.6477 1.50249C81.7647 1.24554 85.8712 1.11709 89.8576 1.11709C104.533 1.11709 119 2.77619 131.853 5.93226L38.1971 71.8297Z" fill="#F8F67A"/>
<path d="M77.3292 78.9966C70.2081 78.533 63.2543 77.6839 56.6034 76.4606L149.016 11.4343C154.308 13.6017 158.989 16.0483 162.976 18.7296L77.3292 78.9966" fill="#F8F67A"/>
<path d="M100.908 259.742C100.908 281.974 140.672 300 189.731 300C238.784 300 278.549 281.974 278.549 259.742C278.549 237.504 238.784 219.478 189.731 219.478C140.672 219.478 100.908 237.504 100.908 259.742Z" fill="#CC731B"/>
<path d="M100.902 236.23V255.603C100.902 272.159 122.871 286.309 154.276 292.531C161.747 294 169.71 295.056 178.059 295.525C181.904 295.76 185.802 295.877 189.751 295.877C202.332 295.877 214.354 294.704 225.174 292.531C256.589 286.309 272.947 271.807 272.947 255.25L278.553 234.175C265.753 219.081 227.535 215.328 189.751 215.328C159.663 215.328 116.994 225.896 100.902 236.23" fill="#FBC10C"/>
<path d="M178.059 295.526C169.71 295.056 161.748 294.001 154.276 292.532V273.182C161.732 274.651 169.71 275.673 178.059 276.17V295.526Z" fill="#FADD2C"/>
<path d="M221.428 293.162V216.372C247.175 218.339 269.369 223.332 278.548 234.141V255.552C278.548 272.723 254.824 287.375 221.428 293.162Z" fill="#EF9412"/>
<path d="M100.908 236.253C100.908 258.491 140.672 276.517 189.731 276.517C238.784 276.517 278.549 258.491 278.549 236.253C278.549 214.021 238.784 195.995 189.731 195.995C140.672 195.995 100.908 214.021 100.908 236.253Z" fill="#FAD206"/>
<path d="M139.104 267.825C123.938 262.859 112.611 255.798 107 247.844L178.555 197.497C182.672 197.24 186.779 197.112 190.765 197.112C205.441 197.112 219.902 198.771 232.755 201.927L139.104 267.825Z" fill="#F8F67A"/>
<path d="M178.231 274.986C171.105 274.528 164.146 273.679 157.505 272.456L249.923 207.429C255.21 209.597 259.896 212.049 263.883 214.725L178.231 274.986" fill="#F8F67A"/>
<path d="M100.908 231.812C100.908 254.044 140.672 272.07 189.731 272.07C238.784 272.07 278.549 254.044 278.549 231.812C278.549 209.574 238.784 191.549 189.731 191.549C140.672 191.549 100.908 209.574 100.908 231.812Z" fill="#CC731B"/>
<path d="M100.902 208.301V227.673C100.902 244.23 122.871 258.379 154.276 264.602C161.747 266.071 169.71 267.127 178.059 267.596C181.904 267.83 185.802 267.948 189.751 267.948C202.332 267.948 214.354 266.775 225.174 264.602C256.589 258.379 272.947 243.878 272.947 227.321L278.553 206.245C265.753 191.152 227.535 187.398 189.751 187.398C159.663 187.398 116.994 197.967 100.902 208.301" fill="#FBC10C"/>
<path d="M178.059 267.595C169.71 267.126 161.748 266.071 154.276 264.601V229.08H178.059V267.595Z" fill="#FADD2C"/>
<path d="M221.428 265.233V188.443C247.175 190.409 269.369 195.403 278.548 206.212V227.622C278.548 244.794 254.824 259.446 221.428 265.233Z" fill="#EF9412"/>
<path d="M100.908 208.323C100.908 230.56 140.672 248.586 189.731 248.586C238.784 248.586 278.549 230.56 278.549 208.323C278.549 186.091 238.784 168.065 189.731 168.065C140.672 168.065 100.908 186.091 100.908 208.323Z" fill="#FAD206"/>
<path d="M139.104 239.895C123.938 234.929 112.611 227.868 107 219.914L178.555 169.568C182.672 169.311 186.779 169.182 190.765 169.182C205.441 169.182 219.902 170.841 232.755 173.997L139.104 239.895Z" fill="#F8F67A"/>
<path d="M178.231 247.056C171.105 246.598 164.146 245.749 157.505 244.526L249.923 179.5C255.21 181.667 259.896 184.119 263.883 186.795L178.231 247.056" fill="#F8F67A"/>
</svg>
