<svg width="308" height="308" viewBox="0 0 308 308" fill="none" xmlns="http://www.w3.org/2000/svg">
<g filter="url(#filter0_d_21:2787)">
<path d="M260.162 216.903L260.082 216.814C260.19 216.745 260.297 216.677 260.403 216.606L260.162 216.903ZM266.091 209.595C266.19 209.129 266.24 208.655 266.24 208.176C266.24 206.64 265.716 205.154 264.742 203.755L264.807 203.522C265.739 202.148 266.24 200.695 266.24 199.192C266.24 198.968 266.23 198.746 266.207 198.524L266.243 198.397C266.224 198.376 266.207 198.357 266.188 198.335C266.224 198.055 266.24 197.776 266.24 197.491C266.24 195.955 265.716 194.47 264.742 193.07L264.807 192.837C265.739 191.463 266.24 190.01 266.24 188.508C266.24 188.283 266.23 188.061 266.207 187.839L266.243 187.713C266.224 187.691 266.207 187.672 266.188 187.651C266.224 187.371 266.24 187.091 266.24 186.807C266.24 185.27 265.716 183.785 264.742 182.385L264.805 182.152C265.739 180.778 266.24 179.325 266.24 177.823C266.24 177.599 266.23 177.376 266.207 177.154L266.243 177.026C266.224 177.007 266.207 176.985 266.188 176.966C266.224 176.686 266.24 176.406 266.24 176.122C266.24 174.586 265.716 173.1 264.742 171.701L264.805 171.468C265.739 170.094 266.24 168.641 266.24 167.138C266.24 166.914 266.23 166.692 266.207 166.47L266.243 166.341C266.224 166.322 266.207 166.301 266.188 166.281C266.224 166.001 266.24 165.722 266.24 165.439C266.24 163.901 265.716 162.416 264.742 161.016L264.805 160.783C265.739 159.409 266.24 157.956 266.24 156.454C266.24 156.229 266.23 156.007 266.207 155.785L266.243 155.657C266.224 155.637 266.207 155.616 266.188 155.597C266.224 155.317 266.24 155.037 266.24 154.755C266.24 153.216 265.716 151.731 264.742 150.331L264.805 150.098C265.739 148.724 266.24 147.271 266.24 145.769C266.24 145.545 266.23 145.322 266.207 145.1L266.243 144.972C266.224 144.953 266.207 144.931 266.188 144.912C266.192 144.874 266.196 144.837 266.2 144.801C266.852 144.786 267.509 144.777 268.171 144.777C287.959 144.777 304 151.673 304 160.178C304 161.747 303.448 163.258 302.436 164.681H302.525L266.091 209.595" fill="#B9CAC8"/>
<path d="M185.288 263.956L184.03 261.407L216.225 222.474C221.336 223.679 227.208 224.365 233.455 224.365C235.322 224.365 237.154 224.312 238.933 224.188L218.582 248.799V223.694L185.288 263.956V263.956ZM239.548 223.442V223.075C239.66 223.062 239.771 223.049 239.885 223.036L239.548 223.442V223.442ZM195.443 219.624H192.075L196.964 213.711C197.512 214.322 198.147 214.914 198.863 215.484L195.443 219.624" fill="#B9A1D0"/>
<path d="M136.984 184.657C136.984 193.164 153.027 200.058 172.816 200.058C192.604 200.058 208.644 193.164 208.644 184.657C208.644 176.15 192.604 169.254 172.816 169.254C153.027 169.254 136.984 176.15 136.984 184.657Z" fill="#CC731B"/>
<path d="M136.984 175.663V183.073C136.984 189.407 145.845 194.822 158.516 197.203C161.527 197.763 164.741 198.169 168.107 198.348C169.658 198.438 171.231 198.483 172.826 198.483C177.899 198.483 182.751 198.034 187.115 197.203C199.786 194.822 206.387 189.273 206.387 182.939L208.647 174.876C203.485 169.104 188.068 167.666 172.826 167.666C160.686 167.666 143.474 171.709 136.984 175.663" fill="#FBC10C"/>
<path d="M185.602 197.442V168.066C195.988 168.818 204.941 170.73 208.644 174.863V183.054C208.644 189.623 199.074 195.228 185.602 197.442Z" fill="#EF9412"/>
<path d="M136.984 175.673C136.984 184.178 153.027 191.074 172.816 191.074C192.604 191.074 208.644 184.178 208.644 175.673C208.644 167.166 192.604 160.27 172.816 160.27C153.027 160.27 136.984 167.166 136.984 175.673Z" fill="#FAD206"/>
<path d="M152.393 187.751C146.277 185.849 141.705 183.148 139.442 180.107L168.307 160.847C169.962 160.747 171.621 160.698 173.233 160.698C179.157 160.698 184.989 161.334 190.174 162.542L152.393 187.751Z" fill="#F8F67A"/>
<path d="M168.179 190.491C165.304 190.316 162.499 189.989 159.818 189.521L197.097 164.645C199.23 165.474 201.12 166.412 202.728 167.435L168.179 190.491" fill="#F8F67A"/>
<path d="M136.984 173.972C136.984 182.479 153.027 189.373 172.816 189.373C192.604 189.373 208.644 182.479 208.644 173.972C208.644 165.465 192.604 158.569 172.816 158.569C153.027 158.569 136.984 165.465 136.984 173.972Z" fill="#CC731B"/>
<path d="M136.984 164.978V172.389C136.984 178.723 145.845 184.138 158.516 186.518C161.527 187.078 164.741 187.484 168.107 187.664C169.658 187.753 171.231 187.798 172.826 187.798C177.899 187.798 182.751 187.347 187.115 186.518C199.786 184.138 206.387 178.588 206.387 172.254L208.647 164.191C203.485 158.42 188.068 156.981 172.826 156.981C160.686 156.981 143.474 161.025 136.984 164.978" fill="#FBC10C"/>
<path d="M168.107 187.569H166.634C164.569 187.418 162.566 187.183 160.636 186.881L160.775 179.498C163.116 179.857 165.572 180.116 168.107 180.257V187.569Z" fill="#FADD2C"/>
<path d="M185.602 186.758V157.381C195.988 158.133 204.941 160.046 208.644 164.179V172.37C208.644 178.939 199.074 184.544 185.602 186.758Z" fill="#EF9412"/>
<path d="M136.984 164.989C136.984 173.494 153.027 180.389 172.816 180.389C192.604 180.389 208.644 173.494 208.644 164.989C208.644 156.481 192.604 149.586 172.816 149.586C153.027 149.586 136.984 156.481 136.984 164.989Z" fill="#FAD206"/>
<path d="M152.393 177.067C146.277 175.165 141.705 172.464 139.442 169.423L168.307 150.163C169.962 150.062 171.621 150.013 173.233 150.013C179.157 150.013 184.989 150.65 190.174 151.855L152.393 177.067" fill="#F8F67A"/>
<path d="M168.179 179.806C165.304 179.631 162.499 179.304 159.818 178.836L197.097 153.96C199.23 154.789 201.12 155.727 202.728 156.751L168.179 179.806" fill="#F8F67A"/>
<path d="M136.984 163.288C136.984 171.795 153.027 178.688 172.816 178.688C192.604 178.688 208.644 171.795 208.644 163.288C208.644 154.78 192.604 147.885 172.816 147.885C153.027 147.885 136.984 154.78 136.984 163.288Z" fill="#CC731B"/>
<path d="M136.984 154.293V161.704C136.984 168.038 145.845 173.453 158.516 175.831C161.527 176.393 164.741 176.799 168.107 176.979C169.658 177.069 171.231 177.114 172.826 177.114C177.899 177.114 182.751 176.663 187.115 175.831C199.786 173.453 206.387 167.903 206.387 161.57L208.647 153.507C203.485 147.733 188.068 146.297 172.826 146.297C160.686 146.297 143.474 150.34 136.984 154.293" fill="#FBC10C"/>
<path d="M168.107 176.979C165.593 176.844 163.163 176.584 160.838 176.227L160.977 168.844C163.258 169.188 165.643 169.433 168.107 169.572V176.979" fill="#FADD2C"/>
<path d="M185.602 176.073V146.696C195.988 147.448 204.941 149.361 208.644 153.494V161.685C208.644 168.254 199.074 173.859 185.602 176.073Z" fill="#EF9412"/>
<path d="M136.984 154.304C136.984 162.809 153.027 169.705 172.816 169.705C192.604 169.705 208.644 162.809 208.644 154.304C208.644 145.797 192.604 138.901 172.816 138.901C153.027 138.901 136.984 145.797 136.984 154.304Z" fill="#FAD206"/>
<path d="M152.393 166.382C146.277 164.48 141.705 161.779 139.442 158.736L168.307 139.478C169.962 139.377 171.621 139.328 173.233 139.328C179.157 139.328 184.989 139.965 190.174 141.17L152.393 166.382Z" fill="#F8F67A"/>
<path d="M168.179 169.121C165.304 168.946 162.499 168.619 159.818 168.151L197.097 143.275C199.23 144.104 201.12 145.042 202.728 146.066L168.179 169.121" fill="#F8F67A"/>
<path d="M136.984 152.603C136.984 161.11 153.027 168.004 172.816 168.004C192.604 168.004 208.644 161.11 208.644 152.603C208.644 144.096 192.604 137.2 172.816 137.2C153.027 137.2 136.984 144.096 136.984 152.603Z" fill="#CC731B"/>
<path d="M136.984 143.609V151.019C136.984 157.353 145.845 162.766 158.516 165.147C161.527 165.709 164.741 166.115 168.107 166.294C169.658 166.382 171.231 166.429 172.826 166.429C177.899 166.429 182.751 165.978 187.115 165.147C199.786 162.766 206.387 157.219 206.387 150.885L208.647 142.822C203.485 137.048 188.068 135.612 172.826 135.612C160.686 135.612 143.474 139.655 136.984 143.609" fill="#FBC10C"/>
<path d="M168.107 166.294C165.665 166.164 163.304 165.914 161.04 165.574L161.18 158.191C163.399 158.518 165.717 158.753 168.107 158.89V166.294Z" fill="#FADD2C"/>
<path d="M185.602 165.388V136.012C195.988 136.764 204.941 138.676 208.644 142.809V151C208.644 157.569 199.074 163.174 185.602 165.388Z" fill="#EF9412"/>
<path d="M136.984 143.619C136.984 152.124 153.027 159.02 172.816 159.02C192.604 159.02 208.644 152.124 208.644 143.619C208.644 135.112 192.604 128.216 172.816 128.216C153.027 128.216 136.984 135.112 136.984 143.619Z" fill="#FAD206"/>
<path d="M152.393 155.697C146.277 153.795 141.705 151.094 139.442 148.051L168.307 128.793C169.962 128.693 171.621 128.644 173.233 128.644C179.157 128.644 184.989 129.28 190.174 130.486L152.393 155.697Z" fill="#F8F67A"/>
<path d="M168.179 158.437C165.304 158.262 162.499 157.935 159.818 157.467L197.097 132.591C199.23 133.42 201.12 134.358 202.728 135.381L168.179 158.437" fill="#F8F67A"/>
<path d="M136.984 141.918C136.984 150.425 153.027 157.319 172.816 157.319C192.604 157.319 208.644 150.425 208.644 141.918C208.644 133.411 192.604 126.515 172.816 126.515C153.027 126.515 136.984 133.411 136.984 141.918Z" fill="#CC731B"/>
<path d="M136.984 132.924V140.335C136.984 146.669 145.845 152.081 158.516 154.462C161.527 155.024 164.741 155.43 168.107 155.61C169.658 155.697 171.231 155.744 172.826 155.744C177.899 155.744 182.751 155.293 187.115 154.462C199.786 152.081 206.387 146.534 206.387 140.2L208.647 132.137C203.485 126.366 188.068 124.927 172.826 124.927C160.686 124.927 143.474 128.971 136.984 132.924" fill="#FBC10C"/>
<path d="M168.107 155.61C165.738 155.483 163.443 155.244 161.241 154.919L161.382 147.534C163.54 147.846 165.789 148.073 168.107 148.205V155.61Z" fill="#FADD2C"/>
<path d="M185.602 154.704V125.327C195.988 126.079 204.941 127.992 208.644 132.125V140.316C208.644 146.884 199.074 152.49 185.602 154.704Z" fill="#EF9412"/>
<path d="M136.984 132.935C136.984 141.44 153.027 148.335 172.816 148.335C192.604 148.335 208.644 141.44 208.644 132.935C208.644 124.427 192.604 117.531 172.816 117.531C153.027 117.531 136.984 124.427 136.984 132.935Z" fill="#FAD206"/>
<path d="M152.393 145.013C146.277 143.111 141.705 140.41 139.442 137.367L168.307 118.106C169.962 118.008 171.621 117.959 173.233 117.959C179.157 117.959 184.989 118.596 190.174 119.801L152.393 145.013Z" fill="#F8F67A"/>
<path d="M168.179 147.752C165.304 147.577 162.499 147.25 159.818 146.782L197.097 121.906C199.23 122.735 201.12 123.673 202.728 124.697L168.179 147.752" fill="#F8F67A"/>
<path d="M136.984 131.234C136.984 139.739 153.027 146.634 172.816 146.634C192.604 146.634 208.644 139.739 208.644 131.234C208.644 122.726 192.604 115.831 172.816 115.831C153.027 115.831 136.984 122.726 136.984 131.234Z" fill="#CC731B"/>
<path d="M136.984 122.239V129.65C136.984 135.984 145.845 141.397 158.516 143.777C161.527 144.339 164.741 144.743 168.107 144.925C169.658 145.013 171.231 145.06 172.826 145.06C177.899 145.06 182.751 144.609 187.115 143.777C199.786 141.397 206.387 135.849 206.387 129.515L208.647 121.453C203.485 115.681 188.068 114.243 172.826 114.243C160.686 114.243 143.474 118.286 136.984 122.239" fill="#FBC10C"/>
<path d="M168.107 144.925C165.81 144.801 163.584 144.575 161.443 144.265L161.584 136.879C163.679 137.176 165.861 137.392 168.107 137.52V144.925" fill="#FADD2C"/>
<path d="M185.602 144.019V114.642C195.988 115.394 204.941 117.307 208.644 121.44V129.631C208.644 136.2 199.074 141.805 185.602 144.019Z" fill="#EF9412"/>
<path d="M136.984 122.25C136.984 130.755 153.027 137.651 172.816 137.651C192.604 137.651 208.644 130.755 208.644 122.25C208.644 113.743 192.604 106.847 172.816 106.847C153.027 106.847 136.984 113.743 136.984 122.25Z" fill="#FAD206"/>
<path d="M152.393 134.328C146.277 132.426 141.705 129.725 139.442 126.682L168.307 107.422C169.962 107.323 171.621 107.274 173.233 107.274C179.157 107.274 184.989 107.911 190.174 109.118L152.393 134.328" fill="#F8F67A"/>
<path d="M168.179 137.067C165.304 136.892 162.499 136.565 159.818 136.097L197.097 111.221C199.23 112.05 201.12 112.988 202.728 114.012L168.179 137.067" fill="#F8F67A"/>
<path d="M136.984 120.549C136.984 129.054 153.027 135.95 172.816 135.95C192.604 135.95 208.644 129.054 208.644 120.549C208.644 112.042 192.604 105.146 172.816 105.146C153.027 105.146 136.984 112.042 136.984 120.549Z" fill="#CC731B"/>
<path d="M136.984 111.554V118.965C136.984 125.299 145.845 130.712 158.516 133.093C161.527 133.655 164.741 134.058 168.107 134.24C169.658 134.328 171.231 134.375 172.826 134.375C177.899 134.375 182.751 133.924 187.115 133.093C199.786 130.712 206.387 125.165 206.387 118.831L208.647 110.768C203.485 104.996 188.068 103.558 172.826 103.558C160.686 103.558 143.474 107.601 136.984 111.554" fill="#FBC10C"/>
<path d="M168.107 134.24C165.882 134.12 163.723 133.902 161.645 133.608L161.784 126.222C163.818 126.504 165.934 126.712 168.107 126.836V134.24" fill="#FADD2C"/>
<path d="M185.602 133.334V103.958C195.988 104.71 204.941 106.622 208.644 110.755V118.946C208.644 125.515 199.074 131.12 185.602 133.334Z" fill="#EF9412"/>
<path d="M136.984 111.563C136.984 120.07 153.027 126.966 172.816 126.966C192.604 126.966 208.644 120.07 208.644 111.563C208.644 103.058 192.604 96.162 172.816 96.162C153.027 96.162 136.984 103.058 136.984 111.563Z" fill="#FAD206"/>
<path d="M152.393 123.643C146.277 121.741 141.705 119.04 139.442 115.997L168.307 96.7392C169.962 96.6387 171.621 96.5895 173.233 96.5895C179.157 96.5895 184.989 97.2263 190.174 98.4337L152.393 123.643" fill="#F8F67A"/>
<path d="M168.179 126.383C165.304 126.208 162.499 125.881 159.818 125.413L197.097 100.537C199.23 101.366 201.12 102.304 202.728 103.327L168.179 126.383" fill="#F8F67A"/>
<path d="M136.984 109.864C136.984 118.369 153.027 125.265 172.816 125.265C192.604 125.265 208.644 118.369 208.644 109.864C208.644 101.357 192.604 94.4612 172.816 94.4612C153.027 94.4612 136.984 101.357 136.984 109.864Z" fill="#CC731B"/>
<path d="M136.984 100.87V108.281C136.984 114.615 145.845 120.027 158.516 122.41C161.527 122.97 164.741 123.374 168.107 123.556C169.658 123.645 171.231 123.69 172.826 123.69C177.899 123.69 182.751 123.239 187.115 122.41C199.786 120.027 206.387 114.48 206.387 108.146L208.647 100.083C203.485 94.3116 188.068 92.8734 172.826 92.8734C160.686 92.8734 143.474 96.9166 136.984 100.87" fill="#FBC10C"/>
<path d="M168.107 123.556C165.953 123.44 163.862 123.233 161.848 122.951L161.972 116.324C160.838 116.202 159.685 116.046 158.516 115.86V115.006C161.521 115.57 164.741 115.961 168.107 116.151V123.556" fill="#FADD2C"/>
<path d="M185.602 122.65V93.273C195.988 94.0252 204.941 95.9378 208.644 100.071V108.262C208.644 114.83 199.074 120.436 185.602 122.65Z" fill="#EF9412"/>
<path d="M136.984 100.878C136.984 109.385 153.027 116.281 172.816 116.281C192.604 116.281 208.644 109.385 208.644 100.878C208.644 92.3733 192.604 85.4774 172.816 85.4774C153.027 85.4774 136.984 92.3733 136.984 100.878Z" fill="#FAD206"/>
<path d="M152.393 112.959C146.277 111.057 141.705 108.356 139.442 105.315L168.307 86.0546C169.962 85.9563 171.621 85.9049 173.233 85.9049C179.157 85.9049 184.989 86.5417 190.174 87.7491L152.393 112.959Z" fill="#F8F67A"/>
<path d="M168.179 115.698C165.304 115.523 162.499 115.196 159.818 114.728L197.097 89.8518C199.23 90.6809 201.12 91.619 202.728 92.6426L168.179 115.698" fill="#F8F67A"/>
<path d="M136.984 99.1796C136.984 107.685 153.027 114.58 172.816 114.58C192.604 114.58 208.644 107.685 208.644 99.1796C208.644 90.6725 192.604 83.7765 172.816 83.7765C153.027 83.7765 136.984 90.6725 136.984 99.1796Z" fill="#CC731B"/>
<path d="M136.984 90.1853V97.5961C136.984 103.93 145.845 109.345 158.516 111.726C161.527 112.285 164.741 112.689 168.107 112.871C169.658 112.961 171.231 113.005 172.826 113.005C177.899 113.005 182.751 112.555 187.115 111.726C199.786 109.345 206.387 103.795 206.387 97.4615L208.647 89.3988C203.485 83.627 188.068 82.1888 172.826 82.1888C160.686 82.1888 143.474 86.2319 136.984 90.1853" fill="#FBC10C"/>
<path d="M168.107 112.871C164.741 112.689 161.527 112.285 158.516 111.726V104.321C161.521 104.885 164.741 105.276 168.107 105.464V112.871" fill="#FADD2C"/>
<path d="M185.602 111.965V82.5882C195.988 83.3404 204.941 85.253 208.644 89.3858V97.5767C208.644 104.146 199.074 109.751 185.602 111.965Z" fill="#EF9412"/>
<path d="M136.984 90.1957C136.984 98.7007 153.027 105.597 172.816 105.597C192.604 105.597 208.644 98.7007 208.644 90.1957C208.644 81.6885 192.604 74.7926 172.816 74.7926C153.027 74.7926 136.984 81.6885 136.984 90.1957Z" fill="#FAD206"/>
<path d="M152.393 102.274C146.277 100.372 141.705 97.6708 139.442 94.6299L168.307 75.3698C169.962 75.2693 171.621 75.2201 173.233 75.2201C179.157 75.2201 184.989 75.8569 190.174 77.0643L152.393 102.274Z" fill="#F8F67A"/>
<path d="M168.179 105.013C165.304 104.838 162.499 104.511 159.818 104.043L197.097 79.1671C199.23 79.9963 201.12 80.9323 202.728 81.958L168.179 105.013" fill="#F8F67A"/>
<path d="M136.984 88.4948C136.984 96.9998 153.027 103.896 172.816 103.896C192.604 103.896 208.644 96.9998 208.644 88.4948C208.644 79.9876 192.604 73.0917 172.816 73.0917C153.027 73.0917 136.984 79.9876 136.984 88.4948Z" fill="#CC731B"/>
<path d="M136.984 79.5005V86.9113C136.984 93.2452 145.845 98.6602 158.516 101.041C161.527 101.601 164.741 102.007 168.107 102.186C169.658 102.276 171.231 102.321 172.826 102.321C177.899 102.321 182.751 101.87 187.115 101.041C199.786 98.6602 206.387 93.1106 206.387 86.7767L208.647 78.714C203.485 72.9422 188.068 71.504 172.826 71.504C160.686 71.504 143.474 75.5471 136.984 79.5005" fill="#FBC10C"/>
<path d="M168.107 102.186C164.741 102.007 161.527 101.601 158.516 101.041V93.6363C161.521 94.2004 164.741 94.5915 168.107 94.7796V102.186" fill="#FADD2C"/>
<path d="M185.602 101.28V71.9036C195.988 72.6558 204.941 74.5684 208.644 78.7012V86.8921C208.644 93.461 199.074 99.0662 185.602 101.28Z" fill="#EF9412"/>
<path d="M136.984 79.5111C136.984 88.0161 153.027 94.9119 172.816 94.9119C192.604 94.9119 208.644 88.0161 208.644 79.5111C208.644 71.0039 192.604 64.108 172.816 64.108C153.027 64.108 136.984 71.0039 136.984 79.5111Z" fill="#FAD206"/>
<path d="M152.393 91.5891C146.277 89.6873 141.705 86.9862 139.442 83.9453L168.307 64.6852C169.962 64.5847 171.621 64.5355 173.233 64.5355C179.157 64.5355 184.989 65.1723 190.174 66.3797L152.393 91.5891Z" fill="#F8F67A"/>
<path d="M168.179 94.3287C165.304 94.1535 162.499 93.8265 159.818 93.3585L197.097 68.4825C199.23 69.3117 201.12 70.2498 202.728 71.2734L168.179 94.3287" fill="#F8F67A"/>
<path d="M136.984 77.8101C136.984 86.3173 153.027 93.211 172.816 93.211C192.604 93.211 208.644 86.3173 208.644 77.8101C208.644 69.303 192.604 62.4071 172.816 62.4071C153.027 62.4071 136.984 69.303 136.984 77.8101Z" fill="#CC731B"/>
<path d="M136.984 68.8159V76.2267C136.984 82.5606 145.845 87.9756 158.516 90.3561C161.527 90.916 164.741 91.322 168.107 91.5015C169.658 91.5913 171.231 91.6361 172.826 91.6361C177.899 91.6361 182.751 91.1853 187.115 90.3561C199.786 87.9756 206.387 82.426 206.387 76.0921L208.647 68.0294C203.485 62.2576 188.068 60.8194 172.826 60.8194C160.686 60.8194 143.474 64.8625 136.984 68.8159" fill="#FBC10C"/>
<path d="M168.107 91.5015C164.741 91.322 161.527 90.916 158.516 90.3561V82.9517C161.521 83.5158 164.741 83.9069 168.107 84.0949V91.5015" fill="#FADD2C"/>
<path d="M185.602 90.5955V61.219C195.988 61.9712 204.941 63.8837 208.644 68.0166V76.2075C208.644 82.7764 199.074 88.3816 185.602 90.5955Z" fill="#EF9412"/>
<path d="M136.984 68.8264C136.984 77.3314 153.027 84.2273 172.816 84.2273C192.604 84.2273 208.644 77.3314 208.644 68.8264C208.644 60.3193 192.604 53.4234 172.816 53.4234C153.027 53.4234 136.984 60.3193 136.984 68.8264Z" fill="#FAD206"/>
<path d="M152.393 80.9045C146.277 79.0027 141.705 76.3016 139.442 73.2607L168.307 54.0006C169.962 53.9001 171.621 53.8509 173.233 53.8509C179.157 53.8509 184.989 54.4877 190.174 55.6951L152.393 80.9045Z" fill="#F8F67A"/>
<path d="M168.179 83.6439C165.304 83.4687 162.499 83.1417 159.818 82.6737L197.097 57.7978C199.23 58.6269 201.12 59.565 202.728 60.5886L168.179 83.6439" fill="#F8F67A"/>
<path d="M136.984 67.1255C136.984 75.6327 153.027 82.5264 172.816 82.5264C192.604 82.5264 208.644 75.6327 208.644 67.1255C208.644 58.6184 192.604 51.7225 172.816 51.7225C153.027 51.7225 136.984 58.6184 136.984 67.1255Z" fill="#CC731B"/>
<path d="M136.984 58.1312V65.5421C136.984 71.8759 145.845 77.291 158.516 79.6715C161.527 80.2314 164.741 80.6374 168.107 80.8169C169.658 80.9066 171.231 80.9515 172.826 80.9515C177.899 80.9515 182.751 80.5006 187.115 79.6715C199.786 77.291 206.387 71.7413 206.387 65.4075L208.647 57.3448C203.485 51.573 188.068 50.1347 172.826 50.1347C160.686 50.1347 143.474 54.1779 136.984 58.1312" fill="#FBC10C"/>
<path d="M168.107 80.8169C164.741 80.6374 161.527 80.2314 158.516 79.6715V72.2671C161.521 72.8312 164.741 73.2222 168.107 73.4124V80.8169Z" fill="#FADD2C"/>
<path d="M185.602 79.9106V50.5342C195.988 51.2864 204.941 53.1989 208.644 57.3318V65.5226C208.644 72.0916 199.074 77.6968 185.602 79.9106Z" fill="#EF9412"/>
<path d="M136.984 58.1417C136.984 66.6467 153.027 73.5425 172.816 73.5425C192.604 73.5425 208.644 66.6467 208.644 58.1417C208.644 49.6345 192.604 42.7386 172.816 42.7386C153.027 42.7386 136.984 49.6345 136.984 58.1417Z" fill="#FAD206"/>
<path d="M152.393 70.2197C146.277 68.3179 141.705 65.6168 139.442 62.5759L168.307 43.3157C169.962 43.2153 171.621 43.1661 173.233 43.1661C179.157 43.1661 184.989 43.8029 190.174 45.0082L152.393 70.2197" fill="#F8F67A"/>
<path d="M168.179 72.9593C165.304 72.7841 162.499 72.4571 159.818 71.9891L197.097 47.1131C199.23 47.9423 201.12 48.8804 202.728 49.904L168.179 72.9593" fill="#F8F67A"/>
<path d="M136.984 56.4407C136.984 64.9479 153.027 71.8416 172.816 71.8416C192.604 71.8416 208.644 64.9479 208.644 56.4407C208.644 47.9336 192.604 41.0377 172.816 41.0377C153.027 41.0377 136.984 47.9336 136.984 56.4407Z" fill="#CC731B"/>
<path d="M136.984 47.4464V54.8573C136.984 61.1911 145.845 66.6061 158.516 68.9845C161.527 69.5465 164.741 69.9526 168.107 70.1321C169.658 70.2197 171.231 70.2667 172.826 70.2667C177.899 70.2667 182.751 69.8158 187.115 68.9845C199.786 66.6061 206.387 61.0565 206.387 54.7227L208.647 46.66C203.485 40.886 188.068 39.4499 172.826 39.4499C160.686 39.4499 143.474 43.4931 136.984 47.4464" fill="#FBC10C"/>
<path d="M168.107 70.1321C164.741 69.9526 161.527 69.5465 158.516 68.9845V61.5823C161.521 62.1464 164.741 62.5374 168.107 62.7276V70.1321" fill="#FADD2C"/>
<path d="M185.602 69.226V39.8496C195.988 40.6018 204.941 42.5143 208.644 46.6472V54.838C208.644 61.407 199.074 67.0122 185.602 69.226Z" fill="#EF9412"/>
<path d="M136.984 47.4571C136.984 55.9621 153.027 62.8579 172.816 62.8579C192.604 62.8579 208.644 55.9621 208.644 47.4571C208.644 38.9499 192.604 32.054 172.816 32.054C153.027 32.054 136.984 38.9499 136.984 47.4571Z" fill="#FAD206"/>
<path d="M152.393 59.5351C146.277 57.6332 141.705 54.9321 139.442 51.8891L168.307 32.6311C169.962 32.5307 171.621 32.4815 173.233 32.4815C179.157 32.4815 184.989 33.1183 190.174 34.3235L152.393 59.5351Z" fill="#F8F67A"/>
<path d="M168.179 62.2747C165.304 62.0995 162.499 61.7725 159.818 61.3045L197.097 36.4285C199.23 37.2577 201.12 38.1958 202.728 39.2194L168.179 62.2747" fill="#F8F67A"/>
<path d="M136.984 45.7561C136.984 54.2632 153.027 61.1591 172.816 61.1591C192.604 61.1591 208.644 54.2632 208.644 45.7561C208.644 37.249 192.604 30.3531 172.816 30.3531C153.027 30.3531 136.984 37.249 136.984 45.7561Z" fill="#CC731B"/>
<path d="M136.984 36.7618V44.1727C136.984 50.5065 145.845 55.9194 158.516 58.2999C161.527 58.8619 164.741 59.268 168.107 59.4475C169.658 59.5351 171.231 59.5821 172.826 59.5821C177.899 59.5821 182.751 59.1312 187.115 58.2999C199.786 55.9194 206.387 50.3719 206.387 44.0381L208.647 35.9754C203.485 30.2035 188.068 28.7653 172.826 28.7653C160.686 28.7653 143.474 32.8085 136.984 36.7618" fill="#FBC10C"/>
<path d="M168.107 59.4474C164.741 59.2679 161.527 58.8619 158.516 58.2999V50.8976C161.521 51.4618 164.741 51.8528 168.107 52.043V59.4474" fill="#FADD2C"/>
<path d="M185.602 58.5414V29.165C195.988 29.9172 204.941 31.8297 208.644 35.9626V44.1534C208.644 50.7224 199.074 56.3276 185.602 58.5414Z" fill="#EF9412"/>
<path d="M136.984 36.7724C136.984 45.2774 153.027 52.1733 172.816 52.1733C192.604 52.1733 208.644 45.2774 208.644 36.7724C208.644 28.2653 192.604 21.3694 172.816 21.3694C153.027 21.3694 136.984 28.2653 136.984 36.7724Z" fill="#FAD206"/>
<path d="M152.393 48.8505C146.277 46.9486 141.705 44.2475 139.442 41.2045L168.307 21.9443C169.962 21.846 171.621 21.7969 173.233 21.7969C179.157 21.7969 184.989 22.4337 190.174 23.6389L152.393 48.8505Z" fill="#F8F67A"/>
<path d="M168.179 51.5899C165.304 51.4146 162.499 51.0877 159.818 50.6197L197.097 25.7437C199.23 26.5728 201.12 27.511 202.728 28.5346L168.179 51.5899" fill="#F8F67A"/>
<path d="M136.984 35.0715C136.984 43.5786 153.027 50.4745 172.816 50.4745C192.604 50.4745 208.644 43.5786 208.644 35.0715C208.644 26.5643 192.604 19.6684 172.816 19.6684C153.027 19.6684 136.984 26.5643 136.984 35.0715Z" fill="#CC731B"/>
<path d="M136.984 26.0772V33.4881C136.984 39.8219 145.845 45.2348 158.516 47.6153C161.527 48.1773 164.741 48.5834 168.107 48.7629C169.658 48.8505 171.231 48.8975 172.826 48.8975C177.899 48.8975 182.751 48.4466 187.115 47.6153C199.786 45.2348 206.387 39.6873 206.387 33.3535L208.647 25.2908C203.485 19.5189 188.068 18.0807 172.826 18.0807C160.686 18.0807 143.474 22.1239 136.984 26.0772" fill="#FBC10C"/>
<path d="M168.107 48.7628C164.741 48.5833 161.527 48.1773 158.516 47.6153V40.213C161.521 40.7772 164.741 41.1682 168.107 41.3584V48.7628" fill="#FADD2C"/>
<path d="M185.602 47.8566V18.4801C195.988 19.2323 204.941 21.1449 208.644 25.2777V33.4686C208.644 40.0376 199.074 45.6428 185.602 47.8566Z" fill="#EF9412"/>
<path d="M136.984 26.0876C136.984 34.5926 153.027 41.4885 172.816 41.4885C192.604 41.4885 208.644 34.5926 208.644 26.0876C208.644 17.5805 192.604 10.6846 172.816 10.6846C153.027 10.6846 136.984 17.5805 136.984 26.0876Z" fill="#FAD206"/>
<path d="M152.393 38.1657C146.277 36.2638 141.705 33.5627 139.442 30.5197L168.307 11.2595C169.962 11.1612 171.621 11.1121 173.233 11.1121C179.157 11.1121 184.989 11.7489 190.174 12.9562L152.393 38.1657" fill="#F8F67A"/>
<path d="M168.179 40.9053C165.304 40.73 162.499 40.4031 159.818 39.9351L197.097 15.0591C199.23 15.8882 201.12 16.8264 202.728 17.85L168.179 40.9053" fill="#F8F67A"/>
<path d="M136.984 24.3867C136.984 32.8917 153.027 39.7876 172.816 39.7876C192.604 39.7876 208.644 32.8917 208.644 24.3867C208.644 15.8796 192.604 8.98367 172.816 8.98367C153.027 8.98367 136.984 15.8796 136.984 24.3867Z" fill="#CC731B"/>
<path d="M136.984 15.3924V22.8054C136.984 29.1372 145.845 34.5499 158.516 36.9305C161.527 37.4925 164.741 37.8964 168.107 38.078C169.658 38.1657 171.231 38.2126 172.826 38.2126C177.899 38.2126 182.751 37.7618 187.115 36.9305C199.786 34.5499 206.387 29.0025 206.387 22.6686L208.647 14.606C203.485 8.83412 188.068 7.39592 172.826 7.39592C160.686 7.39592 143.474 11.4391 136.984 15.3924" fill="#FBC10C"/>
<path d="M168.107 38.078C164.741 37.8964 161.527 37.4925 158.516 36.9305V23.3439H168.107V38.078Z" fill="#FADD2C"/>
<path d="M185.602 37.172V7.79554C195.988 8.54774 204.941 10.4603 208.644 14.5931V22.784C208.644 29.353 199.074 34.9582 185.602 37.172Z" fill="#EF9412"/>
<path d="M136.984 15.403C136.984 23.908 153.027 30.8039 172.816 30.8039C192.604 30.8039 208.644 23.908 208.644 15.403C208.644 6.89587 192.604 -3.14204e-05 172.816 -3.14204e-05C153.027 -3.14204e-05 136.984 6.89587 136.984 15.403Z" fill="#FAD206"/>
<path d="M152.393 27.4811C146.277 25.5792 141.705 22.8781 139.442 19.8373L168.307 0.577088C169.962 0.476652 171.621 0.427461 173.233 0.427461C179.157 0.427461 184.989 1.06424 190.174 2.27161L152.393 27.4811Z" fill="#F8F67A"/>
<path d="M168.179 30.2207C165.304 30.0454 162.499 29.7185 159.818 29.2505L197.097 4.37451C199.23 5.20364 201.12 6.14176 202.728 7.16536L168.179 30.2207" fill="#F8F67A"/>
<path d="M194.583 208.176C194.583 216.683 210.623 223.579 230.412 223.579C250.2 223.579 266.24 216.683 266.24 208.176C266.24 199.671 250.2 192.775 230.412 192.775C210.623 192.775 194.583 199.671 194.583 208.176Z" fill="#CC731B"/>
<path d="M194.58 199.182V206.595C194.58 212.929 203.441 218.341 216.112 220.722C219.125 221.284 222.337 221.688 225.703 221.867C227.254 221.957 228.827 222.002 230.422 222.002C235.495 222.002 240.345 221.553 244.711 220.722C257.382 218.341 263.983 212.794 263.983 206.46L266.243 198.397C261.081 192.623 245.662 191.187 230.422 191.187C218.282 191.187 201.07 195.23 194.58 199.182Z" fill="#FBC10C"/>
<path d="M243.198 220.963V191.587C253.584 192.339 262.537 194.25 266.24 198.385V206.575C266.24 213.144 256.67 218.75 243.198 220.963Z" fill="#EF9412"/>
<path d="M194.583 199.192C194.583 207.7 210.623 214.595 230.412 214.595C250.2 214.595 266.24 207.7 266.24 199.192C266.24 190.687 250.2 183.791 230.412 183.791C210.623 183.791 194.583 190.687 194.583 199.192Z" fill="#FAD206"/>
<path d="M209.989 211.27C203.873 209.371 199.301 206.669 197.04 203.627L225.903 184.366C227.558 184.268 229.217 184.219 230.829 184.219C236.749 184.219 242.583 184.853 247.77 186.061L209.989 211.27Z" fill="#F8F67A"/>
<path d="M225.773 214.01C222.9 213.835 220.093 213.51 217.412 213.042L254.693 188.166C256.828 188.995 258.718 189.933 260.324 190.957L225.773 214.01" fill="#F8F67A"/>
<path d="M194.583 197.491C194.583 205.999 210.623 212.894 230.412 212.894C250.2 212.894 266.24 205.999 266.24 197.491C266.24 188.986 250.2 182.09 230.412 182.09C210.623 182.09 194.583 188.986 194.583 197.491Z" fill="#CC731B"/>
<path d="M194.58 188.497V195.91C194.58 202.244 203.441 207.657 216.112 210.037C219.125 210.599 222.337 211.003 225.703 211.183C227.254 211.272 228.827 211.317 230.422 211.317C235.495 211.317 240.345 210.869 244.711 210.037C257.382 207.657 263.983 202.109 263.983 195.775L266.243 187.713C261.081 181.939 245.662 180.503 230.422 180.503C218.282 180.503 201.07 184.544 194.58 188.497Z" fill="#FBC10C"/>
<path d="M225.703 205.857C223.223 205.622 220.839 205.278 218.582 204.834V203.052C220.86 203.393 223.242 203.639 225.703 203.778V205.857" fill="#FADD2C"/>
<path d="M243.198 210.279V180.902C253.584 181.655 262.537 183.565 266.24 187.7V195.891C266.24 202.46 256.67 208.065 243.198 210.279Z" fill="#EF9412"/>
<path d="M194.583 188.508C194.583 197.015 210.623 203.911 230.412 203.911C250.2 203.911 266.24 197.015 266.24 188.508C266.24 180 250.2 173.107 230.412 173.107C210.623 173.107 194.583 180 194.583 188.508Z" fill="#FAD206"/>
<path d="M209.989 200.586C203.873 198.686 199.301 195.985 197.04 192.942L225.903 173.682C227.558 173.583 229.217 173.534 230.829 173.534C236.749 173.534 242.583 174.169 247.77 175.376L209.989 200.586Z" fill="#F8F67A"/>
<path d="M225.773 203.325C222.9 203.15 220.093 202.825 217.412 202.357L254.693 177.481C256.828 178.31 258.718 179.248 260.324 180.272L225.773 203.325" fill="#F8F67A"/>
<path d="M194.583 186.807C194.583 195.314 210.623 202.21 230.412 202.21C250.2 202.21 266.24 195.314 266.24 186.807C266.24 178.302 250.2 171.406 230.412 171.406C210.623 171.406 194.583 178.302 194.583 186.807Z" fill="#CC731B"/>
<path d="M194.58 177.812V185.225C194.58 191.559 203.441 196.972 216.112 199.353C219.125 199.915 222.337 200.318 225.703 200.498C227.254 200.588 228.827 200.633 230.422 200.633C235.495 200.633 240.345 200.184 244.711 199.353C257.382 196.972 263.983 191.424 263.983 185.091L266.243 177.026C261.081 171.254 245.662 169.818 230.422 169.818C218.282 169.818 201.07 173.859 194.58 177.812Z" fill="#FBC10C"/>
<path d="M225.703 200.498C223.242 200.368 220.86 200.115 218.582 199.769V192.367C220.86 192.709 223.242 192.955 225.703 193.093V200.498V200.498ZM216.112 194.626V191.95C216.748 192.07 217.395 192.181 218.049 192.284L216.112 194.626Z" fill="#FADD2C"/>
<path d="M243.198 199.594V170.218C253.584 170.97 262.537 172.88 266.24 177.015V185.206C266.24 191.775 256.67 197.38 243.198 199.594Z" fill="#EF9412"/>
<path d="M194.583 177.823C194.583 186.33 210.623 193.226 230.412 193.226C250.2 193.226 266.24 186.33 266.24 177.823C266.24 169.316 250.2 162.422 230.412 162.422C210.623 162.422 194.583 169.316 194.583 177.823Z" fill="#FAD206"/>
<path d="M209.989 189.901C203.873 188.001 199.301 185.3 197.04 182.257L225.903 162.997C227.558 162.899 229.217 162.849 230.829 162.849C236.749 162.849 242.583 163.484 247.77 164.691L209.989 189.901Z" fill="#F8F67A"/>
<path d="M225.773 192.641C222.9 192.465 220.093 192.141 217.412 191.673L254.693 166.796C256.828 167.626 258.718 168.564 260.324 169.587L225.773 192.641" fill="#F8F67A"/>
<path d="M194.583 176.122C194.583 184.629 210.623 191.525 230.412 191.525C250.2 191.525 266.24 184.629 266.24 176.122C266.24 167.617 250.2 160.721 230.412 160.721C210.623 160.721 194.583 167.617 194.583 176.122Z" fill="#CC731B"/>
<path d="M194.58 167.128V174.541C194.58 180.875 203.441 186.287 216.112 188.668C219.125 189.23 222.337 189.634 225.703 189.813C227.254 189.903 228.827 189.948 230.422 189.948C235.495 189.948 240.345 189.499 244.711 188.668C257.382 186.287 263.983 180.74 263.983 174.406L266.243 166.341C261.081 160.569 245.662 159.133 230.422 159.133C218.282 159.133 201.07 163.174 194.58 167.128Z" fill="#FBC10C"/>
<path d="M225.703 189.813C222.839 189.662 220.087 189.345 217.473 188.909L218.582 187.57H216.112V181.266C219.117 181.828 222.335 182.219 225.703 182.409V189.813Z" fill="#FADD2C"/>
<path d="M243.198 188.909V159.533C253.584 160.285 262.537 162.196 266.24 166.331V174.521C266.24 181.09 256.67 186.696 243.198 188.909Z" fill="#EF9412"/>
<path d="M194.583 167.138C194.583 175.646 210.623 182.541 230.412 182.541C250.2 182.541 266.24 175.646 266.24 167.138C266.24 158.633 250.2 151.737 230.412 151.737C210.623 151.737 194.583 158.633 194.583 167.138Z" fill="#FAD206"/>
<path d="M209.989 179.216C203.873 177.317 199.301 174.615 197.04 171.572L225.903 152.312C227.558 152.214 229.217 152.165 230.829 152.165C236.749 152.165 242.583 152.799 247.77 154.007L209.989 179.216Z" fill="#F8F67A"/>
<path d="M225.773 181.956C222.9 181.78 220.093 181.456 217.412 180.988L254.693 156.112C256.828 156.941 258.718 157.879 260.324 158.902L225.773 181.956" fill="#F8F67A"/>
<path d="M194.583 165.439C194.583 173.944 210.623 180.84 230.412 180.84C250.2 180.84 266.24 173.944 266.24 165.439C266.24 156.932 250.2 150.036 230.412 150.036C210.623 150.036 194.583 156.932 194.583 165.439Z" fill="#CC731B"/>
<path d="M194.58 156.443V163.856C194.58 170.19 203.441 175.603 216.112 177.983C219.125 178.545 222.337 178.949 225.703 179.129C227.254 179.218 228.827 179.263 230.422 179.263C235.495 179.263 240.345 178.815 244.711 177.983C257.382 175.603 263.983 170.055 263.983 163.721L266.243 155.657C261.081 149.885 245.662 148.449 230.422 148.449C218.282 148.449 201.07 152.492 194.58 156.443Z" fill="#FBC10C"/>
<path d="M225.703 179.129C222.338 178.949 219.126 178.545 216.112 177.983V170.581C219.117 171.143 222.335 171.534 225.703 171.724V179.129Z" fill="#FADD2C"/>
<path d="M243.198 178.225V148.848C253.584 149.601 262.537 151.511 266.24 155.646V163.837C266.24 170.406 256.67 176.011 243.198 178.225Z" fill="#EF9412"/>
<path d="M194.583 156.454C194.583 164.961 210.623 171.857 230.412 171.857C250.2 171.857 266.24 164.961 266.24 156.454C266.24 147.949 250.2 141.053 230.412 141.053C210.623 141.053 194.583 147.949 194.583 156.454Z" fill="#FAD206"/>
<path d="M209.989 168.531C203.873 166.632 199.301 163.931 197.04 160.888L225.903 141.628C227.558 141.529 229.217 141.478 230.829 141.478C236.749 141.478 242.583 142.115 247.77 143.322L209.989 168.531Z" fill="#F8F67A"/>
<path d="M225.773 171.271C222.9 171.096 220.093 170.771 217.412 170.303L254.693 145.427C256.828 146.256 258.718 147.194 260.324 148.218L225.773 171.271" fill="#F8F67A"/>
<path d="M194.583 154.755C194.583 163.26 210.623 170.156 230.412 170.156C250.2 170.156 266.24 163.26 266.24 154.755C266.24 146.248 250.2 139.352 230.412 139.352C210.623 139.352 194.583 146.248 194.583 154.755Z" fill="#CC731B"/>
<path d="M194.58 145.758V153.171C194.58 159.505 203.441 164.918 216.112 167.299C219.125 167.861 222.337 168.264 225.703 168.444C227.254 168.534 228.827 168.578 230.422 168.578C235.495 168.578 240.345 168.13 244.711 167.299C257.382 164.918 263.983 159.37 263.983 153.037L266.243 144.972C261.081 139.2 245.662 137.764 230.422 137.764C218.282 137.764 201.07 141.807 194.58 145.758Z" fill="#FBC10C"/>
<path d="M225.703 168.444C222.338 168.264 219.126 167.86 216.112 167.298V159.896C219.117 160.458 222.335 160.849 225.703 161.039V168.444Z" fill="#FADD2C"/>
<path d="M243.198 167.54V138.163C253.584 138.916 262.537 140.826 266.24 144.961V153.152C266.24 159.721 256.67 165.326 243.198 167.54Z" fill="#EF9412"/>
<path d="M194.583 145.769C194.583 154.276 210.623 161.172 230.412 161.172C250.2 161.172 266.24 154.276 266.24 145.769C266.24 137.264 250.2 130.368 230.412 130.368C210.623 130.368 194.583 137.264 194.583 145.769Z" fill="#FAD206"/>
<path d="M209.989 157.847C203.873 155.947 199.301 153.246 197.04 150.203L225.903 130.943C227.558 130.845 229.217 130.793 230.829 130.793C236.749 130.793 242.583 131.43 247.77 132.637L209.989 157.847Z" fill="#F8F67A"/>
<path d="M225.773 160.586C222.9 160.411 220.093 160.086 217.412 159.619L254.693 134.742C256.828 135.572 258.718 136.51 260.324 137.533L225.773 160.586" fill="#F8F67A"/>
<path d="M194.583 144.07C194.583 152.575 210.623 159.471 230.412 159.471C250.2 159.471 266.24 152.575 266.24 144.07C266.24 135.563 250.2 128.667 230.412 128.667C210.623 128.667 194.583 135.563 194.583 144.07Z" fill="#CC731B"/>
<path d="M194.58 135.074V142.487C194.58 148.821 203.441 154.233 216.112 156.614C219.125 157.176 222.337 157.58 225.703 157.759C227.254 157.849 228.827 157.894 230.422 157.894C235.495 157.894 240.345 157.445 244.711 156.614C257.382 154.233 263.983 148.686 263.983 142.352L266.243 134.287C261.081 128.515 245.662 127.079 230.422 127.079C218.282 127.079 201.07 131.122 194.58 135.074Z" fill="#FBC10C"/>
<path d="M225.703 157.759C222.338 157.58 219.126 157.176 216.112 156.614V149.212C219.117 149.774 222.335 150.165 225.703 150.355V157.759Z" fill="#FADD2C"/>
<path d="M243.198 156.855V127.479C253.584 128.231 262.537 130.142 266.24 134.277V142.467C266.24 149.036 256.67 154.642 243.198 156.855Z" fill="#EF9412"/>
<path d="M194.583 135.084C194.583 143.592 210.623 150.487 230.412 150.487C250.2 150.487 266.24 143.592 266.24 135.084C266.24 126.579 250.2 119.683 230.412 119.683C210.623 119.683 194.583 126.579 194.583 135.084Z" fill="#FAD206"/>
<path d="M209.989 147.162C203.873 145.263 199.301 142.561 197.04 139.518L225.903 120.258C227.558 120.16 229.217 120.111 230.829 120.111C236.749 120.111 242.583 120.745 247.77 121.953L209.989 147.162Z" fill="#F8F67A"/>
<path d="M225.773 149.902C222.9 149.726 220.093 149.402 217.412 148.934L254.693 124.058C256.828 124.887 258.718 125.825 260.324 126.848L225.773 149.902" fill="#F8F67A"/>
<path d="M194.583 133.385C194.583 141.89 210.623 148.786 230.412 148.786C250.2 148.786 266.24 141.89 266.24 133.385C266.24 124.878 250.2 117.982 230.412 117.982C210.623 117.982 194.583 124.878 194.583 133.385Z" fill="#CC731B"/>
<path d="M194.58 124.389V131.802C194.58 138.136 203.441 143.549 216.112 145.929C219.125 146.491 222.337 146.895 225.703 147.075C227.254 147.164 228.827 147.209 230.422 147.209C235.495 147.209 240.345 146.761 244.711 145.929C257.382 143.549 263.983 138.001 263.983 131.667L266.243 123.603C261.081 117.831 245.662 116.395 230.422 116.395C218.282 116.395 201.07 120.438 194.58 124.389Z" fill="#FBC10C"/>
<path d="M225.703 147.075C222.338 146.895 219.126 146.491 216.112 145.929V138.527C219.117 139.089 222.335 139.48 225.703 139.67V147.075Z" fill="#FADD2C"/>
<path d="M243.198 146.171V116.794C253.584 117.546 262.537 119.457 266.24 123.592V131.783C266.24 138.352 256.67 143.957 243.198 146.171Z" fill="#EF9412"/>
<path d="M194.583 124.4C194.583 132.907 210.623 139.803 230.412 139.803C250.2 139.803 266.24 132.907 266.24 124.4C266.24 115.895 250.2 108.999 230.412 108.999C210.623 108.999 194.583 115.895 194.583 124.4Z" fill="#FAD206"/>
<path d="M209.989 136.477C203.873 134.576 199.301 131.877 197.04 128.834L225.903 109.573C227.558 109.475 229.217 109.426 230.829 109.426C236.749 109.426 242.583 110.061 247.77 111.268L209.989 136.477Z" fill="#F8F67A"/>
<path d="M225.773 139.217C222.9 139.042 220.093 138.717 217.412 138.249L254.693 113.373C256.828 114.202 258.718 115.14 260.324 116.164L225.773 139.217" fill="#F8F67A"/>
<path d="M194.583 122.701C194.583 131.206 210.623 138.102 230.412 138.102C250.2 138.102 266.24 131.206 266.24 122.701C266.24 114.194 250.2 107.298 230.412 107.298C210.623 107.298 194.583 114.194 194.583 122.701Z" fill="#CC731B"/>
<path d="M194.58 113.704V121.117C194.58 127.451 203.441 132.864 216.112 135.244C219.125 135.806 222.337 136.21 225.703 136.39C227.254 136.48 228.827 136.524 230.422 136.524C235.495 136.524 240.345 136.076 244.711 135.244C257.382 132.864 263.983 127.316 263.983 120.983L266.243 112.92C261.081 107.146 245.662 105.708 230.422 105.708C218.282 105.708 201.07 109.753 194.58 113.704Z" fill="#FBC10C"/>
<path d="M225.703 136.39C222.338 136.21 219.126 135.806 216.112 135.244V127.842C219.117 128.404 222.335 128.795 225.703 128.985V136.39Z" fill="#FADD2C"/>
<path d="M243.198 135.486V106.109C253.584 106.862 262.537 108.772 266.24 112.907V121.098C266.24 127.667 256.67 133.272 243.198 135.486Z" fill="#EF9412"/>
<path d="M194.583 113.715C194.583 122.222 210.623 129.118 230.412 129.118C250.2 129.118 266.24 122.222 266.24 113.715C266.24 105.21 250.2 98.314 230.412 98.314C210.623 98.314 194.583 105.21 194.583 113.715Z" fill="#FAD206"/>
<path d="M209.989 125.793C203.873 123.893 199.301 121.192 197.04 118.149L225.903 98.8889C227.558 98.7906 229.217 98.7413 230.829 98.7413C236.749 98.7413 242.583 99.376 247.77 100.583L209.989 125.793Z" fill="#F8F67A"/>
<path d="M225.773 128.532C222.9 128.357 220.093 128.032 217.412 127.564L254.693 102.688C256.828 103.518 258.718 104.456 260.324 105.479L225.773 128.532" fill="#F8F67A"/>
<path d="M194.583 112.014C194.583 120.521 210.623 127.417 230.412 127.417C250.2 127.417 266.24 120.521 266.24 112.014C266.24 103.509 250.2 96.6129 230.412 96.6129C210.623 96.6129 194.583 103.509 194.583 112.014Z" fill="#CC731B"/>
<path d="M194.58 103.02V110.433C194.58 116.767 203.441 122.179 216.112 124.56C219.125 125.122 222.337 125.526 225.703 125.705C227.254 125.795 228.827 125.84 230.422 125.84C235.495 125.84 240.345 125.391 244.711 124.56C257.382 122.179 263.983 116.632 263.983 110.298L266.243 102.235C261.081 96.4613 245.662 95.0231 230.422 95.0231C218.282 95.0231 201.07 99.0683 194.58 103.02Z" fill="#FBC10C"/>
<path d="M225.703 125.705C222.338 125.526 219.126 125.122 216.112 124.56V117.157C219.117 117.72 222.335 118.111 225.703 118.301V125.705Z" fill="#FADD2C"/>
<path d="M243.198 124.801V95.4249C253.584 96.1771 262.537 98.0875 266.24 102.222V110.413C266.24 116.982 256.67 122.587 243.198 124.801Z" fill="#EF9412"/>
<path d="M194.583 103.03C194.583 111.538 210.623 118.433 230.412 118.433C250.2 118.433 266.24 111.538 266.24 103.03C266.24 94.5254 250.2 87.6294 230.412 87.6294C210.623 87.6294 194.583 94.5254 194.583 103.03Z" fill="#FAD206"/>
<path d="M209.989 115.108C203.873 113.209 199.301 110.507 197.04 107.464L225.903 88.2043C227.558 88.106 229.217 88.0567 230.829 88.0567C236.749 88.0567 242.583 88.6914 247.77 89.8988L209.989 115.108Z" fill="#F8F67A"/>
<path d="M225.773 117.848C222.9 117.672 220.093 117.348 217.412 116.88L254.693 92.0036C256.828 92.8327 258.718 93.7708 260.324 94.7944L225.773 117.848" fill="#F8F67A"/>
<path d="M194.583 101.329C194.583 109.836 210.623 116.732 230.412 116.732C250.2 116.732 266.24 109.836 266.24 101.329C266.24 92.8243 250.2 85.9283 230.412 85.9283C210.623 85.9283 194.583 92.8243 194.583 101.329Z" fill="#CC731B"/>
<path d="M194.58 92.3349V99.748C194.58 106.082 203.441 111.495 216.112 113.875C219.125 114.437 222.337 114.841 225.703 115.021C227.254 115.11 228.827 115.155 230.422 115.155C235.495 115.155 240.345 114.707 244.711 113.875C257.382 111.495 263.983 105.947 263.983 99.6133L266.243 91.5506C261.081 85.7766 245.662 84.3407 230.422 84.3407C218.282 84.3407 201.07 88.3815 194.58 92.3349Z" fill="#FBC10C"/>
<path d="M225.703 115.021C222.338 114.841 219.126 114.437 216.112 113.875V106.473C219.117 107.035 222.335 107.426 225.703 107.616V115.021Z" fill="#FADD2C"/>
<path d="M243.198 114.117V84.7403C253.584 85.4925 262.537 87.4029 266.24 91.5379V99.7288C266.24 106.298 256.67 111.903 243.198 114.117Z" fill="#EF9412"/>
<path d="M194.583 92.3456C194.583 100.853 210.623 107.749 230.412 107.749C250.2 107.749 266.24 100.853 266.24 92.3456C266.24 83.8384 250.2 76.9446 230.412 76.9446C210.623 76.9446 194.583 83.8384 194.583 92.3456Z" fill="#FAD206"/>
<path d="M209.989 104.423C203.873 102.524 199.301 99.8226 197.04 96.7796L225.903 77.5195C227.558 77.4212 229.217 77.3719 230.829 77.3719C236.749 77.3719 242.583 78.0066 247.77 79.214L209.989 104.423Z" fill="#F8F67A"/>
<path d="M225.773 107.163C222.9 106.988 220.093 106.663 217.412 106.195L254.693 81.3189C256.828 82.1481 258.718 83.0862 260.324 84.1098L225.773 107.163" fill="#F8F67A"/>
<path d="M194.583 90.6446C194.583 99.1518 210.623 106.048 230.412 106.048C250.2 106.048 266.24 99.1518 266.24 90.6446C266.24 82.1396 250.2 75.2437 230.412 75.2437C210.623 75.2437 194.583 82.1396 194.583 90.6446Z" fill="#CC731B"/>
<path d="M194.58 81.6501V89.0632C194.58 95.3971 203.441 100.81 216.112 103.19C219.125 103.752 222.337 104.156 225.703 104.336C227.254 104.426 228.827 104.47 230.422 104.47C235.495 104.47 240.345 104.022 244.711 103.19C257.382 100.81 263.983 95.2624 263.983 88.9285L266.243 80.8638C261.081 75.0919 245.662 73.6559 230.422 73.6559C218.282 73.6559 201.07 77.6968 194.58 81.6501Z" fill="#FBC10C"/>
<path d="M225.703 104.336C222.338 104.156 219.126 103.752 216.112 103.19V89.6016H225.703V104.336Z" fill="#FADD2C"/>
<path d="M243.198 103.432V74.0555C253.584 74.8077 262.537 76.7181 266.24 80.8531V89.0439C266.24 95.6129 256.67 101.218 243.198 103.432Z" fill="#EF9412"/>
<path d="M194.583 81.661C194.583 90.1681 210.623 97.064 230.412 97.064C250.2 97.064 266.24 90.1681 266.24 81.661C266.24 73.156 250.2 66.26 230.412 66.26C210.623 66.26 194.583 73.156 194.583 81.661Z" fill="#FAD206"/>
<path d="M209.989 93.7389C203.873 91.8391 199.301 89.138 197.04 86.095L225.903 66.8349C227.56 66.7366 229.217 66.6873 230.829 66.6873C236.749 66.6873 242.583 67.322 247.77 68.5294L209.989 93.7389Z" fill="#F8F67A"/>
<path d="M225.773 96.4784C222.9 96.3032 220.093 95.9784 217.414 95.5104L254.693 70.6343C256.828 71.4635 258.718 72.4016 260.324 73.4252L225.773 96.4784" fill="#F8F67A"/>
<path d="M238.933 224.188L239.548 223.442V224.141C239.344 224.158 239.137 224.173 238.933 224.188" fill="#B9A1D0"/>
<path d="M233.455 224.365C227.208 224.365 221.336 223.68 216.225 222.474L216.331 222.344C220.653 223.139 225.412 223.579 230.412 223.579C233.569 223.579 236.631 223.404 239.548 223.075V223.442L238.933 224.188C237.154 224.312 235.322 224.365 233.455 224.365" fill="#7E61A5"/>
<path d="M230.412 223.579C225.412 223.579 220.653 223.139 216.331 222.344L217.473 220.963C220.087 221.399 222.839 221.716 225.703 221.867C227.254 221.957 228.827 222.002 230.422 222.002C233.571 222.002 236.633 221.829 239.548 221.5V223.075C236.631 223.404 233.569 223.579 230.412 223.579" fill="#8F481C"/>
<path d="M230.422 222.002C228.827 222.002 227.254 221.957 225.703 221.867V214.463C227.244 214.55 228.816 214.595 230.411 214.595C233.569 214.595 236.631 214.418 239.548 214.089V221.5C236.633 221.829 233.571 222.002 230.422 222.002V222.002ZM199.835 214.311C199.207 213.582 198.703 212.828 198.336 212.052L201.464 208.27C202.195 208.702 202.977 209.114 203.805 209.509L199.835 214.311" fill="#B27D1D"/>
<path d="M225.703 221.867C222.839 221.716 220.086 221.399 217.473 220.963L218.582 219.624H217.328L218.582 218.108V213.736C220.86 214.078 223.241 214.324 225.703 214.463V221.867" fill="#B28D23"/>
<path d="M230.412 214.595C228.816 214.595 227.244 214.551 225.703 214.463C223.242 214.324 220.86 214.078 218.582 213.736V213.234C220.904 213.6 223.315 213.86 225.773 214.01L227.52 212.845C228.473 212.877 229.438 212.894 230.412 212.894C233.569 212.894 236.631 212.719 239.548 212.39V214.089C236.631 214.418 233.569 214.595 230.412 214.595ZM218.582 212.262V212.035C218.672 212.05 218.767 212.063 218.858 212.076L218.582 212.262V212.262ZM203.805 209.509C202.977 209.114 202.195 208.702 201.464 208.27L201.881 207.766C202.604 208.2 203.382 208.618 204.21 209.02L203.805 209.509Z" fill="#B1881D"/>
<path d="M204.21 209.02C203.382 208.618 202.604 208.2 201.881 207.766L202.423 207.11C203.18 207.516 203.98 207.905 204.826 208.274L204.21 209.02" fill="#B3A361"/>
<path d="M225.773 214.01C223.315 213.86 220.904 213.599 218.582 213.234V212.262L218.858 212.076C221.61 212.48 224.512 212.743 227.52 212.845L225.773 214.01" fill="#B3A361"/>
<path d="M230.412 212.894C229.438 212.894 228.473 212.877 227.52 212.845C224.512 212.743 221.61 212.48 218.858 212.076C218.767 212.063 218.672 212.05 218.582 212.035V210.454C220.86 210.8 223.242 211.052 225.703 211.183C227.254 211.272 228.827 211.317 230.422 211.317C233.571 211.317 236.633 211.144 239.548 210.815V212.39C236.631 212.719 233.569 212.894 230.412 212.894V212.894ZM204.825 208.274C203.98 207.905 203.179 207.516 202.423 207.11L203.34 206.001C204.115 206.385 204.935 206.753 205.795 207.101L204.825 208.274Z" fill="#8F481C"/>
<path d="M230.422 211.317C228.827 211.317 227.254 211.272 225.703 211.183V205.857C228.199 206.095 230.793 206.219 233.455 206.219C235.539 206.219 237.575 206.15 239.548 205.994V210.815C236.633 211.144 233.571 211.317 230.422 211.317V211.317ZM205.795 207.101C204.935 206.753 204.115 206.385 203.34 206.001L207.228 201.299C208.021 201.667 208.855 202.017 209.726 202.351L205.795 207.101" fill="#B27D1D"/>
<path d="M225.703 211.183C223.242 211.052 220.86 210.8 218.582 210.454V204.834C220.839 205.278 223.223 205.622 225.703 205.857V211.183Z" fill="#B28D23"/>
<path d="M155.97 187.569H152.665L153.569 186.965C154.349 187.181 155.152 187.381 155.97 187.569Z" fill="#CCA417"/>
<path d="M152.665 187.569H152.157V186.557C152.619 186.698 153.091 186.834 153.569 186.965L152.665 187.569Z" fill="#CDC565"/>
<path d="M160.623 187.569H155.97C155.152 187.381 154.349 187.181 153.569 186.965C153.091 186.834 152.619 186.698 152.157 186.557V184.975C154.138 185.576 156.267 186.095 158.516 186.518C159.211 186.646 159.919 186.768 160.636 186.881L160.623 187.569" fill="#A5581E"/>
<path d="M158.516 186.518C156.267 186.095 154.138 185.576 152.157 184.975V184.529V183.74L152.159 183.734C152.157 183.734 152.157 183.731 152.157 183.731V183.721C152.14 183.702 152.121 183.684 152.104 183.665C152.138 183.387 152.157 183.11 152.157 182.83C152.157 182.56 152.14 182.293 152.108 182.028C152.14 181.763 152.157 181.496 152.157 181.227V177.573C154.138 178.176 156.267 178.693 158.516 179.114V186.518" fill="#CC9518"/>
<path d="M160.636 186.882C159.919 186.768 159.211 186.646 158.516 186.518V179.114C159.257 179.253 160.01 179.381 160.775 179.498L160.636 186.882" fill="#CCAA26"/>
<path d="M160.775 179.498C160.01 179.381 159.257 179.253 158.516 179.114C156.267 178.693 154.138 178.176 152.157 177.573V176.992C152.235 177.015 152.315 177.041 152.393 177.066L153.569 176.28C155.824 176.9 158.248 177.413 160.809 177.804L160.8 178.18L159.818 178.836C160.138 178.891 160.461 178.947 160.785 178.998L160.775 179.498Z" fill="#CCA417"/>
<path d="M152.393 177.067C152.315 177.041 152.235 177.015 152.157 176.992V175.872C152.619 176.013 153.091 176.15 153.569 176.28L152.393 177.067Z" fill="#CDC565"/>
<path d="M160.785 178.998C160.461 178.947 160.138 178.891 159.818 178.836L160.8 178.18L160.785 178.998Z" fill="#CDC565"/>
<path d="M160.809 177.804C158.248 177.413 155.824 176.9 153.569 176.28C153.091 176.15 152.619 176.013 152.157 175.872V174.291C154.138 174.891 156.267 175.41 158.516 175.831C159.276 175.975 160.052 176.107 160.838 176.227L160.809 177.804" fill="#A5581E"/>
<path d="M158.516 175.831C156.267 175.41 154.138 174.891 152.157 174.291V173.844V173.055L152.159 173.049C152.157 173.049 152.157 173.047 152.157 173.047V173.036C152.14 173.017 152.121 173 152.104 172.981C152.14 172.703 152.157 172.425 152.157 172.145C152.157 170.606 151.632 169.124 150.656 167.722L150.722 167.489C150.92 167.198 151.099 166.903 151.257 166.606C153.487 167.331 155.923 167.944 158.516 168.429V175.831Z" fill="#CC9518"/>
<path d="M160.838 176.227C160.052 176.107 159.276 175.974 158.516 175.831V168.429C159.321 168.581 160.143 168.719 160.977 168.843L160.838 176.227" fill="#CCAA26"/>
<path d="M160.977 168.844C160.143 168.72 159.321 168.581 158.516 168.429C155.923 167.944 153.487 167.331 151.257 166.606C151.346 166.437 151.43 166.266 151.506 166.095C151.799 166.194 152.094 166.288 152.393 166.382L153.569 165.595C155.881 166.23 158.376 166.754 161.009 167.149L161.007 167.358L159.818 168.151C160.206 168.22 160.596 168.284 160.988 168.346L160.977 168.844Z" fill="#CCA417"/>
<path d="M152.393 166.382C152.094 166.288 151.799 166.194 151.506 166.095C151.653 165.769 151.775 165.437 151.875 165.102C152.427 165.273 152.994 165.437 153.569 165.595L152.393 166.382" fill="#CDC565"/>
<path d="M160.988 168.346C160.596 168.284 160.206 168.22 159.818 168.151L161.007 167.358L160.988 168.346Z" fill="#CDC565"/>
<path d="M161.009 167.149C158.377 166.754 155.881 166.23 153.569 165.595C152.994 165.437 152.427 165.273 151.875 165.102C152.02 164.608 152.109 164.108 152.142 163.6C154.128 164.204 156.263 164.723 158.516 165.147C159.342 165.303 160.185 165.444 161.04 165.574L161.009 167.149" fill="#A5581E"/>
<path d="M158.516 165.147C156.263 164.723 154.128 164.204 152.142 163.599C152.153 163.454 152.157 163.309 152.157 163.161C152.157 162.935 152.144 162.713 152.123 162.49L152.159 162.364C152.14 162.345 152.121 162.324 152.104 162.304C152.138 162.024 152.157 161.742 152.157 161.46C152.157 159.922 151.632 158.439 150.656 157.037L150.722 156.804C150.92 156.513 151.099 156.218 151.257 155.921C153.487 156.646 155.923 157.259 158.516 157.744V165.147Z" fill="#CC9518"/>
<path d="M161.04 165.574C160.185 165.444 159.342 165.303 158.516 165.147V157.744C159.386 157.909 160.273 158.056 161.18 158.191L161.04 165.574" fill="#CCAA26"/>
<path d="M161.18 158.191C160.273 158.056 159.386 157.909 158.516 157.744C155.923 157.259 153.487 156.646 151.257 155.922C151.346 155.753 151.43 155.582 151.506 155.411C151.799 155.509 152.094 155.603 152.393 155.697L153.569 154.911C155.942 155.563 158.503 156.097 161.211 156.494V156.537L159.818 157.467C160.271 157.546 160.728 157.62 161.19 157.693L161.18 158.191" fill="#CCA417"/>
<path d="M152.393 155.697C152.094 155.603 151.799 155.509 151.506 155.411C151.653 155.084 151.775 154.753 151.875 154.417C152.427 154.588 152.994 154.755 153.569 154.911L152.393 155.697" fill="#CDC565"/>
<path d="M161.19 157.693C160.728 157.62 160.271 157.545 159.818 157.466L161.211 156.537L161.19 157.693" fill="#CDC565"/>
<path d="M161.211 156.494C158.503 156.097 155.942 155.562 153.569 154.911C152.994 154.755 152.427 154.588 151.875 154.417C152.02 153.923 152.109 153.423 152.142 152.915C154.128 153.52 156.263 154.039 158.516 154.462C159.407 154.629 160.316 154.783 161.241 154.919L161.211 156.494Z" fill="#A5581E"/>
<path d="M158.516 154.462C156.263 154.039 154.128 153.52 152.142 152.915C152.151 152.77 152.157 152.622 152.157 152.477C152.157 152.25 152.144 152.028 152.123 151.806L152.159 151.68C152.14 151.66 152.121 151.639 152.104 151.62C152.138 151.34 152.157 151.058 152.157 150.776C152.157 149.239 151.632 147.754 150.656 146.352L150.722 146.119C150.92 145.829 151.099 145.534 151.257 145.237C153.487 145.961 155.923 146.575 158.516 147.06V154.462Z" fill="#CC9518"/>
<path d="M161.241 154.919C160.315 154.783 159.407 154.629 158.516 154.462V147.06C159.451 147.235 160.406 147.393 161.382 147.534L161.241 154.919Z" fill="#CCAA26"/>
<path d="M161.382 147.534C160.406 147.393 159.451 147.235 158.516 147.06C155.923 146.575 153.487 145.961 151.257 145.237C151.346 145.068 151.43 144.897 151.506 144.726C151.799 144.824 152.094 144.918 152.393 145.012L153.569 144.226C155.957 144.882 158.534 145.418 161.264 145.818L159.818 146.782C160.337 146.874 160.861 146.959 161.39 147.038L161.382 147.534" fill="#CCA417"/>
<path d="M152.393 145.013C152.094 144.919 151.799 144.825 151.506 144.726C151.653 144.399 151.778 144.068 151.875 143.732C152.429 143.903 152.994 144.068 153.569 144.226L152.393 145.013" fill="#CDC565"/>
<path d="M161.39 147.038C160.861 146.959 160.337 146.874 159.818 146.782L161.264 145.818C161.314 145.824 161.363 145.831 161.413 145.839L161.39 147.038Z" fill="#CDC565"/>
<path d="M161.414 145.839C161.363 145.831 161.314 145.824 161.264 145.818C158.535 145.418 155.957 144.882 153.569 144.226C152.994 144.068 152.429 143.903 151.875 143.732C152.02 143.239 152.109 142.739 152.142 142.232C154.128 142.835 156.263 143.354 158.516 143.777C159.472 143.957 160.448 144.119 161.443 144.264L161.414 145.839" fill="#A5581E"/>
<path d="M158.516 143.777C156.263 143.354 154.128 142.835 152.142 142.232C152.151 142.085 152.157 141.937 152.157 141.792C152.157 141.566 152.144 141.343 152.123 141.121L152.159 140.995C152.14 140.974 152.121 140.954 152.104 140.935C152.138 140.655 152.157 140.373 152.157 140.091C152.157 138.555 151.632 137.07 150.656 135.668L150.722 135.435C150.92 135.144 151.099 134.849 151.257 134.552C153.487 135.277 155.923 135.89 158.516 136.375V143.777Z" fill="#CC9518"/>
<path d="M161.443 144.264C160.448 144.119 159.472 143.957 158.516 143.777V136.375C159.517 136.563 160.539 136.732 161.584 136.879L161.443 144.264Z" fill="#CCAA26"/>
<path d="M161.584 136.879C160.539 136.732 159.517 136.563 158.516 136.375C155.923 135.89 153.487 135.277 151.257 134.552C151.346 134.383 151.43 134.212 151.506 134.042C151.799 134.14 152.094 134.234 152.393 134.328L153.569 133.541C155.957 134.197 158.534 134.734 161.264 135.133L159.818 136.097C160.404 136.2 160.996 136.296 161.593 136.384L161.584 136.879" fill="#CCA417"/>
<path d="M152.393 134.328C152.094 134.234 151.799 134.14 151.506 134.041C151.653 133.714 151.778 133.383 151.875 133.048C152.429 133.219 152.994 133.383 153.569 133.541L152.393 134.328" fill="#CDC565"/>
<path d="M161.593 136.384C160.996 136.296 160.404 136.2 159.818 136.097L161.264 135.133C161.38 135.151 161.498 135.165 161.616 135.183L161.593 136.384" fill="#CDC565"/>
<path d="M161.616 135.183C161.498 135.165 161.38 135.15 161.264 135.133C158.535 134.734 155.957 134.197 153.569 133.541C152.994 133.383 152.429 133.219 151.875 133.048C152.02 132.554 152.109 132.054 152.142 131.548C154.128 132.15 156.263 132.669 158.516 133.093C159.538 133.285 160.581 133.456 161.645 133.608L161.616 135.183" fill="#A5581E"/>
<path d="M158.516 133.092C156.263 132.669 154.128 132.15 152.142 131.547C152.151 131.4 152.157 131.253 152.157 131.107C152.157 130.881 152.144 130.659 152.123 130.436L152.159 130.31C152.14 130.289 152.121 130.27 152.104 130.25C152.138 129.97 152.157 129.688 152.157 129.406C152.157 127.87 151.632 126.385 150.656 124.983L150.722 124.75C150.92 124.459 151.099 124.167 151.257 123.867C153.487 124.592 155.923 125.205 158.516 125.69V133.092Z" fill="#CC9518"/>
<path d="M161.645 133.608C160.581 133.456 159.538 133.285 158.516 133.093V125.69C159.58 125.891 160.67 126.068 161.784 126.222L161.645 133.608Z" fill="#CCAA26"/>
<path d="M161.784 126.222C160.67 126.068 159.58 125.891 158.516 125.69C155.923 125.205 153.487 124.592 151.257 123.867C151.346 123.699 151.43 123.528 151.506 123.357C151.799 123.455 152.094 123.549 152.393 123.643L153.569 122.857C155.957 123.513 158.534 124.049 161.264 124.449L159.818 125.412C160.469 125.526 161.129 125.633 161.795 125.729L161.784 126.222" fill="#CCA417"/>
<path d="M152.393 123.643C152.094 123.549 151.799 123.455 151.506 123.357C151.653 123.03 151.778 122.699 151.875 122.363C152.429 122.534 152.994 122.699 153.569 122.857L152.393 123.643" fill="#CDC565"/>
<path d="M161.795 125.729C161.129 125.633 160.469 125.526 159.818 125.412L161.264 124.449C161.447 124.474 161.633 124.502 161.818 124.526L161.795 125.729Z" fill="#CDC565"/>
<path d="M161.818 124.526C161.633 124.502 161.447 124.474 161.264 124.449C158.535 124.049 155.957 123.513 153.569 122.857C152.994 122.699 152.429 122.534 151.875 122.363C152.02 121.869 152.109 121.369 152.142 120.863C154.128 121.466 156.263 121.985 158.516 122.41C159.601 122.611 160.712 122.793 161.848 122.951L161.818 124.526" fill="#A5581E"/>
<path d="M158.516 122.41C156.263 121.985 154.128 121.465 152.142 120.863C152.151 120.715 152.157 120.568 152.157 120.423C152.157 120.196 152.144 119.974 152.123 119.752L152.159 119.626C152.14 119.604 152.121 119.585 152.104 119.566C152.138 119.286 152.157 119.004 152.157 118.722C152.157 117.185 151.632 115.7 150.656 114.298L150.673 114.243C152.387 114.681 154.144 115.072 155.942 115.412C156.806 115.576 157.666 115.726 158.516 115.86V122.41Z" fill="#CC9518"/>
<path d="M161.848 122.951C160.712 122.793 159.601 122.611 158.516 122.41V115.86C159.685 116.046 160.838 116.202 161.972 116.324L161.848 122.951" fill="#CCAA26"/>
<path d="M80.4969 193.514C80.4969 202.019 96.5378 208.918 116.328 208.918C136.116 208.918 152.157 202.019 152.157 193.514C152.157 185.007 136.116 178.112 116.328 178.112C96.5378 178.112 80.4969 185.007 80.4969 193.514Z" fill="#CC731B"/>
<path d="M80.4948 184.52V191.931C80.4948 198.265 89.3572 203.678 102.028 206.06C105.04 206.62 108.252 207.026 111.62 207.206C113.171 207.296 114.743 207.34 116.338 207.34C121.411 207.34 126.263 206.89 130.626 206.06C143.297 203.678 149.898 198.13 149.898 191.796L152.159 183.734C146.998 177.962 131.578 176.524 116.338 176.524C104.199 176.524 86.9862 180.567 80.4948 184.52" fill="#FBC10C"/>
<path d="M129.115 206.3V176.925C139.501 177.675 148.454 179.588 152.157 183.721V191.912C152.157 198.481 142.586 204.086 129.115 206.3Z" fill="#EF9412"/>
<path d="M80.4969 184.529C80.4969 193.036 96.5378 199.932 116.328 199.932C136.116 199.932 152.157 193.036 152.157 184.529C152.157 176.024 136.116 169.128 116.328 169.128C96.5378 169.128 80.4969 176.024 80.4969 184.529Z" fill="#FAD206"/>
<path d="M95.9055 196.609C89.7872 194.707 85.2179 192.006 82.9543 188.965L111.82 169.705C113.474 169.606 115.131 169.555 116.745 169.555C122.665 169.555 128.499 170.192 133.686 171.399L95.9055 196.609Z" fill="#F8F67A"/>
<path d="M111.689 199.348C108.817 199.173 106.009 198.846 103.328 198.378L140.609 173.502C142.742 174.331 144.633 175.269 146.239 176.293L111.689 199.348" fill="#F8F67A"/>
<path d="M80.4969 182.83C80.4969 191.335 96.5378 198.233 116.328 198.233C136.116 198.233 152.157 191.335 152.157 182.83C152.157 174.323 136.116 167.427 116.328 167.427C96.5378 167.427 80.4969 174.323 80.4969 182.83Z" fill="#CC731B"/>
<path d="M80.4948 173.836V181.246C80.4948 187.58 89.3572 192.995 102.028 195.376C105.04 195.936 108.252 196.342 111.62 196.521C113.171 196.611 114.743 196.656 116.338 196.656C121.411 196.656 126.263 196.205 130.626 195.376C143.297 192.995 149.898 187.446 149.898 181.112L152.159 173.049C146.998 167.277 131.578 165.839 116.338 165.839C104.199 165.839 86.9862 169.882 80.4948 173.836" fill="#FBC10C"/>
<path d="M129.115 195.615V166.241C139.501 166.991 148.454 168.903 152.157 173.036V181.227C152.157 187.796 142.586 193.401 129.115 195.615Z" fill="#EF9412"/>
<path d="M80.4969 173.844C80.4969 182.351 96.5378 189.247 116.328 189.247C136.116 189.247 152.157 182.351 152.157 173.844C152.157 165.339 136.116 158.443 116.328 158.443C96.5378 158.443 80.4969 165.339 80.4969 173.844Z" fill="#FAD206"/>
<path d="M95.9055 185.924C89.7872 184.022 85.2179 181.321 82.9543 178.28L111.82 159.02C113.474 158.922 115.131 158.871 116.745 158.871C122.665 158.871 128.499 159.507 133.686 160.715L95.9055 185.924Z" fill="#F8F67A"/>
<path d="M111.689 188.664C108.817 188.488 106.009 188.162 103.328 187.694L140.609 162.817C142.742 163.647 144.633 164.585 146.239 165.608L111.689 188.664" fill="#F8F67A"/>
<path d="M80.4969 172.145C80.4969 180.65 96.5378 187.548 116.328 187.548C136.116 187.548 152.157 180.65 152.157 172.145C152.157 163.638 136.116 156.742 116.328 156.742C96.5378 156.742 80.4969 163.638 80.4969 172.145Z" fill="#CC731B"/>
<path d="M80.4948 163.151V170.562C80.4948 176.896 89.3572 182.311 102.028 184.691C105.04 185.251 108.252 185.657 111.62 185.836C113.171 185.926 114.743 185.971 116.338 185.971C121.411 185.971 126.263 185.522 130.626 184.691C143.297 182.311 149.898 176.761 149.898 170.427L152.159 162.364C146.998 156.592 131.578 155.154 116.338 155.154C104.199 155.154 86.9862 159.197 80.4948 163.151" fill="#FBC10C"/>
<path d="M111.62 185.836C108.252 185.657 105.04 185.251 102.028 184.691V177.287C105.033 177.851 108.252 178.242 111.62 178.43V185.836" fill="#FADD2C"/>
<path d="M129.115 184.93V155.556C139.501 156.306 148.454 158.219 152.157 162.351V170.542C152.157 177.111 142.586 182.716 129.115 184.93Z" fill="#EF9412"/>
<path d="M80.4969 163.161C80.4969 171.666 96.5378 178.562 116.328 178.562C136.116 178.562 152.157 171.666 152.157 163.161C152.157 154.654 136.116 147.758 116.328 147.758C96.5378 147.758 80.4969 154.654 80.4969 163.161Z" fill="#FAD206"/>
<path d="M95.9055 175.239C89.7872 173.337 85.2179 170.636 82.9543 167.596L111.82 148.335C113.474 148.235 115.131 148.186 116.745 148.186C122.665 148.186 128.499 148.823 133.686 150.03L95.9055 175.239Z" fill="#F8F67A"/>
<path d="M111.689 177.979C108.817 177.804 106.009 177.477 103.328 177.009L140.609 152.133C142.742 152.962 144.633 153.9 146.239 154.924L111.689 177.979" fill="#F8F67A"/>
<path d="M80.4969 161.46C80.4969 169.968 96.5378 176.864 116.328 176.864C136.116 176.864 152.157 169.968 152.157 161.46C152.157 152.953 136.116 146.058 116.328 146.058C96.5378 146.058 80.4969 152.953 80.4969 161.46Z" fill="#CC731B"/>
<path d="M80.4948 152.466V159.877C80.4948 166.211 89.3572 171.626 102.028 174.006C105.04 174.566 108.252 174.972 111.62 175.152C113.171 175.242 114.743 175.286 116.338 175.286C121.411 175.286 126.263 174.838 130.626 174.006C143.297 171.626 149.898 166.076 149.898 159.742L152.159 151.68C146.998 145.908 131.578 144.47 116.338 144.47C104.199 144.47 86.9862 148.513 80.4948 152.466" fill="#FBC10C"/>
<path d="M111.62 175.152C108.252 174.972 105.04 174.566 102.028 174.006V166.602C105.033 167.166 108.252 167.557 111.62 167.745V175.152" fill="#FADD2C"/>
<path d="M129.115 174.246V144.871C139.501 145.621 148.454 147.534 152.157 151.667V159.858C152.157 166.427 142.586 172.032 129.115 174.246Z" fill="#EF9412"/>
<path d="M80.4969 152.477C80.4969 160.982 96.5378 167.878 116.328 167.878C136.116 167.878 152.157 160.982 152.157 152.477C152.157 143.97 136.116 137.074 116.328 137.074C96.5378 137.074 80.4969 143.97 80.4969 152.477Z" fill="#FAD206"/>
<path d="M95.9055 164.555C89.7872 162.653 85.2179 159.952 82.9543 156.911L111.82 137.651C113.474 137.55 115.131 137.501 116.745 137.501C122.665 137.501 128.499 138.138 133.686 139.345L95.9055 164.555Z" fill="#F8F67A"/>
<path d="M111.689 167.294C108.817 167.119 106.009 166.792 103.328 166.324L140.609 141.448C142.742 142.277 144.633 143.215 146.239 144.239L111.689 167.294" fill="#F8F67A"/>
<path d="M80.4969 150.776C80.4969 159.283 96.5378 166.177 116.328 166.177C136.116 166.177 152.157 159.283 152.157 150.776C152.157 142.269 136.116 135.373 116.328 135.373C96.5378 135.373 80.4969 142.269 80.4969 150.776Z" fill="#CC731B"/>
<path d="M80.4948 141.782V149.192C80.4948 155.526 89.3572 160.941 102.028 163.322C105.04 163.882 108.252 164.288 111.62 164.467C113.171 164.557 114.743 164.602 116.338 164.602C121.411 164.602 126.263 164.151 130.626 163.322C143.297 160.941 149.898 155.392 149.898 149.058L152.159 140.995C146.998 135.223 131.578 133.785 116.338 133.785C104.199 133.785 86.9862 137.828 80.4948 141.782" fill="#FBC10C"/>
<path d="M111.62 164.467C108.252 164.288 105.04 163.882 102.028 163.322V155.917C105.033 156.481 108.252 156.873 111.62 157.061V164.467" fill="#FADD2C"/>
<path d="M129.115 163.561V134.187C139.501 134.937 148.454 136.849 152.157 140.982V149.173C152.157 155.742 142.586 161.347 129.115 163.561Z" fill="#EF9412"/>
<path d="M80.4969 141.792C80.4969 150.297 96.5378 157.193 116.328 157.193C136.116 157.193 152.157 150.297 152.157 141.792C152.157 133.285 136.116 126.389 116.328 126.389C96.5378 126.389 80.4969 133.285 80.4969 141.792Z" fill="#FAD206"/>
<path d="M95.9055 153.87C89.7872 151.968 85.2179 149.267 82.9543 146.226L111.82 126.966C113.474 126.866 115.131 126.817 116.745 126.817C122.665 126.817 128.499 127.453 133.686 128.659L95.9055 153.87" fill="#F8F67A"/>
<path d="M111.689 156.61C108.817 156.434 106.009 156.107 103.328 155.64L140.609 130.763C142.742 131.593 144.633 132.531 146.239 133.554L111.689 156.61" fill="#F8F67A"/>
<path d="M80.4969 140.091C80.4969 148.598 96.5378 155.492 116.328 155.492C136.116 155.492 152.157 148.598 152.157 140.091C152.157 131.584 136.116 124.688 116.328 124.688C96.5378 124.688 80.4969 131.584 80.4969 140.091Z" fill="#CC731B"/>
<path d="M80.4948 131.097V138.508C80.4948 144.842 89.3572 150.257 102.028 152.637C105.04 153.197 108.252 153.603 111.62 153.782C113.171 153.872 114.743 153.917 116.338 153.917C121.411 153.917 126.263 153.466 130.626 152.637C143.297 150.257 149.898 144.707 149.898 138.373L152.159 130.31C146.998 124.538 131.578 123.1 116.338 123.1C104.199 123.1 86.9862 127.143 80.4948 131.097" fill="#FBC10C"/>
<path d="M111.62 153.782C108.252 153.603 105.04 153.197 102.028 152.637V145.233C105.033 145.797 108.252 146.188 111.62 146.378V153.782Z" fill="#FADD2C"/>
<path d="M129.115 152.876V123.502C139.501 124.252 148.454 126.165 152.157 130.297V138.488C152.157 145.057 142.586 150.662 129.115 152.876Z" fill="#EF9412"/>
<path d="M80.4969 131.107C80.4969 139.612 96.5378 146.508 116.328 146.508C136.116 146.508 152.157 139.612 152.157 131.107C152.157 122.6 136.116 115.704 116.328 115.704C96.5378 115.704 80.4969 122.6 80.4969 131.107Z" fill="#FAD206"/>
<path d="M95.9055 143.185C89.7872 141.283 85.2179 138.582 82.9543 135.539L111.82 116.281C113.474 116.181 115.131 116.132 116.745 116.132C122.665 116.132 128.499 116.768 133.686 117.974L95.9055 143.185Z" fill="#F8F67A"/>
<path d="M111.689 145.925C108.817 145.75 106.009 145.423 103.328 144.955L140.609 120.079C142.742 120.908 144.633 121.846 146.239 122.87L111.689 145.925" fill="#F8F67A"/>
<path d="M80.4969 129.406C80.4969 137.914 96.5378 144.81 116.328 144.81C136.116 144.81 152.157 137.914 152.157 129.406C152.157 120.899 136.116 114.004 116.328 114.004C96.5378 114.004 80.4969 120.899 80.4969 129.406Z" fill="#CC731B"/>
<path d="M80.4948 120.412V127.823C80.4948 134.157 89.3572 139.57 102.028 141.952C105.04 142.512 108.252 142.918 111.62 143.098C113.171 143.188 114.743 143.232 116.338 143.232C121.411 143.232 126.263 142.782 130.626 141.952C143.297 139.57 149.898 134.022 149.898 127.688L152.159 119.626C146.998 113.854 131.578 112.416 116.338 112.416C104.199 112.416 86.9862 116.459 80.4948 120.412" fill="#FBC10C"/>
<path d="M111.62 143.098C108.252 142.918 105.04 142.512 102.028 141.952V134.548C105.033 135.112 108.252 135.503 111.62 135.693V143.098Z" fill="#FADD2C"/>
<path d="M129.115 142.192V112.817C139.501 113.567 148.454 115.48 152.157 119.613V127.804C152.157 134.373 142.586 139.978 129.115 142.192Z" fill="#EF9412"/>
<path d="M80.4969 120.423C80.4969 128.928 96.5378 135.824 116.328 135.824C136.116 135.824 152.157 128.928 152.157 120.423C152.157 111.916 136.116 105.02 116.328 105.02C96.5378 105.02 80.4969 111.916 80.4969 120.423Z" fill="#FAD206"/>
<path d="M95.9055 132.501C89.7872 130.599 85.2179 127.898 82.9543 124.855L111.82 105.597C113.474 105.496 115.131 105.447 116.745 105.447C122.665 105.447 128.499 106.084 133.686 107.291L95.9055 132.501" fill="#F8F67A"/>
<path d="M111.689 135.24C108.817 135.065 106.009 134.738 103.328 134.27L140.609 109.394C142.742 110.223 144.633 111.161 146.239 112.185L111.689 135.24" fill="#F8F67A"/>
<path d="M80.4969 118.722C80.4969 127.229 96.5378 134.125 116.328 134.125C136.116 134.125 152.157 127.229 152.157 118.722C152.157 110.215 136.116 103.319 116.328 103.319C96.5378 103.319 80.4969 110.215 80.4969 118.722Z" fill="#CC731B"/>
<path d="M80.4948 109.727V117.138C80.4948 123.472 89.3572 128.885 102.028 131.268C105.04 131.828 108.252 132.234 111.62 132.413C113.171 132.503 114.743 132.548 116.338 132.548C121.411 132.548 126.263 132.097 130.626 131.268C143.297 128.885 149.898 123.338 149.898 117.004L152.159 108.941C146.998 103.169 131.578 101.731 116.338 101.731C104.199 101.731 86.9862 105.774 80.4948 109.727" fill="#FBC10C"/>
<path d="M111.62 132.413C108.252 132.234 105.04 131.828 102.028 131.268V117.679H111.62V132.413Z" fill="#FADD2C"/>
<path d="M129.115 131.507V102.133C139.501 102.883 148.454 104.795 152.157 108.928V117.119C152.157 123.688 142.586 129.293 129.115 131.507Z" fill="#EF9412"/>
<path d="M80.4969 109.738C80.4969 118.243 96.5399 125.139 116.328 125.139C136.116 125.139 152.157 118.243 152.157 109.738C152.157 101.231 136.116 94.335 116.328 94.335C96.5399 94.335 80.4969 101.231 80.4969 109.738Z" fill="#FAD206"/>
<path d="M95.9055 121.816C89.7872 119.914 85.2179 117.213 82.9543 114.172L111.82 94.912C113.474 94.8116 115.131 94.7625 116.745 94.7625C122.665 94.7625 128.499 95.3993 133.686 96.6067L95.9055 121.816Z" fill="#F8F67A"/>
<path d="M111.691 124.556C108.817 124.38 106.009 124.053 103.328 123.585L140.609 98.7094C142.742 99.5385 144.633 100.477 146.241 101.5L111.691 124.556" fill="#F8F67A"/>
<path d="M177.532 273.337L218.582 223.694V250.162L177.589 299.767L177.558 300H4V273.337H177.532" fill="#40742E"/>
<path d="M218.582 246.092V219.624L177.53 269.267L177.555 295.735L218.582 246.092Z" fill="#458532"/>
<path d="M45.4667 220.527L5.91161 268.363H177.115L216.67 220.527H45.4667Z" fill="#A5DA53"/>
<path d="M4 295.929H177.555L177.53 269.267H4V295.929Z" fill="#63A731"/>
<path d="M28.5049 252.56L41.9429 236.089C50.9065 236.054 62.0767 231.227 66.9389 225.271H187.261C182.462 231.159 185.634 235.937 194.311 236.08L180.866 252.56C172.074 252.648 161.234 257.298 156.281 263.087H35.9152C40.4044 257.298 37.1544 252.648 28.5049 252.56ZM45.2582 220.348L6.37527 268.01H177.787L216.67 220.348H45.2582Z" fill="#63A731"/>
<path d="M96.5314 244.179C92.0338 249.69 95.1025 254.158 103.383 254.158C111.662 254.158 122.021 249.69 126.516 244.179C131.012 238.668 127.943 234.202 119.664 234.202C111.384 234.202 101.027 238.668 96.5314 244.179Z" fill="#547629"/>
<path d="M139.058 244.179C136.626 247.162 138.285 249.581 142.768 249.581C147.251 249.581 152.855 247.162 155.289 244.179C157.721 241.196 156.062 238.779 151.579 238.779C147.099 238.779 141.493 241.196 139.058 244.179Z" fill="white"/>
<path d="M67.7567 244.179C65.3245 247.162 66.9853 249.581 71.4661 249.581C75.9468 249.581 81.555 247.162 83.9872 244.179C86.4214 241.196 84.7607 238.779 80.28 238.779C75.7971 238.779 70.191 241.196 67.7567 244.179Z" fill="white"/>
<path d="M214.761 221.431H45.882L7.82113 267.459H176.7L214.761 221.431ZM45.0494 219.624H218.582L177.53 269.267H4L45.0494 219.624" fill="#95D449"/>
<path d="M107.594 295.929H104.816V295.925H104.831V269.267H107.594V295.929" fill="#448131"/>
<path d="M107.594 269.267H104.831V269.265L104.852 269.241H104.837L105.908 267.946H108.686L107.594 269.267" fill="#60AE32"/>
<path d="M78.558 269.264V295.925H102.614V269.264L102.637 269.241L143.661 219.626H119.605L78.579 269.241L78.558 269.264" fill="white"/>
<path d="M141.027 219.624H145.866L104.816 269.267V295.929H99.9774V269.267L141.027 219.624Z" fill="#F4744D"/>
<path d="M117.329 219.624H122.166L81.1166 269.267V295.929H76.2797V269.267L117.329 219.624Z" fill="#F4744D"/>
<path d="M104.816 295.925H104.831V269.267H104.816V295.925Z" fill="#3B692A"/>
<path d="M104.831 269.267H104.816L104.838 269.241H104.853L104.831 269.265V269.267Z" fill="#538F31"/>
<path d="M99.9774 295.925H81.1167V269.267L81.1376 269.241H99.9985L99.9774 269.267V295.925Z" fill="#DCD5CB"/>
<path d="M104.816 295.925H99.9774V269.267L99.9985 269.241H104.838L104.816 269.267V295.925Z" fill="#DC5F3D"/>
<path d="M81.1166 295.925H76.3428V269.264L80.7941 269.241H81.1376L81.1166 269.267V295.925Z" fill="#DC5F3D"/>
<path d="M177.532 241.283L218.582 191.64V218.108L177.589 267.713L177.558 267.946H4V241.283H177.532" fill="#40742E"/>
<path d="M218.582 214.038V187.57L177.53 237.213L177.555 263.681L218.582 214.038Z" fill="#458532"/>
<path d="M45.4667 188.473L5.91161 236.309H177.115L216.67 188.473H45.4667Z" fill="#A5DA53"/>
<path d="M4 263.875H177.555L177.53 237.213H4V263.875Z" fill="#63A731"/>
<path d="M28.5049 220.506L41.9429 204.034C50.9065 204 62.0767 199.173 66.9389 193.217H187.261C182.462 199.105 185.634 203.883 194.311 204.026L180.866 220.506C172.074 220.594 161.234 225.246 156.281 231.033H35.9152C40.4044 225.246 37.1544 220.594 28.5049 220.506ZM45.2582 188.294L6.37527 235.956H177.787L216.67 188.294H45.2582Z" fill="#63A731"/>
<path d="M96.5314 212.125C92.0338 217.636 95.1025 222.102 103.383 222.102C111.662 222.102 122.021 217.636 126.516 212.125C131.012 206.614 127.943 202.148 119.664 202.148C111.384 202.148 101.027 206.614 96.5314 212.125Z" fill="#547629"/>
<path d="M139.058 212.125C136.626 215.108 138.285 217.527 142.768 217.527C147.251 217.527 152.855 215.108 155.289 212.125C157.721 209.142 156.062 206.725 151.579 206.725C147.099 206.725 141.493 209.142 139.058 212.125Z" fill="white"/>
<path d="M67.7567 212.125C65.3245 215.108 66.9853 217.527 71.4661 217.527C75.9489 217.527 81.555 215.108 83.9872 212.125C86.4214 209.142 84.7607 206.725 80.28 206.725C75.7971 206.725 70.191 209.142 67.7567 212.125Z" fill="white"/>
<path d="M214.761 189.377H45.882L7.82113 235.405H176.7L214.761 189.377ZM45.0494 187.57H218.582L177.53 237.213H4L45.0494 187.57" fill="#95D449"/>
<path d="M107.594 263.875H104.816V263.871H104.831V237.213H107.594V263.875V263.875ZM99.9773 263.875H83.5297V263.871H99.9773V263.875Z" fill="#448131"/>
<path d="M112.705 231.033H109.927L122.598 215.706C124.147 214.595 125.485 213.388 126.516 212.125C127.502 210.915 128.126 209.755 128.409 208.682L141.193 193.217H143.973L112.705 231.033" fill="#69B630"/>
<path d="M109.088 235.405H106.311L109.927 231.033H112.705L109.088 235.405ZM143.973 193.217H141.193L144.372 189.377H147.149L143.973 193.217" fill="#448131"/>
<path d="M122.598 215.707L128.409 208.682C128.126 209.755 127.502 210.916 126.516 212.125C125.485 213.388 124.147 214.595 122.598 215.707Z" fill="#3D5B25"/>
<path d="M107.594 237.213H104.831V237.211L104.852 237.187H104.837L106.311 235.405H109.088L107.594 237.213V237.213ZM147.149 189.377H144.372L145.866 187.57H141.027L141.025 187.572H124.579L124.581 187.57H148.644L147.149 189.377Z" fill="#60AE32"/>
<path d="M78.558 237.21V263.871H102.614V237.21L102.637 237.187L143.661 187.572H119.605L78.579 237.187L78.558 237.21" fill="white"/>
<path d="M141.027 187.57H145.866L104.816 237.213V263.875H99.9774V237.213L141.027 187.57Z" fill="#F4744D"/>
<path d="M117.329 187.57H122.166L81.1166 237.213V263.875H76.2797V237.213L117.329 187.57Z" fill="#F4744D"/>
<path d="M104.816 263.871H104.831V237.213H104.816V263.871Z" fill="#3B692A"/>
<path d="M104.831 237.213H104.816L104.838 237.187H104.853L104.831 237.211V237.213Z" fill="#538F31"/>
<path d="M99.9774 263.871H81.1167V237.213L81.1376 237.187H99.9985L99.9774 237.213V263.871Z" fill="#DCD5CB"/>
<path d="M104.816 263.871H99.9774V237.213L99.9985 237.187H104.838L104.816 237.213V263.871Z" fill="#DC5F3D"/>
<path d="M81.1166 263.871H76.3428V237.21L80.7941 237.187H81.1376L81.1166 237.213V263.871Z" fill="#DC5F3D"/>
</g>
<defs>
<filter id="filter0_d_21:2787" x="0" y="-3.05176e-05" width="308" height="308" filterUnits="userSpaceOnUse" color-interpolation-filters="sRGB">
<feFlood flood-opacity="0" result="BackgroundImageFix"/>
<feColorMatrix in="SourceAlpha" type="matrix" values="0 0 0 0 0 0 0 0 0 0 0 0 0 0 0 0 0 0 127 0" result="hardAlpha"/>
<feOffset dy="4"/>
<feGaussianBlur stdDeviation="2"/>
<feComposite in2="hardAlpha" operator="out"/>
<feColorMatrix type="matrix" values="0 0 0 0 0 0 0 0 0 0 0 0 0 0 0 0 0 0 0.25 0"/>
<feBlend mode="normal" in2="BackgroundImageFix" result="effect1_dropShadow_21:2787"/>
<feBlend mode="normal" in="SourceGraphic" in2="effect1_dropShadow_21:2787" result="shape"/>
</filter>
</defs>
</svg>
