<svg width="53" height="50" viewBox="0 0 53 50" fill="none" xmlns="http://www.w3.org/2000/svg">
<path d="M47.0533 38.6735C49.6255 34.744 51.1226 30.0471 51.1226 25C51.1226 11.1929 39.9297 0 26.1226 0C12.3154 0 1.12256 11.1929 1.12256 25C1.12256 30.0471 2.6196 34.744 5.19184 38.6735H47.0533Z" fill="#C5D3DD"/>
<path d="M38.7754 8.52038V6.93874C38.7754 6.37517 38.3185 5.91833 37.755 5.91833H14.4896C13.9261 5.91833 13.4692 6.37517 13.4692 6.93874V8.52038H38.7754Z" fill="#EA9B58"/>
<path d="M20.2039 5.91833H14.4896C13.9261 5.91833 13.4692 6.37517 13.4692 6.93874V8.52038H19.1835V6.93874C19.1835 6.37517 19.6404 5.91833 20.2039 5.91833Z" fill="#D88A55"/>
<path d="M26.1223 50C33.3941 50 39.9401 46.8949 44.5084 41.9388H7.73633C12.3046 46.8949 18.8506 50 26.1223 50Z" fill="#FEDF30"/>
<path d="M4.03076 9.84692H48.2144V37.653H4.03076V9.84692Z" fill="#596C76"/>
<path d="M4.03076 9.84692H8.06137V37.653H4.03076V9.84692Z" fill="#465A61"/>
<path d="M49.6429 9.18364C49.6429 8.76099 49.3002 8.41833 48.8776 8.41833H3.36736C2.9447 8.41833 2.60205 8.76099 2.60205 9.18364V38.6734H49.6429V9.18364ZM48.1123 37.551H4.13266V9.94895H48.1123V37.551Z" fill="#C57A44"/>
<path d="M25.1937 38.6735C25.2004 38.6405 25.204 38.6064 25.204 38.5714V37.2449C25.204 36.9631 24.9755 36.7347 24.6938 36.7347H19.3876C19.1059 36.7347 18.8774 36.9631 18.8774 37.2449V38.5714C18.8774 38.6064 18.881 38.6405 18.8877 38.6735H25.1937Z" fill="white"/>
<path d="M21.3264 37.2449C21.3264 36.9631 21.5549 36.7347 21.8366 36.7347H19.3876C19.1059 36.7347 18.8774 36.9631 18.8774 37.2449V38.5714C18.8774 38.6064 18.881 38.6405 18.8877 38.6735H21.3367C21.33 38.6405 21.3264 38.6064 21.3264 38.5714V37.2449Z" fill="#EAF6FF"/>
<path d="M45.908 38.6735C45.9148 38.6405 45.9183 38.6064 45.9183 38.5714V37.2449C45.9183 36.9631 45.6899 36.7347 45.4081 36.7347H40.102C39.8203 36.7347 39.5918 36.9631 39.5918 37.2449V38.5714C39.5918 38.6064 39.5954 38.6405 39.6021 38.6735H45.908Z" fill="white"/>
<path d="M42.0408 37.2449C42.0408 36.9631 42.2692 36.7347 42.551 36.7347H40.102C39.8203 36.7347 39.5918 36.9631 39.5918 37.2449V38.5714C39.5918 38.6064 39.5954 38.6405 39.6021 38.6735H42.0511C42.0443 38.6405 42.0408 38.6064 42.0408 38.5714V37.2449Z" fill="#EAF6FF"/>
<path d="M17.2452 38.6734V35.6122C17.2452 35.0486 16.7883 34.5918 16.2247 34.5918H8.67373C8.11016 34.5918 7.65332 35.0486 7.65332 35.6122V38.6734H17.2452Z" fill="#60B7FF"/>
<path d="M11.939 34.5918H8.67373C8.11016 34.5918 7.65332 35.0486 7.65332 35.6122V38.6734H10.9186V35.6122C10.9186 35.0486 11.3755 34.5918 11.939 34.5918Z" fill="#26A6FE"/>
<path d="M51.5306 42.0408H0.714286C0.319796 42.0408 0 41.721 0 41.3265V39.2857C0 38.8912 0.319796 38.5714 0.714286 38.5714H51.5306C51.9251 38.5714 52.2449 38.8912 52.2449 39.2857V41.3265C52.2449 41.721 51.9251 42.0408 51.5306 42.0408Z" fill="#EA9B58"/>
<path d="M6.42857 40.4081C6.03408 40.4081 5.71429 40.0884 5.71429 39.6939V38.5714H0.714286C0.319796 38.5714 0 38.8912 0 39.2857V41.3265C0 41.721 0.319796 42.0408 0.714286 42.0408H51.5306C51.9251 42.0408 52.2449 41.721 52.2449 41.3265V40.4081H6.42857Z" fill="#D88A55"/>
<path d="M20.3058 14.4898H17.5507C17.269 14.4898 17.0405 14.2613 17.0405 13.9796C17.0405 13.6978 17.269 13.4694 17.5507 13.4694H20.3058C20.5876 13.4694 20.816 13.6978 20.816 13.9796C20.816 14.2613 20.5876 14.4898 20.3058 14.4898Z" fill="white"/>
<path d="M15.6121 14.4898H8.87739C8.59566 14.4898 8.36719 14.2613 8.36719 13.9796C8.36719 13.6978 8.59566 13.4694 8.87739 13.4694H15.6121C15.8938 13.4694 16.1223 13.6978 16.1223 13.9796C16.1223 14.2613 15.8938 14.4898 15.6121 14.4898Z" fill="white"/>
<path d="M20.306 17.1428H8.87739C8.59566 17.1428 8.36719 16.9144 8.36719 16.6326C8.36719 16.3509 8.59566 16.1224 8.87739 16.1224H20.306C20.5877 16.1224 20.8162 16.3509 20.8162 16.6326C20.8162 16.9144 20.5877 17.1428 20.306 17.1428Z" fill="white"/>
<path d="M26.2243 34.0816H23.4692C23.1875 34.0816 22.959 33.8531 22.959 33.5714C22.959 33.2896 23.1875 33.0612 23.4692 33.0612H26.2243C26.506 33.0612 26.7345 33.2896 26.7345 33.5714C26.7345 33.8531 26.506 34.0816 26.2243 34.0816Z" fill="white"/>
<path d="M34.8977 34.0816H28.163C27.8813 34.0816 27.6528 33.8531 27.6528 33.5714C27.6528 33.2896 27.8813 33.0612 28.163 33.0612H34.8977C35.1795 33.0612 35.4079 33.2896 35.4079 33.5714C35.4079 33.8531 35.1795 34.0816 34.8977 34.0816Z" fill="white"/>
<path d="M34.8978 31.4286H23.4692C23.1875 31.4286 22.959 31.2001 22.959 30.9183C22.959 30.6366 23.1875 30.4081 23.4692 30.4081H34.8978C35.1795 30.4081 35.408 30.6366 35.408 30.9183C35.408 31.2001 35.1795 31.4286 34.8978 31.4286Z" fill="white"/>
<path d="M38.3332 34.0815H36.7343C36.4526 34.0815 36.2241 33.853 36.2241 33.5713C36.2241 33.2896 36.4526 33.0611 36.7343 33.0611H38.3332C38.6149 33.0611 38.8434 33.2896 38.8434 33.5713C38.8434 33.853 38.615 34.0815 38.3332 34.0815Z" fill="white"/>
<path d="M43.3668 34.0815H40.3056C40.0239 34.0815 39.7954 33.853 39.7954 33.5713C39.7954 33.2896 40.0239 33.0611 40.3056 33.0611H43.3668C43.6486 33.0611 43.877 33.2896 43.877 33.5713C43.877 33.853 43.6486 34.0815 43.3668 34.0815Z" fill="white"/>
<path d="M43.3675 31.4285H36.7348C36.4531 31.4285 36.2246 31.2 36.2246 30.9183C36.2246 30.6366 36.4531 30.4081 36.7348 30.4081H43.3675C43.6492 30.4081 43.8777 30.6366 43.8777 30.9183C43.8777 31.2 43.6492 31.4285 43.3675 31.4285Z" fill="white"/>
<path d="M20.306 20.6122H14.5917C14.31 20.6122 14.0815 20.3837 14.0815 20.102C14.0815 19.8203 14.31 19.5918 14.5917 19.5918H20.306C20.5878 19.5918 20.8162 19.8203 20.8162 20.102C20.8162 20.3837 20.5878 20.6122 20.306 20.6122Z" fill="white"/>
<path d="M12.6529 20.6122H8.87739C8.59566 20.6122 8.36719 20.3837 8.36719 20.102C8.36719 19.8203 8.59566 19.5918 8.87739 19.5918H12.6529C12.9346 19.5918 13.1631 19.8203 13.1631 20.102C13.1631 20.3837 12.9346 20.6122 12.6529 20.6122Z" fill="white"/>
<path d="M20.306 23.2653H8.87739C8.59566 23.2653 8.36719 23.0368 8.36719 22.7551C8.36719 22.4733 8.59566 22.2449 8.87739 22.2449H20.306C20.5877 22.2449 20.8162 22.4733 20.8162 22.7551C20.8162 23.0368 20.5877 23.2653 20.306 23.2653Z" fill="white"/>
<path d="M13.8774 25.9184H8.87739C8.59566 25.9184 8.36719 25.6899 8.36719 25.4082C8.36719 25.1264 8.59566 24.8979 8.87739 24.8979H13.8774C14.1591 24.8979 14.3876 25.1264 14.3876 25.4082C14.3876 25.6899 14.1591 25.9184 13.8774 25.9184Z" fill="white"/>
<path d="M16.0076 29.6939H15.3778V29.0641C15.3778 28.7824 15.1493 28.5539 14.8676 28.5539C14.5859 28.5539 14.3574 28.7824 14.3574 29.0641V29.6939H13.7275C13.4458 29.6939 13.2173 29.9224 13.2173 30.2041C13.2173 30.4858 13.4458 30.7143 13.7275 30.7143H14.3574V31.3441C14.3574 31.6258 14.5859 31.8543 14.8676 31.8543C15.1493 31.8543 15.3778 31.6258 15.3778 31.3441V30.7143H16.0076C16.2893 30.7143 16.5178 30.4858 16.5178 30.2041C16.5178 29.9224 16.2894 29.6939 16.0076 29.6939Z" fill="white"/>
<path d="M10.7335 30.115L11.5073 29.3413C11.7066 29.142 11.7066 28.8189 11.5073 28.6197C11.308 28.4205 10.985 28.4205 10.7857 28.6197L10.012 29.3935L9.23818 28.6197C9.0389 28.4205 8.71594 28.4205 8.51665 28.6197C8.31737 28.819 8.31737 29.1421 8.51665 29.3413L9.29043 30.115L8.51665 30.8888C8.31737 31.0881 8.31737 31.4112 8.51665 31.6103C8.61635 31.7099 8.74686 31.7597 8.87747 31.7597C9.00808 31.7597 9.13859 31.7099 9.23829 31.6103L10.0121 30.8366L10.7858 31.6103C10.8855 31.7099 11.016 31.7597 11.1467 31.7597C11.2773 31.7597 11.4078 31.7099 11.5075 31.6103C11.7068 31.4111 11.7068 31.088 11.5075 30.8888L10.7335 30.115Z" fill="white"/>
<path d="M21.2187 28.6187C21.0194 28.4196 20.6964 28.4196 20.4972 28.6187L19.7234 29.3925L18.9496 28.6187C18.7503 28.4196 18.4274 28.4196 18.2281 28.6187C18.0288 28.818 18.0288 29.1411 18.2281 29.3403L19.2187 30.3309V31.4286C19.2187 31.7103 19.4472 31.9388 19.7289 31.9388C20.0106 31.9388 20.2391 31.7103 20.2391 31.4286V30.3201L21.2188 29.3404C21.418 29.1411 21.418 28.818 21.2187 28.6187V28.6187Z" fill="white"/>
<path d="M43.4182 15.9684L36.7337 12.1091C36.5759 12.0179 36.3814 12.0179 36.2235 12.1091L29.539 15.9684C29.3812 16.0595 29.2839 16.228 29.2839 16.4102V19.9685H26.3337L26.962 19.3402C27.1613 19.141 27.1613 18.8179 26.962 18.6187C26.7627 18.4195 26.4397 18.4195 26.2404 18.6187L24.7413 20.1179C24.542 20.3172 24.542 20.6402 24.7413 20.8394L26.2404 22.3386C26.3401 22.4382 26.4706 22.488 26.6013 22.488C26.7319 22.488 26.8624 22.4382 26.9621 22.3386C27.1614 22.1393 27.1614 21.8163 26.9621 21.6171L26.3338 20.9888H29.284V24.1287C29.284 24.311 29.3813 24.4794 29.5391 24.5706L36.2236 28.4298C36.3025 28.4754 36.3907 28.4982 36.4787 28.4982C36.5668 28.4982 36.6549 28.4754 36.7338 28.4298L43.4183 24.5706C43.5762 24.4794 43.6734 24.311 43.6734 24.1287V16.41C43.6733 16.228 43.5761 16.0595 43.4182 15.9684V15.9684ZM35.9684 27.1045L30.3043 23.8343V20.9889H31.1223C31.404 20.9889 31.6325 20.7605 31.6325 20.4787C31.6325 20.197 31.404 19.9685 31.1223 19.9685H30.3042V17.308L35.9683 20.6816V27.1045H35.9684ZM36.4786 19.7977L30.8027 16.4171L36.4786 13.14L42.1545 16.4171L36.4786 19.7977ZM42.6529 23.8343L36.9888 27.1045V20.6816L42.6529 17.308V23.8343Z" fill="white"/>
<path d="M39.4386 21.9726V23.5714C39.4386 23.8531 39.6671 24.0816 39.9488 24.0816C40.2306 24.0816 40.459 23.8531 40.459 23.5714V20.7652C40.459 20.5589 40.3347 20.3728 40.1441 20.2938C39.9535 20.2149 39.734 20.2585 39.5881 20.4044L38.8228 21.1697C38.6235 21.369 38.6235 21.6921 38.8228 21.8913C38.9897 22.0582 39.2436 22.0854 39.4386 21.9726Z" fill="white"/>
<path d="M26.3775 16.8367C25.1114 16.8367 24.0815 15.8068 24.0815 14.5408C24.0815 13.2748 25.1114 12.2449 26.3775 12.2449C27.6435 12.2449 28.6734 13.2748 28.6734 14.5408C28.6734 15.8068 27.6435 16.8367 26.3775 16.8367ZM26.3775 13.2653C25.6741 13.2653 25.102 13.8374 25.102 14.5408C25.102 15.2442 25.6741 15.8163 26.3775 15.8163C27.0808 15.8163 27.653 15.2442 27.653 14.5408C27.653 13.8374 27.0808 13.2653 26.3775 13.2653Z" fill="white"/>
<path d="M27.4761 28.5721H23.4692C23.2869 28.5721 23.1184 28.4749 23.0273 28.317C22.9362 28.1592 22.9362 27.9647 23.0273 27.8068L25.0308 24.3367C25.1219 24.1788 25.2904 24.0816 25.4726 24.0816C25.6549 24.0816 25.8233 24.1788 25.9145 24.3367L27.9179 27.8068C28.0091 27.9647 28.0091 28.1592 27.9179 28.317C27.8268 28.4749 27.6584 28.5721 27.4761 28.5721V28.5721ZM24.3528 27.5517H26.5924L25.4726 25.6122L24.3528 27.5517Z" fill="white"/>
</svg>
