<svg width="53" height="50" viewBox="0 0 53 50" fill="none" xmlns="http://www.w3.org/2000/svg">
<path d="M49.9772 48.3333H10.9147C6.71503 48.3333 3.31055 44.9288 3.31055 40.7291V39.2708C3.31055 35.0711 6.71503 31.6666 10.9147 31.6666H49.9772V48.3333Z" fill="#FFEBB7"/>
<path d="M9.14372 33.3333H4.97705V46.6666H9.14372V33.3333Z" fill="#5C546A"/>
<path d="M46.019 29.1667H1.64404V17.5H46.019C47.2847 17.5 48.3107 18.526 48.3107 19.7917V26.875C48.3107 28.1406 47.2847 29.1667 46.019 29.1667Z" fill="#FFEBB7"/>
<path d="M49.977 2.5H7.47705V15H49.977V2.5Z" fill="#FFEBB7"/>
<path d="M50.0003 50H11.667C6.15303 50 1.66699 45.5144 1.66699 40C1.66699 34.4856 6.15303 30 11.667 30H50.0003C50.9207 30 51.667 30.7462 51.667 31.6667C51.667 32.5871 50.9207 33.3333 50.0003 33.3333H11.667C7.99105 33.3333 5.00033 36.3241 5.00033 40C5.00033 43.6759 7.99105 46.6667 11.667 46.6667H50.0003C50.9207 46.6667 51.667 47.4129 51.667 48.3333C51.667 49.2537 50.9207 50 50.0003 50Z" fill="#00C37A"/>
<path d="M45 30H0.833333C0.372708 30 0 29.6273 0 29.1667C0 28.7061 0.372708 28.3334 0.833333 28.3334H45C46.3785 28.3334 47.5 27.2119 47.5 25.8334V20.8334C47.5 19.4548 46.3785 18.3334 45 18.3334H0.833333C0.372708 18.3334 0 17.9606 0 17.5C0 17.0394 0.372708 16.6667 0.833333 16.6667H45C47.2974 16.6667 49.1667 18.536 49.1667 20.8334V25.8334C49.1667 28.1307 47.2974 30 45 30Z" fill="#009BCA"/>
<path d="M49.9772 6.66667H11.6439C11.1837 6.66667 10.8105 6.29354 10.8105 5.83333C10.8105 5.37312 11.1837 5 11.6439 5H49.9772V6.66667Z" fill="#E6BE94"/>
<path d="M49.9772 9.99998H11.6439C11.1837 9.99998 10.8105 9.62685 10.8105 9.16665C10.8105 8.70644 11.1837 8.33331 11.6439 8.33331H49.9772V9.99998Z" fill="#E6BE94"/>
<path d="M49.9772 13.3334H11.6439C11.1837 13.3334 10.8105 12.9602 10.8105 12.5C10.8105 12.0398 11.1837 11.6667 11.6439 11.6667H49.9772V13.3334Z" fill="#E6BE94"/>
<path d="M1.64404 20H44.9774C45.4376 20 45.8107 20.3731 45.8107 20.8333C45.8107 21.2935 45.4376 21.6667 44.9774 21.6667H1.64404C1.64404 21.6667 1.64404 20 1.64404 20Z" fill="#E6BE94"/>
<path d="M1.64404 23.3334H44.9774C45.4376 23.3334 45.8107 23.7065 45.8107 24.1667C45.8107 24.6269 45.4376 25 44.9774 25H1.64404C1.64404 25 1.64404 23.3334 1.64404 23.3334Z" fill="#E6BE94"/>
<path d="M1.64404 26.6666H44.9774C45.4376 26.6666 45.8107 27.0398 45.8107 27.5C45.8107 27.9602 45.4376 28.3333 44.9774 28.3333H1.64404C1.64404 28.3333 1.64404 26.6666 1.64404 26.6666Z" fill="#E6BE94"/>
<path d="M50.8335 16.6667H10.8335C8.07631 16.6667 5.8335 14.4239 5.8335 11.6667V5C5.8335 2.24281 8.07631 0 10.8335 0H50.8335C51.7539 0 52.5002 0.74625 52.5002 1.66667C52.5002 2.58708 51.7539 3.33333 50.8335 3.33333H10.8335C9.91433 3.33333 9.16683 4.08083 9.16683 5V11.6667C9.16683 12.5854 9.91433 13.3333 10.8335 13.3333H50.8335C51.7539 13.3333 52.5002 14.0796 52.5002 15C52.5002 15.9204 51.7539 16.6667 50.8335 16.6667Z" fill="#FF4F19"/>
<path d="M11.6439 45C11.1833 45 10.8105 45.3727 10.8105 45.8333C10.8105 46.294 11.1833 46.6667 11.6439 46.6667H49.9772V45H11.6439Z" fill="#E6BE94"/>
<path d="M11.6439 41.6666C11.1833 41.6666 10.8105 42.0393 10.8105 42.5C10.8105 42.9606 11.1833 43.3333 11.6439 43.3333H49.9772V41.6666H11.6439Z" fill="#E6BE94"/>
<path d="M11.6439 38.3333C11.1833 38.3333 10.8105 38.706 10.8105 39.1666C10.8105 39.6273 11.1833 40 11.6439 40H49.9772V38.3333H11.6439Z" fill="#E6BE94"/>
<path d="M11.6439 35C11.1833 35 10.8105 35.3727 10.8105 35.8333C10.8105 36.294 11.1833 36.6667 11.6439 36.6667H49.9772V35H11.6439Z" fill="#E6BE94"/>
</svg>
