<svg width="65" height="50" viewBox="0 0 65 50" fill="none" xmlns="http://www.w3.org/2000/svg">
<path d="M56.3678 0.000183105C55.4616 0.000183105 8.59566 0.000183105 8.33294 0.000183105C5.83096 0.000183105 3.79541 2.03573 3.79541 4.53784V38.5734C3.79541 40.7864 5.4353 42.7041 7.61756 43.0538L8.43479 43.7063H55.5608L57.0831 43.0538C59.2654 42.7041 60.9053 40.7864 60.9053 38.5734C60.9053 37.441 60.9053 5.56206 60.9053 4.53771C60.9053 2.03573 58.8697 0.000183105 56.3678 0.000183105V0.000183105Z" fill="#365E7D"/>
<path d="M8.12392 38.5733V4.53765C8.12392 2.03555 10.1595 0 12.6615 0C10.0192 0 8.38134 0 8.33294 0C5.83096 0 3.79541 2.03555 3.79541 4.53765V38.5733C3.79541 40.7863 5.4353 42.7041 7.61756 43.0538L8.43479 43.7062H12.7633L11.9461 43.0538C9.76369 42.7041 8.12392 40.7863 8.12392 38.5733Z" fill="#2B4D66"/>
<path d="M56.2767 8.01459H8.695L7.87158 8.87415V38.2001C7.87158 38.6497 8.23603 39.0143 8.68565 39.0143H56.0148C56.4643 39.0143 56.8289 38.6497 56.8289 38.2001C56.8289 37.4313 56.8289 9.76391 56.8289 8.87415L56.2767 8.01459Z" fill="#E4F6FF"/>
<path d="M13.1637 38.2001V8.87415L13.9871 8.01459H8.695L7.87158 8.87415V38.2001C7.87158 38.6497 8.23603 39.0143 8.68565 39.0143H13.9777C13.5281 39.0143 13.1637 38.6497 13.1637 38.2001V38.2001Z" fill="#D3EFFB"/>
<path d="M13.1637 4.04596H8.68565C8.23603 4.04596 7.87158 4.41053 7.87158 4.86015V8.87426H13.1637L13.5118 8.50286V4.30438L13.1637 4.04596Z" fill="#DD636E"/>
<path d="M56.0153 4.04584C53.9129 4.04584 14.8302 4.04584 13.1641 4.04584V8.87414H56.8293V4.86003C56.8293 4.41041 56.4649 4.04584 56.0153 4.04584V4.04584Z" fill="#B1E4F9"/>
<path d="M23.5148 14.689H14.0091C13.5424 14.689 13.1641 15.0673 13.1641 15.534V33.1995H24.3597V15.5339C24.3597 15.0672 23.9815 14.689 23.5148 14.689V14.689Z" fill="#3F6D8E"/>
<path d="M16.9597 14.689H14.0091C13.5424 14.689 13.1641 15.0673 13.1641 15.5339V33.1994H16.1147V15.5339C16.1147 15.0672 16.4929 14.689 16.9597 14.689Z" fill="#365E7D"/>
<path d="M20.6906 33.1994V29.7214C20.6906 29.5606 20.5601 29.4303 20.3994 29.4303H17.1237C16.9628 29.4303 16.8325 29.5607 16.8325 29.7214V33.1994H20.6906Z" fill="#E4F6FF"/>
<path d="M19.0528 29.4302H17.1237C16.9628 29.4302 16.8325 29.5606 16.8325 29.7213V33.1993H18.7617V29.7213C18.7617 29.5606 18.892 29.4302 19.0528 29.4302Z" fill="#D3EFFB"/>
<path d="M63.9433 43.0538H0.757582C0.339174 43.0538 0 43.3962 0 43.8188V46.4502C0 48.4026 1.58201 50 3.51558 50H61.1853C63.1189 50 64.7009 48.4026 64.7009 46.4502V43.8188C64.7009 43.3962 64.3617 43.0538 63.9433 43.0538Z" fill="#407093"/>
<path d="M7.87177 46.4502V43.8188C7.87177 43.3962 8.21095 43.0538 8.62935 43.0538H0.757582C0.339174 43.0538 0 43.3962 0 43.8188V46.4502C0 48.4026 1.58201 50 3.51558 50H11.3875C9.45378 50 7.87177 48.4026 7.87177 46.4502V46.4502Z" fill="#365E7D"/>
<path d="M22.9136 43.0538V44.8191C22.9136 45.6868 23.6166 46.3967 24.4759 46.3967H40.2259C41.0852 46.3967 41.7882 45.6868 41.7882 44.8191V43.0538H22.9136Z" fill="#5C90B9"/>
<path d="M30.7853 44.8191V43.0538H22.9136V44.8191C22.9136 45.6868 23.6166 46.3967 24.4759 46.3967H32.3478C31.4885 46.3969 30.7853 45.6868 30.7853 44.8191Z" fill="#4A80AA"/>
<path d="M35.2521 33.1994V23.3105C35.2521 23.1496 35.1217 23.0193 34.9609 23.0193H31.6852C31.5243 23.0193 31.394 23.1498 31.394 23.3105V33.1994H35.2521Z" fill="#DD636E"/>
<path d="M42.9684 33.1994V19.7302C42.9684 19.5694 42.838 19.4391 42.6772 19.4391H39.4015C39.2406 19.4391 39.1104 19.5695 39.1104 19.7302V33.1994H42.9684Z" fill="#FFAA5B"/>
<path d="M50.6847 33.1994V16.15C50.6847 15.9891 50.5543 15.8588 50.3936 15.8588H47.1178C46.9569 15.8588 46.8267 15.9892 46.8267 16.15V33.1994H50.6847Z" fill="#B3E59F"/>
<path d="M33.8766 23.0193H31.6852C31.5243 23.0193 31.394 23.1498 31.394 23.3105V33.1994H33.5854V23.3105C33.5854 23.1496 33.7157 23.0193 33.8766 23.0193V23.0193Z" fill="#DA4A54"/>
<path d="M41.5929 19.4391H39.4015C39.2406 19.4391 39.1104 19.5695 39.1104 19.7302V33.1994H41.3017V19.7302C41.3017 19.5694 41.4321 19.4391 41.5929 19.4391Z" fill="#FF9838"/>
<path d="M49.3092 15.8588H47.1178C46.9569 15.8588 46.8267 15.9892 46.8267 16.15V33.1994H49.018V16.15C49.018 15.9891 49.1484 15.8588 49.3092 15.8588Z" fill="#95D6A4"/>
<path d="M51.6657 34.1757H30.4133C29.8741 34.1757 29.437 33.7386 29.437 33.1994C29.437 32.66 29.8741 32.223 30.4133 32.223H51.6657C52.2049 32.223 52.642 32.6601 52.642 33.1994C52.642 33.7386 52.2049 34.1757 51.6657 34.1757Z" fill="#B1E4F9"/>
<path d="M25.3369 34.1757H12.221C11.6817 34.1757 11.2446 33.7386 11.2446 33.1994C11.2446 32.66 11.6817 32.223 12.221 32.223H25.3368C25.876 32.223 26.3131 32.6601 26.3131 33.1994C26.3132 33.7387 25.8761 34.1757 25.3369 34.1757V34.1757Z" fill="#B3E59F"/>
<path d="M20.9318 26.7513H16.592C16.0528 26.7513 15.6157 26.3142 15.6157 25.775C15.6157 25.2356 16.0528 24.7986 16.592 24.7986H20.9318C21.471 24.7986 21.9081 25.2358 21.9081 25.775C21.9081 26.3142 21.471 26.7513 20.9318 26.7513Z" fill="#B1E4F9"/>
<path d="M20.9318 23.1709H16.592C16.0528 23.1709 15.6157 22.7337 15.6157 22.1945C15.6157 21.6552 16.0528 21.2182 16.592 21.2182H20.9318C21.471 21.2182 21.9081 21.6553 21.9081 22.1945C21.9081 22.7337 21.471 23.1709 20.9318 23.1709Z" fill="#B1E4F9"/>
<path d="M20.9318 19.5906H16.592C16.0528 19.5906 15.6157 19.1535 15.6157 18.6143C15.6157 18.0749 16.0528 17.6379 16.592 17.6379H20.9318C21.471 17.6379 21.9081 18.075 21.9081 18.6143C21.9081 19.1536 21.471 19.5906 20.9318 19.5906Z" fill="#B1E4F9"/>
</svg>
