<svg width="50" height="50" viewBox="0 0 50 50" fill="none" xmlns="http://www.w3.org/2000/svg">
<g clip-path="url(#clip0)">
<path d="M24.9995 49.0238C26.0782 49.0238 26.9527 48.1494 26.9527 47.0707C26.9527 45.992 26.0782 45.1176 24.9995 45.1176C23.9208 45.1176 23.0464 45.992 23.0464 47.0707C23.0464 48.1494 23.9208 49.0238 24.9995 49.0238Z" fill="#99BBFF"/>
<path d="M49.0229 0.976562H0.976562V6.05459H49.0229V0.976562Z" fill="#7D9BFF"/>
<path d="M46.8745 6.05459H3.125V38.0855H46.8745V6.05459Z" fill="#C9F3FF"/>
<path d="M32.9123 19.2223C32.1132 19.4531 32.6408 19.9638 31.9107 20.0565C31.4184 20.119 30.1787 19.1298 29.7134 18.8809C30.8965 17.2975 26.8335 17.848 26.2464 18.1249C25.1287 18.6521 23.5562 20.7698 23.0546 21.952C21.9354 24.5899 23.9141 27.3047 26.7775 27.0362C27.603 26.9589 28.4076 26.4361 29.1397 27.0886C29.7226 27.6081 29.4187 28.0684 29.6669 28.6612C29.8837 29.179 30.3157 29.5701 30.5138 30.0905C30.942 31.2159 30.1312 31.8316 30.2032 32.7872C30.2845 33.8641 31.0613 35.2399 31.4954 36.272C31.7346 36.8405 32.1789 37.8613 32.778 37.9849C33.8228 38.2002 35.0031 36.5424 35.4182 35.8627C35.7921 35.2504 36.0098 34.4509 36.3754 33.784C37.1162 32.4326 37.681 32.257 37.4778 30.6669C37.1926 28.4338 39.1145 28.356 39.972 26.5281C40.6355 25.114 39.4106 25.6524 38.4868 25.2278C37.6239 24.8312 37.2611 23.7944 36.8733 23.0088C36.4806 22.2135 36.1983 20.9638 35.5628 20.3198C34.9772 19.726 33.729 19.5237 32.9123 19.2223Z" fill="#72D8FF"/>
<path d="M43.7496 20.2124C43.4381 20.5239 40.1721 22.573 39.6364 22.0933C38.7055 21.2601 38.3686 19.3817 37.8948 18.3267C37.0149 16.3672 34.2976 15.4058 32.162 15.0908C30.8878 14.9029 28.7945 14.816 27.5498 15.0908C26.6918 15.2802 27.1922 14.9328 26.6877 15.5609C26.3345 16.0008 26.178 16.9812 25.9811 17.5299C25.4519 16.7886 23.9058 15.2769 23.832 14.4131C23.7574 13.5414 24.9454 11.3785 25.605 10.9228C26.9585 9.9877 29.065 10.1531 30.4287 9.23164C31.3915 8.58106 32.1932 7.06065 32.9301 6.13633H46.8747V18.8046L43.7496 20.2124Z" fill="#FE8F8D"/>
<path d="M17.329 9.08252C19.1465 9.08252 20.6201 10.556 20.6201 12.3736V14.2652L17.4629 15.7099L13.4121 18.8522L10.6123 19.5075L11.208 22.3371C11.208 22.3371 8.08053 21.6223 8.1401 21.5031C8.19967 21.384 6.26364 17.6013 6.26364 17.6013L7.63376 14.7419V13.0144C6.16598 13.0144 5.45895 11.2151 6.53395 10.2158L6.80563 9.96328C7.41452 9.39727 8.21501 9.08272 9.04635 9.08272H17.3289V9.08252H17.329Z" fill="#A0E557"/>
<path d="M12.1772 22.3368C12.2797 22.3368 13.963 22.6881 15.1523 22.9391C15.8856 23.0937 16.4987 23.5934 16.7983 24.2803L17.4106 25.6841L20.497 28.5048C20.984 28.9499 20.9611 29.7239 20.4487 30.1395L17.8724 32.2292C17.0744 32.8765 16.5186 33.7746 16.2955 34.7776L15.5597 38.0856L13.0999 33.8244C12.7997 33.3044 12.667 32.7045 12.7198 32.1063L12.8639 30.4751C12.9013 30.052 12.8218 29.6269 12.6339 29.2459L11.427 26.7988C11.1587 26.2546 11.1143 25.6269 11.3038 25.0503L12.1563 22.4549" fill="#FFB954"/>
<path d="M42.9683 28.821C42.7114 28.821 42.4595 28.9245 42.2778 29.1071C42.0962 29.2888 41.9917 29.5407 41.9917 29.7976C41.9917 30.0544 42.0961 30.3063 42.2778 30.488C42.4595 30.6695 42.7114 30.7741 42.9683 30.7741C43.2251 30.7741 43.4771 30.6696 43.6586 30.488C43.8402 30.3063 43.9448 30.0544 43.9448 29.7976C43.9448 29.5397 43.8403 29.2888 43.6586 29.1071C43.4771 28.9244 43.2251 28.821 42.9683 28.821Z" fill="black"/>
<path d="M49.0233 0H0.977051C0.437793 0 0.000488281 0.437207 0.000488281 0.976562V6.05459C0.000488281 6.59395 0.437793 7.03115 0.977051 7.03115H2.14893V23.7669C2.14893 24.3063 2.58623 24.7435 3.12549 24.7435C3.66475 24.7435 4.10205 24.3063 4.10205 23.7669V7.03115H31.1022C30.7061 7.59805 30.2832 8.15156 29.8822 8.42256C29.3593 8.77598 28.6114 8.94053 27.8197 9.11484C26.8705 9.32383 25.889 9.53984 25.0502 10.1194C24.1158 10.7649 22.7542 13.2689 22.8591 14.4962C22.933 15.3614 23.6289 16.2391 24.6038 17.3846C24.7339 17.5373 24.8592 17.6848 24.967 17.8162C23.7918 18.7968 22.6051 20.5107 22.1554 21.5705C21.4937 23.1301 21.6729 24.8462 22.6346 26.161C23.5966 27.4762 25.18 28.1674 26.8684 28.0085C27.1719 27.9801 27.4519 27.911 27.6988 27.8501C28.2833 27.706 28.3756 27.7161 28.4896 27.8176C28.5322 27.8556 28.5443 27.8757 28.5444 27.8757C28.556 27.9052 28.5642 28.022 28.5696 28.0992C28.5863 28.3376 28.6092 28.6642 28.7658 29.0384C28.9116 29.3864 29.1087 29.6668 29.2825 29.9142C29.4218 30.1122 29.542 30.2833 29.6008 30.4378C29.7185 30.7469 29.6582 30.9395 29.4981 31.3838C29.3579 31.7727 29.1836 32.2568 29.2291 32.8605C29.3036 33.848 29.8011 34.9191 30.2401 35.8642C30.371 36.1458 30.4945 36.4118 30.595 36.6506C30.6518 36.7854 30.7177 36.9422 30.7946 37.1092H16.7772L17.2488 34.9896C17.4233 34.205 17.8634 33.494 18.4877 32.9876L21.064 30.898C21.5292 30.5207 21.8062 29.9609 21.8237 29.3621C21.8414 28.7634 21.5979 28.1882 21.1557 27.7839L18.2227 25.1033L17.6934 23.8898C17.2684 22.9156 16.3937 22.203 15.3538 21.9835C12.3994 21.3603 12.3158 21.3603 12.1771 21.3603C12.1179 21.3603 12.0599 21.3658 12.0035 21.376L11.7645 20.2405L13.6345 19.8028C13.7712 19.7708 13.8995 19.7097 14.0104 19.6236L17.9719 16.5506L21.0262 15.153C21.3737 14.994 21.5965 14.6471 21.5965 14.265V12.3734C21.5965 10.0202 19.682 8.10586 17.329 8.10586H9.04619C7.96455 8.10586 6.93262 8.51143 6.14072 9.24766L5.86895 9.5002C5.08311 10.2308 4.82891 11.348 5.22139 12.3467C5.48828 13.026 6.01191 13.5418 6.65713 13.8022V14.5197L5.38281 17.179C5.25107 17.4539 5.25527 17.7746 5.39424 18.0459C6.16279 19.5477 7.01338 21.2661 7.17988 21.6869C7.19502 21.7698 7.2209 21.8511 7.25732 21.928C7.48828 22.4169 7.83984 22.5195 9.4627 22.9238C10.0476 23.0695 10.6181 23.2027 10.864 23.2597L10.376 24.7454C10.1052 25.5697 10.1673 26.4523 10.5511 27.2306L11.7578 29.6778C11.8665 29.8982 11.9126 30.144 11.8909 30.3891L11.7468 32.0203C11.6759 32.8226 11.8512 33.6152 12.2538 34.3126L13.8684 37.1092H4.10205V33.1053C4.10205 32.566 3.66475 32.1287 3.12549 32.1287C2.58623 32.1287 2.14893 32.566 2.14893 33.1053V38.0856C2.14893 38.6249 2.58623 39.0622 3.12549 39.0622H24.0236V44.3088C22.887 44.7119 22.0705 45.7974 22.0705 47.0705C22.0705 48.6859 23.3848 50.0002 25.0002 50.0002C26.6156 50.0002 27.9299 48.6859 27.9299 47.0705C27.9299 45.7975 27.1134 44.7119 25.9768 44.3088V39.0622H46.8749C47.4142 39.0622 47.8515 38.6249 47.8515 38.0856V7.03115H49.0233C49.5626 7.03115 49.9999 6.59395 49.9999 6.05459V0.976562C49.9999 0.437207 49.5626 0 49.0233 0ZM7.20547 21.2201C7.21318 21.1944 7.22217 21.1685 7.23242 21.1424C7.22236 21.1679 7.21338 21.1938 7.20547 21.2201ZM9.65664 19.7084L9.93457 21.0288C9.52363 20.9263 9.1584 20.8308 8.90791 20.7586C8.86309 20.6577 8.8124 20.5491 8.75703 20.4304C8.60049 20.0946 8.3792 19.6381 8.09902 19.0732C7.82178 18.5145 7.53984 17.9565 7.35273 17.5879L8.51445 15.1636C8.57754 15.0318 8.61025 14.8876 8.61025 14.7416V13.0141C8.61025 12.4747 8.17295 12.0375 7.63369 12.0375C7.24082 12.0375 7.08691 11.7542 7.03906 11.6323C6.99121 11.5104 6.91084 11.1982 7.19863 10.9308L7.47041 10.6781C7.8999 10.2788 8.45957 10.0589 9.04619 10.0589H17.3289C18.6051 10.0589 19.6434 11.0972 19.6434 12.3734V13.6379L17.0564 14.8216C16.9881 14.8528 16.9235 14.8919 16.8642 14.938L12.9817 17.9497L10.3895 18.5563C9.87285 18.6773 9.54727 19.1891 9.65664 19.7084ZM13.5096 28.814L12.3028 26.3668C12.1466 26.05 12.1213 25.6906 12.2316 25.355L12.8546 23.4584C13.2819 23.5452 13.9394 23.6812 14.9507 23.8946C15.3741 23.984 15.7302 24.2741 15.9032 24.6707L16.5155 26.0745C16.5703 26.2 16.6508 26.3126 16.7519 26.405L19.8382 29.2255C19.8613 29.2467 19.8727 29.2731 19.8717 29.3045C19.8707 29.3356 19.858 29.3614 19.8337 29.3811L17.2574 31.4706C16.2924 32.2535 15.6123 33.3525 15.3425 34.5653L15.1513 35.4248L13.9456 33.3361C13.7447 32.9882 13.6572 32.5927 13.6926 32.1922L13.8367 30.5609C13.8896 29.9594 13.7766 29.3553 13.5096 28.814ZM25.0002 48.0469C24.4617 48.0469 24.0236 47.6088 24.0236 47.0703C24.0236 46.5318 24.4617 46.0938 25.0002 46.0938C25.5387 46.0938 25.9768 46.5318 25.9768 47.0703C25.9768 47.6088 25.5387 48.0469 25.0002 48.0469ZM30.5676 28.284C30.5366 28.2101 30.5293 28.123 30.5181 27.9628C30.4915 27.5823 30.4469 26.9455 29.7892 26.3594C29.2939 25.918 28.775 25.7889 28.2992 25.7889C27.8997 25.7889 27.5306 25.88 27.2313 25.9537C27.0327 26.0026 26.8451 26.0489 26.6862 26.0639C25.674 26.1583 24.7713 25.7739 24.2109 25.0079C23.651 24.2422 23.557 23.2673 23.9533 22.3331C24.4055 21.2674 25.8446 19.404 26.6521 19.013C26.9877 18.8867 28.0707 18.7477 28.7417 18.78C28.7311 18.8834 28.7367 18.9889 28.7599 19.0926C28.8217 19.3703 29.0016 19.6073 29.2523 19.7416C29.3427 19.7899 29.536 19.9196 29.723 20.0452C30.687 20.692 31.369 21.1091 32.0334 21.0251C32.6888 20.9418 33.0061 20.6055 33.1659 20.3309C33.2429 20.3537 33.3198 20.3763 33.396 20.3985C33.9425 20.5583 34.6226 20.7572 34.8673 21.0053C35.15 21.2918 35.3858 21.9157 35.5938 22.4661C35.7187 22.7967 35.848 23.1384 35.9972 23.4407C36.0527 23.5532 36.1077 23.6712 36.1639 23.7917C36.5455 24.61 37.0204 25.6284 38.0785 26.1147C38.3815 26.254 38.6875 26.321 38.9533 26.3618C38.7031 26.7699 38.3638 27.0713 38.0077 27.3873C37.2339 28.0743 36.2709 28.9292 36.5086 30.7902C36.6123 31.6024 36.5031 31.7664 36.0972 32.3762C35.9349 32.62 35.7328 32.9234 35.5186 33.3142C35.3217 33.6732 35.1714 34.0421 35.0261 34.3987C34.8806 34.7558 34.7433 35.0929 34.5842 35.3533C33.979 36.3444 33.2859 36.967 33.0138 37.0237C32.9104 36.9273 32.7154 36.6549 32.395 35.8929C32.2807 35.6212 32.1497 35.3393 32.0111 35.0409C31.6423 34.2468 31.2241 33.3468 31.1764 32.7134C31.1629 32.5349 31.2279 32.3432 31.3354 32.0452C31.5337 31.4944 31.8054 30.7402 31.4259 29.7427C31.2802 29.3598 31.0676 29.0573 30.8801 28.7905C30.7523 28.6087 30.6314 28.4366 30.5676 28.284ZM45.8983 37.109H43.9452V33.1376C43.9452 32.5983 43.5079 32.161 42.9687 32.161C42.4294 32.161 41.9921 32.5983 41.9921 33.1376V37.109H35.7521C35.9596 36.8319 36.1286 36.5725 36.2513 36.3715C36.4928 35.9764 36.6668 35.549 36.8352 35.1358C36.9654 34.8161 37.0886 34.5141 37.2315 34.2531C37.4054 33.936 37.5671 33.6934 37.7233 33.4585C38.2165 32.7178 38.6424 32.078 38.4462 30.5429C38.3392 29.7051 38.6418 29.4364 39.3047 28.848C39.8065 28.4024 40.4311 27.848 40.856 26.9426C40.9896 26.6577 41.3446 25.901 40.9704 25.2266C40.6217 24.598 39.9437 24.517 39.4952 24.4634C39.2741 24.4369 39.0455 24.4096 38.8946 24.3402C38.4879 24.1532 38.2063 23.5498 37.9342 22.9662C37.8717 22.8322 37.8104 22.7012 37.7488 22.5761C37.6416 22.359 37.5346 22.0757 37.4212 21.7757C37.1446 21.0439 36.8312 20.2146 36.258 19.6335C35.6573 19.0247 34.7473 18.7587 33.9445 18.5239C33.6882 18.4489 33.4461 18.3781 33.2507 18.3061C33.055 18.2338 32.8415 18.2262 32.6414 18.284C32.1123 18.4368 31.8234 18.7138 31.6596 18.9604C31.4203 18.8276 31.1129 18.6249 30.9002 18.4827C30.9353 17.9935 30.704 17.6505 30.5994 17.5224C30.1543 16.9774 29.3179 16.761 27.9693 16.8424C27.7207 16.8573 27.4453 16.8847 27.1729 16.9219C27.2547 16.63 27.3622 16.2812 27.4495 16.1722C27.4719 16.1443 27.4927 16.1179 27.5123 16.0928C27.586 16.0805 27.6684 16.0646 27.7607 16.0442C28.8073 15.8132 30.7482 15.8692 32.0199 16.0567C33.9798 16.3457 36.3186 17.1988 37.0044 18.7265C37.1277 19.0011 37.2512 19.3741 37.382 19.7691C37.7388 20.8461 38.1432 22.0667 38.9855 22.8207C39.2352 23.0441 39.533 23.1422 39.8771 23.1422C40.5123 23.1422 41.3041 22.8079 42.2366 22.3113C43.0585 21.8737 44.1401 21.2032 44.4406 20.9028C44.822 20.5215 44.8221 19.9031 44.4407 19.5218C44.0647 19.1457 43.4582 19.1404 43.0757 19.506C42.6831 19.8383 40.864 20.9128 40.0917 21.1451C39.7356 20.6632 39.4623 19.8381 39.236 19.155C39.089 18.7112 38.9501 18.2921 38.7859 17.9264C37.516 15.0981 33.5041 14.3013 32.3048 14.1244C31.1219 13.95 28.8234 13.8094 27.3396 14.1369C27.153 14.1781 27.0829 14.1804 27.0542 14.1804C27.0491 14.1805 27.0449 14.1804 27.0405 14.1804C26.4359 14.1804 26.1837 14.5783 26.1005 14.7095C26.0729 14.753 26.0312 14.8189 25.9266 14.9491C25.7919 15.1168 25.6825 15.3112 25.5903 15.519C25.2267 15.0706 24.8508 14.5662 24.8053 14.327C24.7921 13.7782 25.7516 12.0241 26.1605 11.726C26.6836 11.3645 27.4396 11.1981 28.2397 11.022C29.1758 10.8159 30.1437 10.6028 30.9759 10.0406C31.7934 9.48828 32.4484 8.52764 33.0265 7.68018C33.1831 7.45039 33.3339 7.22959 33.478 7.03096H45.8986V37.1086H45.8983V37.109ZM48.0468 5.07803H1.95361V1.95312H48.0469V5.07803H48.0468Z" fill="black"/>
<path d="M3.12549 30.0455C3.38232 30.0455 3.63428 29.941 3.81582 29.7594C3.99746 29.5768 4.10205 29.3258 4.10205 29.0689C4.10205 28.8121 3.99756 28.5602 3.81582 28.3775C3.63428 28.1959 3.38232 28.0924 3.12549 28.0924C2.86865 28.0924 2.6167 28.1959 2.43506 28.3775C2.25342 28.5602 2.14893 28.8121 2.14893 29.0689C2.14893 29.3258 2.25332 29.5777 2.43506 29.7594C2.6167 29.941 2.86865 30.0455 3.12549 30.0455Z" fill="black"/>
<path d="M43.7495 11.1317C44.0063 11.1317 44.2583 11.0272 44.4398 10.8456C44.6215 10.663 44.7261 10.412 44.7261 10.1552C44.7261 9.89834 44.6216 9.64639 44.4398 9.46474C44.2583 9.28213 44.0063 9.17861 43.7495 9.17861C43.4927 9.17861 43.2407 9.28213 43.0591 9.46474C42.8774 9.64639 42.7729 9.89736 42.7729 10.1552C42.7729 10.412 42.8773 10.663 43.0591 10.8456C43.2407 11.0272 43.4927 11.1317 43.7495 11.1317Z" fill="black"/>
<path d="M33.9775 11.6278C34.1592 11.8095 34.4111 11.914 34.668 11.914C34.9248 11.914 35.1768 11.8095 35.3583 11.6278C35.5399 11.4462 35.6445 11.1942 35.6445 10.9374C35.6445 10.6806 35.54 10.4286 35.3583 10.247C35.1768 10.0653 34.9248 9.96084 34.668 9.96084C34.4111 9.96084 34.1592 10.0653 33.9775 10.247C33.7959 10.4286 33.6914 10.6806 33.6914 10.9374C33.6914 11.1942 33.7958 11.4462 33.9775 11.6278Z" fill="black"/>
<path d="M41.6157 15.8201C41.8727 15.8201 42.1245 15.7156 42.3062 15.534C42.4878 15.3523 42.5923 15.1004 42.5923 14.8436C42.5923 14.5867 42.4879 14.3348 42.3062 14.1531C42.1245 13.9715 41.8727 13.867 41.6157 13.867C41.3579 13.867 41.1069 13.9715 40.9254 14.1531C40.7428 14.3348 40.6392 14.5867 40.6392 14.8436C40.6392 15.1004 40.7428 15.3523 40.9254 15.534C41.1069 15.7156 41.358 15.8201 41.6157 15.8201Z" fill="black"/>
<path d="M12.5 13.4764C12.7568 13.4764 13.0088 13.3719 13.1903 13.1902C13.372 13.0086 13.4766 12.7566 13.4766 12.4998C13.4766 12.243 13.3721 11.991 13.1903 11.8094C13.0088 11.6277 12.7568 11.5232 12.5 11.5232C12.2432 11.5232 11.9912 11.6277 11.8096 11.8094C11.6279 11.991 11.5234 12.243 11.5234 12.4998C11.5234 12.7566 11.6278 13.0086 11.8096 13.1902C11.9913 13.3719 12.2432 13.4764 12.5 13.4764Z" fill="black"/>
<path d="M26.9365 22.0866C26.6797 22.0866 26.4277 22.1901 26.2461 22.3728C26.0645 22.5544 25.96 22.8054 25.96 23.0632C25.96 23.32 26.0644 23.572 26.2461 23.7536C26.4278 23.9353 26.6797 24.0397 26.9365 24.0397C27.1934 24.0397 27.4453 23.9353 27.6269 23.7536C27.8095 23.572 27.9131 23.32 27.9131 23.0632C27.9131 22.8064 27.8095 22.5544 27.6269 22.3728C27.4453 22.1901 27.1934 22.0866 26.9365 22.0866Z" fill="black"/>
<path d="M34.1475 31.9986C34.4043 31.9986 34.6563 31.8941 34.8379 31.7125C35.0194 31.5309 35.124 31.2789 35.124 31.0221C35.124 30.7643 35.0195 30.5133 34.8379 30.3316C34.6563 30.149 34.4043 30.0455 34.1475 30.0455C33.8896 30.0455 33.6377 30.149 33.457 30.3316C33.2744 30.5133 33.1709 30.7643 33.1709 31.0221C33.1709 31.2789 33.2744 31.5309 33.457 31.7125C33.6387 31.8941 33.8896 31.9986 34.1475 31.9986Z" fill="black"/>
<path d="M16.0176 30.0455C16.2744 30.0455 16.5264 29.941 16.708 29.7594C16.8896 29.5777 16.9941 29.3258 16.9941 29.0689C16.9941 28.8111 16.8897 28.5602 16.708 28.3785C16.5264 28.1959 16.2744 28.0924 16.0176 28.0924C15.7607 28.0924 15.5088 28.1959 15.3272 28.3785C15.1456 28.5602 15.041 28.8112 15.041 29.0689C15.041 29.3258 15.1455 29.5777 15.3272 29.7594C15.5089 29.941 15.7608 30.0455 16.0176 30.0455Z" fill="black"/>
</g>
<defs>
<clipPath id="clip0">
<rect width="50" height="50" fill="white"/>
</clipPath>
</defs>
</svg>
