<svg width="50" height="50" viewBox="0 0 50 50" fill="none" xmlns="http://www.w3.org/2000/svg">
<g clip-path="url(#clip0)">
<path d="M10.6449 40.043C6.76644 40.043 4.05676 38.8819 2.89054 36.6731V36.673C1.4617 33.9668 2.63847 30.2342 6.20392 26.1629C9.45493 22.4505 14.3917 18.7449 20.1048 15.7285C25.8181 12.712 31.6625 10.7256 36.5616 10.1349C41.9348 9.48692 45.6806 10.6206 47.1093 13.3269C48.538 16.033 47.3614 19.7656 43.7959 23.8371C40.5449 27.5494 35.6082 31.2551 29.895 34.2715C24.1818 37.2879 18.3373 39.2744 13.4382 39.8651C12.4508 39.9842 11.5181 40.043 10.6449 40.043V40.043ZM5.4938 35.2986C6.28925 36.8053 9.1273 37.4198 13.0859 36.9424C17.6365 36.3939 23.1179 34.5207 28.5207 31.6683C33.9233 28.8158 38.5617 25.3459 41.5814 21.8978C44.2082 18.8982 45.3016 16.208 44.5061 14.7013C43.7108 13.1948 40.8728 12.5803 36.914 13.0576C32.3636 13.6063 26.882 15.4793 21.4793 18.3318C16.0766 21.1842 11.4382 24.6542 8.41854 28.1023C5.79185 31.1019 4.69845 33.7921 5.4938 35.2986V35.2986Z" fill="#FF8856"/>
<path d="M36.5615 10.1349C33.0559 10.5575 29.0662 11.6953 24.9868 13.4133V16.6214C29.2103 14.7309 33.3479 13.4875 36.9138 13.0575C40.8726 12.5802 43.7106 13.1948 44.5059 14.7012C45.3013 16.2079 44.2079 18.8981 41.5812 21.8976C38.5615 25.3458 33.9232 28.8157 28.5204 31.6682C27.3428 32.29 26.1614 32.8651 24.9868 33.3902V36.5975C26.6169 35.912 28.2613 35.134 29.8949 34.2715C35.6081 31.2551 40.5449 27.5493 43.7958 23.837C47.3612 19.7656 48.5379 16.033 47.1092 13.3269C45.6803 10.6206 41.9347 9.48699 36.5615 10.1349V10.1349Z" fill="#FF641A"/>
<path d="M39.2179 40.5671C38.1116 40.5671 36.9018 40.4564 35.5977 40.2324C30.8262 39.4126 25.1971 37.1785 19.7473 33.9417C14.2975 30.7049 9.64234 26.831 6.6394 23.0334C3.34603 18.8685 2.37671 15.1531 3.90991 12.5716C5.44311 9.99014 9.16935 9.06388 14.4024 9.96281C19.1738 10.7827 24.803 13.0167 30.2529 16.2535C35.7026 19.4902 40.3577 23.3642 43.3607 27.1619C46.654 31.3267 47.6235 35.0421 46.0902 37.6236C44.9391 39.5618 42.551 40.5671 39.2179 40.5671V40.5671ZM10.7458 12.5129C8.54523 12.5129 6.99036 13.0411 6.39319 14.0465C5.53966 15.4836 6.47861 18.1734 8.90498 21.2419C11.6942 24.7693 16.0685 28.3976 21.2221 31.4584C26.3757 34.5192 31.6548 36.6243 36.0867 37.3858C39.9421 38.0483 42.7533 37.5857 43.607 36.1486C44.4605 34.7116 43.5215 32.0217 41.0951 28.9533C38.3059 25.4259 33.9316 21.7976 28.7779 18.7366C23.6243 15.6758 18.3452 13.5708 13.9132 12.8094C12.7551 12.6104 11.6907 12.5129 10.7458 12.5129V12.5129Z" fill="#00FFE7"/>
<path d="M30.2529 16.2534C28.5047 15.2152 26.7382 14.2807 24.9873 13.4623V16.6679C26.2488 17.2966 27.5172 17.9877 28.7779 18.7365C33.9316 21.7974 38.3059 25.4258 41.0951 28.9531C43.5214 32.0216 44.4605 34.7115 43.607 36.1485C42.7534 37.5856 39.9422 38.0481 36.0868 37.3857C32.7317 36.8092 28.8912 35.4623 24.9873 33.5143V36.7209C28.7034 38.46 32.3493 39.6742 35.5977 40.2323C36.9017 40.4564 38.1115 40.567 39.2178 40.567C42.5509 40.567 44.939 39.5615 46.0901 37.6235C47.6234 35.042 46.6539 31.3267 43.3606 27.1617C40.3577 23.3642 35.7026 19.4902 30.2529 16.2534Z" fill="#00DDC1"/>
<path d="M25.2622 50C22.2283 50.0001 19.4664 47.2566 17.4787 42.2649C15.6532 37.6803 14.6012 31.5979 14.5163 25.1378C14.4314 18.6778 15.3233 12.5697 17.0275 7.93875C18.8967 2.85982 21.6113 0.0406119 24.6712 0.000390499C24.6932 9.76248e-05 24.7154 0 24.7375 0C27.7715 0 30.5334 2.74326 32.5209 7.73501C34.3463 12.3196 35.3984 18.4021 35.4835 24.8622C35.5684 31.3222 34.6765 37.4303 32.9721 42.0612C31.1029 47.1402 28.3883 49.9594 25.3284 49.9996C25.3064 49.9999 25.2842 50 25.2622 50ZM24.7358 2.94388C24.7271 2.94388 24.7186 2.94397 24.71 2.94407C23.0065 2.96643 21.1674 5.21375 19.7902 8.95551C18.2072 13.257 17.3795 18.9902 17.4598 25.099C17.5401 31.208 18.5181 36.9175 20.2137 41.1758C21.6812 44.8613 23.5672 47.0561 25.2639 47.0561C25.2726 47.0561 25.2811 47.0561 25.2897 47.0559C26.9931 47.0336 28.8323 44.7862 30.2094 41.0445C31.7925 36.743 32.62 31.0098 32.5398 24.9009C32.4594 18.7918 31.4814 13.0823 29.7859 8.82401C28.3184 5.13848 26.4325 2.94388 24.7358 2.94388V2.94388Z" fill="#1F5C99"/>
<path d="M29.5028 27.6744C28.0257 30.1613 24.8123 30.98 22.3254 29.5029C19.8385 28.0259 19.0198 24.8125 20.4969 22.3256C21.9739 19.8387 25.1874 19.02 27.6742 20.4971C30.1611 21.9741 30.9798 25.1875 29.5028 27.6744V27.6744Z" fill="#FA184B"/>
<path d="M27.6743 20.4981C26.8277 19.9953 25.8969 19.7591 24.979 19.7636V30.238C26.772 30.2434 28.521 29.3286 29.5029 27.6755C30.98 25.1887 30.1613 21.9752 27.6743 20.4981Z" fill="#BD0533"/>
<path d="M32.521 7.735C30.588 2.88031 27.9227 0.153261 24.9869 0.00701904V2.96115C26.6167 3.1643 28.3904 5.31927 29.786 8.824C31.4815 13.0823 32.4596 18.7919 32.5398 24.9009C32.6201 31.0098 31.7925 36.743 30.2095 41.0445C28.8324 44.7862 26.9932 47.0337 25.2897 47.0559C25.2812 47.0561 25.2727 47.0561 25.264 47.0561C25.1722 47.0561 25.0797 47.0484 24.9868 47.0357V49.9922C25.0784 49.9973 25.1702 50 25.2622 50C25.2843 50 25.3064 49.9999 25.3284 49.9996C28.3883 49.9594 31.1029 47.1401 32.972 42.0612C34.6765 37.4303 35.5683 31.3222 35.4834 24.8622C35.3985 18.4022 34.3464 12.3196 32.521 7.735V7.735Z" fill="#0E365C"/>
<path d="M46.3049 39.4829C45.3105 41.1573 43.147 41.7085 41.4726 40.7141C39.7983 39.7197 39.2471 37.5561 40.2416 35.8818C41.236 34.2074 43.3995 33.6562 45.0739 34.6506C46.7483 35.6451 47.2994 37.8086 46.3049 39.4829Z" fill="#FFD396"/>
<path d="M45.0735 34.6515C44.5035 34.313 43.8769 34.1539 43.2588 34.157V41.2091C44.4659 41.2128 45.6436 40.5969 46.3046 39.4839C47.2991 37.8095 46.7479 35.6459 45.0735 34.6515Z" fill="#FF9F00"/>
<path d="M10.6707 13.5033C9.67626 15.1776 7.5127 15.7288 5.83834 14.7344C4.16398 13.74 3.61279 11.5764 4.60729 9.90209C5.6017 8.22773 7.76526 7.67654 9.43962 8.67094C11.114 9.66535 11.6652 11.8289 10.6707 13.5033Z" fill="#FFD396"/>
<path d="M9.43926 8.67173C8.86923 8.33317 8.24257 8.17414 7.62451 8.17717V15.2293C8.83164 15.233 10.0093 14.6171 10.6703 13.5041C11.6648 11.8297 11.1136 9.66624 9.43926 8.67173Z" fill="#FF9F00"/>
</g>
<defs>
<clipPath id="clip0">
<rect width="50" height="50" fill="white"/>
</clipPath>
</defs>
</svg>
