<svg width="50" height="50" viewBox="0 0 50 50" fill="none" xmlns="http://www.w3.org/2000/svg">
<g clip-path="url(#clip0)">
<path d="M48.3604 9.83607V36.8853C48.3604 37.3379 47.9934 37.7049 47.5407 37.7049H24.5899V27.0492C24.5888 26.8966 24.5667 26.7449 24.5243 26.5984V26.5902C28.6688 20.9242 27.6135 12.9989 22.1309 8.61476V2.45902C22.1309 2.00633 22.4978 1.63935 22.9505 1.63935H40.1636L48.3604 9.83607Z" fill="#009688"/>
<path d="M40.1641 1.63935H37.7051L45.9018 9.83607V36.8853C45.9018 37.3379 45.5348 37.7049 45.0821 37.7049H47.5411C47.9938 37.7049 48.3608 37.3379 48.3608 36.8853V9.83607L40.1641 1.63935Z" fill="#00695C"/>
<path d="M20.549 23.6475L19.8932 23.9098C19.1884 23.8009 18.475 23.757 17.7621 23.7787C15.6309 23.7787 11.9785 24.6377 11.5326 26.6475C8.12263 25.6036 5.77895 22.4747 5.73595 18.9087C5.69295 15.3428 7.9605 12.1583 11.3443 11.0324C14.7281 9.90652 18.4515 11.0977 20.5536 13.9785C22.6556 16.8593 22.6537 20.7687 20.549 23.6475V23.6475Z" fill="#FFEB3A"/>
<path d="M13.9344 10.6148C13.537 10.618 13.1403 10.65 12.7476 10.7107C15.5649 11.1648 17.9449 13.0484 19.0342 15.6861C20.1235 18.3238 19.7661 21.3377 18.0902 23.6475L17.7623 23.7787C18.4752 23.757 19.1886 23.8009 19.8935 23.9098L20.5492 23.6475C22.362 21.1545 22.6249 17.8558 21.2298 15.1071C19.8347 12.3584 17.0169 10.6233 13.9344 10.6148V10.6148Z" fill="#FFDC00"/>
<path d="M42.6226 37.7049V41.8033C42.6226 42.256 42.2556 42.623 41.803 42.623H24.5898V37.7049H42.6226Z" fill="#00695C"/>
<path d="M48.3603 9.83607H40.9832C40.5306 9.83607 40.1636 9.46909 40.1636 9.0164V1.63935L48.3603 9.83607Z" fill="#CFD8DC"/>
<path d="M5.7376 18.8525C5.73634 20.2915 6.11524 21.7053 6.83596 22.9508L2.57366 25.4098C-0.389249 20.2669 0.464094 13.7761 4.65563 9.57378L8.13923 13.0574C6.59957 14.5926 5.73526 16.6782 5.7376 18.8525Z" fill="#60A917"/>
<path d="M13.9344 5.7377V10.6557C11.7602 10.6534 9.67461 11.5177 8.13937 13.0574L4.65576 9.57377C7.1167 7.11391 10.4549 5.7338 13.9344 5.7377Z" fill="#FFDC00"/>
<path d="M25.2952 12.2951L21.0329 14.7541C21.0001 14.6967 20.9673 14.6393 20.9346 14.5902C19.4488 12.1459 16.795 10.6543 13.9346 10.6557V5.73771C18.6203 5.73936 22.95 8.23843 25.2952 12.2951Z" fill="#0377BC"/>
<path d="M23.4428 13.2623L20.9346 14.5902C19.4488 12.1459 16.795 10.6543 13.9346 10.6557V6.46722C16.3319 6.84461 18.5753 7.88681 20.41 9.47541C21.6525 10.5334 22.6818 11.8186 23.4428 13.2623V13.2623Z" fill="#02A9F4"/>
<path d="M27.0489 18.8525C27.0542 21.6349 26.1696 24.3462 24.5244 26.5902C24.2656 25.8865 23.7502 25.3067 23.0817 24.9672C22.2308 24.4753 21.2977 24.142 20.3276 23.9836C22.4435 21.3469 22.7234 17.6816 21.0326 14.7541L23.3932 13.3935L25.2948 12.2951C26.4479 14.2878 27.0531 16.5502 27.0489 18.8525Z" fill="#BB193B"/>
<path d="M24.5899 18.8525C24.5947 20.9834 24.0768 23.0829 23.0817 24.9672C22.2308 24.4753 21.2977 24.142 20.3276 23.9836C22.4435 21.3469 22.7234 17.6816 21.0326 14.7541L23.3932 13.3934C24.1859 15.1039 24.5944 16.9672 24.5899 18.8525Z" fill="#EF314C"/>
<path d="M24.5898 27.0492V43.4426C24.5898 44.6639 23.2456 45.7377 21.262 46.2951C20.21 46.584 19.1234 46.7275 18.0325 46.7213C16.6305 46.7397 15.2376 46.495 13.9259 46C13.844 46.6799 13.466 47.2889 12.8931 47.6639C12.2148 48.1704 11.4432 48.5381 10.6226 48.7459C10.6226 48.7504 10.6189 48.7541 10.6144 48.7541C9.55965 49.043 8.47033 49.1864 7.37671 49.1803C3.75376 49.1803 0.819336 47.7131 0.819336 45.9016V37.7049C0.856721 37.0626 1.17441 36.4692 1.68819 36.082C2.81114 35.0902 4.94229 34.4262 7.37671 34.4262C7.92467 34.4251 8.47217 34.4579 9.01606 34.5246C9.85813 34.6308 10.684 34.84 11.4751 35.1475V27.0492C11.4766 26.9279 11.4903 26.8071 11.5161 26.6885C11.6437 26.1937 11.9284 25.7536 12.3275 25.4344C13.4587 24.4426 15.5898 23.7705 18.0325 23.7705C18.8025 23.7677 19.5711 23.8391 20.3275 23.9836C20.9447 24.0935 21.549 24.2665 22.1308 24.5C23.202 24.8021 24.0807 25.5695 24.5243 26.5902V26.5984C24.5667 26.7449 24.5887 26.8966 24.5898 27.0492V27.0492Z" fill="#FFDC00"/>
<path d="M24.5248 26.5984V26.5902C24.1887 25.3852 22.5412 24.3934 20.3281 23.9836C19.5717 23.8391 18.8031 23.7677 18.033 23.7705C17.6174 23.7705 17.2133 23.7967 16.8207 23.8336C17.1814 23.8697 17.533 23.9156 17.8691 23.9836C20.0822 24.3934 21.7297 25.3852 22.0658 26.5902V26.5984C22.1082 26.7449 22.1303 26.8966 22.1314 27.0492V43.4426C22.1314 44.6639 20.7871 45.7377 18.8035 46.2951C18.1437 46.4767 17.4688 46.5982 16.7871 46.6582C17.1912 46.6967 17.6068 46.7213 18.033 46.7213C19.1239 46.7274 20.2105 46.584 21.2625 46.2951C23.2461 45.7377 24.5904 44.6639 24.5904 43.4426V27.0492C24.5893 26.8966 24.5672 26.7449 24.5248 26.5984V26.5984Z" fill="#FEC108"/>
<path d="M11.467 46C11.3851 46.6799 11.0071 47.2889 10.4342 47.6639C9.75592 48.1704 8.98436 48.5381 8.16374 48.7459C8.16374 48.7504 8.16007 48.7541 8.15554 48.7541C7.48895 48.9368 6.80721 49.0589 6.11865 49.1189C6.52849 49.1582 6.94652 49.1803 7.37685 49.1803C8.47047 49.1864 9.55978 49.043 10.6146 48.7541C10.6191 48.7541 10.6228 48.7504 10.6228 48.7459C11.4434 48.5381 12.2149 48.1704 12.8932 47.6639C13.2757 47.387 13.5794 47.0153 13.7744 46.5852C12.985 46.4813 12.2105 46.2849 11.467 46V46Z" fill="#FEC108"/>
<path d="M13.9341 37.7049C13.9354 37.7379 13.9327 37.771 13.9259 37.8033C13.8275 39.5656 10.9341 40.9836 7.37671 40.9836C6.96344 40.9855 6.55033 40.9664 6.13901 40.9262C3.10622 40.6393 0.819336 39.3033 0.819336 37.7049C0.819336 36.1066 3.11442 34.7705 6.1472 34.4836C6.55579 34.4435 6.96616 34.4243 7.37671 34.4262C8.77589 34.4086 10.166 34.6532 11.4751 35.1475C12.9751 35.7459 13.9341 36.6721 13.9341 37.7049Z" fill="#FDD834"/>
<path d="M11.5901 31.7623C11.5573 31.7541 11.5164 31.7459 11.4754 31.7377C7.72963 31.0221 4.4805 28.7124 2.57373 25.4098L6.83602 22.9508C7.87051 24.741 9.54167 26.0756 11.5164 26.6885C11.4906 26.8071 11.4769 26.9279 11.4754 27.0492V31.1476C11.4762 31.3577 11.5151 31.566 11.5901 31.7623Z" fill="#9D27B0"/>
<path d="M24.5899 27.0492C24.5899 28.8607 21.6554 30.3279 18.0325 30.3279C17.6219 30.3298 17.2116 30.3106 16.803 30.2705C13.7702 29.9836 11.4751 28.6475 11.4751 27.0492C11.4766 26.9279 11.4903 26.8071 11.5161 26.6885C11.5161 26.6721 11.5243 26.6639 11.5325 26.6475C11.5682 26.4925 11.6262 26.3434 11.7046 26.2049C12.3358 25 14.3112 24.0656 16.7784 23.8279C17.098 23.8033 17.4259 23.7787 17.762 23.7787C17.8521 23.7705 17.9423 23.7705 18.0325 23.7705C18.6553 23.7699 19.2773 23.8165 19.8931 23.9098C20.0407 23.9344 20.1882 23.959 20.3276 23.9836C22.5407 24.3934 24.1882 25.3852 24.5243 26.5902V26.5984C24.5667 26.7449 24.5887 26.8966 24.5899 27.0492V27.0492Z" fill="#FDD834"/>
<path d="M11.4751 37.7049C11.4764 37.7379 11.4737 37.771 11.4669 37.8033C11.3767 39.3607 9.11442 40.6475 6.13901 40.9262C3.10622 40.6393 0.819336 39.3033 0.819336 37.7049C0.819336 36.1066 3.11442 34.7705 6.1472 34.4836C7.13031 34.5666 8.09644 34.7902 9.01606 35.1475C10.5161 35.7459 11.4751 36.6721 11.4751 37.7049Z" fill="#FFEB3A"/>
<path d="M22.1308 27.0492C22.1308 28.6475 19.8358 29.9836 16.803 30.2705C13.7702 29.9836 11.4751 28.6475 11.4751 27.0492C11.4766 26.9279 11.4903 26.8071 11.5161 26.6885C11.8276 25.2541 13.9915 24.0984 16.7784 23.8279C17.1554 23.8607 17.5161 23.918 17.8685 23.9836C20.0817 24.3934 21.7292 25.3852 22.0653 26.5902V26.5984C22.1077 26.7449 22.1297 26.8966 22.1308 27.0492V27.0492Z" fill="#FFEB3A"/>
<path d="M48.9412 9.2623L40.7445 1.06558C40.4043 0.723774 41.6838 0.819676 22.9511 0.819676C22.0457 0.819676 21.3117 1.55364 21.3117 2.45902V7.04918C16.6389 4.11923 10.6771 4.22366 6.1097 7.31547C1.54235 10.4073 -0.769497 15.9036 0.21474 21.3305C1.19898 26.7574 5.29376 31.0918 10.656 32.3828V34.0098C6.08385 32.809 0.000242413 34.3623 0.000242413 37.7049V45.9016C0.000242413 50.7746 12.3142 51.4754 14.4773 47.0492C19.0527 48.4025 25.4101 46.8803 25.4101 43.4426H41.8035C42.7089 43.4426 43.4429 42.7087 43.4429 41.8033V38.5246H47.5412C48.4466 38.5246 49.1806 37.7906 49.1806 36.8852C49.1806 8.26558 49.2986 9.61968 48.9412 9.2623V9.2623ZM40.9838 3.61804L46.3822 9.0164H40.9838V3.61804ZM14.7543 41.323V38.9246C18.1707 39.8262 21.7953 39.1926 23.7707 37.859V39.3443C23.7707 40.9771 19.0166 42.6771 14.7543 41.3213V41.323ZM1.63959 40.3393C4.515 42.2943 10.2404 42.2934 13.115 40.3393V41.8033C13.115 42.9639 10.6609 44.2623 7.37729 44.2623C4.09368 44.2623 1.63959 42.9639 1.63959 41.8033V40.3393ZM8.71909 13.6361C11.4276 10.9488 15.7383 10.7702 18.6598 13.2243C21.5813 15.6784 22.1494 19.9552 19.9699 23.0869C19.1365 22.9676 18.2937 22.9273 17.4527 22.9664C18.965 20.9172 17.3584 18.5238 14.7543 18.0992V14.8582C15.697 15.0902 16.3937 15.6959 16.3937 16.3934C16.3937 16.8461 16.7607 17.2131 17.2134 17.2131C18.7888 17.2131 18.1486 13.7344 14.7543 13.1812C14.7543 12.7285 14.3874 12.3615 13.9347 12.3615C13.482 12.3615 13.115 12.7285 13.115 13.1812C11.247 13.4861 9.83631 14.8098 9.83631 16.3934C9.83631 17.9771 11.247 19.3008 13.115 19.6057V22.8467C12.1724 22.6148 11.4757 22.009 11.4757 21.3115C11.4757 20.8588 11.1087 20.4918 10.656 20.4918C9.23467 20.4918 9.59041 23.4352 12.4027 24.3443C11.8667 24.6766 11.4118 25.1247 11.0716 25.6557C8.80908 24.7003 7.16978 22.6823 6.69803 20.2721C6.22627 17.8619 6.98381 15.3749 8.71909 13.6369V13.6361ZM13.115 9.87623C11.295 10.0368 9.56804 10.7521 8.16745 11.9254L5.85188 9.61066C7.87516 7.83429 10.4284 6.77566 13.115 6.59918V9.87623ZM23.7707 27.0492C23.7707 28.2098 21.3166 29.5082 18.033 29.5082C14.7494 29.5082 12.2953 28.2098 12.2953 27.0492C12.2953 25.8885 14.7494 24.5902 18.033 24.5902C21.3166 24.5902 23.7707 25.8885 23.7707 27.0492ZM13.115 17.9287C10.9371 17.3934 10.9371 15.3934 13.115 14.8582V17.9287ZM14.7543 22.8467V19.7762C16.9322 20.3115 16.9322 22.3115 14.7543 22.8467ZM12.2953 31.1475V29.6844C15.1707 31.6393 20.8961 31.6385 23.7707 29.6844V31.1475C23.7707 32.3082 21.3166 33.6066 18.033 33.6066C14.7494 33.6066 12.2953 32.3082 12.2953 31.1475ZM24.542 25.0598C23.7387 24.2913 22.7536 23.7388 21.6789 23.4541C23.2079 20.9091 23.3684 17.7696 22.1068 15.082L24.9683 13.4295C26.7916 17.1312 26.6314 21.5016 24.542 25.0598ZM21.2855 13.6664C19.7633 11.5156 17.3778 10.1366 14.7543 9.89099V6.59099C18.5596 6.82827 22.0335 8.83601 24.1388 12.0148L21.2855 13.6664ZM4.69286 10.7697L7.00844 13.0852C4.77117 15.7506 4.285 19.4724 5.76254 22.623L2.915 24.268C0.706096 19.8259 1.40911 14.4883 4.69286 10.7697ZM3.73631 25.6877L6.56991 24.0484C7.58727 25.494 9.00867 26.6071 10.656 27.2484V30.6984C7.82706 29.9035 5.37386 28.1268 3.73631 25.6869V25.6877ZM12.2953 33.7828C15.1707 35.7377 20.8961 35.7369 23.7707 33.7828V35.2459C23.7707 36.9312 18.8863 38.5697 14.6953 37.1885C14.3373 36.0029 13.4514 35.0493 12.2953 34.6049V33.7828ZM10.8814 35.8033C11.0342 35.9698 11.2496 36.0649 11.4757 36.0656C11.4888 36.0656 11.5002 36.059 11.5134 36.0582C15.342 37.8451 11.6117 40.1639 7.37729 40.1639C4.09368 40.1639 1.63959 38.8656 1.63959 37.7049C1.63959 36.0303 6.67811 34.3189 10.8814 35.8033ZM7.37729 48.3607C4.09368 48.3607 1.63959 47.0623 1.63959 45.9016V44.4385C4.515 46.3934 10.2404 46.3926 13.115 44.4385V45.9016C13.115 47.0623 10.6609 48.3607 7.37729 48.3607ZM14.7543 45.4139V43.023C15.4263 43.199 16.1117 43.3188 16.8035 43.3812C17.2082 43.4616 17.6224 43.4823 18.033 43.4426C20.0468 43.5194 22.0396 43.0112 23.7707 41.9795V43.4426C23.7707 45.073 18.9855 46.7689 14.7543 45.4139ZM41.8035 41.8033H25.4101V38.5246H41.8035V41.8033ZM25.4101 36.8852V26.7418C29.4703 20.8636 28.4064 12.8636 22.9511 8.25082V2.45902H39.3445V9.0164C39.3445 9.92178 40.0785 10.6557 40.9838 10.6557H47.5412V36.8852H25.4101Z" fill="black"/>
<path d="M36.8856 8.19673C36.8856 7.74404 36.5186 7.37706 36.0659 7.37706H26.2298C25.7771 7.37706 25.4102 7.74404 25.4102 8.19673C25.4102 8.64942 25.7771 9.0164 26.2298 9.0164H36.0659C36.5186 9.0164 36.8856 8.64942 36.8856 8.19673Z" fill="black"/>
<path d="M26.2298 5.73771H36.0659C36.5186 5.73771 36.8856 5.37073 36.8856 4.91803C36.8856 4.46534 36.5186 4.09836 36.0659 4.09836H26.2298C25.7771 4.09836 25.4102 4.46534 25.4102 4.91803C25.4102 5.37073 25.7771 5.73771 26.2298 5.73771Z" fill="black"/>
<path d="M36.0655 10.6557H29.5081C29.0555 10.6557 28.6885 11.0227 28.6885 11.4754C28.6885 11.9281 29.0555 12.2951 29.5081 12.2951H36.0655C36.5182 12.2951 36.8852 11.9281 36.8852 11.4754C36.8852 11.0227 36.5182 10.6557 36.0655 10.6557Z" fill="black"/>
<path d="M44.2629 23.7705H32.1973L34.4924 20.9017C35.558 21.9672 35.6481 22.1566 36.1088 22.1312C36.3417 22.1183 36.5582 22.0068 36.7039 21.8246L39.4088 18.441L41.2203 20.2525C41.3885 20.4218 41.6221 20.5095 41.8602 20.4925C42.0983 20.4754 42.3172 20.3555 42.4596 20.1639L44.9186 16.8853C45.0943 16.651 45.1317 16.3408 45.0167 16.0715C44.9016 15.8022 44.6517 15.6147 44.3609 15.5797C44.0702 15.5446 43.7829 15.6674 43.6071 15.9016L41.7153 18.4246L39.9244 16.6336C39.7595 16.4687 39.5323 16.3818 39.2995 16.3946C39.0667 16.4074 38.8504 16.5188 38.7047 16.7008L35.9998 20.0844L35.008 19.0926C34.8432 18.9277 34.6159 18.8408 34.3831 18.8536C34.1503 18.8665 33.934 18.9778 33.7883 19.1598L31.1481 22.459V14.7541C31.1481 14.3014 30.7812 13.9344 30.3285 13.9344C29.8758 13.9344 29.5088 14.3014 29.5088 14.7541V24.5902C29.5088 25.0429 29.8758 25.4099 30.3285 25.4099H44.2629C44.7156 25.4099 45.0826 25.0429 45.0826 24.5902C45.0826 24.1375 44.7156 23.7705 44.2629 23.7705V23.7705Z" fill="black"/>
<path d="M34.4265 30.3279H31.9675V28.6885C31.9675 27.7831 31.2335 27.0492 30.3282 27.0492H28.6888C28.2361 27.0492 27.8691 27.4162 27.8691 27.8689C27.8691 28.3216 28.2361 28.6885 28.6888 28.6885H30.3282V33.6066H28.6888C28.2361 33.6066 27.8691 33.9735 27.8691 34.4262C27.8691 34.8789 28.2361 35.2459 28.6888 35.2459H30.3282C31.2335 35.2459 31.9675 34.5119 31.9675 33.6066V31.9672H34.4265C34.8792 31.9672 35.2462 31.6002 35.2462 31.1475C35.2462 30.6949 34.8792 30.3279 34.4265 30.3279Z" fill="black"/>
<path d="M44.2621 27.0492H36.8851C36.4324 27.0492 36.0654 27.4162 36.0654 27.8689C36.0654 28.3215 36.4324 28.6885 36.8851 28.6885H44.2621C44.7148 28.6885 45.0818 28.3215 45.0818 27.8689C45.0818 27.4162 44.7148 27.0492 44.2621 27.0492Z" fill="black"/>
<path d="M44.2621 33.6066H36.8851C36.4324 33.6066 36.0654 33.9735 36.0654 34.4262C36.0654 34.8789 36.4324 35.2459 36.8851 35.2459H44.2621C44.7148 35.2459 45.0818 34.8789 45.0818 34.4262C45.0818 33.9735 44.7148 33.6066 44.2621 33.6066Z" fill="black"/>
<path d="M44.2621 30.3279H36.8851C36.4324 30.3279 36.0654 30.6949 36.0654 31.1475C36.0654 31.6002 36.4324 31.9672 36.8851 31.9672H44.2621C44.7148 31.9672 45.0818 31.6002 45.0818 31.1475C45.0818 30.6949 44.7148 30.3279 44.2621 30.3279Z" fill="black"/>
</g>
<defs>
<clipPath id="clip0">
<rect width="50" height="50" fill="white"/>
</clipPath>
</defs>
</svg>
