<svg width="44" height="50" viewBox="0 0 44 50" fill="none" xmlns="http://www.w3.org/2000/svg">
<path d="M20.0449 29.8197H23.3858V33.1605H20.0449V29.8197Z" fill="#FA9F0C"/>
<path d="M22.5503 39.8422C22.5499 41.0471 22.9408 42.2196 23.6643 43.1831H1.1136C0.390749 42.2193 0 41.047 0 39.8422C0 38.6375 0.390749 37.4652 1.1136 36.5014H23.6643C22.9416 37.4653 22.5507 38.6375 22.5503 39.8422V39.8422Z" fill="#92563A"/>
<path d="M40.0898 36.5014H23.6639C22.941 37.4652 22.5503 38.6375 22.5503 39.8422C22.5503 41.047 22.941 42.2193 23.6639 43.1831H40.0898C39.3669 42.2193 38.9762 41.047 38.9762 39.8422C38.9762 38.6375 39.3669 37.4652 40.0898 36.5014Z" fill="#EAD7BC"/>
<path d="M38.4193 39.007H23.3855C22.9242 39.007 22.5503 39.381 22.5503 39.8422C22.5503 40.3035 22.9242 40.6774 23.3855 40.6774H38.4193C38.8806 40.6774 39.2545 40.3035 39.2545 39.8422C39.2545 39.381 38.8806 39.007 38.4193 39.007Z" fill="#D4C2AA"/>
<path d="M17.8694 36.5402C17.7733 36.468 17.6627 36.4173 17.5452 36.3917C17.4276 36.3661 17.306 36.3663 17.1885 36.392C17.0711 36.4178 16.9605 36.4686 16.8645 36.5411C16.7685 36.6135 16.6893 36.7058 16.6322 36.8117C16.1363 37.7447 15.877 38.7852 15.877 39.8419C15.877 40.8986 16.1363 41.9391 16.6322 42.8722C16.6893 42.978 16.7685 43.0703 16.8645 43.1428C16.9605 43.2152 17.0711 43.266 17.1885 43.2918C17.306 43.3176 17.4276 43.3177 17.5452 43.2921C17.6627 43.2665 17.7733 43.2159 17.8694 43.1436C18.0292 43.0229 18.1405 42.8489 18.183 42.6531C18.2255 42.4574 18.1965 42.2529 18.1012 42.0767C17.7361 41.3883 17.5453 40.6209 17.5453 39.8416C17.5453 39.0624 17.7361 38.295 18.1012 37.6065C18.1963 37.4304 18.2252 37.226 18.1827 37.0304C18.1402 36.8348 18.0291 36.6609 17.8694 36.5402V36.5402Z" fill="#ED8C0C"/>
<path d="M4.93937 36.8119C4.44343 37.745 4.18408 38.7855 4.18408 39.8422C4.18408 40.8989 4.44343 41.9394 4.93937 42.8724C4.99642 42.9783 5.07565 43.0706 5.17166 43.143C5.26767 43.2155 5.37819 43.2663 5.49565 43.2921C5.61312 43.3178 5.73477 43.3179 5.85229 43.2924C5.9698 43.2668 6.0804 43.2161 6.17653 43.1439C6.33634 43.0231 6.44759 42.8491 6.49011 42.6534C6.53264 42.4577 6.50361 42.2532 6.4083 42.077C6.04328 41.3885 5.85244 40.6211 5.85244 39.8419C5.85244 39.0626 6.04328 38.2952 6.4083 37.6067C6.50361 37.4306 6.53264 37.2261 6.49011 37.0304C6.44759 36.8346 6.33634 36.6606 6.17653 36.5399C6.08036 36.4676 5.96972 36.417 5.85218 36.3915C5.73464 36.3659 5.61297 36.3661 5.4955 36.3919C5.37803 36.4178 5.26752 36.4687 5.17154 36.5412C5.07555 36.6136 4.99636 36.706 4.93937 36.8119V36.8119Z" fill="#ED8C0C"/>
<path d="M26.7263 33.1605H22.5503C23.4363 33.1605 24.2861 33.5125 24.9126 34.139C25.5392 34.7656 25.8911 35.6153 25.8911 36.5014H30.0672C30.0672 35.6153 29.7152 34.7656 29.0887 34.139C28.4622 33.5125 27.6124 33.1605 26.7263 33.1605Z" fill="#FFA912"/>
<path d="M6.92383 1.18097L8.10482 -1.93534e-05L34.8276 26.7227L33.6466 27.9037L6.92383 1.18097Z" fill="#FA9F0C"/>
<path d="M20.88 30.6471C18.6865 30.6509 16.5138 30.2214 14.4868 29.3831C12.4598 28.5448 10.6183 27.3144 9.06825 25.7623C2.55538 19.2494 2.55538 8.65199 9.06825 2.13901C9.73021 1.47706 10.4461 0.871324 11.2085 0.328064L12.1771 1.68904C11.4904 2.17832 10.8457 2.72392 10.2495 3.32021C4.38793 9.18182 4.38793 18.7194 10.2495 24.5812C16.1112 30.4431 25.6488 30.4428 31.5105 24.5812C32.1067 23.9851 32.6523 23.3404 33.1416 22.6538L34.5025 23.6223C33.9594 24.3847 33.3537 25.1006 32.6918 25.7625C31.1417 27.3145 29.3002 28.545 27.2732 29.3832C25.2462 30.2214 23.0735 30.651 20.88 30.6471V30.6471Z" fill="#FFB531"/>
<path d="M33.4079 13.9507C33.4081 14.7922 33.3242 15.6316 33.1573 16.4563C32.7239 18.5856 31.7422 20.5649 30.3093 22.1984C29.9419 22.618 29.547 23.0128 29.1274 23.3802C27.3166 24.9667 25.087 25.9975 22.7054 26.3494C20.3238 26.7013 17.8913 26.3593 15.6991 25.3643C13.5069 24.3693 11.648 22.7636 10.3448 20.7393C9.04172 18.7151 8.34967 16.3581 8.35157 13.9507C8.35135 13.1092 8.43529 12.2698 8.60213 11.4451C9.03554 9.31579 10.0173 7.33652 11.4502 5.703C12.6672 4.31233 14.1757 3.20696 15.8685 2.46551C17.7753 1.63352 19.8592 1.28945 21.9322 1.46434C24.0053 1.63922 26.0021 2.32758 27.7426 3.46726C29.483 4.60695 30.9123 6.16209 31.9014 7.99234C32.8904 9.82258 33.4082 11.8703 33.4079 13.9507V13.9507Z" fill="#348FD9"/>
<path d="M33.4082 13.9507C33.4084 14.7922 33.3244 15.6315 33.1576 16.4563C32.7242 18.5856 31.7425 20.5649 30.3095 22.1984C29.9421 22.618 29.5473 23.0128 29.1277 23.3802C27.528 24.7794 25.5988 25.7487 23.5214 26.1969C21.444 26.6452 19.2867 26.5577 17.2524 25.9426C15.2181 25.3276 13.3737 24.2052 11.8927 22.681C10.4116 21.1568 9.3426 19.281 8.78613 17.2299C10.743 18.413 12.9869 19.0366 15.2736 19.0329C15.6662 19.0329 16.0539 19.0149 16.4367 18.9787C18.3032 18.8095 20.1075 18.2213 21.7152 17.2581C24.0544 15.8592 25.8758 13.7383 26.9054 11.2146C27.935 8.69098 28.1169 5.90119 27.4239 3.2652C29.2529 4.38473 30.7638 5.95528 31.8116 7.82633C32.8595 9.69737 33.4092 11.8062 33.4082 13.9507V13.9507Z" fill="#3086CD"/>
<path d="M24.2208 18.962L20.8799 23.1381H17.5391V20.6324L16.4366 18.9787L15.8687 18.1268V14.7859H21.7151V18.962H24.2208Z" fill="#7EB457"/>
<path d="M20.8797 9.77472H17.5388L15.8684 12.2804V14.786H12.5275L11.6923 11.4451H8.60205C9.03546 9.31585 10.0172 7.33658 11.4501 5.70306C12.6671 4.3124 14.1757 3.20702 15.8684 2.46558V6.43387H19.2092L20.8797 9.77472Z" fill="#7EB457"/>
<path d="M33.4083 13.9507C33.4085 14.7922 33.3245 15.6316 33.1577 16.4564H30.0674L27.5618 14.7859V11.4451L27.1097 10.6913L25.0562 7.26904V2.13562C27.4986 3.00047 29.6131 4.60086 31.1087 6.71665C32.6044 8.83244 33.4077 11.3597 33.4083 13.9507Z" fill="#7EB457"/>
<path d="M21.7155 18.9619H24.2212L20.8803 23.138H17.5395V20.6324L16.437 18.9787C18.3035 18.8095 20.1078 18.2213 21.7155 17.2581V18.9619Z" fill="#79AD54"/>
<path d="M33.4079 13.9507C33.4081 14.7922 33.3242 15.6315 33.1573 16.4563H30.0671L27.5614 14.7859V11.445L27.1094 10.6913C27.9574 8.30363 28.0669 5.71595 27.4236 3.2652C29.2527 4.38473 30.7635 5.95528 31.8114 7.82632C32.8593 9.69737 33.409 11.8062 33.4079 13.9507V13.9507Z" fill="#79AD54"/>
<path d="M26.1869 46.5307C26.1864 47.7356 26.5774 48.9081 27.3008 49.8716H4.74983C4.02698 48.9078 3.63623 47.7355 3.63623 46.5307C3.63623 45.326 4.02698 44.1537 4.74983 43.1899H27.3005C26.5778 44.1538 26.1869 45.326 26.1866 46.5307H26.1869Z" fill="#92563A"/>
<path d="M27.3004 43.1899C26.9218 43.6939 26.6319 44.2588 26.4433 44.8603H3.89258C4.08118 44.2588 4.37106 43.6939 4.74971 43.1899H27.3004Z" fill="#875036"/>
<path d="M43.7264 43.1899H27.3006C26.5778 44.1537 26.187 45.326 26.187 46.5307C26.187 47.7355 26.5778 48.9078 27.3006 49.8716H43.7264C43.0035 48.9078 42.6128 47.7355 42.6128 46.5307C42.6128 45.326 43.0035 44.1537 43.7264 43.1899V43.1899Z" fill="#DFCDB3"/>
<path d="M42.056 45.6955H27.0222C26.5609 45.6955 26.187 46.0694 26.187 46.5307C26.187 46.992 26.5609 47.3659 27.0222 47.3659H42.056C42.5173 47.3659 42.8912 46.992 42.8912 46.5307C42.8912 46.0694 42.5173 45.6955 42.056 45.6955Z" fill="#CEBDA5"/>
<path d="M21.5061 43.2288C21.41 43.1565 21.2994 43.1058 21.1819 43.0803C21.0644 43.0547 20.9427 43.0548 20.8252 43.0806C20.7078 43.1063 20.5973 43.1572 20.5013 43.2296C20.4052 43.302 20.326 43.3943 20.269 43.5002C19.773 44.4333 19.5137 45.4738 19.5137 46.5305C19.5137 47.5871 19.773 48.6276 20.269 49.5607C20.326 49.6666 20.4052 49.7589 20.5013 49.8313C20.5973 49.9037 20.7078 49.9546 20.8252 49.9804C20.9427 50.0061 21.0644 50.0062 21.1819 49.9806C21.2994 49.9551 21.41 49.9044 21.5061 49.8322C21.6659 49.7114 21.7772 49.5374 21.8197 49.3417C21.8622 49.146 21.8332 48.9415 21.7379 48.7654C21.3729 48.0769 21.182 47.3095 21.182 46.5302C21.182 45.7509 21.3729 44.9835 21.7379 44.295C21.833 44.1189 21.862 43.9146 21.8194 43.719C21.7769 43.5234 21.6658 43.3495 21.5061 43.2288Z" fill="#ED8C0C"/>
<path d="M8.5756 43.5005C8.07966 44.4335 7.82031 45.4741 7.82031 46.5307C7.82031 47.5874 8.07966 48.6279 8.5756 49.561C8.63264 49.6668 8.71188 49.7592 8.80789 49.8316C8.9039 49.904 9.01441 49.9548 9.13188 49.9806C9.24935 50.0064 9.371 50.0065 9.48851 49.9809C9.60602 49.9553 9.71663 49.9047 9.81276 49.8324C9.97256 49.7117 10.0838 49.5377 10.1263 49.342C10.1689 49.1463 10.1398 48.9418 10.0445 48.7656C9.67951 48.0771 9.48866 47.3097 9.48866 46.5305C9.48866 45.7512 9.67951 44.9838 10.0445 44.2953C10.1398 44.1192 10.1688 43.9148 10.1264 43.7191C10.084 43.5235 9.97284 43.3495 9.81317 43.2287C9.71702 43.1564 9.60636 43.1057 9.48879 43.0801C9.37122 43.0545 9.24951 43.0546 9.13198 43.0804C9.01446 43.1062 8.9039 43.1571 8.80787 43.2296C8.71184 43.3021 8.63261 43.3945 8.5756 43.5005V43.5005Z" fill="#ED8C0C"/>
</svg>
