<svg width="50" height="50" viewBox="0 0 50 50" fill="none" xmlns="http://www.w3.org/2000/svg">
<path d="M39.5399 47.6562H26.0848C19.5917 47.6562 15.9324 40.1953 19.9071 35.0615L20.8709 33.8164L28.9061 23.4375V7.03125C28.2845 7.03125 27.6884 6.78432 27.2488 6.34478C26.8093 5.90524 26.5623 5.3091 26.5623 4.6875C26.5623 4.0659 26.8093 3.46976 27.2488 3.03022C27.6884 2.59068 28.2845 2.34375 28.9061 2.34375H36.7186C37.3402 2.34375 37.9363 2.59068 38.3759 3.03022C38.8154 3.46976 39.0623 4.0659 39.0623 4.6875C39.0623 5.3091 38.8154 5.90524 38.3759 6.34478C37.9363 6.78432 37.3402 7.03125 36.7186 7.03125V23.4375L41.1502 29.1621L45.7176 35.0615C49.6922 40.1953 46.033 47.6562 39.5399 47.6562Z" fill="#D4E4F0"/>
<path d="M39.5399 47.6567H26.0848C19.5917 47.6567 15.9324 40.1957 19.9071 35.0619L20.8709 33.8168L23.4373 31.2504C24.4734 30.2145 25.8785 29.6325 27.3436 29.6325C28.8087 29.6325 30.2138 30.2145 31.2498 31.2504C31.7628 31.7634 32.3718 32.1704 33.042 32.448C33.7123 32.7257 34.4306 32.8686 35.1561 32.8686C35.8816 32.8686 36.5999 32.7257 37.2702 32.448C37.9404 32.1704 38.5494 31.7634 39.0623 31.2504L41.1502 29.1625L45.7176 35.0619C49.6922 40.1957 46.033 47.6567 39.5399 47.6567Z" fill="#529DDF"/>
<path d="M32.8125 7.03125H36.7188V8.59375H32.8125V7.03125Z" fill="#C1D7E6"/>
<path d="M28.125 36.7188C29.4194 36.7188 30.4688 35.6694 30.4688 34.375C30.4688 33.0806 29.4194 32.0312 28.125 32.0312C26.8306 32.0312 25.7812 33.0806 25.7812 34.375C25.7812 35.6694 26.8306 36.7188 28.125 36.7188Z" fill="#90BBDF"/>
<path d="M27.3438 43.75C28.2067 43.75 28.9062 43.0504 28.9062 42.1875C28.9062 41.3246 28.2067 40.625 27.3438 40.625C26.4808 40.625 25.7812 41.3246 25.7812 42.1875C25.7812 43.0504 26.4808 43.75 27.3438 43.75Z" fill="#90BBDF"/>
<path d="M33.5938 40.625C34.4567 40.625 35.1562 39.9254 35.1562 39.0625C35.1562 38.1996 34.4567 37.5 33.5938 37.5C32.7308 37.5 32.0312 38.1996 32.0312 39.0625C32.0312 39.9254 32.7308 40.625 33.5938 40.625Z" fill="#90BBDF"/>
<path d="M28.9062 7.03125H31.25V8.59375H28.9062V7.03125Z" fill="#C1D7E6"/>
<path d="M24.2188 11.7188C24.2189 12.1301 24.0567 12.525 23.7674 12.8175C23.4782 13.1101 23.0852 13.2767 22.6738 13.2812H22.6562V42.9688C22.6562 44.212 22.1624 45.4042 21.2833 46.2833C20.4042 47.1624 19.212 47.6562 17.9688 47.6562C16.7255 47.6562 15.5333 47.1624 14.6542 46.2833C13.7751 45.4042 13.2812 44.212 13.2812 42.9688V13.2812C12.8668 13.2812 12.4694 13.1166 12.1764 12.8236C11.8834 12.5306 11.7188 12.1332 11.7188 11.7188C11.7188 11.3043 11.8834 10.9069 12.1764 10.6139C12.4694 10.3209 12.8668 10.1563 13.2812 10.1563H22.6562C22.8615 10.1562 23.0647 10.1966 23.2543 10.2751C23.4439 10.3536 23.6161 10.4687 23.7612 10.6138C23.9063 10.7589 24.0214 10.9311 24.0999 11.1207C24.1784 11.3103 24.2188 11.5135 24.2188 11.7188V11.7188Z" fill="#D4E4F0"/>
<path d="M17.1875 13.2812H22.6562V14.8438H17.1875V13.2812Z" fill="#C1D7E6"/>
<path d="M13.2812 13.2812H15.625V14.8438H13.2812V13.2812Z" fill="#C1D7E6"/>
<path d="M22.6562 20.3123V42.9686C22.6562 44.2118 22.1624 45.4041 21.2833 46.2831C20.4042 47.1622 19.212 47.6561 17.9688 47.6561C16.7255 47.6561 15.5333 47.1622 14.6542 46.2831C13.7751 45.4041 13.2812 44.2118 13.2812 42.9686V21.8748L14.4531 20.7029C14.7096 20.4464 15.014 20.2428 15.3492 20.104C15.6843 19.9651 16.0435 19.8936 16.4062 19.8936C16.769 19.8936 17.1282 19.9651 17.4633 20.104C17.7985 20.2428 18.1029 20.4464 18.3594 20.7029C18.6158 20.9596 18.9202 21.1632 19.2554 21.3021C19.5905 21.441 19.9497 21.5125 20.3125 21.5125C20.6753 21.5125 21.0345 21.441 21.3696 21.3021C21.7048 21.1632 22.0092 20.9596 22.2656 20.7029L22.6562 20.3123Z" fill="#7AB355"/>
<path d="M17.1875 26.5625C18.0504 26.5625 18.75 25.8629 18.75 25C18.75 24.1371 18.0504 23.4375 17.1875 23.4375C16.3246 23.4375 15.625 24.1371 15.625 25C15.625 25.8629 16.3246 26.5625 17.1875 26.5625Z" fill="#A3C990"/>
<path d="M17.9688 32.0312C18.8317 32.0312 19.5312 31.3317 19.5312 30.4688C19.5312 29.6058 18.8317 28.9062 17.9688 28.9062C17.1058 28.9062 16.4062 29.6058 16.4062 30.4688C16.4062 31.3317 17.1058 32.0312 17.9688 32.0312Z" fill="#A3C990"/>
<path d="M8.59375 35.1562V44.5312C8.59375 45.3601 8.26451 46.1549 7.67846 46.741C7.09241 47.327 6.29755 47.6562 5.46875 47.6562C4.63995 47.6562 3.84509 47.327 3.25904 46.741C2.67299 46.1549 2.34375 45.3601 2.34375 44.5312V35.1562C2.34375 34.3274 2.67299 33.5326 3.25904 32.9465C3.84509 32.3605 4.63995 32.0312 5.46875 32.0312C6.29755 32.0312 7.09241 32.3605 7.67846 32.9465C8.26451 33.5326 8.59375 34.3274 8.59375 35.1562V35.1562Z" fill="#FAE7CB"/>
<path d="M8.59375 35.1562V39.8438H2.34375V35.1562C2.34375 34.3274 2.67299 33.5326 3.25904 32.9465C3.84509 32.3605 4.63995 32.0312 5.46875 32.0312C6.29755 32.0312 7.09241 32.3605 7.67846 32.9465C8.26451 33.5326 8.59375 34.3274 8.59375 35.1562V35.1562Z" fill="#529DDF"/>
<path d="M17.1874 42.1874C17.1875 43.4865 16.7252 44.7432 15.8833 45.7324C15.0414 46.7217 13.8749 47.3791 12.5926 47.5868C11.3102 47.7944 9.99586 47.5389 8.88474 46.8659C7.77363 46.1929 6.93835 45.1464 6.52844 43.9137C6.11854 42.681 6.16077 41.3427 6.64759 40.1383C7.13441 38.9339 8.03402 37.9422 9.18535 37.3406C10.3367 36.739 11.6646 36.5668 12.9313 36.8549C14.1979 37.143 15.3207 37.8726 16.0986 38.913C16.8054 39.8584 17.1874 41.0071 17.1874 42.1874Z" fill="#D4E4F0"/>
<path d="M16.0987 38.9129L8.44435 46.5671C8.02455 46.2538 7.65221 45.8815 7.33887 45.4617L14.9932 37.8074C15.413 38.1207 15.7853 38.4931 16.0987 38.9129Z" fill="#C1D7E6"/>
</svg>
