<svg width="50" height="50" viewBox="0 0 50 50" fill="none" xmlns="http://www.w3.org/2000/svg">
<path d="M25 0C11.2598 0 0 11.2598 0 25C0 38.7402 11.2598 50 25 50C38.7402 50 50 38.7402 50 25C50 11.2598 38.7402 0 25 0Z" fill="#E2E2E7"/>
<path d="M50 25C50 38.7402 38.7402 50 25 50V0C38.7402 0 50 11.2598 50 25Z" fill="#D3D3D8"/>
<path d="M46.9727 25C46.9727 37.1288 37.1288 46.9727 25 46.9727C12.8712 46.9727 3.02734 37.1288 3.02734 25C3.02734 12.8712 12.8712 3.02734 25 3.02734C37.1288 3.02734 46.9727 12.8712 46.9727 25Z" fill="#ECECF1"/>
<path d="M46.9727 25C46.9727 37.1288 37.1288 46.9727 25 46.9727V3.02734C37.1288 3.02734 46.9727 12.8712 46.9727 25Z" fill="#E2E2E7"/>
<path d="M38.8865 12.4317L38.7694 11.2304L37.5682 11.1133C37.1875 11.084 31.0058 10.4686 24.9999 11.5234C21.4549 12.1681 17.9393 13.3983 15.6837 15.6837C9.94139 21.426 9.94139 28.574 15.6837 34.3162C18.5546 37.1875 21.7772 38.623 24.9999 38.623C28.2226 38.623 31.4452 37.1875 34.3162 34.3162C40.4689 28.1643 38.9453 13.0466 38.8865 12.4317V12.4317Z" fill="#A8D32A"/>
<path d="M34.3163 34.3162C31.4453 37.1875 28.2227 38.623 25 38.623V11.5234C31.0059 10.4686 37.1876 11.084 37.5683 11.1133L38.7695 11.2304L38.8866 12.4317C38.9454 13.0466 40.469 28.1643 34.3163 34.3162V34.3162Z" fill="#93BF00"/>
<path d="M27.7243 24.3557L31.6797 25.6737L30.7421 28.4569L25.4099 26.6701L23.5643 28.5156L24.9998 28.9845L27.5488 29.834L26.6111 32.6172L24.9998 32.09L21.2496 30.83C18.2615 33.8185 16.7086 36.924 18.115 41.1133L15.3318 42.0216C13.7792 37.4512 14.834 33.086 19.1698 28.7502L17.3826 23.3887L20.1658 22.451L21.4842 26.4355L23.3297 24.5899L21.5429 19.2578L24.3261 18.3205L24.9998 20.3419L25.6441 22.2756L30.1851 17.7639L32.2359 19.8147L27.7243 24.3557Z" fill="#93BF00"/>
<path d="M25 28.9845L27.549 29.834L26.6113 32.6172L25 32.0897V28.9845Z" fill="#81A713"/>
<path d="M27.7245 24.3557L31.6799 25.6737L30.7423 28.4569L25.4101 26.6701L25 27.0802V20.3419L25.6443 22.2756L30.1857 17.7639L32.2361 19.8143L27.7245 24.3557Z" fill="#81A713"/>
</svg>
