<svg width="205" height="60" viewBox="0 0 205 60" fill="none" xmlns="http://www.w3.org/2000/svg">
<path d="M94.956 26.148C95.94 26.148 96.636 26.052 97.044 25.86C97.452 25.668 97.656 25.296 97.656 24.744C97.656 24.312 97.392 23.94 96.864 23.628C96.336 23.292 95.532 22.92 94.452 22.512C93.612 22.2 92.844 21.876 92.148 21.54C91.476 21.204 90.9 20.808 90.42 20.352C89.94 19.872 89.568 19.308 89.304 18.66C89.04 18.012 88.908 17.232 88.908 16.32C88.908 14.544 89.568 13.14 90.888 12.108C92.208 11.076 94.02 10.56 96.324 10.56C97.476 10.56 98.58 10.668 99.636 10.884C100.692 11.076 101.532 11.292 102.156 11.532L101.22 15.708C100.596 15.492 99.912 15.3 99.168 15.132C98.448 14.964 97.632 14.88 96.72 14.88C95.04 14.88 94.2 15.348 94.2 16.284C94.2 16.5 94.236 16.692 94.308 16.86C94.38 17.028 94.524 17.196 94.74 17.364C94.956 17.508 95.244 17.676 95.604 17.868C95.988 18.036 96.468 18.228 97.044 18.444C98.22 18.876 99.192 19.308 99.96 19.74C100.728 20.148 101.328 20.604 101.76 21.108C102.216 21.588 102.528 22.128 102.696 22.728C102.888 23.328 102.984 24.024 102.984 24.816C102.984 26.688 102.276 28.104 100.86 29.064C99.468 30.024 97.488 30.504 94.92 30.504C93.24 30.504 91.836 30.36 90.708 30.072C89.604 29.784 88.836 29.544 88.404 29.352L89.304 24.996C90.216 25.356 91.152 25.644 92.112 25.86C93.072 26.052 94.02 26.148 94.956 26.148ZM112.357 30H106.993V11.064H112.357V30ZM112.861 5.592C112.861 6.576 112.537 7.356 111.889 7.932C111.265 8.484 110.521 8.76 109.657 8.76C108.793 8.76 108.037 8.484 107.389 7.932C106.765 7.356 106.453 6.576 106.453 5.592C106.453 4.608 106.765 3.84 107.389 3.288C108.037 2.712 108.793 2.424 109.657 2.424C110.521 2.424 111.265 2.712 111.889 3.288C112.537 3.84 112.861 4.608 112.861 5.592ZM122.835 26.148C123.819 26.148 124.515 26.052 124.923 25.86C125.331 25.668 125.535 25.296 125.535 24.744C125.535 24.312 125.271 23.94 124.743 23.628C124.215 23.292 123.411 22.92 122.331 22.512C121.491 22.2 120.723 21.876 120.027 21.54C119.355 21.204 118.779 20.808 118.299 20.352C117.819 19.872 117.447 19.308 117.183 18.66C116.919 18.012 116.787 17.232 116.787 16.32C116.787 14.544 117.447 13.14 118.767 12.108C120.087 11.076 121.899 10.56 124.203 10.56C125.355 10.56 126.459 10.668 127.515 10.884C128.571 11.076 129.411 11.292 130.035 11.532L129.099 15.708C128.475 15.492 127.791 15.3 127.047 15.132C126.327 14.964 125.511 14.88 124.599 14.88C122.919 14.88 122.079 15.348 122.079 16.284C122.079 16.5 122.115 16.692 122.187 16.86C122.259 17.028 122.403 17.196 122.619 17.364C122.835 17.508 123.123 17.676 123.483 17.868C123.867 18.036 124.347 18.228 124.923 18.444C126.099 18.876 127.071 19.308 127.839 19.74C128.607 20.148 129.207 20.604 129.639 21.108C130.095 21.588 130.407 22.128 130.575 22.728C130.767 23.328 130.863 24.024 130.863 24.816C130.863 26.688 130.155 28.104 128.739 29.064C127.347 30.024 125.367 30.504 122.799 30.504C121.119 30.504 119.715 30.36 118.587 30.072C117.483 29.784 116.715 29.544 116.283 29.352L117.183 24.996C118.095 25.356 119.031 25.644 119.991 25.86C120.951 26.052 121.899 26.148 122.835 26.148ZM146.392 19.128C145.912 20.952 145.396 22.764 144.844 24.564C144.316 26.364 143.752 28.176 143.152 30H138.976C138.544 28.992 138.076 27.792 137.572 26.4C137.068 25.008 136.54 23.496 135.988 21.864C135.46 20.208 134.908 18.468 134.332 16.644C133.78 14.796 133.24 12.936 132.712 11.064H138.364C138.556 11.928 138.76 12.876 138.976 13.908C139.216 14.916 139.456 15.96 139.696 17.04C139.96 18.12 140.224 19.212 140.488 20.316C140.776 21.396 141.064 22.44 141.352 23.448C141.664 22.392 141.964 21.312 142.252 20.208C142.564 19.104 142.852 18.024 143.116 16.968C143.404 15.888 143.668 14.856 143.908 13.872C144.172 12.864 144.4 11.928 144.592 11.064H148.48C148.672 11.928 148.888 12.864 149.128 13.872C149.368 14.856 149.62 15.888 149.884 16.968C150.148 18.024 150.424 19.104 150.712 20.208C151 21.312 151.3 22.392 151.612 23.448C151.9 22.44 152.188 21.396 152.476 20.316C152.764 19.212 153.028 18.12 153.268 17.04C153.532 15.96 153.772 14.916 153.988 13.908C154.228 12.876 154.444 11.928 154.636 11.064H160.216C159.688 12.936 159.136 14.796 158.56 16.644C158.008 18.468 157.456 20.208 156.904 21.864C156.376 23.496 155.848 25.008 155.32 26.4C154.816 27.792 154.348 28.992 153.916 30H149.74C149.14 28.176 148.552 26.364 147.976 24.564C147.4 22.764 146.872 20.952 146.392 19.128ZM169.986 26.256C170.514 26.256 171.018 26.244 171.498 26.22C171.978 26.196 172.362 26.16 172.65 26.112V22.044C172.434 21.996 172.11 21.948 171.678 21.9C171.246 21.852 170.85 21.828 170.49 21.828C169.986 21.828 169.506 21.864 169.05 21.936C168.618 21.984 168.234 22.092 167.898 22.26C167.562 22.428 167.298 22.656 167.106 22.944C166.914 23.232 166.818 23.592 166.818 24.024C166.818 24.864 167.094 25.452 167.646 25.788C168.222 26.1 169.002 26.256 169.986 26.256ZM169.554 10.56C171.138 10.56 172.458 10.74 173.514 11.1C174.57 11.46 175.41 11.976 176.034 12.648C176.682 13.32 177.138 14.136 177.402 15.096C177.666 16.056 177.798 17.124 177.798 18.3V29.46C177.03 29.628 175.962 29.82 174.594 30.036C173.226 30.276 171.57 30.396 169.626 30.396C168.402 30.396 167.286 30.288 166.278 30.072C165.294 29.856 164.442 29.508 163.722 29.028C163.002 28.524 162.45 27.876 162.066 27.084C161.682 26.292 161.49 25.32 161.49 24.168C161.49 23.064 161.706 22.128 162.138 21.36C162.594 20.592 163.194 19.98 163.938 19.524C164.682 19.068 165.534 18.744 166.494 18.552C167.454 18.336 168.45 18.228 169.482 18.228C170.178 18.228 170.79 18.264 171.318 18.336C171.87 18.384 172.314 18.456 172.65 18.552V18.048C172.65 17.136 172.374 16.404 171.822 15.852C171.27 15.3 170.31 15.024 168.942 15.024C168.03 15.024 167.13 15.096 166.242 15.24C165.354 15.36 164.586 15.54 163.938 15.78L163.254 11.46C163.566 11.364 163.95 11.268 164.406 11.172C164.886 11.052 165.402 10.956 165.954 10.884C166.506 10.788 167.082 10.716 167.682 10.668C168.306 10.596 168.93 10.56 169.554 10.56Z" fill="black"/>
<path d="M93.528 41.7154C93.72 41.7154 93.936 41.7314 94.176 41.7634C94.432 41.7794 94.68 41.8114 94.92 41.8594C95.16 41.8914 95.376 41.9314 95.568 41.9794C95.776 42.0114 95.928 42.0434 96.024 42.0754L95.64 44.0194C95.464 43.9554 95.168 43.8834 94.752 43.8034C94.352 43.7074 93.832 43.6594 93.192 43.6594C92.776 43.6594 92.36 43.7074 91.944 43.8034C91.544 43.8834 91.28 43.9394 91.152 43.9714V54.4594H88.92V42.5074C89.448 42.3154 90.104 42.1394 90.888 41.9794C91.672 41.8034 92.552 41.7154 93.528 41.7154ZM102.402 52.8514C102.93 52.8514 103.394 52.8434 103.794 52.8274C104.21 52.7954 104.554 52.7474 104.826 52.6834V48.9634C104.666 48.8834 104.402 48.8194 104.034 48.7714C103.682 48.7074 103.25 48.6754 102.738 48.6754C102.402 48.6754 102.042 48.6994 101.658 48.7474C101.29 48.7954 100.946 48.8994 100.626 49.0594C100.322 49.2034 100.066 49.4114 99.8578 49.6834C99.6498 49.9394 99.5458 50.2834 99.5458 50.7154C99.5458 51.5154 99.8018 52.0754 100.314 52.3954C100.826 52.6994 101.522 52.8514 102.402 52.8514ZM102.21 41.6674C103.106 41.6674 103.858 41.7874 104.466 42.0274C105.09 42.2514 105.586 42.5794 105.954 43.0114C106.338 43.4274 106.61 43.9314 106.77 44.5234C106.93 45.0994 107.01 45.7394 107.01 46.4434V54.2434C106.818 54.2754 106.546 54.3234 106.194 54.3874C105.858 54.4354 105.474 54.4834 105.042 54.5314C104.61 54.5794 104.138 54.6194 103.626 54.6514C103.13 54.6994 102.634 54.7234 102.138 54.7234C101.434 54.7234 100.786 54.6514 100.194 54.5074C99.6018 54.3634 99.0898 54.1394 98.6578 53.8354C98.2258 53.5154 97.8898 53.0994 97.6498 52.5874C97.4098 52.0754 97.2898 51.4594 97.2898 50.7394C97.2898 50.0514 97.4258 49.4594 97.6978 48.9634C97.9858 48.4674 98.3698 48.0674 98.8498 47.7634C99.3298 47.4594 99.8898 47.2354 100.53 47.0914C101.17 46.9474 101.842 46.8754 102.546 46.8754C102.77 46.8754 103.002 46.8914 103.242 46.9234C103.482 46.9394 103.706 46.9714 103.914 47.0194C104.138 47.0514 104.33 47.0834 104.49 47.1154C104.65 47.1474 104.762 47.1714 104.826 47.1874V46.5634C104.826 46.1954 104.786 45.8354 104.706 45.4834C104.626 45.1154 104.482 44.7954 104.274 44.5234C104.066 44.2354 103.778 44.0114 103.41 43.8514C103.058 43.6754 102.594 43.5874 102.018 43.5874C101.282 43.5874 100.634 43.6434 100.074 43.7554C99.5298 43.8514 99.1218 43.9554 98.8498 44.0674L98.5858 42.2194C98.8738 42.0914 99.3538 41.9714 100.026 41.8594C100.698 41.7314 101.426 41.6674 102.21 41.6674ZM108.677 58.9474C108.485 58.9474 108.237 58.9234 107.933 58.8754C107.629 58.8274 107.373 58.7634 107.165 58.6834L107.453 56.8594C107.613 56.9074 107.797 56.9474 108.005 56.9794C108.213 57.0114 108.405 57.0274 108.581 57.0274C109.349 57.0274 109.893 56.7874 110.213 56.3074C110.549 55.8434 110.717 55.1554 110.717 54.2434V41.9794H112.949V54.2194C112.949 55.8194 112.581 57.0034 111.845 57.7714C111.125 58.5554 110.069 58.9474 108.677 58.9474ZM111.821 39.7234C111.421 39.7234 111.077 39.5954 110.789 39.3394C110.517 39.0674 110.381 38.7074 110.381 38.2594C110.381 37.8114 110.517 37.4594 110.789 37.2034C111.077 36.9314 111.421 36.7954 111.821 36.7954C112.221 36.7954 112.557 36.9314 112.829 37.2034C113.117 37.4594 113.261 37.8114 113.261 38.2594C113.261 38.7074 113.117 39.0674 112.829 39.3394C112.557 39.5954 112.221 39.7234 111.821 39.7234ZM119.019 54.4594H116.787V41.9794H119.019V54.4594ZM117.891 39.7234C117.491 39.7234 117.147 39.5954 116.859 39.3394C116.587 39.0674 116.451 38.7074 116.451 38.2594C116.451 37.8114 116.587 37.4594 116.859 37.2034C117.147 36.9314 117.491 36.7954 117.891 36.7954C118.291 36.7954 118.627 36.9314 118.899 37.2034C119.187 37.4594 119.331 37.8114 119.331 38.2594C119.331 38.7074 119.187 39.0674 118.899 39.3394C118.627 39.5954 118.291 39.7234 117.891 39.7234ZM122.857 42.3394C123.369 42.2114 124.049 42.0754 124.897 41.9314C125.745 41.7874 126.721 41.7154 127.825 41.7154C128.817 41.7154 129.641 41.8594 130.297 42.1474C130.953 42.4194 131.473 42.8114 131.857 43.3234C132.257 43.8194 132.537 44.4194 132.697 45.1234C132.857 45.8274 132.937 46.6034 132.937 47.4514V54.4594H130.705V47.9314C130.705 47.1634 130.649 46.5074 130.537 45.9634C130.441 45.4194 130.273 44.9794 130.033 44.6434C129.793 44.3074 129.473 44.0674 129.073 43.9234C128.673 43.7634 128.177 43.6834 127.585 43.6834C127.345 43.6834 127.097 43.6914 126.841 43.7074C126.585 43.7234 126.337 43.7474 126.097 43.7794C125.873 43.7954 125.665 43.8194 125.473 43.8514C125.297 43.8834 125.169 43.9074 125.089 43.9234V54.4594H122.857V42.3394ZM139.279 53.1634C139.279 53.5954 139.135 53.9714 138.847 54.2914C138.559 54.6114 138.167 54.7714 137.671 54.7714C137.175 54.7714 136.783 54.6114 136.495 54.2914C136.207 53.9714 136.063 53.5954 136.063 53.1634C136.063 52.7314 136.207 52.3554 136.495 52.0354C136.783 51.7154 137.175 51.5554 137.671 51.5554C138.167 51.5554 138.559 51.7154 138.847 52.0354C139.135 52.3554 139.279 52.7314 139.279 53.1634ZM147.969 54.7474C146.961 54.7474 146.073 54.5874 145.305 54.2674C144.553 53.9474 143.913 53.4994 143.385 52.9234C142.873 52.3474 142.489 51.6674 142.233 50.8834C141.977 50.0834 141.849 49.2034 141.849 48.2434C141.849 47.2834 141.985 46.4034 142.257 45.6034C142.545 44.8034 142.945 44.1154 143.457 43.5394C143.969 42.9474 144.593 42.4914 145.329 42.1714C146.081 41.8354 146.913 41.6674 147.825 41.6674C148.385 41.6674 148.945 41.7154 149.505 41.8114C150.065 41.9074 150.601 42.0594 151.113 42.2674L150.609 44.1634C150.273 44.0034 149.881 43.8754 149.433 43.7794C149.001 43.6834 148.537 43.6354 148.041 43.6354C146.793 43.6354 145.833 44.0274 145.161 44.8114C144.505 45.5954 144.177 46.7394 144.177 48.2434C144.177 48.9154 144.249 49.5314 144.393 50.0914C144.553 50.6514 144.793 51.1314 145.113 51.5314C145.449 51.9314 145.873 52.2434 146.385 52.4674C146.897 52.6754 147.521 52.7794 148.257 52.7794C148.849 52.7794 149.385 52.7234 149.865 52.6114C150.345 52.4994 150.721 52.3794 150.993 52.2514L151.305 54.1234C151.177 54.2034 150.993 54.2834 150.753 54.3634C150.513 54.4274 150.241 54.4834 149.937 54.5314C149.633 54.5954 149.305 54.6434 148.953 54.6754C148.617 54.7234 148.289 54.7474 147.969 54.7474ZM164.413 48.2194C164.413 49.2114 164.269 50.1074 163.981 50.9074C163.693 51.7074 163.285 52.3954 162.757 52.9714C162.245 53.5474 161.629 53.9954 160.909 54.3154C160.189 54.6194 159.405 54.7714 158.557 54.7714C157.709 54.7714 156.925 54.6194 156.205 54.3154C155.485 53.9954 154.861 53.5474 154.333 52.9714C153.821 52.3954 153.421 51.7074 153.133 50.9074C152.845 50.1074 152.701 49.2114 152.701 48.2194C152.701 47.2434 152.845 46.3554 153.133 45.5554C153.421 44.7394 153.821 44.0434 154.333 43.4674C154.861 42.8914 155.485 42.4514 156.205 42.1474C156.925 41.8274 157.709 41.6674 158.557 41.6674C159.405 41.6674 160.189 41.8274 160.909 42.1474C161.629 42.4514 162.245 42.8914 162.757 43.4674C163.285 44.0434 163.693 44.7394 163.981 45.5554C164.269 46.3554 164.413 47.2434 164.413 48.2194ZM162.085 48.2194C162.085 46.8114 161.765 45.6994 161.125 44.8834C160.501 44.0514 159.645 43.6354 158.557 43.6354C157.469 43.6354 156.605 44.0514 155.965 44.8834C155.341 45.6994 155.029 46.8114 155.029 48.2194C155.029 49.6274 155.341 50.7474 155.965 51.5794C156.605 52.3954 157.469 52.8034 158.557 52.8034C159.645 52.8034 160.501 52.3954 161.125 51.5794C161.765 50.7474 162.085 49.6274 162.085 48.2194ZM167.553 42.3394C168.065 42.2114 168.737 42.0754 169.569 41.9314C170.417 41.7874 171.393 41.7154 172.497 41.7154C173.297 41.7154 173.969 41.8274 174.513 42.0514C175.057 42.2594 175.513 42.5714 175.881 42.9874C175.993 42.9074 176.169 42.7954 176.409 42.6514C176.649 42.5074 176.945 42.3714 177.297 42.2434C177.649 42.0994 178.041 41.9794 178.473 41.8834C178.905 41.7714 179.369 41.7154 179.865 41.7154C180.825 41.7154 181.609 41.8594 182.217 42.1474C182.825 42.4194 183.297 42.8114 183.633 43.3234C183.985 43.8354 184.217 44.4434 184.329 45.1474C184.457 45.8514 184.521 46.6194 184.521 47.4514V54.4594H182.289V47.9314C182.289 47.1954 182.249 46.5634 182.169 46.0354C182.105 45.5074 181.969 45.0674 181.761 44.7154C181.569 44.3634 181.297 44.1074 180.945 43.9474C180.609 43.7714 180.169 43.6834 179.625 43.6834C178.873 43.6834 178.249 43.7874 177.753 43.9954C177.273 44.1874 176.945 44.3634 176.769 44.5234C176.897 44.9394 176.993 45.3954 177.057 45.8914C177.121 46.3874 177.153 46.9074 177.153 47.4514V54.4594H174.921V47.9314C174.921 47.1954 174.881 46.5634 174.801 46.0354C174.721 45.5074 174.577 45.0674 174.369 44.7154C174.177 44.3634 173.905 44.1074 173.553 43.9474C173.217 43.7714 172.785 43.6834 172.257 43.6834C172.033 43.6834 171.793 43.6914 171.537 43.7074C171.281 43.7234 171.033 43.7474 170.793 43.7794C170.569 43.7954 170.361 43.8194 170.169 43.8514C169.977 43.8834 169.849 43.9074 169.785 43.9234V54.4594H167.553V42.3394Z" fill="black"/>
<path d="M54.8478 38.4587L55.2339 38.8124C57.4664 35.0009 57.041 31.2257 56.9617 30.6179C62.9392 30.063 62.5697 27.5863 62.5697 27.5863C59.6404 27.1763 57.9825 28.8411 57.2516 29.8708C57.8231 28.6587 58.9504 26.1249 59.542 23.8763C60.5141 23.3755 61.003 21.9021 61.1087 20.901C61.2757 19.31 60.7754 17.8814 59.7367 16.6739C59.6494 16.5738 59.5057 16.5239 59.3881 16.6122C58.4211 17.3312 57.9983 18.5578 58.0549 19.7439C58.0839 20.3763 58.2067 20.9679 58.4189 21.5641C58.6644 22.2482 58.7953 22.9906 59.1 23.6483C58.5758 25.6621 57.5704 28.0526 56.8548 29.581C56.8232 29.2332 56.7862 28.885 56.7457 28.5338C56.4529 26.0635 55.6844 23.7991 54.7996 21.6277C57.873 16.3995 55.6316 15.2521 55.6316 15.2521C53.957 17.0111 53.9174 18.8868 54.1859 20.1624C54.0303 19.8005 53.8735 19.4421 53.7171 19.0841C53.192 17.8775 52.6725 16.6884 52.2301 15.4964C53.0842 15.0506 53.365 14.0268 53.6971 13.165C54.0973 12.126 54.3551 11.1048 54.3052 9.9839C54.2976 9.82791 54.1262 9.73883 53.9869 9.78443C52.1649 10.3837 51.9577 12.7721 51.8874 14.5144C51.1258 12.2112 50.7175 9.88289 51.1663 7.39942C52.0711 5.87534 54.2754 5.1397 54.3918 3.17961C54.4386 2.40692 54.5537 0.746877 53.7316 0.267829C52.8425 -0.246593 51.6526 1.26641 51.2332 1.89122C50.215 3.40976 50.2559 5.28122 50.7205 6.98005C50.7247 6.99582 50.7333 7.00562 50.7392 7.01926C50.426 8.53525 50.4217 9.99114 50.6263 11.4121C48.1309 6.87562 46.1567 7.99908 46.1567 7.99908C46.9542 11.41 49.8212 12.1102 50.7703 12.25C51.0303 13.5533 51.4523 14.8332 51.9471 16.1143C50.8722 14.7309 49.3059 13.8052 47.4682 13.5533C47.287 13.5273 47.1464 13.6986 47.2052 13.8708C48.0793 16.4911 50.585 17.8571 53.0011 18.8821C53.0394 18.8978 53.0752 18.9043 53.1089 18.9021C53.1647 19.0274 53.2184 19.1519 53.2726 19.2776C54.2733 21.5705 55.294 23.9266 55.8826 26.4676C53.432 22.1327 51.5098 23.2263 51.5098 23.2263C52.3 26.6044 55.1163 27.3247 56.094 27.4734C56.1601 27.8425 56.221 28.2133 56.2636 28.5909C56.4077 29.7962 56.4925 30.9883 56.5253 32.1616L56.5262 32.1629C56.4955 33.7015 56.2679 36.0319 54.8478 38.4587" fill="black"/>
<path d="M46.1572 46.6446L46.6618 46.9933C48.6142 42.2501 47.5061 37.9574 47.313 37.2691C54.1288 35.7075 53.2956 32.9065 53.2956 32.9065C49.8438 32.8844 48.2008 35.061 47.5274 36.3622C47.9864 34.8752 48.8733 31.778 49.1887 29.0912C50.2303 28.3624 50.553 26.5873 50.5104 25.4152C50.4439 23.5527 49.6311 21.9809 48.2332 20.7483C48.1164 20.6452 47.9421 20.6107 47.821 20.73C46.8208 21.7086 46.5339 23.1888 46.7935 24.5505C46.9311 25.2763 47.169 25.939 47.5133 26.5949C47.9076 27.3472 48.1816 28.1834 48.6411 28.8964C48.3666 31.301 47.5964 34.2137 47.0211 36.089C46.9256 35.6926 46.8276 35.2958 46.7223 34.8973C45.979 32.0912 44.7196 29.5958 43.3413 27.2257C46.0361 20.7177 43.2573 19.7387 43.2573 19.7387C41.6105 22.0278 41.8739 24.1976 42.393 25.6296C42.1543 25.2362 41.9131 24.8458 41.6744 24.4571C40.8693 23.1457 40.0744 21.8526 39.3674 20.5459C40.2807 19.9002 40.4367 18.674 40.6796 17.6286C40.9729 16.3679 41.1012 15.1485 40.8599 13.8631C40.8267 13.6824 40.614 13.6078 40.461 13.6815C38.454 14.6545 38.6066 17.4436 38.8116 19.4651C37.5526 16.9245 36.6985 14.2995 36.8106 11.3647C37.6063 9.46558 40.0323 8.27605 39.846 5.99503C39.7718 5.09703 39.635 3.16252 38.6045 2.73846C37.4942 2.27944 36.3657 4.21097 35.9846 4.9956C35.0572 6.90626 35.4118 9.0594 36.2263 10.9487C36.2331 10.9666 36.2468 10.9765 36.2561 10.9909C36.1406 12.7895 36.3755 14.4696 36.8447 16.0785C33.2178 11.2279 31.1226 12.8287 31.1226 12.8287C32.6027 16.6424 36.0298 17.0089 37.1482 17.0234C37.6613 18.4878 38.3603 19.9006 39.1419 21.302C37.6737 19.8717 35.7119 19.0444 33.5476 19.0367C33.335 19.0354 33.202 19.2541 33.2966 19.4438C34.7346 22.3338 37.8552 23.5242 40.8143 24.3352C40.8604 24.3472 40.903 24.348 40.9418 24.3408C41.0249 24.4767 41.1084 24.6127 41.1928 24.7491C42.7246 27.2411 44.2908 29.8034 45.387 32.6465C41.8449 28.0197 39.8038 29.5783 39.8038 29.5783C41.2687 33.3557 44.6425 33.7525 45.7953 33.7738C45.9317 34.1894 46.0634 34.6083 46.1751 35.0375C46.5386 36.4069 46.8335 37.7686 47.0624 39.118L47.0654 39.1192C47.2828 40.8999 47.4004 43.625 46.1572 46.6446" fill="black"/>
<path d="M16.9684 21.854C16.769 21.7999 26.2834 20.0781 26.2834 20.0781C45.8528 25.9946 39.5331 48.5899 39.5331 48.5899C39.5331 48.5899 32.8187 26.3266 16.9684 21.854Z" fill="black"/>
<path d="M9.3496 27.1946L39.4299 49.6813L69.5345 24.2134L72.2004 27.4606C67.5706 31.0142 53.9284 43.4124 53.9284 43.4124L73.3694 29.1982L76.5953 32.6197C75.1893 33.7317 48.1154 55.6268 39.7347 56.5401C35.5929 56.9915 5.92219 33.8557 4.2124 32.6355L9.3496 27.1946" fill="black"/>
<path d="M12.9156 25.9582L23.9137 33.9069C23.7722 33.6724 18.4546 28.6761 15.1026 25.5371L19.8877 24.6149C19.8877 24.6149 23.779 26.8758 26.6725 30.0041C33.2103 37.0692 39.1469 48.6755 39.1469 48.6755C39.1469 48.6755 34.434 45.1811 32.7377 43.7917C31.0406 42.4023 25.0312 37.7605 19.9409 33.877C14.852 29.9943 10.3198 26.459 10.3198 26.459L12.9156 25.9582" fill="black"/>
<path d="M34.5147 56.8496C34.4248 56.7298 34.3357 56.608 34.2496 56.4788C34.025 56.1489 33.9031 55.9282 33.9031 55.9282L0 33.8204L1.32373 31.7908L36.8409 54.9492C36.8409 54.9492 37.5723 55.4176 38.6693 55.669C39.7284 55.8685 41.1958 55.8212 42.9322 54.9236C42.9769 54.895 43.0199 54.8737 43.063 54.8426L43.0707 54.8563L43.063 54.8418L76.5247 31.3565L77.7837 33.1764L52.1155 51.4522L52.1163 51.4526L46.037 55.718C46.037 55.718 44.2947 59.9072 40.0387 59.9992C37.6797 60.0397 35.9318 58.5395 34.9162 57.3491C34.8041 57.2208 34.6937 57.0832 34.585 56.9421C34.5616 56.911 34.5373 56.8799 34.5147 56.8496" fill="black"/>
</svg>
